<?xml version="1.0" encoding="utf-8" standalone="no"?>
<!DOCTYPE svg PUBLIC "-//W3C//DTD SVG 1.1//EN"
  "http://www.w3.org/Graphics/SVG/1.1/DTD/svg11.dtd">
<!-- Created with matplotlib (http://matplotlib.org/) -->
<svg height="936pt" version="1.1" viewBox="0 0 2016 936" width="2016pt" xmlns="http://www.w3.org/2000/svg" xmlns:xlink="http://www.w3.org/1999/xlink">
 <defs>
  <style type="text/css">
*{stroke-linecap:butt;stroke-linejoin:round;}
  </style>
 </defs>
 <g id="figure_1">
  <g id="patch_1">
   <path d="M 0 936 
L 2016 936 
L 2016 0 
L 0 0 
z
" style="fill:#ffffff;"/>
  </g>
  <g id="axes_1">
   <g id="patch_2">
    <path d="M 252 833.04 
L 962.181818 833.04 
L 962.181818 112.32 
L 252 112.32 
z
" style="fill:#ffffff;"/>
   </g>
   <g id="matplotlib.axis_1">
    <g id="xtick_1">
     <g id="line2d_1">
      <defs>
       <path d="M 0 0 
L 0 3.5 
" id="m61d333ef9f" style="stroke:#000000;stroke-width:0.8;"/>
      </defs>
      <g>
       <use style="stroke:#000000;stroke-width:0.8;" x="284.280992" xlink:href="#m61d333ef9f" y="833.04"/>
      </g>
     </g>
     <g id="text_1">
      <!-- 98.0 -->
      <defs>
       <path d="M 10.984375 1.515625 
L 10.984375 10.5 
Q 14.703125 8.734375 18.5 7.8125 
Q 22.3125 6.890625 25.984375 6.890625 
Q 35.75 6.890625 40.890625 13.453125 
Q 46.046875 20.015625 46.78125 33.40625 
Q 43.953125 29.203125 39.59375 26.953125 
Q 35.25 24.703125 29.984375 24.703125 
Q 19.046875 24.703125 12.671875 31.3125 
Q 6.296875 37.9375 6.296875 49.421875 
Q 6.296875 60.640625 12.9375 67.421875 
Q 19.578125 74.21875 30.609375 74.21875 
Q 43.265625 74.21875 49.921875 64.515625 
Q 56.59375 54.828125 56.59375 36.375 
Q 56.59375 19.140625 48.40625 8.859375 
Q 40.234375 -1.421875 26.421875 -1.421875 
Q 22.703125 -1.421875 18.890625 -0.6875 
Q 15.09375 0.046875 10.984375 1.515625 
z
M 30.609375 32.421875 
Q 37.25 32.421875 41.125 36.953125 
Q 45.015625 41.5 45.015625 49.421875 
Q 45.015625 57.28125 41.125 61.84375 
Q 37.25 66.40625 30.609375 66.40625 
Q 23.96875 66.40625 20.09375 61.84375 
Q 16.21875 57.28125 16.21875 49.421875 
Q 16.21875 41.5 20.09375 36.953125 
Q 23.96875 32.421875 30.609375 32.421875 
z
" id="DejaVuSans-39"/>
       <path d="M 31.78125 34.625 
Q 24.75 34.625 20.71875 30.859375 
Q 16.703125 27.09375 16.703125 20.515625 
Q 16.703125 13.921875 20.71875 10.15625 
Q 24.75 6.390625 31.78125 6.390625 
Q 38.8125 6.390625 42.859375 10.171875 
Q 46.921875 13.96875 46.921875 20.515625 
Q 46.921875 27.09375 42.890625 30.859375 
Q 38.875 34.625 31.78125 34.625 
z
M 21.921875 38.8125 
Q 15.578125 40.375 12.03125 44.71875 
Q 8.5 49.078125 8.5 55.328125 
Q 8.5 64.0625 14.71875 69.140625 
Q 20.953125 74.21875 31.78125 74.21875 
Q 42.671875 74.21875 48.875 69.140625 
Q 55.078125 64.0625 55.078125 55.328125 
Q 55.078125 49.078125 51.53125 44.71875 
Q 48 40.375 41.703125 38.8125 
Q 48.828125 37.15625 52.796875 32.3125 
Q 56.78125 27.484375 56.78125 20.515625 
Q 56.78125 9.90625 50.3125 4.234375 
Q 43.84375 -1.421875 31.78125 -1.421875 
Q 19.734375 -1.421875 13.25 4.234375 
Q 6.78125 9.90625 6.78125 20.515625 
Q 6.78125 27.484375 10.78125 32.3125 
Q 14.796875 37.15625 21.921875 38.8125 
z
M 18.3125 54.390625 
Q 18.3125 48.734375 21.84375 45.5625 
Q 25.390625 42.390625 31.78125 42.390625 
Q 38.140625 42.390625 41.71875 45.5625 
Q 45.3125 48.734375 45.3125 54.390625 
Q 45.3125 60.0625 41.71875 63.234375 
Q 38.140625 66.40625 31.78125 66.40625 
Q 25.390625 66.40625 21.84375 63.234375 
Q 18.3125 60.0625 18.3125 54.390625 
z
" id="DejaVuSans-38"/>
       <path d="M 10.6875 12.40625 
L 21 12.40625 
L 21 0 
L 10.6875 0 
z
" id="DejaVuSans-2e"/>
       <path d="M 31.78125 66.40625 
Q 24.171875 66.40625 20.328125 58.90625 
Q 16.5 51.421875 16.5 36.375 
Q 16.5 21.390625 20.328125 13.890625 
Q 24.171875 6.390625 31.78125 6.390625 
Q 39.453125 6.390625 43.28125 13.890625 
Q 47.125 21.390625 47.125 36.375 
Q 47.125 51.421875 43.28125 58.90625 
Q 39.453125 66.40625 31.78125 66.40625 
z
M 31.78125 74.21875 
Q 44.046875 74.21875 50.515625 64.515625 
Q 56.984375 54.828125 56.984375 36.375 
Q 56.984375 17.96875 50.515625 8.265625 
Q 44.046875 -1.421875 31.78125 -1.421875 
Q 19.53125 -1.421875 13.0625 8.265625 
Q 6.59375 17.96875 6.59375 36.375 
Q 6.59375 54.828125 13.0625 64.515625 
Q 19.53125 74.21875 31.78125 74.21875 
z
" id="DejaVuSans-30"/>
      </defs>
      <g transform="translate(264.241929 853.717188)scale(0.18 -0.18)">
       <use xlink:href="#DejaVuSans-39"/>
       <use x="63.623047" xlink:href="#DejaVuSans-38"/>
       <use x="127.246094" xlink:href="#DejaVuSans-2e"/>
       <use x="159.033203" xlink:href="#DejaVuSans-30"/>
      </g>
     </g>
    </g>
    <g id="xtick_2">
     <g id="line2d_2">
      <g>
       <use style="stroke:#000000;stroke-width:0.8;" x="373.916574" xlink:href="#m61d333ef9f" y="833.04"/>
      </g>
     </g>
     <g id="text_2">
      <!-- 98.5 -->
      <defs>
       <path d="M 10.796875 72.90625 
L 49.515625 72.90625 
L 49.515625 64.59375 
L 19.828125 64.59375 
L 19.828125 46.734375 
Q 21.96875 47.46875 24.109375 47.828125 
Q 26.265625 48.1875 28.421875 48.1875 
Q 40.625 48.1875 47.75 41.5 
Q 54.890625 34.8125 54.890625 23.390625 
Q 54.890625 11.625 47.5625 5.09375 
Q 40.234375 -1.421875 26.90625 -1.421875 
Q 22.3125 -1.421875 17.546875 -0.640625 
Q 12.796875 0.140625 7.71875 1.703125 
L 7.71875 11.625 
Q 12.109375 9.234375 16.796875 8.0625 
Q 21.484375 6.890625 26.703125 6.890625 
Q 35.15625 6.890625 40.078125 11.328125 
Q 45.015625 15.765625 45.015625 23.390625 
Q 45.015625 31 40.078125 35.4375 
Q 35.15625 39.890625 26.703125 39.890625 
Q 22.75 39.890625 18.8125 39.015625 
Q 14.890625 38.140625 10.796875 36.28125 
z
" id="DejaVuSans-35"/>
      </defs>
      <g transform="translate(353.877511 853.717188)scale(0.18 -0.18)">
       <use xlink:href="#DejaVuSans-39"/>
       <use x="63.623047" xlink:href="#DejaVuSans-38"/>
       <use x="127.246094" xlink:href="#DejaVuSans-2e"/>
       <use x="159.033203" xlink:href="#DejaVuSans-35"/>
      </g>
     </g>
    </g>
    <g id="xtick_3">
     <g id="line2d_3">
      <g>
       <use style="stroke:#000000;stroke-width:0.8;" x="463.552156" xlink:href="#m61d333ef9f" y="833.04"/>
      </g>
     </g>
     <g id="text_3">
      <!-- 99.0 -->
      <g transform="translate(443.513093 853.717188)scale(0.18 -0.18)">
       <use xlink:href="#DejaVuSans-39"/>
       <use x="63.623047" xlink:href="#DejaVuSans-39"/>
       <use x="127.246094" xlink:href="#DejaVuSans-2e"/>
       <use x="159.033203" xlink:href="#DejaVuSans-30"/>
      </g>
     </g>
    </g>
    <g id="xtick_4">
     <g id="line2d_4">
      <g>
       <use style="stroke:#000000;stroke-width:0.8;" x="553.187738" xlink:href="#m61d333ef9f" y="833.04"/>
      </g>
     </g>
     <g id="text_4">
      <!-- 99.5 -->
      <g transform="translate(533.148675 853.717188)scale(0.18 -0.18)">
       <use xlink:href="#DejaVuSans-39"/>
       <use x="63.623047" xlink:href="#DejaVuSans-39"/>
       <use x="127.246094" xlink:href="#DejaVuSans-2e"/>
       <use x="159.033203" xlink:href="#DejaVuSans-35"/>
      </g>
     </g>
    </g>
    <g id="xtick_5">
     <g id="line2d_5">
      <g>
       <use style="stroke:#000000;stroke-width:0.8;" x="642.82332" xlink:href="#m61d333ef9f" y="833.04"/>
      </g>
     </g>
     <g id="text_5">
      <!-- 100.0 -->
      <defs>
       <path d="M 12.40625 8.296875 
L 28.515625 8.296875 
L 28.515625 63.921875 
L 10.984375 60.40625 
L 10.984375 69.390625 
L 28.421875 72.90625 
L 38.28125 72.90625 
L 38.28125 8.296875 
L 54.390625 8.296875 
L 54.390625 0 
L 12.40625 0 
z
" id="DejaVuSans-31"/>
      </defs>
      <g transform="translate(617.058008 853.717188)scale(0.18 -0.18)">
       <use xlink:href="#DejaVuSans-31"/>
       <use x="63.623047" xlink:href="#DejaVuSans-30"/>
       <use x="127.246094" xlink:href="#DejaVuSans-30"/>
       <use x="190.869141" xlink:href="#DejaVuSans-2e"/>
       <use x="222.65625" xlink:href="#DejaVuSans-30"/>
      </g>
     </g>
    </g>
    <g id="xtick_6">
     <g id="line2d_6">
      <g>
       <use style="stroke:#000000;stroke-width:0.8;" x="732.458902" xlink:href="#m61d333ef9f" y="833.04"/>
      </g>
     </g>
     <g id="text_6">
      <!-- 100.5 -->
      <g transform="translate(706.69359 853.717188)scale(0.18 -0.18)">
       <use xlink:href="#DejaVuSans-31"/>
       <use x="63.623047" xlink:href="#DejaVuSans-30"/>
       <use x="127.246094" xlink:href="#DejaVuSans-30"/>
       <use x="190.869141" xlink:href="#DejaVuSans-2e"/>
       <use x="222.65625" xlink:href="#DejaVuSans-35"/>
      </g>
     </g>
    </g>
    <g id="xtick_7">
     <g id="line2d_7">
      <g>
       <use style="stroke:#000000;stroke-width:0.8;" x="822.094484" xlink:href="#m61d333ef9f" y="833.04"/>
      </g>
     </g>
     <g id="text_7">
      <!-- 101.0 -->
      <g transform="translate(796.329172 853.717188)scale(0.18 -0.18)">
       <use xlink:href="#DejaVuSans-31"/>
       <use x="63.623047" xlink:href="#DejaVuSans-30"/>
       <use x="127.246094" xlink:href="#DejaVuSans-31"/>
       <use x="190.869141" xlink:href="#DejaVuSans-2e"/>
       <use x="222.65625" xlink:href="#DejaVuSans-30"/>
      </g>
     </g>
    </g>
    <g id="xtick_8">
     <g id="line2d_8">
      <g>
       <use style="stroke:#000000;stroke-width:0.8;" x="911.730066" xlink:href="#m61d333ef9f" y="833.04"/>
      </g>
     </g>
     <g id="text_8">
      <!-- 101.5 -->
      <g transform="translate(885.964754 853.717188)scale(0.18 -0.18)">
       <use xlink:href="#DejaVuSans-31"/>
       <use x="63.623047" xlink:href="#DejaVuSans-30"/>
       <use x="127.246094" xlink:href="#DejaVuSans-31"/>
       <use x="190.869141" xlink:href="#DejaVuSans-2e"/>
       <use x="222.65625" xlink:href="#DejaVuSans-35"/>
      </g>
     </g>
    </g>
    <g id="text_9">
     <!-- RH [%] -->
     <defs>
      <path d="M 44.390625 34.1875 
Q 47.5625 33.109375 50.5625 29.59375 
Q 53.5625 26.078125 56.59375 19.921875 
L 66.609375 0 
L 56 0 
L 46.6875 18.703125 
Q 43.0625 26.03125 39.671875 28.421875 
Q 36.28125 30.8125 30.421875 30.8125 
L 19.671875 30.8125 
L 19.671875 0 
L 9.8125 0 
L 9.8125 72.90625 
L 32.078125 72.90625 
Q 44.578125 72.90625 50.734375 67.671875 
Q 56.890625 62.453125 56.890625 51.90625 
Q 56.890625 45.015625 53.6875 40.46875 
Q 50.484375 35.9375 44.390625 34.1875 
z
M 19.671875 64.796875 
L 19.671875 38.921875 
L 32.078125 38.921875 
Q 39.203125 38.921875 42.84375 42.21875 
Q 46.484375 45.515625 46.484375 51.90625 
Q 46.484375 58.296875 42.84375 61.546875 
Q 39.203125 64.796875 32.078125 64.796875 
z
" id="DejaVuSans-52"/>
      <path d="M 9.8125 72.90625 
L 19.671875 72.90625 
L 19.671875 43.015625 
L 55.515625 43.015625 
L 55.515625 72.90625 
L 65.375 72.90625 
L 65.375 0 
L 55.515625 0 
L 55.515625 34.71875 
L 19.671875 34.71875 
L 19.671875 0 
L 9.8125 0 
z
" id="DejaVuSans-48"/>
      <path id="DejaVuSans-20"/>
      <path d="M 8.59375 75.984375 
L 29.296875 75.984375 
L 29.296875 69 
L 17.578125 69 
L 17.578125 -6.203125 
L 29.296875 -6.203125 
L 29.296875 -13.1875 
L 8.59375 -13.1875 
z
" id="DejaVuSans-5b"/>
      <path d="M 72.703125 32.078125 
Q 68.453125 32.078125 66.03125 28.46875 
Q 63.625 24.859375 63.625 18.40625 
Q 63.625 12.0625 66.03125 8.421875 
Q 68.453125 4.78125 72.703125 4.78125 
Q 76.859375 4.78125 79.265625 8.421875 
Q 81.6875 12.0625 81.6875 18.40625 
Q 81.6875 24.8125 79.265625 28.4375 
Q 76.859375 32.078125 72.703125 32.078125 
z
M 72.703125 38.28125 
Q 80.421875 38.28125 84.953125 32.90625 
Q 89.5 27.546875 89.5 18.40625 
Q 89.5 9.28125 84.9375 3.921875 
Q 80.375 -1.421875 72.703125 -1.421875 
Q 64.890625 -1.421875 60.34375 3.921875 
Q 55.8125 9.28125 55.8125 18.40625 
Q 55.8125 27.59375 60.375 32.9375 
Q 64.9375 38.28125 72.703125 38.28125 
z
M 22.3125 68.015625 
Q 18.109375 68.015625 15.6875 64.375 
Q 13.28125 60.75 13.28125 54.390625 
Q 13.28125 47.953125 15.671875 44.328125 
Q 18.0625 40.71875 22.3125 40.71875 
Q 26.5625 40.71875 28.96875 44.328125 
Q 31.390625 47.953125 31.390625 54.390625 
Q 31.390625 60.6875 28.953125 64.34375 
Q 26.515625 68.015625 22.3125 68.015625 
z
M 66.40625 74.21875 
L 74.21875 74.21875 
L 28.609375 -1.421875 
L 20.796875 -1.421875 
z
M 22.3125 74.21875 
Q 30.03125 74.21875 34.609375 68.875 
Q 39.203125 63.53125 39.203125 54.390625 
Q 39.203125 45.171875 34.640625 39.84375 
Q 30.078125 34.515625 22.3125 34.515625 
Q 14.546875 34.515625 10.03125 39.859375 
Q 5.515625 45.21875 5.515625 54.390625 
Q 5.515625 63.484375 10.046875 68.84375 
Q 14.59375 74.21875 22.3125 74.21875 
z
" id="DejaVuSans-25"/>
      <path d="M 30.421875 75.984375 
L 30.421875 -13.1875 
L 9.71875 -13.1875 
L 9.71875 -6.203125 
L 21.390625 -6.203125 
L 21.390625 69 
L 9.71875 69 
L 9.71875 75.984375 
z
" id="DejaVuSans-5d"/>
     </defs>
     <g transform="translate(575.634503 875.137812)scale(0.18 -0.18)">
      <use xlink:href="#DejaVuSans-52"/>
      <use x="69.482422" xlink:href="#DejaVuSans-48"/>
      <use x="144.677734" xlink:href="#DejaVuSans-20"/>
      <use x="176.464844" xlink:href="#DejaVuSans-5b"/>
      <use x="215.478516" xlink:href="#DejaVuSans-25"/>
      <use x="310.498047" xlink:href="#DejaVuSans-5d"/>
     </g>
    </g>
   </g>
   <g id="matplotlib.axis_2">
    <g id="ytick_1">
     <g id="line2d_9">
      <defs>
       <path d="M 0 0 
L -3.5 0 
" id="mec94e9af1b" style="stroke:#000000;stroke-width:0.8;"/>
      </defs>
      <g>
       <use style="stroke:#000000;stroke-width:0.8;" x="252" xlink:href="#mec94e9af1b" y="800.28"/>
      </g>
     </g>
     <g id="text_10">
      <!-- 0 -->
      <g transform="translate(233.5475 807.118594)scale(0.18 -0.18)">
       <use xlink:href="#DejaVuSans-30"/>
      </g>
     </g>
    </g>
    <g id="ytick_2">
     <g id="line2d_10">
      <g>
       <use style="stroke:#000000;stroke-width:0.8;" x="252" xlink:href="#mec94e9af1b" y="718.38"/>
      </g>
     </g>
     <g id="text_11">
      <!-- 25 -->
      <defs>
       <path d="M 19.1875 8.296875 
L 53.609375 8.296875 
L 53.609375 0 
L 7.328125 0 
L 7.328125 8.296875 
Q 12.9375 14.109375 22.625 23.890625 
Q 32.328125 33.6875 34.8125 36.53125 
Q 39.546875 41.84375 41.421875 45.53125 
Q 43.3125 49.21875 43.3125 52.78125 
Q 43.3125 58.59375 39.234375 62.25 
Q 35.15625 65.921875 28.609375 65.921875 
Q 23.96875 65.921875 18.8125 64.3125 
Q 13.671875 62.703125 7.8125 59.421875 
L 7.8125 69.390625 
Q 13.765625 71.78125 18.9375 73 
Q 24.125 74.21875 28.421875 74.21875 
Q 39.75 74.21875 46.484375 68.546875 
Q 53.21875 62.890625 53.21875 53.421875 
Q 53.21875 48.921875 51.53125 44.890625 
Q 49.859375 40.875 45.40625 35.40625 
Q 44.1875 33.984375 37.640625 27.21875 
Q 31.109375 20.453125 19.1875 8.296875 
z
" id="DejaVuSans-32"/>
      </defs>
      <g transform="translate(222.095 725.218594)scale(0.18 -0.18)">
       <use xlink:href="#DejaVuSans-32"/>
       <use x="63.623047" xlink:href="#DejaVuSans-35"/>
      </g>
     </g>
    </g>
    <g id="ytick_3">
     <g id="line2d_11">
      <g>
       <use style="stroke:#000000;stroke-width:0.8;" x="252" xlink:href="#mec94e9af1b" y="636.48"/>
      </g>
     </g>
     <g id="text_12">
      <!-- 50 -->
      <g transform="translate(222.095 643.318594)scale(0.18 -0.18)">
       <use xlink:href="#DejaVuSans-35"/>
       <use x="63.623047" xlink:href="#DejaVuSans-30"/>
      </g>
     </g>
    </g>
    <g id="ytick_4">
     <g id="line2d_12">
      <g>
       <use style="stroke:#000000;stroke-width:0.8;" x="252" xlink:href="#mec94e9af1b" y="554.58"/>
      </g>
     </g>
     <g id="text_13">
      <!-- 75 -->
      <defs>
       <path d="M 8.203125 72.90625 
L 55.078125 72.90625 
L 55.078125 68.703125 
L 28.609375 0 
L 18.3125 0 
L 43.21875 64.59375 
L 8.203125 64.59375 
z
" id="DejaVuSans-37"/>
      </defs>
      <g transform="translate(222.095 561.418594)scale(0.18 -0.18)">
       <use xlink:href="#DejaVuSans-37"/>
       <use x="63.623047" xlink:href="#DejaVuSans-35"/>
      </g>
     </g>
    </g>
    <g id="ytick_5">
     <g id="line2d_13">
      <g>
       <use style="stroke:#000000;stroke-width:0.8;" x="252" xlink:href="#mec94e9af1b" y="472.68"/>
      </g>
     </g>
     <g id="text_14">
      <!-- 100 -->
      <g transform="translate(210.6425 479.518594)scale(0.18 -0.18)">
       <use xlink:href="#DejaVuSans-31"/>
       <use x="63.623047" xlink:href="#DejaVuSans-30"/>
       <use x="127.246094" xlink:href="#DejaVuSans-30"/>
      </g>
     </g>
    </g>
    <g id="ytick_6">
     <g id="line2d_14">
      <g>
       <use style="stroke:#000000;stroke-width:0.8;" x="252" xlink:href="#mec94e9af1b" y="390.78"/>
      </g>
     </g>
     <g id="text_15">
      <!-- 125 -->
      <g transform="translate(210.6425 397.618594)scale(0.18 -0.18)">
       <use xlink:href="#DejaVuSans-31"/>
       <use x="63.623047" xlink:href="#DejaVuSans-32"/>
       <use x="127.246094" xlink:href="#DejaVuSans-35"/>
      </g>
     </g>
    </g>
    <g id="ytick_7">
     <g id="line2d_15">
      <g>
       <use style="stroke:#000000;stroke-width:0.8;" x="252" xlink:href="#mec94e9af1b" y="308.88"/>
      </g>
     </g>
     <g id="text_16">
      <!-- 150 -->
      <g transform="translate(210.6425 315.718594)scale(0.18 -0.18)">
       <use xlink:href="#DejaVuSans-31"/>
       <use x="63.623047" xlink:href="#DejaVuSans-35"/>
       <use x="127.246094" xlink:href="#DejaVuSans-30"/>
      </g>
     </g>
    </g>
    <g id="ytick_8">
     <g id="line2d_16">
      <g>
       <use style="stroke:#000000;stroke-width:0.8;" x="252" xlink:href="#mec94e9af1b" y="226.98"/>
      </g>
     </g>
     <g id="text_17">
      <!-- 175 -->
      <g transform="translate(210.6425 233.818594)scale(0.18 -0.18)">
       <use xlink:href="#DejaVuSans-31"/>
       <use x="63.623047" xlink:href="#DejaVuSans-37"/>
       <use x="127.246094" xlink:href="#DejaVuSans-35"/>
      </g>
     </g>
    </g>
    <g id="ytick_9">
     <g id="line2d_17">
      <g>
       <use style="stroke:#000000;stroke-width:0.8;" x="252" xlink:href="#mec94e9af1b" y="145.08"/>
      </g>
     </g>
     <g id="text_18">
      <!-- 200 -->
      <g transform="translate(210.6425 151.918594)scale(0.18 -0.18)">
       <use xlink:href="#DejaVuSans-32"/>
       <use x="63.623047" xlink:href="#DejaVuSans-30"/>
       <use x="127.246094" xlink:href="#DejaVuSans-30"/>
      </g>
     </g>
    </g>
    <g id="text_19">
     <!-- Z [m]] -->
     <defs>
      <path d="M 5.609375 72.90625 
L 62.890625 72.90625 
L 62.890625 65.375 
L 16.796875 8.296875 
L 64.015625 8.296875 
L 64.015625 0 
L 4.5 0 
L 4.5 7.515625 
L 50.59375 64.59375 
L 5.609375 64.59375 
z
" id="DejaVuSans-5a"/>
      <path d="M 52 44.1875 
Q 55.375 50.25 60.0625 53.125 
Q 64.75 56 71.09375 56 
Q 79.640625 56 84.28125 50.015625 
Q 88.921875 44.046875 88.921875 33.015625 
L 88.921875 0 
L 79.890625 0 
L 79.890625 32.71875 
Q 79.890625 40.578125 77.09375 44.375 
Q 74.3125 48.1875 68.609375 48.1875 
Q 61.625 48.1875 57.5625 43.546875 
Q 53.515625 38.921875 53.515625 30.90625 
L 53.515625 0 
L 44.484375 0 
L 44.484375 32.71875 
Q 44.484375 40.625 41.703125 44.40625 
Q 38.921875 48.1875 33.109375 48.1875 
Q 26.21875 48.1875 22.15625 43.53125 
Q 18.109375 38.875 18.109375 30.90625 
L 18.109375 0 
L 9.078125 0 
L 9.078125 54.6875 
L 18.109375 54.6875 
L 18.109375 46.1875 
Q 21.1875 51.21875 25.484375 53.609375 
Q 29.78125 56 35.6875 56 
Q 41.65625 56 45.828125 52.96875 
Q 50 49.953125 52 44.1875 
z
" id="DejaVuSans-6d"/>
     </defs>
     <g transform="translate(202.899062 501.006094)rotate(-90)scale(0.18 -0.18)">
      <use xlink:href="#DejaVuSans-5a"/>
      <use x="68.505859" xlink:href="#DejaVuSans-20"/>
      <use x="100.292969" xlink:href="#DejaVuSans-5b"/>
      <use x="139.306641" xlink:href="#DejaVuSans-6d"/>
      <use x="236.71875" xlink:href="#DejaVuSans-5d"/>
      <use x="275.732422" xlink:href="#DejaVuSans-5d"/>
     </g>
    </g>
   </g>
   <g id="line2d_18">
    <path clip-path="url(#pdd77d6e6c5)" d="M 284.280992 800.28 
L 303.338092 793.728 
L 322.423455 787.176 
L 341.532547 780.624 
L 360.665692 774.072 
L 379.822925 767.52 
L 399.004266 760.968 
L 418.209734 754.416 
L 437.439342 747.864 
L 456.693096 741.312 
L 475.970991 734.76 
L 495.273009 728.208 
L 514.599106 721.656 
L 533.949198 715.104 
L 553.32314 708.552 
L 572.720675 702 
L 592.141338 695.448 
L 611.584261 688.896 
L 631.047722 682.344 
L 650.528049 675.792 
L 670.01679 669.24 
L 689.49359 662.688 
L 708.913387 656.136 
L 728.214939 649.584 
L 747.324368 643.032 
L 765.932185 636.48 
L 782.911096 629.928 
L 797.033844 623.376 
L 808.637893 616.824 
L 816.987146 610.272 
L 821.708515 603.72 
L 823.133462 597.168 
L 821.936853 590.616 
L 818.672413 584.064 
L 813.837036 577.512 
L 807.883973 570.96 
L 801.205536 564.408 
L 794.135331 557.856 
L 786.942395 551.304 
L 779.835121 544.752 
L 772.967627 538.2 
L 766.446822 531.648 
L 760.340327 525.096 
L 754.684353 518.544 
L 749.490932 511.992 
L 744.754246 505.44 
L 740.45595 498.888 
L 736.569487 492.336 
L 733.06347 485.784 
L 729.904257 479.232 
L 727.057823 472.68 
L 724.49108 466.128 
L 722.172742 459.576 
L 720.073853 453.024 
L 718.168056 446.472 
L 716.431675 439.92 
L 714.843672 433.368 
L 713.385514 426.816 
L 712.040989 420.264 
L 710.796001 413.712 
L 709.638346 407.16 
L 708.557496 400.608 
L 707.544393 394.056 
L 706.591252 387.504 
L 705.691392 380.952 
L 704.839079 374.4 
L 704.029384 367.848 
L 703.258068 361.296 
L 702.521476 354.744 
L 701.816447 348.192 
L 701.140241 341.64 
L 700.49047 335.088 
L 699.86505 328.536 
L 699.262147 321.984 
L 698.680145 315.432 
L 698.117612 308.88 
L 697.573272 302.328 
L 697.045981 295.776 
L 696.534716 289.224 
L 696.038548 282.672 
L 695.556633 276.12 
L 695.088202 269.568 
L 694.632561 263.016 
L 694.189061 256.464 
L 693.757107 249.912 
L 693.336157 243.36 
L 692.925698 236.808 
L 692.52526 230.256 
L 692.134398 223.704 
L 691.752716 217.152 
L 691.379816 210.6 
L 691.015342 204.048 
L 690.658957 197.496 
L 690.310348 190.944 
L 689.969204 184.392 
L 689.635254 177.84 
L 689.30822 171.288 
L 688.987865 164.736 
L 688.673939 158.184 
L 688.366222 151.632 
L 688.064495 145.08 
" style="fill:none;stroke:#1f77b4;stroke-linecap:square;stroke-width:1.5;"/>
   </g>
   <g id="line2d_19">
    <path clip-path="url(#pdd77d6e6c5)" d="M 642.82332 800.28 
L 642.82332 793.728 
L 642.82332 787.176 
L 642.82332 780.624 
L 642.82332 774.072 
L 642.82332 767.52 
L 642.82332 760.968 
L 642.82332 754.416 
L 642.82332 747.864 
L 642.82332 741.312 
L 642.82332 734.76 
L 642.82332 728.208 
L 642.82332 721.656 
L 642.82332 715.104 
L 642.82332 708.552 
L 642.82332 702 
L 642.82332 695.448 
L 642.82332 688.896 
L 642.82332 682.344 
L 642.82332 675.792 
L 642.82332 669.24 
L 642.82332 662.688 
L 642.82332 656.136 
L 642.82332 649.584 
L 642.82332 643.032 
L 642.82332 636.48 
L 642.82332 629.928 
L 642.82332 623.376 
L 642.82332 616.824 
L 642.82332 610.272 
L 642.82332 603.72 
L 642.82332 597.168 
L 642.82332 590.616 
L 642.82332 584.064 
L 642.82332 577.512 
L 642.82332 570.96 
L 642.82332 564.408 
L 642.82332 557.856 
L 642.82332 551.304 
L 642.82332 544.752 
L 642.82332 538.2 
L 642.82332 531.648 
L 642.82332 525.096 
L 642.82332 518.544 
L 642.82332 511.992 
L 642.82332 505.44 
L 642.82332 498.888 
L 642.82332 492.336 
L 642.82332 485.784 
L 642.82332 479.232 
L 642.82332 472.68 
L 642.82332 466.128 
L 642.82332 459.576 
L 642.82332 453.024 
L 642.82332 446.472 
L 642.82332 439.92 
L 642.82332 433.368 
L 642.82332 426.816 
L 642.82332 420.264 
L 642.82332 413.712 
L 642.82332 407.16 
L 642.82332 400.608 
L 642.82332 394.056 
L 642.82332 387.504 
L 642.82332 380.952 
L 642.82332 374.4 
L 642.82332 367.848 
L 642.82332 361.296 
L 642.82332 354.744 
L 642.82332 348.192 
L 642.82332 341.64 
L 642.82332 335.088 
L 642.82332 328.536 
L 642.82332 321.984 
L 642.82332 315.432 
L 642.82332 308.88 
L 642.82332 302.328 
L 642.82332 295.776 
L 642.82332 289.224 
L 642.82332 282.672 
L 642.82332 276.12 
L 642.82332 269.568 
L 642.82332 263.016 
L 642.82332 256.464 
L 642.82332 249.912 
L 642.82332 243.36 
L 642.82332 236.808 
L 642.82332 230.256 
L 642.82332 223.704 
L 642.82332 217.152 
L 642.82332 210.6 
L 642.82332 204.048 
L 642.82332 197.496 
L 642.82332 190.944 
L 642.82332 184.392 
L 642.82332 177.84 
L 642.82332 171.288 
L 642.82332 164.736 
L 642.82332 158.184 
L 642.82332 151.632 
L 642.82332 145.08 
" style="fill:none;stroke:#ff7f0e;stroke-linecap:square;stroke-width:1.5;"/>
   </g>
   <g id="line2d_20">
    <path clip-path="url(#pdd77d6e6c5)" d="M 284.280992 800.28 
L 303.33789 793.728 
L 322.423454 787.176 
L 341.532545 780.624 
L 360.665692 774.072 
L 379.822926 767.52 
L 399.004268 760.968 
L 418.209737 754.416 
L 437.439346 747.864 
L 456.693101 741.312 
L 475.971 734.76 
L 495.273022 728.208 
L 514.599125 721.656 
L 533.949229 715.104 
L 553.323192 708.552 
L 572.720766 702 
L 592.141509 695.448 
L 611.584605 688.896 
L 631.048476 682.344 
L 650.529875 675.792 
L 670.021706 669.24 
L 689.507968 662.688 
L 708.954736 656.136 
L 728.308116 649.584 
L 747.507034 643.032 
L 766.493711 636.48 
L 785.211398 629.928 
L 803.59182 623.376 
L 821.49135 616.824 
L 838.387566 610.272 
L 852.898058 603.72 
L 865.372451 597.168 
L 874.631328 590.616 
L 880.543151 584.064 
L 883.897031 577.512 
L 885.035733 570.96 
L 884.285528 564.408 
L 881.953613 557.856 
L 878.329156 551.304 
L 873.679937 544.752 
L 868.249166 538.2 
L 862.253459 531.648 
L 855.881902 525.096 
L 849.29619 518.544 
L 842.631664 511.992 
L 835.999029 505.44 
L 829.486526 498.888 
L 823.162379 492.336 
L 817.077324 485.784 
L 811.267128 479.232 
L 805.754979 472.68 
L 800.553703 466.128 
L 795.667765 459.576 
L 791.095028 453.024 
L 786.828288 446.472 
L 782.856579 439.92 
L 779.166258 433.368 
L 775.74191 426.816 
L 772.56707 420.264 
L 769.624812 413.712 
L 766.898185 407.16 
L 764.370567 400.608 
L 762.025902 394.056 
L 759.848901 387.504 
L 757.825131 380.952 
L 755.941109 374.4 
L 754.184317 367.848 
L 752.543207 361.296 
L 751.007193 354.744 
L 749.566601 348.192 
L 748.212641 341.64 
L 746.937342 335.088 
L 745.733501 328.536 
L 744.594621 321.984 
L 743.514856 315.432 
L 742.488957 308.88 
L 741.512209 302.328 
L 740.58039 295.776 
L 739.689714 289.224 
L 738.836793 282.672 
L 738.01854 276.12 
L 737.232348 269.568 
L 736.475703 263.016 
L 735.746426 256.464 
L 735.042552 249.912 
L 734.362314 243.36 
L 733.704118 236.808 
L 733.066531 230.256 
L 732.448253 223.704 
L 731.848109 217.152 
L 731.265029 210.6 
L 730.698053 204.048 
L 730.146288 197.496 
L 729.608928 190.944 
L 729.085232 184.392 
L 728.574522 177.84 
L 728.076169 171.288 
L 727.589597 164.736 
L 727.114271 158.184 
L 726.649697 151.632 
L 726.195413 145.08 
" style="fill:none;stroke:#2ca02c;stroke-linecap:square;stroke-width:1.5;"/>
   </g>
   <g id="line2d_21">
    <path clip-path="url(#pdd77d6e6c5)" d="M 642.82332 800.28 
L 642.82332 793.728 
L 642.82332 787.176 
L 642.82332 780.624 
L 642.82332 774.072 
L 642.82332 767.52 
L 642.82332 760.968 
L 642.82332 754.416 
L 642.82332 747.864 
L 642.82332 741.312 
L 642.82332 734.76 
L 642.82332 728.208 
L 642.82332 721.656 
L 642.82332 715.104 
L 642.82332 708.552 
L 642.82332 702 
L 642.82332 695.448 
L 642.82332 688.896 
L 642.82332 682.344 
L 642.82332 675.792 
L 642.82332 669.24 
L 642.82332 662.688 
L 642.82332 656.136 
L 642.82332 649.584 
L 642.82332 643.032 
L 642.82332 636.48 
L 642.82332 629.928 
L 642.82332 623.376 
L 642.82332 616.824 
L 642.82332 610.272 
L 642.82332 603.72 
L 642.82332 597.168 
L 642.82332 590.616 
L 642.82332 584.064 
L 642.82332 577.512 
L 642.82332 570.96 
L 642.82332 564.408 
L 642.82332 557.856 
L 642.82332 551.304 
L 642.82332 544.752 
L 642.82332 538.2 
L 642.82332 531.648 
L 642.82332 525.096 
L 642.82332 518.544 
L 642.82332 511.992 
L 642.82332 505.44 
L 642.82332 498.888 
L 642.82332 492.336 
L 642.82332 485.784 
L 642.82332 479.232 
L 642.82332 472.68 
L 642.82332 466.128 
L 642.82332 459.576 
L 642.82332 453.024 
L 642.82332 446.472 
L 642.82332 439.92 
L 642.82332 433.368 
L 642.82332 426.816 
L 642.82332 420.264 
L 642.82332 413.712 
L 642.82332 407.16 
L 642.82332 400.608 
L 642.82332 394.056 
L 642.82332 387.504 
L 642.82332 380.952 
L 642.82332 374.4 
L 642.82332 367.848 
L 642.82332 361.296 
L 642.82332 354.744 
L 642.82332 348.192 
L 642.82332 341.64 
L 642.82332 335.088 
L 642.82332 328.536 
L 642.82332 321.984 
L 642.82332 315.432 
L 642.82332 308.88 
L 642.82332 302.328 
L 642.82332 295.776 
L 642.82332 289.224 
L 642.82332 282.672 
L 642.82332 276.12 
L 642.82332 269.568 
L 642.82332 263.016 
L 642.82332 256.464 
L 642.82332 249.912 
L 642.82332 243.36 
L 642.82332 236.808 
L 642.82332 230.256 
L 642.82332 223.704 
L 642.82332 217.152 
L 642.82332 210.6 
L 642.82332 204.048 
L 642.82332 197.496 
L 642.82332 190.944 
L 642.82332 184.392 
L 642.82332 177.84 
L 642.82332 171.288 
L 642.82332 164.736 
L 642.82332 158.184 
L 642.82332 151.632 
L 642.82332 145.08 
" style="fill:none;stroke:#d62728;stroke-linecap:square;stroke-width:1.5;"/>
   </g>
   <g id="line2d_22">
    <path clip-path="url(#pdd77d6e6c5)" d="M 284.280992 800.28 
L 303.337821 793.728 
L 322.423457 787.176 
L 341.532545 780.624 
L 360.665693 774.072 
L 379.822927 767.52 
L 399.004269 760.968 
L 418.209739 754.416 
L 437.439348 747.864 
L 456.693105 741.312 
L 475.971005 734.76 
L 495.273029 728.208 
L 514.599137 721.656 
L 533.949248 715.104 
L 553.323224 708.552 
L 572.720823 702 
L 592.141614 695.448 
L 611.584814 688.896 
L 631.048927 682.344 
L 650.53093 675.792 
L 670.024403 669.24 
L 689.515296 662.688 
L 708.974241 656.136 
L 728.350989 649.584 
L 747.583942 643.032 
L 766.615307 636.48 
L 785.392278 629.928 
L 803.859918 623.376 
L 821.940172 616.824 
L 839.477659 610.272 
L 856.216791 603.72 
L 872.055271 597.168 
L 886.552034 590.616 
L 898.897426 584.064 
L 908.530569 577.512 
L 916.090814 570.96 
L 921.776195 564.408 
L 925.756593 557.856 
L 928.065897 551.304 
L 927.646004 544.752 
L 925.343604 538.2 
L 921.604982 531.648 
L 916.735974 525.096 
L 910.998875 518.544 
L 904.619555 511.992 
L 897.792374 505.44 
L 890.683231 498.888 
L 883.432004 492.336 
L 876.154862 485.784 
L 868.946555 479.232 
L 861.882734 472.68 
L 855.022217 466.128 
L 848.409208 459.576 
L 842.07538 453.024 
L 836.041821 446.472 
L 830.320807 439.92 
L 824.917396 433.368 
L 819.830839 426.816 
L 815.055803 420.264 
L 810.583445 413.712 
L 806.402302 407.16 
L 802.499049 400.608 
L 798.859134 394.056 
L 795.467284 387.504 
L 792.307918 380.952 
L 789.365476 374.4 
L 786.624674 367.848 
L 784.070691 361.296 
L 781.689308 354.744 
L 779.467013 348.192 
L 777.391054 341.64 
L 775.449476 335.088 
L 773.631138 328.536 
L 771.925703 321.984 
L 770.32362 315.432 
L 768.816101 308.88 
L 767.395081 302.328 
L 766.053181 295.776 
L 764.783668 289.224 
L 763.580408 282.672 
L 762.437826 276.12 
L 761.35086 269.568 
L 760.314922 263.016 
L 759.325855 256.464 
L 758.379899 249.912 
L 757.473652 243.36 
L 756.604037 236.808 
L 755.768273 230.256 
L 754.963848 223.704 
L 754.188487 217.152 
L 753.440133 210.6 
L 752.716924 204.048 
L 752.017173 197.496 
L 751.33935 190.944 
L 750.682066 184.392 
L 750.044057 177.84 
L 749.424175 171.288 
L 748.821372 164.736 
L 748.23469 158.184 
L 747.663255 151.632 
L 747.106265 145.08 
" style="fill:none;stroke:#9467bd;stroke-linecap:square;stroke-width:1.5;"/>
   </g>
   <g id="line2d_23">
    <path clip-path="url(#pdd77d6e6c5)" d="M 642.82332 800.28 
L 642.82332 793.728 
L 642.82332 787.176 
L 642.82332 780.624 
L 642.82332 774.072 
L 642.82332 767.52 
L 642.82332 760.968 
L 642.82332 754.416 
L 642.82332 747.864 
L 642.82332 741.312 
L 642.82332 734.76 
L 642.82332 728.208 
L 642.82332 721.656 
L 642.82332 715.104 
L 642.82332 708.552 
L 642.82332 702 
L 642.82332 695.448 
L 642.82332 688.896 
L 642.82332 682.344 
L 642.82332 675.792 
L 642.82332 669.24 
L 642.82332 662.688 
L 642.82332 656.136 
L 642.82332 649.584 
L 642.82332 643.032 
L 642.82332 636.48 
L 642.82332 629.928 
L 642.82332 623.376 
L 642.82332 616.824 
L 642.82332 610.272 
L 642.82332 603.72 
L 642.82332 597.168 
L 642.82332 590.616 
L 642.82332 584.064 
L 642.82332 577.512 
L 642.82332 570.96 
L 642.82332 564.408 
L 642.82332 557.856 
L 642.82332 551.304 
L 642.82332 544.752 
L 642.82332 538.2 
L 642.82332 531.648 
L 642.82332 525.096 
L 642.82332 518.544 
L 642.82332 511.992 
L 642.82332 505.44 
L 642.82332 498.888 
L 642.82332 492.336 
L 642.82332 485.784 
L 642.82332 479.232 
L 642.82332 472.68 
L 642.82332 466.128 
L 642.82332 459.576 
L 642.82332 453.024 
L 642.82332 446.472 
L 642.82332 439.92 
L 642.82332 433.368 
L 642.82332 426.816 
L 642.82332 420.264 
L 642.82332 413.712 
L 642.82332 407.16 
L 642.82332 400.608 
L 642.82332 394.056 
L 642.82332 387.504 
L 642.82332 380.952 
L 642.82332 374.4 
L 642.82332 367.848 
L 642.82332 361.296 
L 642.82332 354.744 
L 642.82332 348.192 
L 642.82332 341.64 
L 642.82332 335.088 
L 642.82332 328.536 
L 642.82332 321.984 
L 642.82332 315.432 
L 642.82332 308.88 
L 642.82332 302.328 
L 642.82332 295.776 
L 642.82332 289.224 
L 642.82332 282.672 
L 642.82332 276.12 
L 642.82332 269.568 
L 642.82332 263.016 
L 642.82332 256.464 
L 642.82332 249.912 
L 642.82332 243.36 
L 642.82332 236.808 
L 642.82332 230.256 
L 642.82332 223.704 
L 642.82332 217.152 
L 642.82332 210.6 
L 642.82332 204.048 
L 642.82332 197.496 
L 642.82332 190.944 
L 642.82332 184.392 
L 642.82332 177.84 
L 642.82332 171.288 
L 642.82332 164.736 
L 642.82332 158.184 
L 642.82332 151.632 
L 642.82332 145.08 
" style="fill:none;stroke:#8c564b;stroke-linecap:square;stroke-width:1.5;"/>
   </g>
   <g id="line2d_24">
    <path clip-path="url(#pdd77d6e6c5)" d="M 284.280992 800.28 
L 303.337808 793.728 
L 322.423458 787.176 
L 341.532545 780.624 
L 360.665693 774.072 
L 379.822927 767.52 
L 399.00427 760.968 
L 418.209739 754.416 
L 437.439349 747.864 
L 456.693106 741.312 
L 475.971007 734.76 
L 495.273032 728.208 
L 514.599141 721.656 
L 533.949254 715.104 
L 553.323235 708.552 
L 572.720842 702 
L 592.14165 695.448 
L 611.584885 688.896 
L 631.049076 682.344 
L 650.531275 675.792 
L 670.025264 669.24 
L 689.517565 662.688 
L 708.980141 656.136 
L 728.364446 649.584 
L 747.609003 643.032 
L 766.654322 636.48 
L 785.447399 629.928 
L 803.933208 623.376 
L 822.036098 616.824 
L 839.61809 610.272 
L 856.432872 603.72 
L 872.337429 597.168 
L 886.912753 590.616 
L 899.64155 584.064 
L 909.553267 577.512 
L 917.339586 570.96 
L 923.230062 564.408 
L 927.39916 557.856 
L 929.900826 551.304 
L 929.686072 544.752 
L 927.559886 538.2 
L 923.981294 531.648 
L 919.256412 525.096 
L 913.647529 518.544 
L 907.380592 511.992 
L 900.650192 505.44 
L 893.622642 498.888 
L 886.438436 492.336 
L 879.214525 485.784 
L 872.046592 479.232 
L 865.011321 472.68 
L 858.168643 466.128 
L 851.563907 459.576 
L 845.229936 453.024 
L 839.18895 446.472 
L 833.454313 439.92 
L 828.032111 433.368 
L 822.92255 426.816 
L 818.121178 420.264 
L 813.619941 413.712 
L 809.408083 407.16 
L 805.472902 400.608 
L 801.800383 394.056 
L 798.375714 387.504 
L 795.183704 380.952 
L 792.209114 374.4 
L 789.436921 367.848 
L 786.85251 361.296 
L 784.441822 354.744 
L 782.191461 348.192 
L 780.088754 341.64 
L 778.121799 335.088 
L 776.279475 328.536 
L 774.551448 321.984 
L 772.928151 315.432 
L 771.400766 308.88 
L 769.961185 302.328 
L 768.601982 295.776 
L 767.316365 289.224 
L 766.098143 282.672 
L 764.941677 276.12 
L 763.841841 269.568 
L 762.793983 263.016 
L 761.793883 256.464 
L 760.83772 249.912 
L 759.922031 243.36 
L 759.043685 236.808 
L 758.199846 230.256 
L 757.387949 223.704 
L 756.605672 217.152 
L 755.850914 210.6 
L 755.121769 204.048 
L 754.416512 197.496 
L 753.733577 190.944 
L 753.071541 184.392 
L 752.429111 177.84 
L 751.805109 171.288 
L 751.198462 164.736 
L 750.60819 158.184 
L 750.033396 151.632 
L 749.473259 145.08 
" style="fill:none;stroke:#e377c2;stroke-linecap:square;stroke-width:1.5;"/>
   </g>
   <g id="line2d_25">
    <path clip-path="url(#pdd77d6e6c5)" d="M 642.82332 800.28 
L 642.82332 793.728 
L 642.82332 787.176 
L 642.82332 780.624 
L 642.82332 774.072 
L 642.82332 767.52 
L 642.82332 760.968 
L 642.82332 754.416 
L 642.82332 747.864 
L 642.82332 741.312 
L 642.82332 734.76 
L 642.82332 728.208 
L 642.82332 721.656 
L 642.82332 715.104 
L 642.82332 708.552 
L 642.82332 702 
L 642.82332 695.448 
L 642.82332 688.896 
L 642.82332 682.344 
L 642.82332 675.792 
L 642.82332 669.24 
L 642.82332 662.688 
L 642.82332 656.136 
L 642.82332 649.584 
L 642.82332 643.032 
L 642.82332 636.48 
L 642.82332 629.928 
L 642.82332 623.376 
L 642.82332 616.824 
L 642.82332 610.272 
L 642.82332 603.72 
L 642.82332 597.168 
L 642.82332 590.616 
L 642.82332 584.064 
L 642.82332 577.512 
L 642.82332 570.96 
L 642.82332 564.408 
L 642.82332 557.856 
L 642.82332 551.304 
L 642.82332 544.752 
L 642.82332 538.2 
L 642.82332 531.648 
L 642.82332 525.096 
L 642.82332 518.544 
L 642.82332 511.992 
L 642.82332 505.44 
L 642.82332 498.888 
L 642.82332 492.336 
L 642.82332 485.784 
L 642.82332 479.232 
L 642.82332 472.68 
L 642.82332 466.128 
L 642.82332 459.576 
L 642.82332 453.024 
L 642.82332 446.472 
L 642.82332 439.92 
L 642.82332 433.368 
L 642.82332 426.816 
L 642.82332 420.264 
L 642.82332 413.712 
L 642.82332 407.16 
L 642.82332 400.608 
L 642.82332 394.056 
L 642.82332 387.504 
L 642.82332 380.952 
L 642.82332 374.4 
L 642.82332 367.848 
L 642.82332 361.296 
L 642.82332 354.744 
L 642.82332 348.192 
L 642.82332 341.64 
L 642.82332 335.088 
L 642.82332 328.536 
L 642.82332 321.984 
L 642.82332 315.432 
L 642.82332 308.88 
L 642.82332 302.328 
L 642.82332 295.776 
L 642.82332 289.224 
L 642.82332 282.672 
L 642.82332 276.12 
L 642.82332 269.568 
L 642.82332 263.016 
L 642.82332 256.464 
L 642.82332 249.912 
L 642.82332 243.36 
L 642.82332 236.808 
L 642.82332 230.256 
L 642.82332 223.704 
L 642.82332 217.152 
L 642.82332 210.6 
L 642.82332 204.048 
L 642.82332 197.496 
L 642.82332 190.944 
L 642.82332 184.392 
L 642.82332 177.84 
L 642.82332 171.288 
L 642.82332 164.736 
L 642.82332 158.184 
L 642.82332 151.632 
L 642.82332 145.08 
" style="fill:none;stroke:#7f7f7f;stroke-linecap:square;stroke-width:1.5;"/>
   </g>
   <g id="patch_3">
    <path d="M 252 833.04 
L 252 112.32 
" style="fill:none;stroke:#000000;stroke-linecap:square;stroke-linejoin:miter;stroke-width:0.8;"/>
   </g>
   <g id="patch_4">
    <path d="M 962.181818 833.04 
L 962.181818 112.32 
" style="fill:none;stroke:#000000;stroke-linecap:square;stroke-linejoin:miter;stroke-width:0.8;"/>
   </g>
   <g id="patch_5">
    <path d="M 252 833.04 
L 962.181818 833.04 
" style="fill:none;stroke:#000000;stroke-linecap:square;stroke-linejoin:miter;stroke-width:0.8;"/>
   </g>
   <g id="patch_6">
    <path d="M 252 112.32 
L 962.181818 112.32 
" style="fill:none;stroke:#000000;stroke-linecap:square;stroke-linejoin:miter;stroke-width:0.8;"/>
   </g>
   <g id="text_20">
    <!-- Saturation for updraft velocity= 2$frac{m}{s}$ -->
    <defs>
     <path d="M 53.515625 70.515625 
L 53.515625 60.890625 
Q 47.90625 63.578125 42.921875 64.890625 
Q 37.9375 66.21875 33.296875 66.21875 
Q 25.25 66.21875 20.875 63.09375 
Q 16.5 59.96875 16.5 54.203125 
Q 16.5 49.359375 19.40625 46.890625 
Q 22.3125 44.4375 30.421875 42.921875 
L 36.375 41.703125 
Q 47.40625 39.59375 52.65625 34.296875 
Q 57.90625 29 57.90625 20.125 
Q 57.90625 9.515625 50.796875 4.046875 
Q 43.703125 -1.421875 29.984375 -1.421875 
Q 24.8125 -1.421875 18.96875 -0.25 
Q 13.140625 0.921875 6.890625 3.21875 
L 6.890625 13.375 
Q 12.890625 10.015625 18.65625 8.296875 
Q 24.421875 6.59375 29.984375 6.59375 
Q 38.421875 6.59375 43.015625 9.90625 
Q 47.609375 13.234375 47.609375 19.390625 
Q 47.609375 24.75 44.3125 27.78125 
Q 41.015625 30.8125 33.5 32.328125 
L 27.484375 33.5 
Q 16.453125 35.6875 11.515625 40.375 
Q 6.59375 45.0625 6.59375 53.421875 
Q 6.59375 63.09375 13.40625 68.65625 
Q 20.21875 74.21875 32.171875 74.21875 
Q 37.3125 74.21875 42.625 73.28125 
Q 47.953125 72.359375 53.515625 70.515625 
z
" id="DejaVuSans-53"/>
     <path d="M 34.28125 27.484375 
Q 23.390625 27.484375 19.1875 25 
Q 14.984375 22.515625 14.984375 16.5 
Q 14.984375 11.71875 18.140625 8.90625 
Q 21.296875 6.109375 26.703125 6.109375 
Q 34.1875 6.109375 38.703125 11.40625 
Q 43.21875 16.703125 43.21875 25.484375 
L 43.21875 27.484375 
z
M 52.203125 31.203125 
L 52.203125 0 
L 43.21875 0 
L 43.21875 8.296875 
Q 40.140625 3.328125 35.546875 0.953125 
Q 30.953125 -1.421875 24.3125 -1.421875 
Q 15.921875 -1.421875 10.953125 3.296875 
Q 6 8.015625 6 15.921875 
Q 6 25.140625 12.171875 29.828125 
Q 18.359375 34.515625 30.609375 34.515625 
L 43.21875 34.515625 
L 43.21875 35.40625 
Q 43.21875 41.609375 39.140625 45 
Q 35.0625 48.390625 27.6875 48.390625 
Q 23 48.390625 18.546875 47.265625 
Q 14.109375 46.140625 10.015625 43.890625 
L 10.015625 52.203125 
Q 14.9375 54.109375 19.578125 55.046875 
Q 24.21875 56 28.609375 56 
Q 40.484375 56 46.34375 49.84375 
Q 52.203125 43.703125 52.203125 31.203125 
z
" id="DejaVuSans-61"/>
     <path d="M 18.3125 70.21875 
L 18.3125 54.6875 
L 36.8125 54.6875 
L 36.8125 47.703125 
L 18.3125 47.703125 
L 18.3125 18.015625 
Q 18.3125 11.328125 20.140625 9.421875 
Q 21.96875 7.515625 27.59375 7.515625 
L 36.8125 7.515625 
L 36.8125 0 
L 27.59375 0 
Q 17.1875 0 13.234375 3.875 
Q 9.28125 7.765625 9.28125 18.015625 
L 9.28125 47.703125 
L 2.6875 47.703125 
L 2.6875 54.6875 
L 9.28125 54.6875 
L 9.28125 70.21875 
z
" id="DejaVuSans-74"/>
     <path d="M 8.5 21.578125 
L 8.5 54.6875 
L 17.484375 54.6875 
L 17.484375 21.921875 
Q 17.484375 14.15625 20.5 10.265625 
Q 23.53125 6.390625 29.59375 6.390625 
Q 36.859375 6.390625 41.078125 11.03125 
Q 45.3125 15.671875 45.3125 23.6875 
L 45.3125 54.6875 
L 54.296875 54.6875 
L 54.296875 0 
L 45.3125 0 
L 45.3125 8.40625 
Q 42.046875 3.421875 37.71875 1 
Q 33.40625 -1.421875 27.6875 -1.421875 
Q 18.265625 -1.421875 13.375 4.4375 
Q 8.5 10.296875 8.5 21.578125 
z
M 31.109375 56 
z
" id="DejaVuSans-75"/>
     <path d="M 41.109375 46.296875 
Q 39.59375 47.171875 37.8125 47.578125 
Q 36.03125 48 33.890625 48 
Q 26.265625 48 22.1875 43.046875 
Q 18.109375 38.09375 18.109375 28.8125 
L 18.109375 0 
L 9.078125 0 
L 9.078125 54.6875 
L 18.109375 54.6875 
L 18.109375 46.1875 
Q 20.953125 51.171875 25.484375 53.578125 
Q 30.03125 56 36.53125 56 
Q 37.453125 56 38.578125 55.875 
Q 39.703125 55.765625 41.0625 55.515625 
z
" id="DejaVuSans-72"/>
     <path d="M 9.421875 54.6875 
L 18.40625 54.6875 
L 18.40625 0 
L 9.421875 0 
z
M 9.421875 75.984375 
L 18.40625 75.984375 
L 18.40625 64.59375 
L 9.421875 64.59375 
z
" id="DejaVuSans-69"/>
     <path d="M 30.609375 48.390625 
Q 23.390625 48.390625 19.1875 42.75 
Q 14.984375 37.109375 14.984375 27.296875 
Q 14.984375 17.484375 19.15625 11.84375 
Q 23.34375 6.203125 30.609375 6.203125 
Q 37.796875 6.203125 41.984375 11.859375 
Q 46.1875 17.53125 46.1875 27.296875 
Q 46.1875 37.015625 41.984375 42.703125 
Q 37.796875 48.390625 30.609375 48.390625 
z
M 30.609375 56 
Q 42.328125 56 49.015625 48.375 
Q 55.71875 40.765625 55.71875 27.296875 
Q 55.71875 13.875 49.015625 6.21875 
Q 42.328125 -1.421875 30.609375 -1.421875 
Q 18.84375 -1.421875 12.171875 6.21875 
Q 5.515625 13.875 5.515625 27.296875 
Q 5.515625 40.765625 12.171875 48.375 
Q 18.84375 56 30.609375 56 
z
" id="DejaVuSans-6f"/>
     <path d="M 54.890625 33.015625 
L 54.890625 0 
L 45.90625 0 
L 45.90625 32.71875 
Q 45.90625 40.484375 42.875 44.328125 
Q 39.84375 48.1875 33.796875 48.1875 
Q 26.515625 48.1875 22.3125 43.546875 
Q 18.109375 38.921875 18.109375 30.90625 
L 18.109375 0 
L 9.078125 0 
L 9.078125 54.6875 
L 18.109375 54.6875 
L 18.109375 46.1875 
Q 21.34375 51.125 25.703125 53.5625 
Q 30.078125 56 35.796875 56 
Q 45.21875 56 50.046875 50.171875 
Q 54.890625 44.34375 54.890625 33.015625 
z
" id="DejaVuSans-6e"/>
     <path d="M 37.109375 75.984375 
L 37.109375 68.5 
L 28.515625 68.5 
Q 23.6875 68.5 21.796875 66.546875 
Q 19.921875 64.59375 19.921875 59.515625 
L 19.921875 54.6875 
L 34.71875 54.6875 
L 34.71875 47.703125 
L 19.921875 47.703125 
L 19.921875 0 
L 10.890625 0 
L 10.890625 47.703125 
L 2.296875 47.703125 
L 2.296875 54.6875 
L 10.890625 54.6875 
L 10.890625 58.5 
Q 10.890625 67.625 15.140625 71.796875 
Q 19.390625 75.984375 28.609375 75.984375 
z
" id="DejaVuSans-66"/>
     <path d="M 18.109375 8.203125 
L 18.109375 -20.796875 
L 9.078125 -20.796875 
L 9.078125 54.6875 
L 18.109375 54.6875 
L 18.109375 46.390625 
Q 20.953125 51.265625 25.265625 53.625 
Q 29.59375 56 35.59375 56 
Q 45.5625 56 51.78125 48.09375 
Q 58.015625 40.1875 58.015625 27.296875 
Q 58.015625 14.40625 51.78125 6.484375 
Q 45.5625 -1.421875 35.59375 -1.421875 
Q 29.59375 -1.421875 25.265625 0.953125 
Q 20.953125 3.328125 18.109375 8.203125 
z
M 48.6875 27.296875 
Q 48.6875 37.203125 44.609375 42.84375 
Q 40.53125 48.484375 33.40625 48.484375 
Q 26.265625 48.484375 22.1875 42.84375 
Q 18.109375 37.203125 18.109375 27.296875 
Q 18.109375 17.390625 22.1875 11.75 
Q 26.265625 6.109375 33.40625 6.109375 
Q 40.53125 6.109375 44.609375 11.75 
Q 48.6875 17.390625 48.6875 27.296875 
z
" id="DejaVuSans-70"/>
     <path d="M 45.40625 46.390625 
L 45.40625 75.984375 
L 54.390625 75.984375 
L 54.390625 0 
L 45.40625 0 
L 45.40625 8.203125 
Q 42.578125 3.328125 38.25 0.953125 
Q 33.9375 -1.421875 27.875 -1.421875 
Q 17.96875 -1.421875 11.734375 6.484375 
Q 5.515625 14.40625 5.515625 27.296875 
Q 5.515625 40.1875 11.734375 48.09375 
Q 17.96875 56 27.875 56 
Q 33.9375 56 38.25 53.625 
Q 42.578125 51.265625 45.40625 46.390625 
z
M 14.796875 27.296875 
Q 14.796875 17.390625 18.875 11.75 
Q 22.953125 6.109375 30.078125 6.109375 
Q 37.203125 6.109375 41.296875 11.75 
Q 45.40625 17.390625 45.40625 27.296875 
Q 45.40625 37.203125 41.296875 42.84375 
Q 37.203125 48.484375 30.078125 48.484375 
Q 22.953125 48.484375 18.875 42.84375 
Q 14.796875 37.203125 14.796875 27.296875 
z
" id="DejaVuSans-64"/>
     <path d="M 2.984375 54.6875 
L 12.5 54.6875 
L 29.59375 8.796875 
L 46.6875 54.6875 
L 56.203125 54.6875 
L 35.6875 0 
L 23.484375 0 
z
" id="DejaVuSans-76"/>
     <path d="M 56.203125 29.59375 
L 56.203125 25.203125 
L 14.890625 25.203125 
Q 15.484375 15.921875 20.484375 11.0625 
Q 25.484375 6.203125 34.421875 6.203125 
Q 39.59375 6.203125 44.453125 7.46875 
Q 49.3125 8.734375 54.109375 11.28125 
L 54.109375 2.78125 
Q 49.265625 0.734375 44.1875 -0.34375 
Q 39.109375 -1.421875 33.890625 -1.421875 
Q 20.796875 -1.421875 13.15625 6.1875 
Q 5.515625 13.8125 5.515625 26.8125 
Q 5.515625 40.234375 12.765625 48.109375 
Q 20.015625 56 32.328125 56 
Q 43.359375 56 49.78125 48.890625 
Q 56.203125 41.796875 56.203125 29.59375 
z
M 47.21875 32.234375 
Q 47.125 39.59375 43.09375 43.984375 
Q 39.0625 48.390625 32.421875 48.390625 
Q 24.90625 48.390625 20.390625 44.140625 
Q 15.875 39.890625 15.1875 32.171875 
z
" id="DejaVuSans-65"/>
     <path d="M 9.421875 75.984375 
L 18.40625 75.984375 
L 18.40625 0 
L 9.421875 0 
z
" id="DejaVuSans-6c"/>
     <path d="M 48.78125 52.59375 
L 48.78125 44.1875 
Q 44.96875 46.296875 41.140625 47.34375 
Q 37.3125 48.390625 33.40625 48.390625 
Q 24.65625 48.390625 19.8125 42.84375 
Q 14.984375 37.3125 14.984375 27.296875 
Q 14.984375 17.28125 19.8125 11.734375 
Q 24.65625 6.203125 33.40625 6.203125 
Q 37.3125 6.203125 41.140625 7.25 
Q 44.96875 8.296875 48.78125 10.40625 
L 48.78125 2.09375 
Q 45.015625 0.34375 40.984375 -0.53125 
Q 36.96875 -1.421875 32.421875 -1.421875 
Q 20.0625 -1.421875 12.78125 6.34375 
Q 5.515625 14.109375 5.515625 27.296875 
Q 5.515625 40.671875 12.859375 48.328125 
Q 20.21875 56 33.015625 56 
Q 37.15625 56 41.109375 55.140625 
Q 45.0625 54.296875 48.78125 52.59375 
z
" id="DejaVuSans-63"/>
     <path d="M 32.171875 -5.078125 
Q 28.375 -14.84375 24.75 -17.8125 
Q 21.140625 -20.796875 15.09375 -20.796875 
L 7.90625 -20.796875 
L 7.90625 -13.28125 
L 13.1875 -13.28125 
Q 16.890625 -13.28125 18.9375 -11.515625 
Q 21 -9.765625 23.484375 -3.21875 
L 25.09375 0.875 
L 2.984375 54.6875 
L 12.5 54.6875 
L 29.59375 11.921875 
L 46.6875 54.6875 
L 56.203125 54.6875 
z
" id="DejaVuSans-79"/>
     <path d="M 10.59375 45.40625 
L 73.1875 45.40625 
L 73.1875 37.203125 
L 10.59375 37.203125 
z
M 10.59375 25.484375 
L 73.1875 25.484375 
L 73.1875 17.1875 
L 10.59375 17.1875 
z
" id="DejaVuSans-3d"/>
     <path d="M 47.796875 75.984375 
L 46.390625 68.5 
L 37.796875 68.5 
Q 32.90625 68.5 30.6875 66.578125 
Q 28.46875 64.65625 27.390625 59.515625 
L 26.421875 54.6875 
L 41.21875 54.6875 
L 39.890625 47.703125 
L 25.09375 47.703125 
L 15.828125 0 
L 6.78125 0 
L 16.109375 47.703125 
L 7.515625 47.703125 
L 8.796875 54.6875 
L 17.390625 54.6875 
L 18.109375 58.5 
Q 19.96875 68.171875 24.625 72.078125 
Q 29.296875 75.984375 39.3125 75.984375 
z
" id="DejaVuSans-Oblique-66"/>
     <path d="M 44.578125 46.390625 
Q 43.21875 47.125 41.453125 47.515625 
Q 39.703125 47.90625 37.703125 47.90625 
Q 30.515625 47.90625 25.140625 42.453125 
Q 19.78125 37.015625 18.015625 27.875 
L 12.5 0 
L 3.515625 0 
L 14.203125 54.6875 
L 23.1875 54.6875 
L 21.484375 46.1875 
Q 25.046875 50.921875 30 53.453125 
Q 34.96875 56 40.578125 56 
Q 42.046875 56 43.453125 55.828125 
Q 44.875 55.671875 46.296875 55.28125 
z
" id="DejaVuSans-Oblique-72"/>
     <path d="M 53.71875 31.203125 
L 47.609375 0 
L 38.625 0 
L 40.28125 8.296875 
Q 36.328125 3.421875 31.265625 1 
Q 26.21875 -1.421875 20.015625 -1.421875 
Q 13.03125 -1.421875 8.5625 2.84375 
Q 4.109375 7.125 4.109375 13.8125 
Q 4.109375 23.390625 11.75 28.953125 
Q 19.390625 34.515625 32.8125 34.515625 
L 45.3125 34.515625 
L 45.796875 36.921875 
Q 45.90625 37.3125 45.953125 37.765625 
Q 46 38.234375 46 39.203125 
Q 46 43.5625 42.453125 45.96875 
Q 38.921875 48.390625 32.515625 48.390625 
Q 28.125 48.390625 23.5 47.265625 
Q 18.890625 46.140625 14.015625 43.890625 
L 15.578125 52.203125 
Q 20.65625 54.109375 25.515625 55.046875 
Q 30.375 56 34.90625 56 
Q 44.578125 56 49.625 51.796875 
Q 54.6875 47.609375 54.6875 39.59375 
Q 54.6875 37.984375 54.4375 35.8125 
Q 54.203125 33.640625 53.71875 31.203125 
z
M 44 27.484375 
L 35.015625 27.484375 
Q 23.96875 27.484375 18.671875 24.53125 
Q 13.375 21.578125 13.375 15.375 
Q 13.375 11.078125 16.078125 8.640625 
Q 18.796875 6.203125 23.578125 6.203125 
Q 30.90625 6.203125 36.375 11.453125 
Q 41.84375 16.703125 43.609375 25.484375 
z
" id="DejaVuSans-Oblique-61"/>
     <path d="M 53.609375 52.59375 
L 51.8125 43.703125 
Q 48.578125 46.046875 44.9375 47.21875 
Q 41.3125 48.390625 37.40625 48.390625 
Q 33.109375 48.390625 29.21875 46.875 
Q 25.34375 45.359375 22.703125 42.578125 
Q 18.5 38.328125 16.203125 32.609375 
Q 13.921875 26.90625 13.921875 20.796875 
Q 13.921875 13.421875 17.609375 9.8125 
Q 21.296875 6.203125 28.8125 6.203125 
Q 32.515625 6.203125 36.6875 7.328125 
Q 40.875 8.453125 45.40625 10.6875 
L 43.703125 1.8125 
Q 39.796875 0.203125 35.671875 -0.609375 
Q 31.546875 -1.421875 27.203125 -1.421875 
Q 16.3125 -1.421875 10.453125 4.015625 
Q 4.59375 9.46875 4.59375 19.578125 
Q 4.59375 28.078125 7.640625 35.234375 
Q 10.6875 42.390625 16.703125 48.09375 
Q 20.796875 52 26.3125 54 
Q 31.84375 56 38.375 56 
Q 42.1875 56 45.9375 55.140625 
Q 49.703125 54.296875 53.609375 52.59375 
z
" id="DejaVuSans-Oblique-63"/>
     <path d="M 89.796875 33.015625 
L 83.40625 0 
L 74.421875 0 
L 80.71875 32.71875 
Q 81.109375 34.8125 81.296875 36.328125 
Q 81.5 37.84375 81.5 38.921875 
Q 81.5 43.3125 79.046875 45.75 
Q 76.609375 48.1875 72.21875 48.1875 
Q 65.671875 48.1875 60.546875 43.28125 
Q 55.421875 38.375 53.90625 30.515625 
L 47.90625 0 
L 38.921875 0 
L 45.3125 32.71875 
Q 45.703125 34.515625 45.890625 36.046875 
Q 46.09375 37.59375 46.09375 38.8125 
Q 46.09375 43.265625 43.65625 45.71875 
Q 41.21875 48.1875 36.921875 48.1875 
Q 30.28125 48.1875 25.140625 43.28125 
Q 20.015625 38.375 18.5 30.515625 
L 12.5 0 
L 3.515625 0 
L 14.203125 54.6875 
L 23.1875 54.6875 
L 21.484375 46.1875 
Q 25.140625 50.984375 30.046875 53.484375 
Q 34.96875 56 40.578125 56 
Q 46.53125 56 50.359375 52.875 
Q 54.203125 49.75 54.984375 44.1875 
Q 59.078125 49.953125 64.46875 52.96875 
Q 69.875 56 75.875 56 
Q 82.90625 56 86.734375 51.953125 
Q 90.578125 47.90625 90.578125 40.484375 
Q 90.578125 38.875 90.375 36.9375 
Q 90.1875 35.015625 89.796875 33.015625 
z
" id="DejaVuSans-Oblique-6d"/>
     <path d="M 50 53.078125 
L 48.296875 44.578125 
Q 44.734375 46.53125 40.765625 47.5 
Q 36.8125 48.484375 32.625 48.484375 
Q 25.53125 48.484375 21.453125 46.0625 
Q 17.390625 43.65625 17.390625 39.5 
Q 17.390625 34.671875 26.859375 32.078125 
Q 27.59375 31.890625 27.9375 31.78125 
L 30.8125 30.90625 
Q 39.796875 28.421875 42.796875 25.6875 
Q 45.796875 22.953125 45.796875 18.21875 
Q 45.796875 9.515625 38.890625 4.046875 
Q 31.984375 -1.421875 20.796875 -1.421875 
Q 16.453125 -1.421875 11.671875 -0.578125 
Q 6.890625 0.25 1.125 2 
L 2.875 11.28125 
Q 7.8125 8.734375 12.59375 7.421875 
Q 17.390625 6.109375 21.78125 6.109375 
Q 28.375 6.109375 32.5 8.9375 
Q 36.625 11.765625 36.625 16.109375 
Q 36.625 20.796875 25.78125 23.6875 
L 24.859375 23.921875 
L 21.78125 24.703125 
Q 14.9375 26.515625 11.765625 29.46875 
Q 8.59375 32.421875 8.59375 37.015625 
Q 8.59375 45.75 15.15625 50.875 
Q 21.734375 56 33.015625 56 
Q 37.453125 56 41.671875 55.265625 
Q 45.90625 54.546875 50 53.078125 
z
" id="DejaVuSans-Oblique-73"/>
    </defs>
    <g transform="translate(387.418909 106.32)scale(0.216 -0.216)">
     <use transform="translate(0 0.015625)" xlink:href="#DejaVuSans-53"/>
     <use transform="translate(63.476562 0.015625)" xlink:href="#DejaVuSans-61"/>
     <use transform="translate(124.755859 0.015625)" xlink:href="#DejaVuSans-74"/>
     <use transform="translate(163.964844 0.015625)" xlink:href="#DejaVuSans-75"/>
     <use transform="translate(227.34375 0.015625)" xlink:href="#DejaVuSans-72"/>
     <use transform="translate(268.457031 0.015625)" xlink:href="#DejaVuSans-61"/>
     <use transform="translate(329.736328 0.015625)" xlink:href="#DejaVuSans-74"/>
     <use transform="translate(368.945312 0.015625)" xlink:href="#DejaVuSans-69"/>
     <use transform="translate(396.728516 0.015625)" xlink:href="#DejaVuSans-6f"/>
     <use transform="translate(457.910156 0.015625)" xlink:href="#DejaVuSans-6e"/>
     <use transform="translate(521.289062 0.015625)" xlink:href="#DejaVuSans-20"/>
     <use transform="translate(553.076172 0.015625)" xlink:href="#DejaVuSans-66"/>
     <use transform="translate(588.28125 0.015625)" xlink:href="#DejaVuSans-6f"/>
     <use transform="translate(649.462891 0.015625)" xlink:href="#DejaVuSans-72"/>
     <use transform="translate(690.576172 0.015625)" xlink:href="#DejaVuSans-20"/>
     <use transform="translate(722.363281 0.015625)" xlink:href="#DejaVuSans-75"/>
     <use transform="translate(785.742188 0.015625)" xlink:href="#DejaVuSans-70"/>
     <use transform="translate(849.21875 0.015625)" xlink:href="#DejaVuSans-64"/>
     <use transform="translate(912.695312 0.015625)" xlink:href="#DejaVuSans-72"/>
     <use transform="translate(953.808594 0.015625)" xlink:href="#DejaVuSans-61"/>
     <use transform="translate(1015.087891 0.015625)" xlink:href="#DejaVuSans-66"/>
     <use transform="translate(1050.292969 0.015625)" xlink:href="#DejaVuSans-74"/>
     <use transform="translate(1089.501953 0.015625)" xlink:href="#DejaVuSans-20"/>
     <use transform="translate(1121.289062 0.015625)" xlink:href="#DejaVuSans-76"/>
     <use transform="translate(1180.46875 0.015625)" xlink:href="#DejaVuSans-65"/>
     <use transform="translate(1241.992188 0.015625)" xlink:href="#DejaVuSans-6c"/>
     <use transform="translate(1269.775391 0.015625)" xlink:href="#DejaVuSans-6f"/>
     <use transform="translate(1330.957031 0.015625)" xlink:href="#DejaVuSans-63"/>
     <use transform="translate(1385.9375 0.015625)" xlink:href="#DejaVuSans-69"/>
     <use transform="translate(1413.720703 0.015625)" xlink:href="#DejaVuSans-74"/>
     <use transform="translate(1452.929688 0.015625)" xlink:href="#DejaVuSans-79"/>
     <use transform="translate(1512.109375 0.015625)" xlink:href="#DejaVuSans-3d"/>
     <use transform="translate(1595.898438 0.015625)" xlink:href="#DejaVuSans-20"/>
     <use transform="translate(1627.685547 0.015625)" xlink:href="#DejaVuSans-32"/>
     <use transform="translate(1691.308594 0.015625)" xlink:href="#DejaVuSans-Oblique-66"/>
     <use transform="translate(1726.513672 0.015625)" xlink:href="#DejaVuSans-Oblique-72"/>
     <use transform="translate(1767.626953 0.015625)" xlink:href="#DejaVuSans-Oblique-61"/>
     <use transform="translate(1828.90625 0.015625)" xlink:href="#DejaVuSans-Oblique-63"/>
     <use transform="translate(1883.886719 0.015625)" xlink:href="#DejaVuSans-Oblique-6d"/>
     <use transform="translate(1981.298828 0.015625)" xlink:href="#DejaVuSans-Oblique-73"/>
    </g>
   </g>
   <g id="legend_1">
    <g id="patch_7">
     <path d="M 264.6 258.823125 
L 486.63 258.823125 
Q 490.23 258.823125 490.23 255.223125 
L 490.23 124.92 
Q 490.23 121.32 486.63 121.32 
L 264.6 121.32 
Q 261 121.32 261 124.92 
L 261 255.223125 
Q 261 258.823125 264.6 258.823125 
z
" style="fill:#ffffff;opacity:0.8;stroke:#cccccc;stroke-linejoin:miter;"/>
    </g>
    <g id="text_21">
     <!-- Condensation time step -->
     <defs>
      <path d="M 64.40625 67.28125 
L 64.40625 56.890625 
Q 59.421875 61.53125 53.78125 63.8125 
Q 48.140625 66.109375 41.796875 66.109375 
Q 29.296875 66.109375 22.65625 58.46875 
Q 16.015625 50.828125 16.015625 36.375 
Q 16.015625 21.96875 22.65625 14.328125 
Q 29.296875 6.6875 41.796875 6.6875 
Q 48.140625 6.6875 53.78125 8.984375 
Q 59.421875 11.28125 64.40625 15.921875 
L 64.40625 5.609375 
Q 59.234375 2.09375 53.4375 0.328125 
Q 47.65625 -1.421875 41.21875 -1.421875 
Q 24.65625 -1.421875 15.125 8.703125 
Q 5.609375 18.84375 5.609375 36.375 
Q 5.609375 53.953125 15.125 64.078125 
Q 24.65625 74.21875 41.21875 74.21875 
Q 47.75 74.21875 53.53125 72.484375 
Q 59.328125 70.75 64.40625 67.28125 
z
" id="DejaVuSans-43"/>
      <path d="M 44.28125 53.078125 
L 44.28125 44.578125 
Q 40.484375 46.53125 36.375 47.5 
Q 32.28125 48.484375 27.875 48.484375 
Q 21.1875 48.484375 17.84375 46.4375 
Q 14.5 44.390625 14.5 40.28125 
Q 14.5 37.15625 16.890625 35.375 
Q 19.28125 33.59375 26.515625 31.984375 
L 29.59375 31.296875 
Q 39.15625 29.25 43.1875 25.515625 
Q 47.21875 21.78125 47.21875 15.09375 
Q 47.21875 7.46875 41.1875 3.015625 
Q 35.15625 -1.421875 24.609375 -1.421875 
Q 20.21875 -1.421875 15.453125 -0.5625 
Q 10.6875 0.296875 5.421875 2 
L 5.421875 11.28125 
Q 10.40625 8.6875 15.234375 7.390625 
Q 20.0625 6.109375 24.8125 6.109375 
Q 31.15625 6.109375 34.5625 8.28125 
Q 37.984375 10.453125 37.984375 14.40625 
Q 37.984375 18.0625 35.515625 20.015625 
Q 33.0625 21.96875 24.703125 23.78125 
L 21.578125 24.515625 
Q 13.234375 26.265625 9.515625 29.90625 
Q 5.8125 33.546875 5.8125 39.890625 
Q 5.8125 47.609375 11.28125 51.796875 
Q 16.75 56 26.8125 56 
Q 31.78125 56 36.171875 55.265625 
Q 40.578125 54.546875 44.28125 53.078125 
z
" id="DejaVuSans-73"/>
     </defs>
     <g transform="translate(268.2 142.197188)scale(0.18 -0.18)">
      <use xlink:href="#DejaVuSans-43"/>
      <use x="69.824219" xlink:href="#DejaVuSans-6f"/>
      <use x="131.005859" xlink:href="#DejaVuSans-6e"/>
      <use x="194.384766" xlink:href="#DejaVuSans-64"/>
      <use x="257.861328" xlink:href="#DejaVuSans-65"/>
      <use x="319.384766" xlink:href="#DejaVuSans-6e"/>
      <use x="382.763672" xlink:href="#DejaVuSans-73"/>
      <use x="434.863281" xlink:href="#DejaVuSans-61"/>
      <use x="496.142578" xlink:href="#DejaVuSans-74"/>
      <use x="535.351562" xlink:href="#DejaVuSans-69"/>
      <use x="563.134766" xlink:href="#DejaVuSans-6f"/>
      <use x="624.316406" xlink:href="#DejaVuSans-6e"/>
      <use x="687.695312" xlink:href="#DejaVuSans-20"/>
      <use x="719.482422" xlink:href="#DejaVuSans-74"/>
      <use x="758.691406" xlink:href="#DejaVuSans-69"/>
      <use x="786.474609" xlink:href="#DejaVuSans-6d"/>
      <use x="883.886719" xlink:href="#DejaVuSans-65"/>
      <use x="945.410156" xlink:href="#DejaVuSans-20"/>
      <use x="977.197266" xlink:href="#DejaVuSans-73"/>
      <use x="1029.296875" xlink:href="#DejaVuSans-74"/>
      <use x="1068.505859" xlink:href="#DejaVuSans-65"/>
      <use x="1130.029297" xlink:href="#DejaVuSans-70"/>
     </g>
    </g>
    <g id="line2d_26">
     <path d="M 330.204375 162.317813 
L 366.204375 162.317813 
" style="fill:none;stroke:#1f77b4;stroke-linecap:square;stroke-width:1.5;"/>
    </g>
    <g id="line2d_27"/>
    <g id="text_22">
     <!-- 1/1 -->
     <defs>
      <path d="M 25.390625 72.90625 
L 33.6875 72.90625 
L 8.296875 -9.28125 
L 0 -9.28125 
z
" id="DejaVuSans-2f"/>
     </defs>
     <g transform="translate(380.604375 168.617813)scale(0.18 -0.18)">
      <use xlink:href="#DejaVuSans-31"/>
      <use x="63.623047" xlink:href="#DejaVuSans-2f"/>
      <use x="97.314453" xlink:href="#DejaVuSans-31"/>
     </g>
    </g>
    <g id="line2d_28">
     <path d="M 330.204375 188.738437 
L 366.204375 188.738437 
" style="fill:none;stroke:#2ca02c;stroke-linecap:square;stroke-width:1.5;"/>
    </g>
    <g id="line2d_29"/>
    <g id="text_23">
     <!-- 1/2 -->
     <g transform="translate(380.604375 195.038437)scale(0.18 -0.18)">
      <use xlink:href="#DejaVuSans-31"/>
      <use x="63.623047" xlink:href="#DejaVuSans-2f"/>
      <use x="97.314453" xlink:href="#DejaVuSans-32"/>
     </g>
    </g>
    <g id="line2d_30">
     <path d="M 330.204375 215.159062 
L 366.204375 215.159062 
" style="fill:none;stroke:#9467bd;stroke-linecap:square;stroke-width:1.5;"/>
    </g>
    <g id="line2d_31"/>
    <g id="text_24">
     <!-- 1/5 -->
     <g transform="translate(380.604375 221.459062)scale(0.18 -0.18)">
      <use xlink:href="#DejaVuSans-31"/>
      <use x="63.623047" xlink:href="#DejaVuSans-2f"/>
      <use x="97.314453" xlink:href="#DejaVuSans-35"/>
     </g>
    </g>
    <g id="line2d_32">
     <path d="M 330.204375 241.579688 
L 366.204375 241.579688 
" style="fill:none;stroke:#e377c2;stroke-linecap:square;stroke-width:1.5;"/>
    </g>
    <g id="line2d_33"/>
    <g id="text_25">
     <!-- 1/10 -->
     <g transform="translate(380.604375 247.879688)scale(0.18 -0.18)">
      <use xlink:href="#DejaVuSans-31"/>
      <use x="63.623047" xlink:href="#DejaVuSans-2f"/>
      <use x="97.314453" xlink:href="#DejaVuSans-31"/>
      <use x="160.9375" xlink:href="#DejaVuSans-30"/>
     </g>
    </g>
   </g>
  </g>
  <g id="axes_2">
   <g id="patch_8">
    <path d="M 1104.218182 833.04 
L 1814.4 833.04 
L 1814.4 112.32 
L 1104.218182 112.32 
z
" style="fill:#ffffff;"/>
   </g>
   <g id="matplotlib.axis_3">
    <g id="xtick_9">
     <g id="line2d_34">
      <g>
       <use style="stroke:#000000;stroke-width:0.8;" x="1135.993354" xlink:href="#m61d333ef9f" y="833.04"/>
      </g>
     </g>
     <g id="text_26">
      <!-- 0.0 -->
      <g transform="translate(1121.680541 853.717188)scale(0.18 -0.18)">
       <use xlink:href="#DejaVuSans-30"/>
       <use x="63.623047" xlink:href="#DejaVuSans-2e"/>
       <use x="95.410156" xlink:href="#DejaVuSans-30"/>
      </g>
     </g>
    </g>
    <g id="xtick_10">
     <g id="line2d_35">
      <g>
       <use style="stroke:#000000;stroke-width:0.8;" x="1250.639768" xlink:href="#m61d333ef9f" y="833.04"/>
      </g>
     </g>
     <g id="text_27">
      <!-- 0.2 -->
      <g transform="translate(1236.326955 853.717188)scale(0.18 -0.18)">
       <use xlink:href="#DejaVuSans-30"/>
       <use x="63.623047" xlink:href="#DejaVuSans-2e"/>
       <use x="95.410156" xlink:href="#DejaVuSans-32"/>
      </g>
     </g>
    </g>
    <g id="xtick_11">
     <g id="line2d_36">
      <g>
       <use style="stroke:#000000;stroke-width:0.8;" x="1365.286182" xlink:href="#m61d333ef9f" y="833.04"/>
      </g>
     </g>
     <g id="text_28">
      <!-- 0.4 -->
      <defs>
       <path d="M 37.796875 64.3125 
L 12.890625 25.390625 
L 37.796875 25.390625 
z
M 35.203125 72.90625 
L 47.609375 72.90625 
L 47.609375 25.390625 
L 58.015625 25.390625 
L 58.015625 17.1875 
L 47.609375 17.1875 
L 47.609375 0 
L 37.796875 0 
L 37.796875 17.1875 
L 4.890625 17.1875 
L 4.890625 26.703125 
z
" id="DejaVuSans-34"/>
      </defs>
      <g transform="translate(1350.97337 853.717188)scale(0.18 -0.18)">
       <use xlink:href="#DejaVuSans-30"/>
       <use x="63.623047" xlink:href="#DejaVuSans-2e"/>
       <use x="95.410156" xlink:href="#DejaVuSans-34"/>
      </g>
     </g>
    </g>
    <g id="xtick_12">
     <g id="line2d_37">
      <g>
       <use style="stroke:#000000;stroke-width:0.8;" x="1479.932596" xlink:href="#m61d333ef9f" y="833.04"/>
      </g>
     </g>
     <g id="text_29">
      <!-- 0.6 -->
      <defs>
       <path d="M 33.015625 40.375 
Q 26.375 40.375 22.484375 35.828125 
Q 18.609375 31.296875 18.609375 23.390625 
Q 18.609375 15.53125 22.484375 10.953125 
Q 26.375 6.390625 33.015625 6.390625 
Q 39.65625 6.390625 43.53125 10.953125 
Q 47.40625 15.53125 47.40625 23.390625 
Q 47.40625 31.296875 43.53125 35.828125 
Q 39.65625 40.375 33.015625 40.375 
z
M 52.59375 71.296875 
L 52.59375 62.3125 
Q 48.875 64.0625 45.09375 64.984375 
Q 41.3125 65.921875 37.59375 65.921875 
Q 27.828125 65.921875 22.671875 59.328125 
Q 17.53125 52.734375 16.796875 39.40625 
Q 19.671875 43.65625 24.015625 45.921875 
Q 28.375 48.1875 33.59375 48.1875 
Q 44.578125 48.1875 50.953125 41.515625 
Q 57.328125 34.859375 57.328125 23.390625 
Q 57.328125 12.15625 50.6875 5.359375 
Q 44.046875 -1.421875 33.015625 -1.421875 
Q 20.359375 -1.421875 13.671875 8.265625 
Q 6.984375 17.96875 6.984375 36.375 
Q 6.984375 53.65625 15.1875 63.9375 
Q 23.390625 74.21875 37.203125 74.21875 
Q 40.921875 74.21875 44.703125 73.484375 
Q 48.484375 72.75 52.59375 71.296875 
z
" id="DejaVuSans-36"/>
      </defs>
      <g transform="translate(1465.619784 853.717188)scale(0.18 -0.18)">
       <use xlink:href="#DejaVuSans-30"/>
       <use x="63.623047" xlink:href="#DejaVuSans-2e"/>
       <use x="95.410156" xlink:href="#DejaVuSans-36"/>
      </g>
     </g>
    </g>
    <g id="xtick_13">
     <g id="line2d_38">
      <g>
       <use style="stroke:#000000;stroke-width:0.8;" x="1594.579011" xlink:href="#m61d333ef9f" y="833.04"/>
      </g>
     </g>
     <g id="text_30">
      <!-- 0.8 -->
      <g transform="translate(1580.266198 853.717188)scale(0.18 -0.18)">
       <use xlink:href="#DejaVuSans-30"/>
       <use x="63.623047" xlink:href="#DejaVuSans-2e"/>
       <use x="95.410156" xlink:href="#DejaVuSans-38"/>
      </g>
     </g>
    </g>
    <g id="xtick_14">
     <g id="line2d_39">
      <g>
       <use style="stroke:#000000;stroke-width:0.8;" x="1709.225425" xlink:href="#m61d333ef9f" y="833.04"/>
      </g>
     </g>
     <g id="text_31">
      <!-- 1.0 -->
      <g transform="translate(1694.912613 853.717188)scale(0.18 -0.18)">
       <use xlink:href="#DejaVuSans-31"/>
       <use x="63.623047" xlink:href="#DejaVuSans-2e"/>
       <use x="95.410156" xlink:href="#DejaVuSans-30"/>
      </g>
     </g>
    </g>
    <g id="text_32">
     <!-- Moment 0 -->
     <defs>
      <path d="M 9.8125 72.90625 
L 24.515625 72.90625 
L 43.109375 23.296875 
L 61.8125 72.90625 
L 76.515625 72.90625 
L 76.515625 0 
L 66.890625 0 
L 66.890625 64.015625 
L 48.09375 14.015625 
L 38.1875 14.015625 
L 19.390625 64.015625 
L 19.390625 0 
L 9.8125 0 
z
" id="DejaVuSans-4d"/>
     </defs>
     <g transform="translate(1413.913935 875.137812)scale(0.18 -0.18)">
      <use xlink:href="#DejaVuSans-4d"/>
      <use x="86.279297" xlink:href="#DejaVuSans-6f"/>
      <use x="147.460938" xlink:href="#DejaVuSans-6d"/>
      <use x="244.873047" xlink:href="#DejaVuSans-65"/>
      <use x="306.396484" xlink:href="#DejaVuSans-6e"/>
      <use x="369.775391" xlink:href="#DejaVuSans-74"/>
      <use x="408.984375" xlink:href="#DejaVuSans-20"/>
      <use x="440.771484" xlink:href="#DejaVuSans-30"/>
     </g>
    </g>
    <g id="text_33">
     <!-- 1e8 -->
     <g transform="translate(1780.419375 874.137812)scale(0.18 -0.18)">
      <use xlink:href="#DejaVuSans-31"/>
      <use x="63.623047" xlink:href="#DejaVuSans-65"/>
      <use x="125.146484" xlink:href="#DejaVuSans-38"/>
     </g>
    </g>
   </g>
   <g id="matplotlib.axis_4">
    <g id="ytick_10">
     <g id="line2d_40">
      <g>
       <use style="stroke:#000000;stroke-width:0.8;" x="1104.218182" xlink:href="#mec94e9af1b" y="800.28"/>
      </g>
     </g>
     <g id="text_34">
      <!-- 0 -->
      <g transform="translate(1085.765682 807.118594)scale(0.18 -0.18)">
       <use xlink:href="#DejaVuSans-30"/>
      </g>
     </g>
    </g>
    <g id="ytick_11">
     <g id="line2d_41">
      <g>
       <use style="stroke:#000000;stroke-width:0.8;" x="1104.218182" xlink:href="#mec94e9af1b" y="718.38"/>
      </g>
     </g>
     <g id="text_35">
      <!-- 25 -->
      <g transform="translate(1074.313182 725.218594)scale(0.18 -0.18)">
       <use xlink:href="#DejaVuSans-32"/>
       <use x="63.623047" xlink:href="#DejaVuSans-35"/>
      </g>
     </g>
    </g>
    <g id="ytick_12">
     <g id="line2d_42">
      <g>
       <use style="stroke:#000000;stroke-width:0.8;" x="1104.218182" xlink:href="#mec94e9af1b" y="636.48"/>
      </g>
     </g>
     <g id="text_36">
      <!-- 50 -->
      <g transform="translate(1074.313182 643.318594)scale(0.18 -0.18)">
       <use xlink:href="#DejaVuSans-35"/>
       <use x="63.623047" xlink:href="#DejaVuSans-30"/>
      </g>
     </g>
    </g>
    <g id="ytick_13">
     <g id="line2d_43">
      <g>
       <use style="stroke:#000000;stroke-width:0.8;" x="1104.218182" xlink:href="#mec94e9af1b" y="554.58"/>
      </g>
     </g>
     <g id="text_37">
      <!-- 75 -->
      <g transform="translate(1074.313182 561.418594)scale(0.18 -0.18)">
       <use xlink:href="#DejaVuSans-37"/>
       <use x="63.623047" xlink:href="#DejaVuSans-35"/>
      </g>
     </g>
    </g>
    <g id="ytick_14">
     <g id="line2d_44">
      <g>
       <use style="stroke:#000000;stroke-width:0.8;" x="1104.218182" xlink:href="#mec94e9af1b" y="472.68"/>
      </g>
     </g>
     <g id="text_38">
      <!-- 100 -->
      <g transform="translate(1062.860682 479.518594)scale(0.18 -0.18)">
       <use xlink:href="#DejaVuSans-31"/>
       <use x="63.623047" xlink:href="#DejaVuSans-30"/>
       <use x="127.246094" xlink:href="#DejaVuSans-30"/>
      </g>
     </g>
    </g>
    <g id="ytick_15">
     <g id="line2d_45">
      <g>
       <use style="stroke:#000000;stroke-width:0.8;" x="1104.218182" xlink:href="#mec94e9af1b" y="390.78"/>
      </g>
     </g>
     <g id="text_39">
      <!-- 125 -->
      <g transform="translate(1062.860682 397.618594)scale(0.18 -0.18)">
       <use xlink:href="#DejaVuSans-31"/>
       <use x="63.623047" xlink:href="#DejaVuSans-32"/>
       <use x="127.246094" xlink:href="#DejaVuSans-35"/>
      </g>
     </g>
    </g>
    <g id="ytick_16">
     <g id="line2d_46">
      <g>
       <use style="stroke:#000000;stroke-width:0.8;" x="1104.218182" xlink:href="#mec94e9af1b" y="308.88"/>
      </g>
     </g>
     <g id="text_40">
      <!-- 150 -->
      <g transform="translate(1062.860682 315.718594)scale(0.18 -0.18)">
       <use xlink:href="#DejaVuSans-31"/>
       <use x="63.623047" xlink:href="#DejaVuSans-35"/>
       <use x="127.246094" xlink:href="#DejaVuSans-30"/>
      </g>
     </g>
    </g>
    <g id="ytick_17">
     <g id="line2d_47">
      <g>
       <use style="stroke:#000000;stroke-width:0.8;" x="1104.218182" xlink:href="#mec94e9af1b" y="226.98"/>
      </g>
     </g>
     <g id="text_41">
      <!-- 175 -->
      <g transform="translate(1062.860682 233.818594)scale(0.18 -0.18)">
       <use xlink:href="#DejaVuSans-31"/>
       <use x="63.623047" xlink:href="#DejaVuSans-37"/>
       <use x="127.246094" xlink:href="#DejaVuSans-35"/>
      </g>
     </g>
    </g>
    <g id="ytick_18">
     <g id="line2d_48">
      <g>
       <use style="stroke:#000000;stroke-width:0.8;" x="1104.218182" xlink:href="#mec94e9af1b" y="145.08"/>
      </g>
     </g>
     <g id="text_42">
      <!-- 200 -->
      <g transform="translate(1062.860682 151.918594)scale(0.18 -0.18)">
       <use xlink:href="#DejaVuSans-32"/>
       <use x="63.623047" xlink:href="#DejaVuSans-30"/>
       <use x="127.246094" xlink:href="#DejaVuSans-30"/>
      </g>
     </g>
    </g>
    <g id="text_43">
     <!-- Z [m]] -->
     <g transform="translate(1055.117244 501.006094)rotate(-90)scale(0.18 -0.18)">
      <use xlink:href="#DejaVuSans-5a"/>
      <use x="68.505859" xlink:href="#DejaVuSans-20"/>
      <use x="100.292969" xlink:href="#DejaVuSans-5b"/>
      <use x="139.306641" xlink:href="#DejaVuSans-6d"/>
      <use x="236.71875" xlink:href="#DejaVuSans-5d"/>
      <use x="275.732422" xlink:href="#DejaVuSans-5d"/>
     </g>
    </g>
   </g>
   <g id="line2d_49">
    <path clip-path="url(#p62dc42e2db)" d="M 1136.499174 800.28 
L 1137.888487 793.728 
L 1137.888487 787.176 
L 1138.425291 780.624 
L 1138.994338 774.072 
L 1138.994338 767.52 
L 1138.994338 760.968 
L 1139.702721 754.416 
L 1139.702721 747.864 
L 1139.702721 741.312 
L 1139.702721 734.76 
L 1141.592323 728.208 
L 1142.691043 721.656 
L 1142.691043 715.104 
L 1144.009603 708.552 
L 1144.009603 702 
L 1147.256378 695.448 
L 1149.085475 688.896 
L 1153.237412 682.344 
L 1158.017549 675.792 
L 1163.428034 669.24 
L 1177.727537 662.688 
L 1194.346034 656.136 
L 1198.913484 649.584 
L 1205.973009 643.032 
L 1285.439718 636.48 
L 1529.712242 629.928 
L 1593.875191 623.376 
L 1593.875191 616.824 
L 1677.732863 610.272 
L 1762.050268 603.72 
L 1782.119008 597.168 
L 1782.119008 590.616 
L 1782.119008 584.064 
L 1782.119008 577.512 
L 1782.119008 570.96 
L 1782.119008 564.408 
L 1782.119008 557.856 
L 1782.119008 551.304 
L 1782.119008 544.752 
L 1782.119008 538.2 
L 1782.119008 531.648 
L 1782.119008 525.096 
L 1782.119008 518.544 
L 1782.119008 511.992 
L 1782.119008 505.44 
L 1782.119008 498.888 
L 1782.119008 492.336 
L 1782.119008 485.784 
L 1782.119008 479.232 
L 1782.119008 472.68 
L 1782.119008 466.128 
L 1782.119008 459.576 
L 1782.119008 453.024 
L 1782.119008 446.472 
L 1782.119008 439.92 
L 1782.119008 433.368 
L 1782.119008 426.816 
L 1782.119008 420.264 
L 1782.119008 413.712 
L 1782.119008 407.16 
L 1782.119008 400.608 
L 1782.119008 394.056 
L 1782.119008 387.504 
L 1782.119008 380.952 
L 1782.119008 374.4 
L 1782.119008 367.848 
L 1782.119008 361.296 
L 1782.119008 354.744 
L 1782.119008 348.192 
L 1782.119008 341.64 
L 1782.119008 335.088 
L 1782.119008 328.536 
L 1782.119008 321.984 
L 1782.119008 315.432 
L 1782.119008 308.88 
L 1782.119008 302.328 
L 1782.119008 295.776 
L 1782.119008 289.224 
L 1782.119008 282.672 
L 1782.119008 276.12 
L 1782.119008 269.568 
L 1782.119008 263.016 
L 1782.119008 256.464 
L 1782.119008 249.912 
L 1782.119008 243.36 
L 1782.119008 236.808 
L 1782.119008 230.256 
L 1782.119008 223.704 
L 1782.119008 217.152 
L 1782.119008 210.6 
L 1782.119008 204.048 
L 1782.119008 197.496 
L 1782.119008 190.944 
L 1782.119008 184.392 
L 1782.119008 177.84 
L 1782.119008 171.288 
L 1782.119008 164.736 
L 1782.119008 158.184 
L 1782.119008 151.632 
L 1782.119008 145.08 
" style="fill:none;stroke:#1f77b4;stroke-linecap:square;stroke-width:1.5;"/>
   </g>
   <g id="line2d_50">
    <path clip-path="url(#p62dc42e2db)" d="M 1136.499174 800.28 
L 1137.888487 793.728 
L 1137.888487 787.176 
L 1138.425291 780.624 
L 1138.994338 774.072 
L 1138.994338 767.52 
L 1138.994338 760.968 
L 1139.702721 754.416 
L 1139.702721 747.864 
L 1139.702721 741.312 
L 1139.702721 734.76 
L 1141.592323 728.208 
L 1142.691043 721.656 
L 1142.691043 715.104 
L 1144.009603 708.552 
L 1144.009603 702 
L 1147.256378 695.448 
L 1149.085475 688.896 
L 1153.237412 682.344 
L 1158.017549 675.792 
L 1163.428034 669.24 
L 1174.912469 662.688 
L 1190.344662 656.136 
L 1198.913484 649.584 
L 1202.762588 643.032 
L 1203.939182 636.48 
L 1205.973009 629.928 
L 1211.223322 623.376 
L 1238.083842 616.824 
L 1335.940082 610.272 
L 1390.503544 603.72 
L 1459.603271 597.168 
L 1529.712242 590.616 
L 1529.712242 584.064 
L 1529.712242 577.512 
L 1529.712242 570.96 
L 1529.712242 564.408 
L 1529.712242 557.856 
L 1529.712242 551.304 
L 1529.712242 544.752 
L 1529.712242 538.2 
L 1529.712242 531.648 
L 1529.712242 525.096 
L 1529.712242 518.544 
L 1529.712242 511.992 
L 1529.712242 505.44 
L 1529.712242 498.888 
L 1529.712242 492.336 
L 1529.712242 485.784 
L 1529.712242 479.232 
L 1529.712242 472.68 
L 1529.712242 466.128 
L 1529.712242 459.576 
L 1529.712242 453.024 
L 1529.712242 446.472 
L 1529.712242 439.92 
L 1529.712242 433.368 
L 1529.712242 426.816 
L 1529.712242 420.264 
L 1529.712242 413.712 
L 1529.712242 407.16 
L 1529.712242 400.608 
L 1529.712242 394.056 
L 1529.712242 387.504 
L 1529.712242 380.952 
L 1529.712242 374.4 
L 1529.712242 367.848 
L 1529.712242 361.296 
L 1529.712242 354.744 
L 1529.712242 348.192 
L 1529.712242 341.64 
L 1529.712242 335.088 
L 1529.712242 328.536 
L 1529.712242 321.984 
L 1529.712242 315.432 
L 1529.712242 308.88 
L 1529.712242 302.328 
L 1529.712242 295.776 
L 1529.712242 289.224 
L 1529.712242 282.672 
L 1529.712242 276.12 
L 1529.712242 269.568 
L 1529.712242 263.016 
L 1529.712242 256.464 
L 1529.712242 249.912 
L 1529.712242 243.36 
L 1529.712242 236.808 
L 1529.712242 230.256 
L 1529.712242 223.704 
L 1529.712242 217.152 
L 1529.712242 210.6 
L 1529.712242 204.048 
L 1529.712242 197.496 
L 1529.712242 190.944 
L 1529.712242 184.392 
L 1529.712242 177.84 
L 1529.712242 171.288 
L 1529.712242 164.736 
L 1529.712242 158.184 
L 1529.712242 151.632 
L 1529.712242 145.08 
" style="fill:none;stroke:#ff7f0e;stroke-linecap:square;stroke-width:1.5;"/>
   </g>
   <g id="line2d_51">
    <path clip-path="url(#p62dc42e2db)" d="M 1136.499174 800.28 
L 1137.888487 793.728 
L 1137.888487 787.176 
L 1138.425291 780.624 
L 1138.994338 774.072 
L 1138.994338 767.52 
L 1138.994338 760.968 
L 1139.702721 754.416 
L 1139.702721 747.864 
L 1139.702721 741.312 
L 1139.702721 734.76 
L 1141.592323 728.208 
L 1142.691043 721.656 
L 1142.691043 715.104 
L 1144.009603 708.552 
L 1144.009603 702 
L 1147.256378 695.448 
L 1149.085475 688.896 
L 1153.237412 682.344 
L 1158.017549 675.792 
L 1163.428034 669.24 
L 1174.912469 662.688 
L 1188.054531 656.136 
L 1197.554678 649.584 
L 1201.119992 643.032 
L 1203.939182 636.48 
L 1205.165657 629.928 
L 1208.12299 623.376 
L 1211.223322 616.824 
L 1230.73053 610.272 
L 1249.506872 603.72 
L 1285.439718 597.168 
L 1285.439718 590.616 
L 1390.503544 584.064 
L 1390.503544 577.512 
L 1390.503544 570.96 
L 1390.503544 564.408 
L 1390.503544 557.856 
L 1459.603271 551.304 
L 1459.603271 544.752 
L 1459.603271 538.2 
L 1459.603271 531.648 
L 1459.603271 525.096 
L 1459.603271 518.544 
L 1459.603271 511.992 
L 1459.603271 505.44 
L 1459.603271 498.888 
L 1459.603271 492.336 
L 1459.603271 485.784 
L 1459.603271 479.232 
L 1459.603271 472.68 
L 1459.603271 466.128 
L 1459.603271 459.576 
L 1459.603271 453.024 
L 1459.603271 446.472 
L 1459.603271 439.92 
L 1459.603271 433.368 
L 1459.603271 426.816 
L 1459.603271 420.264 
L 1459.603271 413.712 
L 1459.603271 407.16 
L 1459.603271 400.608 
L 1459.603271 394.056 
L 1459.603271 387.504 
L 1459.603271 380.952 
L 1459.603271 374.4 
L 1459.603271 367.848 
L 1459.603271 361.296 
L 1459.603271 354.744 
L 1459.603271 348.192 
L 1459.603271 341.64 
L 1459.603271 335.088 
L 1459.603271 328.536 
L 1459.603271 321.984 
L 1459.603271 315.432 
L 1459.603271 308.88 
L 1459.603271 302.328 
L 1459.603271 295.776 
L 1459.603271 289.224 
L 1459.603271 282.672 
L 1459.603271 276.12 
L 1459.603271 269.568 
L 1459.603271 263.016 
L 1459.603271 256.464 
L 1459.603271 249.912 
L 1459.603271 243.36 
L 1459.603271 236.808 
L 1459.603271 230.256 
L 1459.603271 223.704 
L 1459.603271 217.152 
L 1459.603271 210.6 
L 1459.603271 204.048 
L 1459.603271 197.496 
L 1459.603271 190.944 
L 1459.603271 184.392 
L 1459.603271 177.84 
L 1459.603271 171.288 
L 1459.603271 164.736 
L 1459.603271 158.184 
L 1459.603271 151.632 
L 1459.603271 145.08 
" style="fill:none;stroke:#2ca02c;stroke-linecap:square;stroke-width:1.5;"/>
   </g>
   <g id="line2d_52">
    <path clip-path="url(#p62dc42e2db)" d="M 1136.499174 800.28 
L 1137.888487 793.728 
L 1137.888487 787.176 
L 1138.425291 780.624 
L 1138.994338 774.072 
L 1138.994338 767.52 
L 1138.994338 760.968 
L 1139.702721 754.416 
L 1139.702721 747.864 
L 1139.702721 741.312 
L 1139.702721 734.76 
L 1141.592323 728.208 
L 1142.691043 721.656 
L 1142.691043 715.104 
L 1144.009603 708.552 
L 1144.009603 702 
L 1147.256378 695.448 
L 1149.085475 688.896 
L 1153.237412 682.344 
L 1158.017549 675.792 
L 1163.428034 669.24 
L 1174.912469 662.688 
L 1188.054531 656.136 
L 1196.038737 649.584 
L 1201.119992 643.032 
L 1203.939182 636.48 
L 1205.165657 629.928 
L 1208.12299 623.376 
L 1211.223322 616.824 
L 1230.73053 610.272 
L 1249.506872 603.72 
L 1285.439718 597.168 
L 1285.439718 590.616 
L 1390.503544 584.064 
L 1390.503544 577.512 
L 1390.503544 570.96 
L 1390.503544 564.408 
L 1390.503544 557.856 
L 1459.603271 551.304 
L 1459.603271 544.752 
L 1459.603271 538.2 
L 1459.603271 531.648 
L 1459.603271 525.096 
L 1459.603271 518.544 
L 1459.603271 511.992 
L 1459.603271 505.44 
L 1459.603271 498.888 
L 1459.603271 492.336 
L 1459.603271 485.784 
L 1459.603271 479.232 
L 1459.603271 472.68 
L 1459.603271 466.128 
L 1459.603271 459.576 
L 1459.603271 453.024 
L 1459.603271 446.472 
L 1459.603271 439.92 
L 1459.603271 433.368 
L 1459.603271 426.816 
L 1459.603271 420.264 
L 1459.603271 413.712 
L 1459.603271 407.16 
L 1459.603271 400.608 
L 1459.603271 394.056 
L 1459.603271 387.504 
L 1459.603271 380.952 
L 1459.603271 374.4 
L 1459.603271 367.848 
L 1459.603271 361.296 
L 1459.603271 354.744 
L 1459.603271 348.192 
L 1459.603271 341.64 
L 1459.603271 335.088 
L 1459.603271 328.536 
L 1459.603271 321.984 
L 1459.603271 315.432 
L 1459.603271 308.88 
L 1459.603271 302.328 
L 1459.603271 295.776 
L 1459.603271 289.224 
L 1459.603271 282.672 
L 1459.603271 276.12 
L 1459.603271 269.568 
L 1459.603271 263.016 
L 1459.603271 256.464 
L 1459.603271 249.912 
L 1459.603271 243.36 
L 1459.603271 236.808 
L 1459.603271 230.256 
L 1459.603271 223.704 
L 1459.603271 217.152 
L 1459.603271 210.6 
L 1459.603271 204.048 
L 1459.603271 197.496 
L 1459.603271 190.944 
L 1459.603271 184.392 
L 1459.603271 177.84 
L 1459.603271 171.288 
L 1459.603271 164.736 
L 1459.603271 158.184 
L 1459.603271 151.632 
L 1459.603271 145.08 
" style="fill:none;stroke:#d62728;stroke-linecap:square;stroke-width:1.5;"/>
   </g>
   <g id="patch_9">
    <path d="M 1104.218182 833.04 
L 1104.218182 112.32 
" style="fill:none;stroke:#000000;stroke-linecap:square;stroke-linejoin:miter;stroke-width:0.8;"/>
   </g>
   <g id="patch_10">
    <path d="M 1814.4 833.04 
L 1814.4 112.32 
" style="fill:none;stroke:#000000;stroke-linecap:square;stroke-linejoin:miter;stroke-width:0.8;"/>
   </g>
   <g id="patch_11">
    <path d="M 1104.218182 833.04 
L 1814.4 833.04 
" style="fill:none;stroke:#000000;stroke-linecap:square;stroke-linejoin:miter;stroke-width:0.8;"/>
   </g>
   <g id="patch_12">
    <path d="M 1104.218182 112.32 
L 1814.4 112.32 
" style="fill:none;stroke:#000000;stroke-linecap:square;stroke-linejoin:miter;stroke-width:0.8;"/>
   </g>
   <g id="text_44">
    <!-- 0 moment for updraft velocity= 2$frac{m}{s}$ -->
    <g transform="translate(1240.285091 106.32)scale(0.216 -0.216)">
     <use transform="translate(0 0.015625)" xlink:href="#DejaVuSans-30"/>
     <use transform="translate(63.623047 0.015625)" xlink:href="#DejaVuSans-20"/>
     <use transform="translate(95.410156 0.015625)" xlink:href="#DejaVuSans-6d"/>
     <use transform="translate(192.822266 0.015625)" xlink:href="#DejaVuSans-6f"/>
     <use transform="translate(254.003906 0.015625)" xlink:href="#DejaVuSans-6d"/>
     <use transform="translate(351.416016 0.015625)" xlink:href="#DejaVuSans-65"/>
     <use transform="translate(412.939453 0.015625)" xlink:href="#DejaVuSans-6e"/>
     <use transform="translate(476.318359 0.015625)" xlink:href="#DejaVuSans-74"/>
     <use transform="translate(515.527344 0.015625)" xlink:href="#DejaVuSans-20"/>
     <use transform="translate(547.314453 0.015625)" xlink:href="#DejaVuSans-66"/>
     <use transform="translate(582.519531 0.015625)" xlink:href="#DejaVuSans-6f"/>
     <use transform="translate(643.701172 0.015625)" xlink:href="#DejaVuSans-72"/>
     <use transform="translate(684.814453 0.015625)" xlink:href="#DejaVuSans-20"/>
     <use transform="translate(716.601562 0.015625)" xlink:href="#DejaVuSans-75"/>
     <use transform="translate(779.980469 0.015625)" xlink:href="#DejaVuSans-70"/>
     <use transform="translate(843.457031 0.015625)" xlink:href="#DejaVuSans-64"/>
     <use transform="translate(906.933594 0.015625)" xlink:href="#DejaVuSans-72"/>
     <use transform="translate(948.046875 0.015625)" xlink:href="#DejaVuSans-61"/>
     <use transform="translate(1009.326172 0.015625)" xlink:href="#DejaVuSans-66"/>
     <use transform="translate(1044.53125 0.015625)" xlink:href="#DejaVuSans-74"/>
     <use transform="translate(1083.740234 0.015625)" xlink:href="#DejaVuSans-20"/>
     <use transform="translate(1115.527344 0.015625)" xlink:href="#DejaVuSans-76"/>
     <use transform="translate(1174.707031 0.015625)" xlink:href="#DejaVuSans-65"/>
     <use transform="translate(1236.230469 0.015625)" xlink:href="#DejaVuSans-6c"/>
     <use transform="translate(1264.013672 0.015625)" xlink:href="#DejaVuSans-6f"/>
     <use transform="translate(1325.195312 0.015625)" xlink:href="#DejaVuSans-63"/>
     <use transform="translate(1380.175781 0.015625)" xlink:href="#DejaVuSans-69"/>
     <use transform="translate(1407.958984 0.015625)" xlink:href="#DejaVuSans-74"/>
     <use transform="translate(1447.167969 0.015625)" xlink:href="#DejaVuSans-79"/>
     <use transform="translate(1506.347656 0.015625)" xlink:href="#DejaVuSans-3d"/>
     <use transform="translate(1590.136719 0.015625)" xlink:href="#DejaVuSans-20"/>
     <use transform="translate(1621.923828 0.015625)" xlink:href="#DejaVuSans-32"/>
     <use transform="translate(1685.546875 0.015625)" xlink:href="#DejaVuSans-Oblique-66"/>
     <use transform="translate(1720.751953 0.015625)" xlink:href="#DejaVuSans-Oblique-72"/>
     <use transform="translate(1761.865234 0.015625)" xlink:href="#DejaVuSans-Oblique-61"/>
     <use transform="translate(1823.144531 0.015625)" xlink:href="#DejaVuSans-Oblique-63"/>
     <use transform="translate(1878.125 0.015625)" xlink:href="#DejaVuSans-Oblique-6d"/>
     <use transform="translate(1975.537109 0.015625)" xlink:href="#DejaVuSans-Oblique-73"/>
    </g>
   </g>
   <g id="legend_2">
    <g id="patch_13">
     <path d="M 1116.818182 258.823125 
L 1338.848182 258.823125 
Q 1342.448182 258.823125 1342.448182 255.223125 
L 1342.448182 124.92 
Q 1342.448182 121.32 1338.848182 121.32 
L 1116.818182 121.32 
Q 1113.218182 121.32 1113.218182 124.92 
L 1113.218182 255.223125 
Q 1113.218182 258.823125 1116.818182 258.823125 
z
" style="fill:#ffffff;opacity:0.8;stroke:#cccccc;stroke-linejoin:miter;"/>
    </g>
    <g id="text_45">
     <!-- Condensation time step -->
     <g transform="translate(1120.418182 142.197188)scale(0.18 -0.18)">
      <use xlink:href="#DejaVuSans-43"/>
      <use x="69.824219" xlink:href="#DejaVuSans-6f"/>
      <use x="131.005859" xlink:href="#DejaVuSans-6e"/>
      <use x="194.384766" xlink:href="#DejaVuSans-64"/>
      <use x="257.861328" xlink:href="#DejaVuSans-65"/>
      <use x="319.384766" xlink:href="#DejaVuSans-6e"/>
      <use x="382.763672" xlink:href="#DejaVuSans-73"/>
      <use x="434.863281" xlink:href="#DejaVuSans-61"/>
      <use x="496.142578" xlink:href="#DejaVuSans-74"/>
      <use x="535.351562" xlink:href="#DejaVuSans-69"/>
      <use x="563.134766" xlink:href="#DejaVuSans-6f"/>
      <use x="624.316406" xlink:href="#DejaVuSans-6e"/>
      <use x="687.695312" xlink:href="#DejaVuSans-20"/>
      <use x="719.482422" xlink:href="#DejaVuSans-74"/>
      <use x="758.691406" xlink:href="#DejaVuSans-69"/>
      <use x="786.474609" xlink:href="#DejaVuSans-6d"/>
      <use x="883.886719" xlink:href="#DejaVuSans-65"/>
      <use x="945.410156" xlink:href="#DejaVuSans-20"/>
      <use x="977.197266" xlink:href="#DejaVuSans-73"/>
      <use x="1029.296875" xlink:href="#DejaVuSans-74"/>
      <use x="1068.505859" xlink:href="#DejaVuSans-65"/>
      <use x="1130.029297" xlink:href="#DejaVuSans-70"/>
     </g>
    </g>
    <g id="line2d_53">
     <path d="M 1182.422557 162.317813 
L 1218.422557 162.317813 
" style="fill:none;stroke:#1f77b4;stroke-linecap:square;stroke-width:1.5;"/>
    </g>
    <g id="line2d_54"/>
    <g id="text_46">
     <!-- 1/1 -->
     <g transform="translate(1232.822557 168.617813)scale(0.18 -0.18)">
      <use xlink:href="#DejaVuSans-31"/>
      <use x="63.623047" xlink:href="#DejaVuSans-2f"/>
      <use x="97.314453" xlink:href="#DejaVuSans-31"/>
     </g>
    </g>
    <g id="line2d_55">
     <path d="M 1182.422557 188.738437 
L 1218.422557 188.738437 
" style="fill:none;stroke:#ff7f0e;stroke-linecap:square;stroke-width:1.5;"/>
    </g>
    <g id="line2d_56"/>
    <g id="text_47">
     <!-- 1/2 -->
     <g transform="translate(1232.822557 195.038437)scale(0.18 -0.18)">
      <use xlink:href="#DejaVuSans-31"/>
      <use x="63.623047" xlink:href="#DejaVuSans-2f"/>
      <use x="97.314453" xlink:href="#DejaVuSans-32"/>
     </g>
    </g>
    <g id="line2d_57">
     <path d="M 1182.422557 215.159062 
L 1218.422557 215.159062 
" style="fill:none;stroke:#2ca02c;stroke-linecap:square;stroke-width:1.5;"/>
    </g>
    <g id="line2d_58"/>
    <g id="text_48">
     <!-- 1/5 -->
     <g transform="translate(1232.822557 221.459062)scale(0.18 -0.18)">
      <use xlink:href="#DejaVuSans-31"/>
      <use x="63.623047" xlink:href="#DejaVuSans-2f"/>
      <use x="97.314453" xlink:href="#DejaVuSans-35"/>
     </g>
    </g>
    <g id="line2d_59">
     <path d="M 1182.422557 241.579688 
L 1218.422557 241.579688 
" style="fill:none;stroke:#d62728;stroke-linecap:square;stroke-width:1.5;"/>
    </g>
    <g id="line2d_60"/>
    <g id="text_49">
     <!-- 1/10 -->
     <g transform="translate(1232.822557 247.879688)scale(0.18 -0.18)">
      <use xlink:href="#DejaVuSans-31"/>
      <use x="63.623047" xlink:href="#DejaVuSans-2f"/>
      <use x="97.314453" xlink:href="#DejaVuSans-31"/>
      <use x="160.9375" xlink:href="#DejaVuSans-30"/>
     </g>
    </g>
   </g>
  </g>
 </g>
 <defs>
  <clipPath id="pdd77d6e6c5">
   <rect height="720.72" width="710.181818" x="252" y="112.32"/>
  </clipPath>
  <clipPath id="p62dc42e2db">
   <rect height="720.72" width="710.181818" x="1104.218182" y="112.32"/>
  </clipPath>
 </defs>
</svg>
