<?xml version="1.0" encoding="utf-8" standalone="no"?>
<!DOCTYPE svg PUBLIC "-//W3C//DTD SVG 1.1//EN"
  "http://www.w3.org/Graphics/SVG/1.1/DTD/svg11.dtd">
<!-- Created with matplotlib (http://matplotlib.org/) -->
<svg height="936pt" version="1.1" viewBox="0 0 2016 936" width="2016pt" xmlns="http://www.w3.org/2000/svg" xmlns:xlink="http://www.w3.org/1999/xlink">
 <defs>
  <style type="text/css">
*{stroke-linecap:butt;stroke-linejoin:round;}
  </style>
 </defs>
 <g id="figure_1">
  <g id="patch_1">
   <path d="M 0 936 
L 2016 936 
L 2016 0 
L 0 0 
z
" style="fill:#ffffff;"/>
  </g>
  <g id="axes_1">
   <g id="patch_2">
    <path d="M 252 833.04 
L 962.181818 833.04 
L 962.181818 112.32 
L 252 112.32 
z
" style="fill:#ffffff;"/>
   </g>
   <g id="matplotlib.axis_1">
    <g id="xtick_1">
     <g id="line2d_1">
      <path clip-path="url(#p7c74bfd4fd)" d="M 284.280992 833.04 
L 284.280992 112.32 
" style="fill:none;stroke:#b0b0b0;stroke-linecap:square;stroke-width:0.8;"/>
     </g>
     <g id="line2d_2">
      <defs>
       <path d="M 0 0 
L 0 3.5 
" id="m22fe0eab7c" style="stroke:#000000;stroke-width:0.8;"/>
      </defs>
      <g>
       <use style="stroke:#000000;stroke-width:0.8;" x="284.280992" xlink:href="#m22fe0eab7c" y="833.04"/>
      </g>
     </g>
     <g id="text_1">
      <!-- 98.0 -->
      <defs>
       <path d="M 10.984375 1.515625 
L 10.984375 10.5 
Q 14.703125 8.734375 18.5 7.8125 
Q 22.3125 6.890625 25.984375 6.890625 
Q 35.75 6.890625 40.890625 13.453125 
Q 46.046875 20.015625 46.78125 33.40625 
Q 43.953125 29.203125 39.59375 26.953125 
Q 35.25 24.703125 29.984375 24.703125 
Q 19.046875 24.703125 12.671875 31.3125 
Q 6.296875 37.9375 6.296875 49.421875 
Q 6.296875 60.640625 12.9375 67.421875 
Q 19.578125 74.21875 30.609375 74.21875 
Q 43.265625 74.21875 49.921875 64.515625 
Q 56.59375 54.828125 56.59375 36.375 
Q 56.59375 19.140625 48.40625 8.859375 
Q 40.234375 -1.421875 26.421875 -1.421875 
Q 22.703125 -1.421875 18.890625 -0.6875 
Q 15.09375 0.046875 10.984375 1.515625 
z
M 30.609375 32.421875 
Q 37.25 32.421875 41.125 36.953125 
Q 45.015625 41.5 45.015625 49.421875 
Q 45.015625 57.28125 41.125 61.84375 
Q 37.25 66.40625 30.609375 66.40625 
Q 23.96875 66.40625 20.09375 61.84375 
Q 16.21875 57.28125 16.21875 49.421875 
Q 16.21875 41.5 20.09375 36.953125 
Q 23.96875 32.421875 30.609375 32.421875 
z
" id="DejaVuSans-39"/>
       <path d="M 31.78125 34.625 
Q 24.75 34.625 20.71875 30.859375 
Q 16.703125 27.09375 16.703125 20.515625 
Q 16.703125 13.921875 20.71875 10.15625 
Q 24.75 6.390625 31.78125 6.390625 
Q 38.8125 6.390625 42.859375 10.171875 
Q 46.921875 13.96875 46.921875 20.515625 
Q 46.921875 27.09375 42.890625 30.859375 
Q 38.875 34.625 31.78125 34.625 
z
M 21.921875 38.8125 
Q 15.578125 40.375 12.03125 44.71875 
Q 8.5 49.078125 8.5 55.328125 
Q 8.5 64.0625 14.71875 69.140625 
Q 20.953125 74.21875 31.78125 74.21875 
Q 42.671875 74.21875 48.875 69.140625 
Q 55.078125 64.0625 55.078125 55.328125 
Q 55.078125 49.078125 51.53125 44.71875 
Q 48 40.375 41.703125 38.8125 
Q 48.828125 37.15625 52.796875 32.3125 
Q 56.78125 27.484375 56.78125 20.515625 
Q 56.78125 9.90625 50.3125 4.234375 
Q 43.84375 -1.421875 31.78125 -1.421875 
Q 19.734375 -1.421875 13.25 4.234375 
Q 6.78125 9.90625 6.78125 20.515625 
Q 6.78125 27.484375 10.78125 32.3125 
Q 14.796875 37.15625 21.921875 38.8125 
z
M 18.3125 54.390625 
Q 18.3125 48.734375 21.84375 45.5625 
Q 25.390625 42.390625 31.78125 42.390625 
Q 38.140625 42.390625 41.71875 45.5625 
Q 45.3125 48.734375 45.3125 54.390625 
Q 45.3125 60.0625 41.71875 63.234375 
Q 38.140625 66.40625 31.78125 66.40625 
Q 25.390625 66.40625 21.84375 63.234375 
Q 18.3125 60.0625 18.3125 54.390625 
z
" id="DejaVuSans-38"/>
       <path d="M 10.6875 12.40625 
L 21 12.40625 
L 21 0 
L 10.6875 0 
z
" id="DejaVuSans-2e"/>
       <path d="M 31.78125 66.40625 
Q 24.171875 66.40625 20.328125 58.90625 
Q 16.5 51.421875 16.5 36.375 
Q 16.5 21.390625 20.328125 13.890625 
Q 24.171875 6.390625 31.78125 6.390625 
Q 39.453125 6.390625 43.28125 13.890625 
Q 47.125 21.390625 47.125 36.375 
Q 47.125 51.421875 43.28125 58.90625 
Q 39.453125 66.40625 31.78125 66.40625 
z
M 31.78125 74.21875 
Q 44.046875 74.21875 50.515625 64.515625 
Q 56.984375 54.828125 56.984375 36.375 
Q 56.984375 17.96875 50.515625 8.265625 
Q 44.046875 -1.421875 31.78125 -1.421875 
Q 19.53125 -1.421875 13.0625 8.265625 
Q 6.59375 17.96875 6.59375 36.375 
Q 6.59375 54.828125 13.0625 64.515625 
Q 19.53125 74.21875 31.78125 74.21875 
z
" id="DejaVuSans-30"/>
      </defs>
      <g transform="translate(264.241929 853.717188)scale(0.18 -0.18)">
       <use xlink:href="#DejaVuSans-39"/>
       <use x="63.623047" xlink:href="#DejaVuSans-38"/>
       <use x="127.246094" xlink:href="#DejaVuSans-2e"/>
       <use x="159.033203" xlink:href="#DejaVuSans-30"/>
      </g>
     </g>
    </g>
    <g id="xtick_2">
     <g id="line2d_3">
      <path clip-path="url(#p7c74bfd4fd)" d="M 390.135578 833.04 
L 390.135578 112.32 
" style="fill:none;stroke:#b0b0b0;stroke-linecap:square;stroke-width:0.8;"/>
     </g>
     <g id="line2d_4">
      <g>
       <use style="stroke:#000000;stroke-width:0.8;" x="390.135578" xlink:href="#m22fe0eab7c" y="833.04"/>
      </g>
     </g>
     <g id="text_2">
      <!-- 98.5 -->
      <defs>
       <path d="M 10.796875 72.90625 
L 49.515625 72.90625 
L 49.515625 64.59375 
L 19.828125 64.59375 
L 19.828125 46.734375 
Q 21.96875 47.46875 24.109375 47.828125 
Q 26.265625 48.1875 28.421875 48.1875 
Q 40.625 48.1875 47.75 41.5 
Q 54.890625 34.8125 54.890625 23.390625 
Q 54.890625 11.625 47.5625 5.09375 
Q 40.234375 -1.421875 26.90625 -1.421875 
Q 22.3125 -1.421875 17.546875 -0.640625 
Q 12.796875 0.140625 7.71875 1.703125 
L 7.71875 11.625 
Q 12.109375 9.234375 16.796875 8.0625 
Q 21.484375 6.890625 26.703125 6.890625 
Q 35.15625 6.890625 40.078125 11.328125 
Q 45.015625 15.765625 45.015625 23.390625 
Q 45.015625 31 40.078125 35.4375 
Q 35.15625 39.890625 26.703125 39.890625 
Q 22.75 39.890625 18.8125 39.015625 
Q 14.890625 38.140625 10.796875 36.28125 
z
" id="DejaVuSans-35"/>
      </defs>
      <g transform="translate(370.096516 853.717188)scale(0.18 -0.18)">
       <use xlink:href="#DejaVuSans-39"/>
       <use x="63.623047" xlink:href="#DejaVuSans-38"/>
       <use x="127.246094" xlink:href="#DejaVuSans-2e"/>
       <use x="159.033203" xlink:href="#DejaVuSans-35"/>
      </g>
     </g>
    </g>
    <g id="xtick_3">
     <g id="line2d_5">
      <path clip-path="url(#p7c74bfd4fd)" d="M 495.990165 833.04 
L 495.990165 112.32 
" style="fill:none;stroke:#b0b0b0;stroke-linecap:square;stroke-width:0.8;"/>
     </g>
     <g id="line2d_6">
      <g>
       <use style="stroke:#000000;stroke-width:0.8;" x="495.990165" xlink:href="#m22fe0eab7c" y="833.04"/>
      </g>
     </g>
     <g id="text_3">
      <!-- 99.0 -->
      <g transform="translate(475.951103 853.717188)scale(0.18 -0.18)">
       <use xlink:href="#DejaVuSans-39"/>
       <use x="63.623047" xlink:href="#DejaVuSans-39"/>
       <use x="127.246094" xlink:href="#DejaVuSans-2e"/>
       <use x="159.033203" xlink:href="#DejaVuSans-30"/>
      </g>
     </g>
    </g>
    <g id="xtick_4">
     <g id="line2d_7">
      <path clip-path="url(#p7c74bfd4fd)" d="M 601.844752 833.04 
L 601.844752 112.32 
" style="fill:none;stroke:#b0b0b0;stroke-linecap:square;stroke-width:0.8;"/>
     </g>
     <g id="line2d_8">
      <g>
       <use style="stroke:#000000;stroke-width:0.8;" x="601.844752" xlink:href="#m22fe0eab7c" y="833.04"/>
      </g>
     </g>
     <g id="text_4">
      <!-- 99.5 -->
      <g transform="translate(581.805689 853.717188)scale(0.18 -0.18)">
       <use xlink:href="#DejaVuSans-39"/>
       <use x="63.623047" xlink:href="#DejaVuSans-39"/>
       <use x="127.246094" xlink:href="#DejaVuSans-2e"/>
       <use x="159.033203" xlink:href="#DejaVuSans-35"/>
      </g>
     </g>
    </g>
    <g id="xtick_5">
     <g id="line2d_9">
      <path clip-path="url(#p7c74bfd4fd)" d="M 707.699339 833.04 
L 707.699339 112.32 
" style="fill:none;stroke:#b0b0b0;stroke-linecap:square;stroke-width:0.8;"/>
     </g>
     <g id="line2d_10">
      <g>
       <use style="stroke:#000000;stroke-width:0.8;" x="707.699339" xlink:href="#m22fe0eab7c" y="833.04"/>
      </g>
     </g>
     <g id="text_5">
      <!-- 100.0 -->
      <defs>
       <path d="M 12.40625 8.296875 
L 28.515625 8.296875 
L 28.515625 63.921875 
L 10.984375 60.40625 
L 10.984375 69.390625 
L 28.421875 72.90625 
L 38.28125 72.90625 
L 38.28125 8.296875 
L 54.390625 8.296875 
L 54.390625 0 
L 12.40625 0 
z
" id="DejaVuSans-31"/>
      </defs>
      <g transform="translate(681.934026 853.717188)scale(0.18 -0.18)">
       <use xlink:href="#DejaVuSans-31"/>
       <use x="63.623047" xlink:href="#DejaVuSans-30"/>
       <use x="127.246094" xlink:href="#DejaVuSans-30"/>
       <use x="190.869141" xlink:href="#DejaVuSans-2e"/>
       <use x="222.65625" xlink:href="#DejaVuSans-30"/>
      </g>
     </g>
    </g>
    <g id="xtick_6">
     <g id="line2d_11">
      <path clip-path="url(#p7c74bfd4fd)" d="M 813.553925 833.04 
L 813.553925 112.32 
" style="fill:none;stroke:#b0b0b0;stroke-linecap:square;stroke-width:0.8;"/>
     </g>
     <g id="line2d_12">
      <g>
       <use style="stroke:#000000;stroke-width:0.8;" x="813.553925" xlink:href="#m22fe0eab7c" y="833.04"/>
      </g>
     </g>
     <g id="text_6">
      <!-- 100.5 -->
      <g transform="translate(787.788613 853.717188)scale(0.18 -0.18)">
       <use xlink:href="#DejaVuSans-31"/>
       <use x="63.623047" xlink:href="#DejaVuSans-30"/>
       <use x="127.246094" xlink:href="#DejaVuSans-30"/>
       <use x="190.869141" xlink:href="#DejaVuSans-2e"/>
       <use x="222.65625" xlink:href="#DejaVuSans-35"/>
      </g>
     </g>
    </g>
    <g id="xtick_7">
     <g id="line2d_13">
      <path clip-path="url(#p7c74bfd4fd)" d="M 919.408512 833.04 
L 919.408512 112.32 
" style="fill:none;stroke:#b0b0b0;stroke-linecap:square;stroke-width:0.8;"/>
     </g>
     <g id="line2d_14">
      <g>
       <use style="stroke:#000000;stroke-width:0.8;" x="919.408512" xlink:href="#m22fe0eab7c" y="833.04"/>
      </g>
     </g>
     <g id="text_7">
      <!-- 101.0 -->
      <g transform="translate(893.643199 853.717188)scale(0.18 -0.18)">
       <use xlink:href="#DejaVuSans-31"/>
       <use x="63.623047" xlink:href="#DejaVuSans-30"/>
       <use x="127.246094" xlink:href="#DejaVuSans-31"/>
       <use x="190.869141" xlink:href="#DejaVuSans-2e"/>
       <use x="222.65625" xlink:href="#DejaVuSans-30"/>
      </g>
     </g>
    </g>
    <g id="text_8">
     <!-- RH [%] -->
     <defs>
      <path d="M 44.390625 34.1875 
Q 47.5625 33.109375 50.5625 29.59375 
Q 53.5625 26.078125 56.59375 19.921875 
L 66.609375 0 
L 56 0 
L 46.6875 18.703125 
Q 43.0625 26.03125 39.671875 28.421875 
Q 36.28125 30.8125 30.421875 30.8125 
L 19.671875 30.8125 
L 19.671875 0 
L 9.8125 0 
L 9.8125 72.90625 
L 32.078125 72.90625 
Q 44.578125 72.90625 50.734375 67.671875 
Q 56.890625 62.453125 56.890625 51.90625 
Q 56.890625 45.015625 53.6875 40.46875 
Q 50.484375 35.9375 44.390625 34.1875 
z
M 19.671875 64.796875 
L 19.671875 38.921875 
L 32.078125 38.921875 
Q 39.203125 38.921875 42.84375 42.21875 
Q 46.484375 45.515625 46.484375 51.90625 
Q 46.484375 58.296875 42.84375 61.546875 
Q 39.203125 64.796875 32.078125 64.796875 
z
" id="DejaVuSans-52"/>
      <path d="M 9.8125 72.90625 
L 19.671875 72.90625 
L 19.671875 43.015625 
L 55.515625 43.015625 
L 55.515625 72.90625 
L 65.375 72.90625 
L 65.375 0 
L 55.515625 0 
L 55.515625 34.71875 
L 19.671875 34.71875 
L 19.671875 0 
L 9.8125 0 
z
" id="DejaVuSans-48"/>
      <path id="DejaVuSans-20"/>
      <path d="M 8.59375 75.984375 
L 29.296875 75.984375 
L 29.296875 69 
L 17.578125 69 
L 17.578125 -6.203125 
L 29.296875 -6.203125 
L 29.296875 -13.1875 
L 8.59375 -13.1875 
z
" id="DejaVuSans-5b"/>
      <path d="M 72.703125 32.078125 
Q 68.453125 32.078125 66.03125 28.46875 
Q 63.625 24.859375 63.625 18.40625 
Q 63.625 12.0625 66.03125 8.421875 
Q 68.453125 4.78125 72.703125 4.78125 
Q 76.859375 4.78125 79.265625 8.421875 
Q 81.6875 12.0625 81.6875 18.40625 
Q 81.6875 24.8125 79.265625 28.4375 
Q 76.859375 32.078125 72.703125 32.078125 
z
M 72.703125 38.28125 
Q 80.421875 38.28125 84.953125 32.90625 
Q 89.5 27.546875 89.5 18.40625 
Q 89.5 9.28125 84.9375 3.921875 
Q 80.375 -1.421875 72.703125 -1.421875 
Q 64.890625 -1.421875 60.34375 3.921875 
Q 55.8125 9.28125 55.8125 18.40625 
Q 55.8125 27.59375 60.375 32.9375 
Q 64.9375 38.28125 72.703125 38.28125 
z
M 22.3125 68.015625 
Q 18.109375 68.015625 15.6875 64.375 
Q 13.28125 60.75 13.28125 54.390625 
Q 13.28125 47.953125 15.671875 44.328125 
Q 18.0625 40.71875 22.3125 40.71875 
Q 26.5625 40.71875 28.96875 44.328125 
Q 31.390625 47.953125 31.390625 54.390625 
Q 31.390625 60.6875 28.953125 64.34375 
Q 26.515625 68.015625 22.3125 68.015625 
z
M 66.40625 74.21875 
L 74.21875 74.21875 
L 28.609375 -1.421875 
L 20.796875 -1.421875 
z
M 22.3125 74.21875 
Q 30.03125 74.21875 34.609375 68.875 
Q 39.203125 63.53125 39.203125 54.390625 
Q 39.203125 45.171875 34.640625 39.84375 
Q 30.078125 34.515625 22.3125 34.515625 
Q 14.546875 34.515625 10.03125 39.859375 
Q 5.515625 45.21875 5.515625 54.390625 
Q 5.515625 63.484375 10.046875 68.84375 
Q 14.59375 74.21875 22.3125 74.21875 
z
" id="DejaVuSans-25"/>
      <path d="M 30.421875 75.984375 
L 30.421875 -13.1875 
L 9.71875 -13.1875 
L 9.71875 -6.203125 
L 21.390625 -6.203125 
L 21.390625 69 
L 9.71875 69 
L 9.71875 75.984375 
z
" id="DejaVuSans-5d"/>
     </defs>
     <g transform="translate(575.634503 875.137812)scale(0.18 -0.18)">
      <use xlink:href="#DejaVuSans-52"/>
      <use x="69.482422" xlink:href="#DejaVuSans-48"/>
      <use x="144.677734" xlink:href="#DejaVuSans-20"/>
      <use x="176.464844" xlink:href="#DejaVuSans-5b"/>
      <use x="215.478516" xlink:href="#DejaVuSans-25"/>
      <use x="310.498047" xlink:href="#DejaVuSans-5d"/>
     </g>
    </g>
   </g>
   <g id="matplotlib.axis_2">
    <g id="ytick_1">
     <g id="line2d_15">
      <path clip-path="url(#p7c74bfd4fd)" d="M 252 800.28 
L 962.181818 800.28 
" style="fill:none;stroke:#b0b0b0;stroke-linecap:square;stroke-width:0.8;"/>
     </g>
     <g id="line2d_16">
      <defs>
       <path d="M 0 0 
L -3.5 0 
" id="m85f93e2a05" style="stroke:#000000;stroke-width:0.8;"/>
      </defs>
      <g>
       <use style="stroke:#000000;stroke-width:0.8;" x="252" xlink:href="#m85f93e2a05" y="800.28"/>
      </g>
     </g>
     <g id="text_9">
      <!-- 0 -->
      <g transform="translate(233.5475 807.118594)scale(0.18 -0.18)">
       <use xlink:href="#DejaVuSans-30"/>
      </g>
     </g>
    </g>
    <g id="ytick_2">
     <g id="line2d_17">
      <path clip-path="url(#p7c74bfd4fd)" d="M 252 718.38 
L 962.181818 718.38 
" style="fill:none;stroke:#b0b0b0;stroke-linecap:square;stroke-width:0.8;"/>
     </g>
     <g id="line2d_18">
      <g>
       <use style="stroke:#000000;stroke-width:0.8;" x="252" xlink:href="#m85f93e2a05" y="718.38"/>
      </g>
     </g>
     <g id="text_10">
      <!-- 25 -->
      <defs>
       <path d="M 19.1875 8.296875 
L 53.609375 8.296875 
L 53.609375 0 
L 7.328125 0 
L 7.328125 8.296875 
Q 12.9375 14.109375 22.625 23.890625 
Q 32.328125 33.6875 34.8125 36.53125 
Q 39.546875 41.84375 41.421875 45.53125 
Q 43.3125 49.21875 43.3125 52.78125 
Q 43.3125 58.59375 39.234375 62.25 
Q 35.15625 65.921875 28.609375 65.921875 
Q 23.96875 65.921875 18.8125 64.3125 
Q 13.671875 62.703125 7.8125 59.421875 
L 7.8125 69.390625 
Q 13.765625 71.78125 18.9375 73 
Q 24.125 74.21875 28.421875 74.21875 
Q 39.75 74.21875 46.484375 68.546875 
Q 53.21875 62.890625 53.21875 53.421875 
Q 53.21875 48.921875 51.53125 44.890625 
Q 49.859375 40.875 45.40625 35.40625 
Q 44.1875 33.984375 37.640625 27.21875 
Q 31.109375 20.453125 19.1875 8.296875 
z
" id="DejaVuSans-32"/>
      </defs>
      <g transform="translate(222.095 725.218594)scale(0.18 -0.18)">
       <use xlink:href="#DejaVuSans-32"/>
       <use x="63.623047" xlink:href="#DejaVuSans-35"/>
      </g>
     </g>
    </g>
    <g id="ytick_3">
     <g id="line2d_19">
      <path clip-path="url(#p7c74bfd4fd)" d="M 252 636.48 
L 962.181818 636.48 
" style="fill:none;stroke:#b0b0b0;stroke-linecap:square;stroke-width:0.8;"/>
     </g>
     <g id="line2d_20">
      <g>
       <use style="stroke:#000000;stroke-width:0.8;" x="252" xlink:href="#m85f93e2a05" y="636.48"/>
      </g>
     </g>
     <g id="text_11">
      <!-- 50 -->
      <g transform="translate(222.095 643.318594)scale(0.18 -0.18)">
       <use xlink:href="#DejaVuSans-35"/>
       <use x="63.623047" xlink:href="#DejaVuSans-30"/>
      </g>
     </g>
    </g>
    <g id="ytick_4">
     <g id="line2d_21">
      <path clip-path="url(#p7c74bfd4fd)" d="M 252 554.58 
L 962.181818 554.58 
" style="fill:none;stroke:#b0b0b0;stroke-linecap:square;stroke-width:0.8;"/>
     </g>
     <g id="line2d_22">
      <g>
       <use style="stroke:#000000;stroke-width:0.8;" x="252" xlink:href="#m85f93e2a05" y="554.58"/>
      </g>
     </g>
     <g id="text_12">
      <!-- 75 -->
      <defs>
       <path d="M 8.203125 72.90625 
L 55.078125 72.90625 
L 55.078125 68.703125 
L 28.609375 0 
L 18.3125 0 
L 43.21875 64.59375 
L 8.203125 64.59375 
z
" id="DejaVuSans-37"/>
      </defs>
      <g transform="translate(222.095 561.418594)scale(0.18 -0.18)">
       <use xlink:href="#DejaVuSans-37"/>
       <use x="63.623047" xlink:href="#DejaVuSans-35"/>
      </g>
     </g>
    </g>
    <g id="ytick_5">
     <g id="line2d_23">
      <path clip-path="url(#p7c74bfd4fd)" d="M 252 472.68 
L 962.181818 472.68 
" style="fill:none;stroke:#b0b0b0;stroke-linecap:square;stroke-width:0.8;"/>
     </g>
     <g id="line2d_24">
      <g>
       <use style="stroke:#000000;stroke-width:0.8;" x="252" xlink:href="#m85f93e2a05" y="472.68"/>
      </g>
     </g>
     <g id="text_13">
      <!-- 100 -->
      <g transform="translate(210.6425 479.518594)scale(0.18 -0.18)">
       <use xlink:href="#DejaVuSans-31"/>
       <use x="63.623047" xlink:href="#DejaVuSans-30"/>
       <use x="127.246094" xlink:href="#DejaVuSans-30"/>
      </g>
     </g>
    </g>
    <g id="ytick_6">
     <g id="line2d_25">
      <path clip-path="url(#p7c74bfd4fd)" d="M 252 390.78 
L 962.181818 390.78 
" style="fill:none;stroke:#b0b0b0;stroke-linecap:square;stroke-width:0.8;"/>
     </g>
     <g id="line2d_26">
      <g>
       <use style="stroke:#000000;stroke-width:0.8;" x="252" xlink:href="#m85f93e2a05" y="390.78"/>
      </g>
     </g>
     <g id="text_14">
      <!-- 125 -->
      <g transform="translate(210.6425 397.618594)scale(0.18 -0.18)">
       <use xlink:href="#DejaVuSans-31"/>
       <use x="63.623047" xlink:href="#DejaVuSans-32"/>
       <use x="127.246094" xlink:href="#DejaVuSans-35"/>
      </g>
     </g>
    </g>
    <g id="ytick_7">
     <g id="line2d_27">
      <path clip-path="url(#p7c74bfd4fd)" d="M 252 308.88 
L 962.181818 308.88 
" style="fill:none;stroke:#b0b0b0;stroke-linecap:square;stroke-width:0.8;"/>
     </g>
     <g id="line2d_28">
      <g>
       <use style="stroke:#000000;stroke-width:0.8;" x="252" xlink:href="#m85f93e2a05" y="308.88"/>
      </g>
     </g>
     <g id="text_15">
      <!-- 150 -->
      <g transform="translate(210.6425 315.718594)scale(0.18 -0.18)">
       <use xlink:href="#DejaVuSans-31"/>
       <use x="63.623047" xlink:href="#DejaVuSans-35"/>
       <use x="127.246094" xlink:href="#DejaVuSans-30"/>
      </g>
     </g>
    </g>
    <g id="ytick_8">
     <g id="line2d_29">
      <path clip-path="url(#p7c74bfd4fd)" d="M 252 226.98 
L 962.181818 226.98 
" style="fill:none;stroke:#b0b0b0;stroke-linecap:square;stroke-width:0.8;"/>
     </g>
     <g id="line2d_30">
      <g>
       <use style="stroke:#000000;stroke-width:0.8;" x="252" xlink:href="#m85f93e2a05" y="226.98"/>
      </g>
     </g>
     <g id="text_16">
      <!-- 175 -->
      <g transform="translate(210.6425 233.818594)scale(0.18 -0.18)">
       <use xlink:href="#DejaVuSans-31"/>
       <use x="63.623047" xlink:href="#DejaVuSans-37"/>
       <use x="127.246094" xlink:href="#DejaVuSans-35"/>
      </g>
     </g>
    </g>
    <g id="ytick_9">
     <g id="line2d_31">
      <path clip-path="url(#p7c74bfd4fd)" d="M 252 145.08 
L 962.181818 145.08 
" style="fill:none;stroke:#b0b0b0;stroke-linecap:square;stroke-width:0.8;"/>
     </g>
     <g id="line2d_32">
      <g>
       <use style="stroke:#000000;stroke-width:0.8;" x="252" xlink:href="#m85f93e2a05" y="145.08"/>
      </g>
     </g>
     <g id="text_17">
      <!-- 200 -->
      <g transform="translate(210.6425 151.918594)scale(0.18 -0.18)">
       <use xlink:href="#DejaVuSans-32"/>
       <use x="63.623047" xlink:href="#DejaVuSans-30"/>
       <use x="127.246094" xlink:href="#DejaVuSans-30"/>
      </g>
     </g>
    </g>
    <g id="text_18">
     <!-- Z [m]] -->
     <defs>
      <path d="M 5.609375 72.90625 
L 62.890625 72.90625 
L 62.890625 65.375 
L 16.796875 8.296875 
L 64.015625 8.296875 
L 64.015625 0 
L 4.5 0 
L 4.5 7.515625 
L 50.59375 64.59375 
L 5.609375 64.59375 
z
" id="DejaVuSans-5a"/>
      <path d="M 52 44.1875 
Q 55.375 50.25 60.0625 53.125 
Q 64.75 56 71.09375 56 
Q 79.640625 56 84.28125 50.015625 
Q 88.921875 44.046875 88.921875 33.015625 
L 88.921875 0 
L 79.890625 0 
L 79.890625 32.71875 
Q 79.890625 40.578125 77.09375 44.375 
Q 74.3125 48.1875 68.609375 48.1875 
Q 61.625 48.1875 57.5625 43.546875 
Q 53.515625 38.921875 53.515625 30.90625 
L 53.515625 0 
L 44.484375 0 
L 44.484375 32.71875 
Q 44.484375 40.625 41.703125 44.40625 
Q 38.921875 48.1875 33.109375 48.1875 
Q 26.21875 48.1875 22.15625 43.53125 
Q 18.109375 38.875 18.109375 30.90625 
L 18.109375 0 
L 9.078125 0 
L 9.078125 54.6875 
L 18.109375 54.6875 
L 18.109375 46.1875 
Q 21.1875 51.21875 25.484375 53.609375 
Q 29.78125 56 35.6875 56 
Q 41.65625 56 45.828125 52.96875 
Q 50 49.953125 52 44.1875 
z
" id="DejaVuSans-6d"/>
     </defs>
     <g transform="translate(202.899062 501.006094)rotate(-90)scale(0.18 -0.18)">
      <use xlink:href="#DejaVuSans-5a"/>
      <use x="68.505859" xlink:href="#DejaVuSans-20"/>
      <use x="100.292969" xlink:href="#DejaVuSans-5b"/>
      <use x="139.306641" xlink:href="#DejaVuSans-6d"/>
      <use x="236.71875" xlink:href="#DejaVuSans-5d"/>
      <use x="275.732422" xlink:href="#DejaVuSans-5d"/>
     </g>
    </g>
   </g>
   <g id="line2d_33">
    <path clip-path="url(#p7c74bfd4fd)" d="M 284.280992 800.28 
L 306.725657 793.728 
L 329.253981 787.176 
L 351.811699 780.624 
L 374.39804 774.072 
L 397.012317 767.52 
L 419.654122 760.968 
L 442.323136 754.416 
L 465.019026 747.864 
L 487.741391 741.312 
L 510.489717 734.76 
L 533.263317 728.208 
L 556.061255 721.656 
L 578.882232 715.104 
L 601.724409 708.552 
L 624.58513 702 
L 647.460468 695.448 
L 670.344474 688.896 
L 693.227899 682.344 
L 716.096007 675.792 
L 738.924706 669.24 
L 761.670052 662.688 
L 784.156063 656.136 
L 806.017335 649.584 
L 826.560018 643.032 
L 844.935129 636.48 
L 861.055888 629.928 
L 874.796468 623.376 
L 886.106705 616.824 
L 895.011256 610.272 
L 901.601946 603.72 
L 906.026629 597.168 
L 908.476219 590.616 
L 909.171178 584.064 
L 908.350129 577.512 
L 906.252195 570.96 
L 903.113556 564.408 
L 899.157871 557.856 
L 894.590146 551.304 
L 889.593227 544.752 
L 884.325958 538.2 
L 878.922808 531.648 
L 873.494626 525.096 
L 868.130211 518.544 
L 862.898398 511.992 
L 857.850446 505.44 
L 853.022513 498.888 
L 848.438088 492.336 
L 844.110282 485.784 
L 840.043913 479.232 
L 836.237344 472.68 
L 832.68408 466.128 
L 829.37411 459.576 
L 826.295019 453.024 
L 823.432886 446.472 
L 820.773 439.92 
L 818.300408 433.368 
L 816.000331 426.816 
L 813.858467 420.264 
L 811.861197 413.712 
L 809.995722 407.16 
L 808.25014 400.608 
L 806.613478 394.056 
L 805.075691 387.504 
L 803.627642 380.952 
L 802.261056 374.4 
L 800.968469 367.848 
L 799.743173 361.296 
L 798.579152 354.744 
L 797.471022 348.192 
L 796.41397 341.64 
L 795.403697 335.088 
L 794.436365 328.536 
L 793.508545 321.984 
L 792.617176 315.432 
L 791.759516 308.88 
L 790.933114 302.328 
L 790.135769 295.776 
L 789.365501 289.224 
L 788.620533 282.672 
L 787.899256 276.12 
L 787.200216 269.568 
L 786.522093 263.016 
L 785.863689 256.464 
L 785.223911 249.912 
L 784.601757 243.36 
L 783.996312 236.808 
L 783.40673 230.256 
L 782.832237 223.704 
L 782.272115 217.152 
L 781.725698 210.6 
L 781.192369 204.048 
L 780.671555 197.496 
L 780.162719 190.944 
L 779.665362 184.392 
L 779.179013 177.84 
L 778.70322 171.288 
L 778.237606 164.736 
L 777.781757 158.184 
L 777.335307 151.632 
L 776.897919 145.08 
" style="fill:none;stroke:#1f77b4;stroke-linecap:square;stroke-width:1.5;"/>
   </g>
   <g id="line2d_34">
    <path clip-path="url(#p7c74bfd4fd)" d="M 707.699339 800.28 
L 707.699339 793.728 
L 707.699339 787.176 
L 707.699339 780.624 
L 707.699339 774.072 
L 707.699339 767.52 
L 707.699339 760.968 
L 707.699339 754.416 
L 707.699339 747.864 
L 707.699339 741.312 
L 707.699339 734.76 
L 707.699339 728.208 
L 707.699339 721.656 
L 707.699339 715.104 
L 707.699339 708.552 
L 707.699339 702 
L 707.699339 695.448 
L 707.699339 688.896 
L 707.699339 682.344 
L 707.699339 675.792 
L 707.699339 669.24 
L 707.699339 662.688 
L 707.699339 656.136 
L 707.699339 649.584 
L 707.699339 643.032 
L 707.699339 636.48 
L 707.699339 629.928 
L 707.699339 623.376 
L 707.699339 616.824 
L 707.699339 610.272 
L 707.699339 603.72 
L 707.699339 597.168 
L 707.699339 590.616 
L 707.699339 584.064 
L 707.699339 577.512 
L 707.699339 570.96 
L 707.699339 564.408 
L 707.699339 557.856 
L 707.699339 551.304 
L 707.699339 544.752 
L 707.699339 538.2 
L 707.699339 531.648 
L 707.699339 525.096 
L 707.699339 518.544 
L 707.699339 511.992 
L 707.699339 505.44 
L 707.699339 498.888 
L 707.699339 492.336 
L 707.699339 485.784 
L 707.699339 479.232 
L 707.699339 472.68 
L 707.699339 466.128 
L 707.699339 459.576 
L 707.699339 453.024 
L 707.699339 446.472 
L 707.699339 439.92 
L 707.699339 433.368 
L 707.699339 426.816 
L 707.699339 420.264 
L 707.699339 413.712 
L 707.699339 407.16 
L 707.699339 400.608 
L 707.699339 394.056 
L 707.699339 387.504 
L 707.699339 380.952 
L 707.699339 374.4 
L 707.699339 367.848 
L 707.699339 361.296 
L 707.699339 354.744 
L 707.699339 348.192 
L 707.699339 341.64 
L 707.699339 335.088 
L 707.699339 328.536 
L 707.699339 321.984 
L 707.699339 315.432 
L 707.699339 308.88 
L 707.699339 302.328 
L 707.699339 295.776 
L 707.699339 289.224 
L 707.699339 282.672 
L 707.699339 276.12 
L 707.699339 269.568 
L 707.699339 263.016 
L 707.699339 256.464 
L 707.699339 249.912 
L 707.699339 243.36 
L 707.699339 236.808 
L 707.699339 230.256 
L 707.699339 223.704 
L 707.699339 217.152 
L 707.699339 210.6 
L 707.699339 204.048 
L 707.699339 197.496 
L 707.699339 190.944 
L 707.699339 184.392 
L 707.699339 177.84 
L 707.699339 171.288 
L 707.699339 164.736 
L 707.699339 158.184 
L 707.699339 151.632 
L 707.699339 145.08 
" style="fill:none;stroke:#ff7f0e;stroke-linecap:square;stroke-width:1.5;"/>
   </g>
   <g id="line2d_35">
    <path clip-path="url(#p7c74bfd4fd)" d="M 284.280992 800.28 
L 306.718995 793.728 
L 329.252181 787.176 
L 351.810811 780.624 
L 374.397566 774.072 
L 397.01207 767.52 
L 419.65402 760.968 
L 442.323143 754.416 
L 465.019133 747.864 
L 487.741605 741.312 
L 510.49006 734.76 
L 533.263831 728.208 
L 556.062008 721.656 
L 578.883332 715.104 
L 601.726034 708.552 
L 624.587571 702 
L 647.464222 695.448 
L 670.350408 688.896 
L 693.237583 682.344 
L 716.112359 675.792 
L 738.953266 669.24 
L 761.723279 662.688 
L 784.330764 656.136 
L 806.480435 649.584 
L 827.614377 643.032 
L 847.042138 636.48 
L 864.301959 629.928 
L 879.215612 623.376 
L 891.723262 616.824 
L 901.815406 610.272 
L 909.576647 603.72 
L 915.14458 597.168 
L 918.694054 590.616 
L 920.433771 584.064 
L 920.588747 577.512 
L 919.390004 570.96 
L 917.065573 564.408 
L 913.833089 557.856 
L 909.894319 551.304 
L 905.431502 544.752 
L 900.605307 538.2 
L 895.554128 531.648 
L 890.394445 525.096 
L 885.221962 518.544 
L 880.11328 511.992 
L 875.127888 505.44 
L 870.310297 498.888 
L 865.692188 492.336 
L 861.294481 485.784 
L 857.129253 479.232 
L 853.201468 472.68 
L 849.510512 466.128 
L 846.051511 459.576 
L 842.816451 453.024 
L 839.795106 446.472 
L 836.975802 439.92 
L 834.346026 433.368 
L 831.892907 426.816 
L 829.603577 420.264 
L 827.465454 413.712 
L 825.466432 407.16 
L 823.595022 400.608 
L 821.840432 394.056 
L 820.192617 387.504 
L 818.642296 380.952 
L 817.180941 374.4 
L 815.800759 367.848 
L 814.494666 361.296 
L 813.256228 354.744 
L 812.07963 348.192 
L 810.959626 341.64 
L 809.891488 335.088 
L 808.870963 328.536 
L 807.894228 321.984 
L 806.957846 315.432 
L 806.058727 308.88 
L 805.194094 302.328 
L 804.361448 295.776 
L 803.558537 289.224 
L 802.783331 282.672 
L 802.033997 276.12 
L 801.308876 269.568 
L 800.606463 263.016 
L 799.925394 256.464 
L 799.264425 249.912 
L 798.622423 243.36 
L 797.998351 236.808 
L 797.391258 230.256 
L 796.800272 223.704 
L 796.22459 217.152 
L 795.663468 210.6 
L 795.116223 204.048 
L 794.582217 197.496 
L 794.060859 190.944 
L 793.551591 184.392 
L 793.05392 177.84 
L 792.567352 171.288 
L 792.091432 164.736 
L 791.625754 158.184 
L 791.169914 151.632 
L 790.723537 145.08 
" style="fill:none;stroke:#2ca02c;stroke-linecap:square;stroke-width:1.5;"/>
   </g>
   <g id="line2d_36">
    <path clip-path="url(#p7c74bfd4fd)" d="M 707.699339 800.28 
L 707.699339 793.728 
L 707.699339 787.176 
L 707.699339 780.624 
L 707.699339 774.072 
L 707.699339 767.52 
L 707.699339 760.968 
L 707.699339 754.416 
L 707.699339 747.864 
L 707.699339 741.312 
L 707.699339 734.76 
L 707.699339 728.208 
L 707.699339 721.656 
L 707.699339 715.104 
L 707.699339 708.552 
L 707.699339 702 
L 707.699339 695.448 
L 707.699339 688.896 
L 707.699339 682.344 
L 707.699339 675.792 
L 707.699339 669.24 
L 707.699339 662.688 
L 707.699339 656.136 
L 707.699339 649.584 
L 707.699339 643.032 
L 707.699339 636.48 
L 707.699339 629.928 
L 707.699339 623.376 
L 707.699339 616.824 
L 707.699339 610.272 
L 707.699339 603.72 
L 707.699339 597.168 
L 707.699339 590.616 
L 707.699339 584.064 
L 707.699339 577.512 
L 707.699339 570.96 
L 707.699339 564.408 
L 707.699339 557.856 
L 707.699339 551.304 
L 707.699339 544.752 
L 707.699339 538.2 
L 707.699339 531.648 
L 707.699339 525.096 
L 707.699339 518.544 
L 707.699339 511.992 
L 707.699339 505.44 
L 707.699339 498.888 
L 707.699339 492.336 
L 707.699339 485.784 
L 707.699339 479.232 
L 707.699339 472.68 
L 707.699339 466.128 
L 707.699339 459.576 
L 707.699339 453.024 
L 707.699339 446.472 
L 707.699339 439.92 
L 707.699339 433.368 
L 707.699339 426.816 
L 707.699339 420.264 
L 707.699339 413.712 
L 707.699339 407.16 
L 707.699339 400.608 
L 707.699339 394.056 
L 707.699339 387.504 
L 707.699339 380.952 
L 707.699339 374.4 
L 707.699339 367.848 
L 707.699339 361.296 
L 707.699339 354.744 
L 707.699339 348.192 
L 707.699339 341.64 
L 707.699339 335.088 
L 707.699339 328.536 
L 707.699339 321.984 
L 707.699339 315.432 
L 707.699339 308.88 
L 707.699339 302.328 
L 707.699339 295.776 
L 707.699339 289.224 
L 707.699339 282.672 
L 707.699339 276.12 
L 707.699339 269.568 
L 707.699339 263.016 
L 707.699339 256.464 
L 707.699339 249.912 
L 707.699339 243.36 
L 707.699339 236.808 
L 707.699339 230.256 
L 707.699339 223.704 
L 707.699339 217.152 
L 707.699339 210.6 
L 707.699339 204.048 
L 707.699339 197.496 
L 707.699339 190.944 
L 707.699339 184.392 
L 707.699339 177.84 
L 707.699339 171.288 
L 707.699339 164.736 
L 707.699339 158.184 
L 707.699339 151.632 
L 707.699339 145.08 
" style="fill:none;stroke:#d62728;stroke-linecap:square;stroke-width:1.5;"/>
   </g>
   <g id="line2d_37">
    <path clip-path="url(#p7c74bfd4fd)" d="M 284.280992 800.28 
L 306.714851 793.728 
L 329.251402 787.176 
L 351.810413 780.624 
L 374.397361 774.072 
L 397.011973 767.52 
L 419.653994 760.968 
L 442.323175 754.416 
L 465.019219 747.864 
L 487.741752 741.312 
L 510.490284 734.76 
L 533.264156 728.208 
L 556.062477 721.656 
L 578.884011 715.104 
L 601.727028 708.552 
L 624.589053 702 
L 647.466482 695.448 
L 670.353949 688.896 
L 693.243294 682.344 
L 716.121855 675.792 
L 738.969542 669.24 
L 761.752549 662.688 
L 784.397403 656.136 
L 806.671948 649.584 
L 828.020813 643.032 
L 847.810055 636.48 
L 865.58578 629.928 
L 881.095145 623.376 
L 894.229403 616.824 
L 904.979088 610.272 
L 913.409946 603.72 
L 919.645471 597.168 
L 923.852666 590.616 
L 926.228997 584.064 
L 926.990342 577.512 
L 926.360203 570.96 
L 924.560616 564.408 
L 921.804646 557.856 
L 918.290936 551.304 
L 914.2001 544.752 
L 909.692656 538.2 
L 904.908168 531.648 
L 899.965396 525.096 
L 894.963211 518.544 
L 889.982024 511.992 
L 885.085555 505.44 
L 880.322765 498.888 
L 875.729826 492.336 
L 871.332053 485.784 
L 867.145704 479.232 
L 863.179643 472.68 
L 859.43681 466.128 
L 855.915514 459.576 
L 852.610541 453.024 
L 849.514089 446.472 
L 846.616547 439.92 
L 843.907122 433.368 
L 841.374351 426.816 
L 839.006498 420.264 
L 836.791862 413.712 
L 834.719004 407.16 
L 832.776917 400.608 
L 830.955138 394.056 
L 829.24382 387.504 
L 827.633772 380.952 
L 826.116478 374.4 
L 824.68409 367.848 
L 823.32941 361.296 
L 822.045864 354.744 
L 820.827467 348.192 
L 819.668786 341.64 
L 818.564899 335.088 
L 817.511354 328.536 
L 816.50413 321.984 
L 815.539597 315.432 
L 814.614481 308.88 
L 813.725827 302.328 
L 812.870971 295.776 
L 812.047504 289.224 
L 811.253254 282.672 
L 810.486254 276.12 
L 809.744723 269.568 
L 809.027044 263.016 
L 808.331752 256.464 
L 807.65751 249.912 
L 807.003101 243.36 
L 806.367411 236.808 
L 805.749424 230.256 
L 805.148204 223.704 
L 804.562891 217.152 
L 803.992695 210.6 
L 803.436883 204.048 
L 802.89478 197.496 
L 802.365757 190.944 
L 801.849231 184.392 
L 801.344659 177.84 
L 800.851535 171.288 
L 800.369384 164.736 
L 799.897764 158.184 
L 799.436257 151.632 
L 798.984472 145.08 
" style="fill:none;stroke:#9467bd;stroke-linecap:square;stroke-width:1.5;"/>
   </g>
   <g id="line2d_38">
    <path clip-path="url(#p7c74bfd4fd)" d="M 707.699339 800.28 
L 707.699339 793.728 
L 707.699339 787.176 
L 707.699339 780.624 
L 707.699339 774.072 
L 707.699339 767.52 
L 707.699339 760.968 
L 707.699339 754.416 
L 707.699339 747.864 
L 707.699339 741.312 
L 707.699339 734.76 
L 707.699339 728.208 
L 707.699339 721.656 
L 707.699339 715.104 
L 707.699339 708.552 
L 707.699339 702 
L 707.699339 695.448 
L 707.699339 688.896 
L 707.699339 682.344 
L 707.699339 675.792 
L 707.699339 669.24 
L 707.699339 662.688 
L 707.699339 656.136 
L 707.699339 649.584 
L 707.699339 643.032 
L 707.699339 636.48 
L 707.699339 629.928 
L 707.699339 623.376 
L 707.699339 616.824 
L 707.699339 610.272 
L 707.699339 603.72 
L 707.699339 597.168 
L 707.699339 590.616 
L 707.699339 584.064 
L 707.699339 577.512 
L 707.699339 570.96 
L 707.699339 564.408 
L 707.699339 557.856 
L 707.699339 551.304 
L 707.699339 544.752 
L 707.699339 538.2 
L 707.699339 531.648 
L 707.699339 525.096 
L 707.699339 518.544 
L 707.699339 511.992 
L 707.699339 505.44 
L 707.699339 498.888 
L 707.699339 492.336 
L 707.699339 485.784 
L 707.699339 479.232 
L 707.699339 472.68 
L 707.699339 466.128 
L 707.699339 459.576 
L 707.699339 453.024 
L 707.699339 446.472 
L 707.699339 439.92 
L 707.699339 433.368 
L 707.699339 426.816 
L 707.699339 420.264 
L 707.699339 413.712 
L 707.699339 407.16 
L 707.699339 400.608 
L 707.699339 394.056 
L 707.699339 387.504 
L 707.699339 380.952 
L 707.699339 374.4 
L 707.699339 367.848 
L 707.699339 361.296 
L 707.699339 354.744 
L 707.699339 348.192 
L 707.699339 341.64 
L 707.699339 335.088 
L 707.699339 328.536 
L 707.699339 321.984 
L 707.699339 315.432 
L 707.699339 308.88 
L 707.699339 302.328 
L 707.699339 295.776 
L 707.699339 289.224 
L 707.699339 282.672 
L 707.699339 276.12 
L 707.699339 269.568 
L 707.699339 263.016 
L 707.699339 256.464 
L 707.699339 249.912 
L 707.699339 243.36 
L 707.699339 236.808 
L 707.699339 230.256 
L 707.699339 223.704 
L 707.699339 217.152 
L 707.699339 210.6 
L 707.699339 204.048 
L 707.699339 197.496 
L 707.699339 190.944 
L 707.699339 184.392 
L 707.699339 177.84 
L 707.699339 171.288 
L 707.699339 164.736 
L 707.699339 158.184 
L 707.699339 151.632 
L 707.699339 145.08 
" style="fill:none;stroke:#8c564b;stroke-linecap:square;stroke-width:1.5;"/>
   </g>
   <g id="line2d_39">
    <path clip-path="url(#p7c74bfd4fd)" d="M 284.280992 800.28 
L 306.713532 793.728 
L 329.251192 787.176 
L 351.810301 780.624 
L 374.397305 774.072 
L 397.011948 767.52 
L 419.653991 760.968 
L 442.323189 754.416 
L 465.01925 747.864 
L 487.741804 741.312 
L 510.49036 734.76 
L 533.264267 728.208 
L 556.062635 721.656 
L 578.884239 715.104 
L 601.727361 708.552 
L 624.589549 702 
L 647.467236 695.448 
L 670.355124 688.896 
L 693.245179 682.344 
L 716.124968 675.792 
L 738.974832 669.24 
L 761.761928 662.688 
L 784.417193 656.136 
L 806.731357 649.584 
L 828.181433 643.032 
L 848.091296 636.48 
L 865.996757 629.928 
L 881.653663 623.376 
L 894.952651 616.824 
L 905.882073 610.272 
L 914.503904 603.72 
L 920.937644 597.168 
L 925.346339 590.616 
L 927.923597 584.064 
L 928.88166 577.512 
L 928.440738 570.96 
L 926.819982 564.408 
L 924.230108 557.856 
L 920.867952 551.304 
L 916.91294 544.752 
L 912.524965 538.2 
L 907.843477 531.648 
L 902.98757 525.096 
L 898.056804 518.544 
L 893.132563 511.992 
L 888.279738 505.44 
L 883.548585 498.888 
L 878.97664 492.336 
L 874.590585 485.784 
L 870.408021 479.232 
L 866.439083 472.68 
L 862.687896 466.128 
L 859.153853 459.576 
L 855.832708 453.024 
L 852.717516 446.472 
L 849.799407 439.92 
L 847.068222 433.368 
L 844.513033 426.816 
L 842.122542 420.264 
L 839.885405 413.712 
L 837.790466 407.16 
L 835.826936 400.608 
L 833.984512 394.056 
L 832.253462 387.504 
L 830.624672 380.952 
L 829.089668 374.4 
L 827.640619 367.848 
L 826.270321 361.296 
L 824.972181 354.744 
L 823.740183 348.192 
L 822.56885 341.64 
L 821.453214 335.088 
L 820.38877 328.536 
L 819.371446 321.984 
L 818.397558 315.432 
L 817.463777 308.88 
L 816.567098 302.328 
L 815.704807 295.776 
L 814.874449 289.224 
L 814.073806 282.672 
L 813.300869 276.12 
L 812.553819 269.568 
L 811.831006 263.016 
L 811.130928 256.464 
L 810.452221 249.912 
L 809.793639 243.36 
L 809.154044 236.808 
L 808.532397 230.256 
L 807.92774 223.704 
L 807.339197 217.152 
L 806.765959 210.6 
L 806.207279 204.048 
L 805.662467 197.496 
L 805.130883 190.944 
L 804.611931 184.392 
L 804.10506 177.84 
L 803.609752 171.288 
L 803.125526 164.736 
L 802.65193 158.184 
L 802.188541 151.632 
L 801.734963 145.08 
" style="fill:none;stroke:#e377c2;stroke-linecap:square;stroke-width:1.5;"/>
   </g>
   <g id="line2d_40">
    <path clip-path="url(#p7c74bfd4fd)" d="M 707.699339 800.28 
L 707.699339 793.728 
L 707.699339 787.176 
L 707.699339 780.624 
L 707.699339 774.072 
L 707.699339 767.52 
L 707.699339 760.968 
L 707.699339 754.416 
L 707.699339 747.864 
L 707.699339 741.312 
L 707.699339 734.76 
L 707.699339 728.208 
L 707.699339 721.656 
L 707.699339 715.104 
L 707.699339 708.552 
L 707.699339 702 
L 707.699339 695.448 
L 707.699339 688.896 
L 707.699339 682.344 
L 707.699339 675.792 
L 707.699339 669.24 
L 707.699339 662.688 
L 707.699339 656.136 
L 707.699339 649.584 
L 707.699339 643.032 
L 707.699339 636.48 
L 707.699339 629.928 
L 707.699339 623.376 
L 707.699339 616.824 
L 707.699339 610.272 
L 707.699339 603.72 
L 707.699339 597.168 
L 707.699339 590.616 
L 707.699339 584.064 
L 707.699339 577.512 
L 707.699339 570.96 
L 707.699339 564.408 
L 707.699339 557.856 
L 707.699339 551.304 
L 707.699339 544.752 
L 707.699339 538.2 
L 707.699339 531.648 
L 707.699339 525.096 
L 707.699339 518.544 
L 707.699339 511.992 
L 707.699339 505.44 
L 707.699339 498.888 
L 707.699339 492.336 
L 707.699339 485.784 
L 707.699339 479.232 
L 707.699339 472.68 
L 707.699339 466.128 
L 707.699339 459.576 
L 707.699339 453.024 
L 707.699339 446.472 
L 707.699339 439.92 
L 707.699339 433.368 
L 707.699339 426.816 
L 707.699339 420.264 
L 707.699339 413.712 
L 707.699339 407.16 
L 707.699339 400.608 
L 707.699339 394.056 
L 707.699339 387.504 
L 707.699339 380.952 
L 707.699339 374.4 
L 707.699339 367.848 
L 707.699339 361.296 
L 707.699339 354.744 
L 707.699339 348.192 
L 707.699339 341.64 
L 707.699339 335.088 
L 707.699339 328.536 
L 707.699339 321.984 
L 707.699339 315.432 
L 707.699339 308.88 
L 707.699339 302.328 
L 707.699339 295.776 
L 707.699339 289.224 
L 707.699339 282.672 
L 707.699339 276.12 
L 707.699339 269.568 
L 707.699339 263.016 
L 707.699339 256.464 
L 707.699339 249.912 
L 707.699339 243.36 
L 707.699339 236.808 
L 707.699339 230.256 
L 707.699339 223.704 
L 707.699339 217.152 
L 707.699339 210.6 
L 707.699339 204.048 
L 707.699339 197.496 
L 707.699339 190.944 
L 707.699339 184.392 
L 707.699339 177.84 
L 707.699339 171.288 
L 707.699339 164.736 
L 707.699339 158.184 
L 707.699339 151.632 
L 707.699339 145.08 
" style="fill:none;stroke:#7f7f7f;stroke-linecap:square;stroke-width:1.5;"/>
   </g>
   <g id="line2d_41">
    <path clip-path="url(#p7c74bfd4fd)" d="M 284.280992 800.28 
L 306.712894 793.728 
L 329.251095 787.176 
L 351.810249 780.624 
L 374.397278 774.072 
L 397.011937 767.52 
L 419.653991 760.968 
L 442.323197 754.416 
L 465.019267 747.864 
L 487.74183 741.312 
L 510.490399 734.76 
L 533.264323 728.208 
L 556.062715 721.656 
L 578.884354 715.104 
L 601.727528 708.552 
L 624.589797 702 
L 647.467613 695.448 
L 670.355711 688.896 
L 693.246118 682.344 
L 716.126515 675.792 
L 738.977453 669.24 
L 761.766552 662.688 
L 784.426742 656.136 
L 806.75895 649.584 
L 828.259632 643.032 
L 848.253339 636.48 
L 866.249388 629.928 
L 881.994595 623.376 
L 895.384982 616.824 
L 906.409938 610.272 
L 915.130233 603.72 
L 921.663908 597.168 
L 926.172413 590.616 
L 928.847809 584.064 
L 929.900826 577.512 
L 929.550316 570.96 
L 928.014222 564.408 
L 925.50227 557.856 
L 922.210619 551.304 
L 918.318268 544.752 
L 913.984928 538.2 
L 909.350095 531.648 
L 904.533094 525.096 
L 899.633872 518.544 
L 894.73432 511.992 
L 889.899916 505.44 
L 885.181556 498.888 
L 880.617438 492.336 
L 876.234905 485.784 
L 872.052198 479.232 
L 868.080059 472.68 
L 864.323175 466.128 
L 860.781449 459.576 
L 857.451096 453.024 
L 854.325572 446.472 
L 851.396354 439.92 
L 848.653582 433.368 
L 846.086574 426.816 
L 843.684239 420.264 
L 841.435398 413.712 
L 839.329025 407.16 
L 837.354429 400.608 
L 835.501381 394.056 
L 833.760201 387.504 
L 832.121805 380.952 
L 830.577738 374.4 
L 829.120171 367.848 
L 827.741897 361.296 
L 826.436311 354.744 
L 825.197376 348.192 
L 824.019594 341.64 
L 822.897972 335.088 
L 821.827979 328.536 
L 820.805513 321.984 
L 819.826864 315.432 
L 818.888675 308.88 
L 817.987915 302.328 
L 817.121844 295.776 
L 816.287983 289.224 
L 815.484092 282.672 
L 814.70814 276.12 
L 813.958289 269.568 
L 813.23287 263.016 
L 812.530365 256.464 
L 811.849393 249.912 
L 811.188696 243.36 
L 810.547124 236.808 
L 809.923623 230.256 
L 809.317227 223.704 
L 808.72705 217.152 
L 808.152274 210.6 
L 807.592145 204.048 
L 807.045964 197.496 
L 806.513087 190.944 
L 805.992911 184.392 
L 805.484879 177.84 
L 804.988471 171.288 
L 804.503198 164.736 
L 804.028608 158.184 
L 803.564272 151.632 
L 803.109791 145.08 
" style="fill:none;stroke:#bcbd22;stroke-linecap:square;stroke-width:1.5;"/>
   </g>
   <g id="line2d_42">
    <path clip-path="url(#p7c74bfd4fd)" d="M 707.699339 800.28 
L 707.699339 793.728 
L 707.699339 787.176 
L 707.699339 780.624 
L 707.699339 774.072 
L 707.699339 767.52 
L 707.699339 760.968 
L 707.699339 754.416 
L 707.699339 747.864 
L 707.699339 741.312 
L 707.699339 734.76 
L 707.699339 728.208 
L 707.699339 721.656 
L 707.699339 715.104 
L 707.699339 708.552 
L 707.699339 702 
L 707.699339 695.448 
L 707.699339 688.896 
L 707.699339 682.344 
L 707.699339 675.792 
L 707.699339 669.24 
L 707.699339 662.688 
L 707.699339 656.136 
L 707.699339 649.584 
L 707.699339 643.032 
L 707.699339 636.48 
L 707.699339 629.928 
L 707.699339 623.376 
L 707.699339 616.824 
L 707.699339 610.272 
L 707.699339 603.72 
L 707.699339 597.168 
L 707.699339 590.616 
L 707.699339 584.064 
L 707.699339 577.512 
L 707.699339 570.96 
L 707.699339 564.408 
L 707.699339 557.856 
L 707.699339 551.304 
L 707.699339 544.752 
L 707.699339 538.2 
L 707.699339 531.648 
L 707.699339 525.096 
L 707.699339 518.544 
L 707.699339 511.992 
L 707.699339 505.44 
L 707.699339 498.888 
L 707.699339 492.336 
L 707.699339 485.784 
L 707.699339 479.232 
L 707.699339 472.68 
L 707.699339 466.128 
L 707.699339 459.576 
L 707.699339 453.024 
L 707.699339 446.472 
L 707.699339 439.92 
L 707.699339 433.368 
L 707.699339 426.816 
L 707.699339 420.264 
L 707.699339 413.712 
L 707.699339 407.16 
L 707.699339 400.608 
L 707.699339 394.056 
L 707.699339 387.504 
L 707.699339 380.952 
L 707.699339 374.4 
L 707.699339 367.848 
L 707.699339 361.296 
L 707.699339 354.744 
L 707.699339 348.192 
L 707.699339 341.64 
L 707.699339 335.088 
L 707.699339 328.536 
L 707.699339 321.984 
L 707.699339 315.432 
L 707.699339 308.88 
L 707.699339 302.328 
L 707.699339 295.776 
L 707.699339 289.224 
L 707.699339 282.672 
L 707.699339 276.12 
L 707.699339 269.568 
L 707.699339 263.016 
L 707.699339 256.464 
L 707.699339 249.912 
L 707.699339 243.36 
L 707.699339 236.808 
L 707.699339 230.256 
L 707.699339 223.704 
L 707.699339 217.152 
L 707.699339 210.6 
L 707.699339 204.048 
L 707.699339 197.496 
L 707.699339 190.944 
L 707.699339 184.392 
L 707.699339 177.84 
L 707.699339 171.288 
L 707.699339 164.736 
L 707.699339 158.184 
L 707.699339 151.632 
L 707.699339 145.08 
" style="fill:none;stroke:#17becf;stroke-linecap:square;stroke-width:1.5;"/>
   </g>
   <g id="patch_3">
    <path d="M 252 833.04 
L 252 112.32 
" style="fill:none;stroke:#000000;stroke-linecap:square;stroke-linejoin:miter;stroke-width:0.8;"/>
   </g>
   <g id="patch_4">
    <path d="M 962.181818 833.04 
L 962.181818 112.32 
" style="fill:none;stroke:#000000;stroke-linecap:square;stroke-linejoin:miter;stroke-width:0.8;"/>
   </g>
   <g id="patch_5">
    <path d="M 252 833.04 
L 962.181818 833.04 
" style="fill:none;stroke:#000000;stroke-linecap:square;stroke-linejoin:miter;stroke-width:0.8;"/>
   </g>
   <g id="patch_6">
    <path d="M 252 112.32 
L 962.181818 112.32 
" style="fill:none;stroke:#000000;stroke-linecap:square;stroke-linejoin:miter;stroke-width:0.8;"/>
   </g>
   <g id="text_19">
    <!-- Saturation for updraft velocity= 2[m/s] -->
    <defs>
     <path d="M 53.515625 70.515625 
L 53.515625 60.890625 
Q 47.90625 63.578125 42.921875 64.890625 
Q 37.9375 66.21875 33.296875 66.21875 
Q 25.25 66.21875 20.875 63.09375 
Q 16.5 59.96875 16.5 54.203125 
Q 16.5 49.359375 19.40625 46.890625 
Q 22.3125 44.4375 30.421875 42.921875 
L 36.375 41.703125 
Q 47.40625 39.59375 52.65625 34.296875 
Q 57.90625 29 57.90625 20.125 
Q 57.90625 9.515625 50.796875 4.046875 
Q 43.703125 -1.421875 29.984375 -1.421875 
Q 24.8125 -1.421875 18.96875 -0.25 
Q 13.140625 0.921875 6.890625 3.21875 
L 6.890625 13.375 
Q 12.890625 10.015625 18.65625 8.296875 
Q 24.421875 6.59375 29.984375 6.59375 
Q 38.421875 6.59375 43.015625 9.90625 
Q 47.609375 13.234375 47.609375 19.390625 
Q 47.609375 24.75 44.3125 27.78125 
Q 41.015625 30.8125 33.5 32.328125 
L 27.484375 33.5 
Q 16.453125 35.6875 11.515625 40.375 
Q 6.59375 45.0625 6.59375 53.421875 
Q 6.59375 63.09375 13.40625 68.65625 
Q 20.21875 74.21875 32.171875 74.21875 
Q 37.3125 74.21875 42.625 73.28125 
Q 47.953125 72.359375 53.515625 70.515625 
z
" id="DejaVuSans-53"/>
     <path d="M 34.28125 27.484375 
Q 23.390625 27.484375 19.1875 25 
Q 14.984375 22.515625 14.984375 16.5 
Q 14.984375 11.71875 18.140625 8.90625 
Q 21.296875 6.109375 26.703125 6.109375 
Q 34.1875 6.109375 38.703125 11.40625 
Q 43.21875 16.703125 43.21875 25.484375 
L 43.21875 27.484375 
z
M 52.203125 31.203125 
L 52.203125 0 
L 43.21875 0 
L 43.21875 8.296875 
Q 40.140625 3.328125 35.546875 0.953125 
Q 30.953125 -1.421875 24.3125 -1.421875 
Q 15.921875 -1.421875 10.953125 3.296875 
Q 6 8.015625 6 15.921875 
Q 6 25.140625 12.171875 29.828125 
Q 18.359375 34.515625 30.609375 34.515625 
L 43.21875 34.515625 
L 43.21875 35.40625 
Q 43.21875 41.609375 39.140625 45 
Q 35.0625 48.390625 27.6875 48.390625 
Q 23 48.390625 18.546875 47.265625 
Q 14.109375 46.140625 10.015625 43.890625 
L 10.015625 52.203125 
Q 14.9375 54.109375 19.578125 55.046875 
Q 24.21875 56 28.609375 56 
Q 40.484375 56 46.34375 49.84375 
Q 52.203125 43.703125 52.203125 31.203125 
z
" id="DejaVuSans-61"/>
     <path d="M 18.3125 70.21875 
L 18.3125 54.6875 
L 36.8125 54.6875 
L 36.8125 47.703125 
L 18.3125 47.703125 
L 18.3125 18.015625 
Q 18.3125 11.328125 20.140625 9.421875 
Q 21.96875 7.515625 27.59375 7.515625 
L 36.8125 7.515625 
L 36.8125 0 
L 27.59375 0 
Q 17.1875 0 13.234375 3.875 
Q 9.28125 7.765625 9.28125 18.015625 
L 9.28125 47.703125 
L 2.6875 47.703125 
L 2.6875 54.6875 
L 9.28125 54.6875 
L 9.28125 70.21875 
z
" id="DejaVuSans-74"/>
     <path d="M 8.5 21.578125 
L 8.5 54.6875 
L 17.484375 54.6875 
L 17.484375 21.921875 
Q 17.484375 14.15625 20.5 10.265625 
Q 23.53125 6.390625 29.59375 6.390625 
Q 36.859375 6.390625 41.078125 11.03125 
Q 45.3125 15.671875 45.3125 23.6875 
L 45.3125 54.6875 
L 54.296875 54.6875 
L 54.296875 0 
L 45.3125 0 
L 45.3125 8.40625 
Q 42.046875 3.421875 37.71875 1 
Q 33.40625 -1.421875 27.6875 -1.421875 
Q 18.265625 -1.421875 13.375 4.4375 
Q 8.5 10.296875 8.5 21.578125 
z
M 31.109375 56 
z
" id="DejaVuSans-75"/>
     <path d="M 41.109375 46.296875 
Q 39.59375 47.171875 37.8125 47.578125 
Q 36.03125 48 33.890625 48 
Q 26.265625 48 22.1875 43.046875 
Q 18.109375 38.09375 18.109375 28.8125 
L 18.109375 0 
L 9.078125 0 
L 9.078125 54.6875 
L 18.109375 54.6875 
L 18.109375 46.1875 
Q 20.953125 51.171875 25.484375 53.578125 
Q 30.03125 56 36.53125 56 
Q 37.453125 56 38.578125 55.875 
Q 39.703125 55.765625 41.0625 55.515625 
z
" id="DejaVuSans-72"/>
     <path d="M 9.421875 54.6875 
L 18.40625 54.6875 
L 18.40625 0 
L 9.421875 0 
z
M 9.421875 75.984375 
L 18.40625 75.984375 
L 18.40625 64.59375 
L 9.421875 64.59375 
z
" id="DejaVuSans-69"/>
     <path d="M 30.609375 48.390625 
Q 23.390625 48.390625 19.1875 42.75 
Q 14.984375 37.109375 14.984375 27.296875 
Q 14.984375 17.484375 19.15625 11.84375 
Q 23.34375 6.203125 30.609375 6.203125 
Q 37.796875 6.203125 41.984375 11.859375 
Q 46.1875 17.53125 46.1875 27.296875 
Q 46.1875 37.015625 41.984375 42.703125 
Q 37.796875 48.390625 30.609375 48.390625 
z
M 30.609375 56 
Q 42.328125 56 49.015625 48.375 
Q 55.71875 40.765625 55.71875 27.296875 
Q 55.71875 13.875 49.015625 6.21875 
Q 42.328125 -1.421875 30.609375 -1.421875 
Q 18.84375 -1.421875 12.171875 6.21875 
Q 5.515625 13.875 5.515625 27.296875 
Q 5.515625 40.765625 12.171875 48.375 
Q 18.84375 56 30.609375 56 
z
" id="DejaVuSans-6f"/>
     <path d="M 54.890625 33.015625 
L 54.890625 0 
L 45.90625 0 
L 45.90625 32.71875 
Q 45.90625 40.484375 42.875 44.328125 
Q 39.84375 48.1875 33.796875 48.1875 
Q 26.515625 48.1875 22.3125 43.546875 
Q 18.109375 38.921875 18.109375 30.90625 
L 18.109375 0 
L 9.078125 0 
L 9.078125 54.6875 
L 18.109375 54.6875 
L 18.109375 46.1875 
Q 21.34375 51.125 25.703125 53.5625 
Q 30.078125 56 35.796875 56 
Q 45.21875 56 50.046875 50.171875 
Q 54.890625 44.34375 54.890625 33.015625 
z
" id="DejaVuSans-6e"/>
     <path d="M 37.109375 75.984375 
L 37.109375 68.5 
L 28.515625 68.5 
Q 23.6875 68.5 21.796875 66.546875 
Q 19.921875 64.59375 19.921875 59.515625 
L 19.921875 54.6875 
L 34.71875 54.6875 
L 34.71875 47.703125 
L 19.921875 47.703125 
L 19.921875 0 
L 10.890625 0 
L 10.890625 47.703125 
L 2.296875 47.703125 
L 2.296875 54.6875 
L 10.890625 54.6875 
L 10.890625 58.5 
Q 10.890625 67.625 15.140625 71.796875 
Q 19.390625 75.984375 28.609375 75.984375 
z
" id="DejaVuSans-66"/>
     <path d="M 18.109375 8.203125 
L 18.109375 -20.796875 
L 9.078125 -20.796875 
L 9.078125 54.6875 
L 18.109375 54.6875 
L 18.109375 46.390625 
Q 20.953125 51.265625 25.265625 53.625 
Q 29.59375 56 35.59375 56 
Q 45.5625 56 51.78125 48.09375 
Q 58.015625 40.1875 58.015625 27.296875 
Q 58.015625 14.40625 51.78125 6.484375 
Q 45.5625 -1.421875 35.59375 -1.421875 
Q 29.59375 -1.421875 25.265625 0.953125 
Q 20.953125 3.328125 18.109375 8.203125 
z
M 48.6875 27.296875 
Q 48.6875 37.203125 44.609375 42.84375 
Q 40.53125 48.484375 33.40625 48.484375 
Q 26.265625 48.484375 22.1875 42.84375 
Q 18.109375 37.203125 18.109375 27.296875 
Q 18.109375 17.390625 22.1875 11.75 
Q 26.265625 6.109375 33.40625 6.109375 
Q 40.53125 6.109375 44.609375 11.75 
Q 48.6875 17.390625 48.6875 27.296875 
z
" id="DejaVuSans-70"/>
     <path d="M 45.40625 46.390625 
L 45.40625 75.984375 
L 54.390625 75.984375 
L 54.390625 0 
L 45.40625 0 
L 45.40625 8.203125 
Q 42.578125 3.328125 38.25 0.953125 
Q 33.9375 -1.421875 27.875 -1.421875 
Q 17.96875 -1.421875 11.734375 6.484375 
Q 5.515625 14.40625 5.515625 27.296875 
Q 5.515625 40.1875 11.734375 48.09375 
Q 17.96875 56 27.875 56 
Q 33.9375 56 38.25 53.625 
Q 42.578125 51.265625 45.40625 46.390625 
z
M 14.796875 27.296875 
Q 14.796875 17.390625 18.875 11.75 
Q 22.953125 6.109375 30.078125 6.109375 
Q 37.203125 6.109375 41.296875 11.75 
Q 45.40625 17.390625 45.40625 27.296875 
Q 45.40625 37.203125 41.296875 42.84375 
Q 37.203125 48.484375 30.078125 48.484375 
Q 22.953125 48.484375 18.875 42.84375 
Q 14.796875 37.203125 14.796875 27.296875 
z
" id="DejaVuSans-64"/>
     <path d="M 2.984375 54.6875 
L 12.5 54.6875 
L 29.59375 8.796875 
L 46.6875 54.6875 
L 56.203125 54.6875 
L 35.6875 0 
L 23.484375 0 
z
" id="DejaVuSans-76"/>
     <path d="M 56.203125 29.59375 
L 56.203125 25.203125 
L 14.890625 25.203125 
Q 15.484375 15.921875 20.484375 11.0625 
Q 25.484375 6.203125 34.421875 6.203125 
Q 39.59375 6.203125 44.453125 7.46875 
Q 49.3125 8.734375 54.109375 11.28125 
L 54.109375 2.78125 
Q 49.265625 0.734375 44.1875 -0.34375 
Q 39.109375 -1.421875 33.890625 -1.421875 
Q 20.796875 -1.421875 13.15625 6.1875 
Q 5.515625 13.8125 5.515625 26.8125 
Q 5.515625 40.234375 12.765625 48.109375 
Q 20.015625 56 32.328125 56 
Q 43.359375 56 49.78125 48.890625 
Q 56.203125 41.796875 56.203125 29.59375 
z
M 47.21875 32.234375 
Q 47.125 39.59375 43.09375 43.984375 
Q 39.0625 48.390625 32.421875 48.390625 
Q 24.90625 48.390625 20.390625 44.140625 
Q 15.875 39.890625 15.1875 32.171875 
z
" id="DejaVuSans-65"/>
     <path d="M 9.421875 75.984375 
L 18.40625 75.984375 
L 18.40625 0 
L 9.421875 0 
z
" id="DejaVuSans-6c"/>
     <path d="M 48.78125 52.59375 
L 48.78125 44.1875 
Q 44.96875 46.296875 41.140625 47.34375 
Q 37.3125 48.390625 33.40625 48.390625 
Q 24.65625 48.390625 19.8125 42.84375 
Q 14.984375 37.3125 14.984375 27.296875 
Q 14.984375 17.28125 19.8125 11.734375 
Q 24.65625 6.203125 33.40625 6.203125 
Q 37.3125 6.203125 41.140625 7.25 
Q 44.96875 8.296875 48.78125 10.40625 
L 48.78125 2.09375 
Q 45.015625 0.34375 40.984375 -0.53125 
Q 36.96875 -1.421875 32.421875 -1.421875 
Q 20.0625 -1.421875 12.78125 6.34375 
Q 5.515625 14.109375 5.515625 27.296875 
Q 5.515625 40.671875 12.859375 48.328125 
Q 20.21875 56 33.015625 56 
Q 37.15625 56 41.109375 55.140625 
Q 45.0625 54.296875 48.78125 52.59375 
z
" id="DejaVuSans-63"/>
     <path d="M 32.171875 -5.078125 
Q 28.375 -14.84375 24.75 -17.8125 
Q 21.140625 -20.796875 15.09375 -20.796875 
L 7.90625 -20.796875 
L 7.90625 -13.28125 
L 13.1875 -13.28125 
Q 16.890625 -13.28125 18.9375 -11.515625 
Q 21 -9.765625 23.484375 -3.21875 
L 25.09375 0.875 
L 2.984375 54.6875 
L 12.5 54.6875 
L 29.59375 11.921875 
L 46.6875 54.6875 
L 56.203125 54.6875 
z
" id="DejaVuSans-79"/>
     <path d="M 10.59375 45.40625 
L 73.1875 45.40625 
L 73.1875 37.203125 
L 10.59375 37.203125 
z
M 10.59375 25.484375 
L 73.1875 25.484375 
L 73.1875 17.1875 
L 10.59375 17.1875 
z
" id="DejaVuSans-3d"/>
     <path d="M 25.390625 72.90625 
L 33.6875 72.90625 
L 8.296875 -9.28125 
L 0 -9.28125 
z
" id="DejaVuSans-2f"/>
     <path d="M 44.28125 53.078125 
L 44.28125 44.578125 
Q 40.484375 46.53125 36.375 47.5 
Q 32.28125 48.484375 27.875 48.484375 
Q 21.1875 48.484375 17.84375 46.4375 
Q 14.5 44.390625 14.5 40.28125 
Q 14.5 37.15625 16.890625 35.375 
Q 19.28125 33.59375 26.515625 31.984375 
L 29.59375 31.296875 
Q 39.15625 29.25 43.1875 25.515625 
Q 47.21875 21.78125 47.21875 15.09375 
Q 47.21875 7.46875 41.1875 3.015625 
Q 35.15625 -1.421875 24.609375 -1.421875 
Q 20.21875 -1.421875 15.453125 -0.5625 
Q 10.6875 0.296875 5.421875 2 
L 5.421875 11.28125 
Q 10.40625 8.6875 15.234375 7.390625 
Q 20.0625 6.109375 24.8125 6.109375 
Q 31.15625 6.109375 34.5625 8.28125 
Q 37.984375 10.453125 37.984375 14.40625 
Q 37.984375 18.0625 35.515625 20.015625 
Q 33.0625 21.96875 24.703125 23.78125 
L 21.578125 24.515625 
Q 13.234375 26.265625 9.515625 29.90625 
Q 5.8125 33.546875 5.8125 39.890625 
Q 5.8125 47.609375 11.28125 51.796875 
Q 16.75 56 26.8125 56 
Q 31.78125 56 36.171875 55.265625 
Q 40.578125 54.546875 44.28125 53.078125 
z
" id="DejaVuSans-73"/>
    </defs>
    <g transform="translate(396.219222 106.32)scale(0.216 -0.216)">
     <use xlink:href="#DejaVuSans-53"/>
     <use x="63.476562" xlink:href="#DejaVuSans-61"/>
     <use x="124.755859" xlink:href="#DejaVuSans-74"/>
     <use x="163.964844" xlink:href="#DejaVuSans-75"/>
     <use x="227.34375" xlink:href="#DejaVuSans-72"/>
     <use x="268.457031" xlink:href="#DejaVuSans-61"/>
     <use x="329.736328" xlink:href="#DejaVuSans-74"/>
     <use x="368.945312" xlink:href="#DejaVuSans-69"/>
     <use x="396.728516" xlink:href="#DejaVuSans-6f"/>
     <use x="457.910156" xlink:href="#DejaVuSans-6e"/>
     <use x="521.289062" xlink:href="#DejaVuSans-20"/>
     <use x="553.076172" xlink:href="#DejaVuSans-66"/>
     <use x="588.28125" xlink:href="#DejaVuSans-6f"/>
     <use x="649.462891" xlink:href="#DejaVuSans-72"/>
     <use x="690.576172" xlink:href="#DejaVuSans-20"/>
     <use x="722.363281" xlink:href="#DejaVuSans-75"/>
     <use x="785.742188" xlink:href="#DejaVuSans-70"/>
     <use x="849.21875" xlink:href="#DejaVuSans-64"/>
     <use x="912.695312" xlink:href="#DejaVuSans-72"/>
     <use x="953.808594" xlink:href="#DejaVuSans-61"/>
     <use x="1015.087891" xlink:href="#DejaVuSans-66"/>
     <use x="1050.277344" xlink:href="#DejaVuSans-74"/>
     <use x="1089.486328" xlink:href="#DejaVuSans-20"/>
     <use x="1121.273438" xlink:href="#DejaVuSans-76"/>
     <use x="1180.453125" xlink:href="#DejaVuSans-65"/>
     <use x="1241.976562" xlink:href="#DejaVuSans-6c"/>
     <use x="1269.759766" xlink:href="#DejaVuSans-6f"/>
     <use x="1330.941406" xlink:href="#DejaVuSans-63"/>
     <use x="1385.921875" xlink:href="#DejaVuSans-69"/>
     <use x="1413.705078" xlink:href="#DejaVuSans-74"/>
     <use x="1452.914062" xlink:href="#DejaVuSans-79"/>
     <use x="1512.09375" xlink:href="#DejaVuSans-3d"/>
     <use x="1595.882812" xlink:href="#DejaVuSans-20"/>
     <use x="1627.669922" xlink:href="#DejaVuSans-32"/>
     <use x="1691.292969" xlink:href="#DejaVuSans-5b"/>
     <use x="1730.306641" xlink:href="#DejaVuSans-6d"/>
     <use x="1827.71875" xlink:href="#DejaVuSans-2f"/>
     <use x="1861.410156" xlink:href="#DejaVuSans-73"/>
     <use x="1913.509766" xlink:href="#DejaVuSans-5d"/>
    </g>
   </g>
   <g id="legend_1">
    <g id="patch_7">
     <path d="M 264.6 285.24375 
L 486.63 285.24375 
Q 490.23 285.24375 490.23 281.64375 
L 490.23 124.92 
Q 490.23 121.32 486.63 121.32 
L 264.6 121.32 
Q 261 121.32 261 124.92 
L 261 281.64375 
Q 261 285.24375 264.6 285.24375 
z
" style="fill:#ffffff;opacity:0.8;stroke:#cccccc;stroke-linejoin:miter;"/>
    </g>
    <g id="text_20">
     <!-- Condensation time step -->
     <defs>
      <path d="M 64.40625 67.28125 
L 64.40625 56.890625 
Q 59.421875 61.53125 53.78125 63.8125 
Q 48.140625 66.109375 41.796875 66.109375 
Q 29.296875 66.109375 22.65625 58.46875 
Q 16.015625 50.828125 16.015625 36.375 
Q 16.015625 21.96875 22.65625 14.328125 
Q 29.296875 6.6875 41.796875 6.6875 
Q 48.140625 6.6875 53.78125 8.984375 
Q 59.421875 11.28125 64.40625 15.921875 
L 64.40625 5.609375 
Q 59.234375 2.09375 53.4375 0.328125 
Q 47.65625 -1.421875 41.21875 -1.421875 
Q 24.65625 -1.421875 15.125 8.703125 
Q 5.609375 18.84375 5.609375 36.375 
Q 5.609375 53.953125 15.125 64.078125 
Q 24.65625 74.21875 41.21875 74.21875 
Q 47.75 74.21875 53.53125 72.484375 
Q 59.328125 70.75 64.40625 67.28125 
z
" id="DejaVuSans-43"/>
     </defs>
     <g transform="translate(268.2 142.197188)scale(0.18 -0.18)">
      <use xlink:href="#DejaVuSans-43"/>
      <use x="69.824219" xlink:href="#DejaVuSans-6f"/>
      <use x="131.005859" xlink:href="#DejaVuSans-6e"/>
      <use x="194.384766" xlink:href="#DejaVuSans-64"/>
      <use x="257.861328" xlink:href="#DejaVuSans-65"/>
      <use x="319.384766" xlink:href="#DejaVuSans-6e"/>
      <use x="382.763672" xlink:href="#DejaVuSans-73"/>
      <use x="434.863281" xlink:href="#DejaVuSans-61"/>
      <use x="496.142578" xlink:href="#DejaVuSans-74"/>
      <use x="535.351562" xlink:href="#DejaVuSans-69"/>
      <use x="563.134766" xlink:href="#DejaVuSans-6f"/>
      <use x="624.316406" xlink:href="#DejaVuSans-6e"/>
      <use x="687.695312" xlink:href="#DejaVuSans-20"/>
      <use x="719.482422" xlink:href="#DejaVuSans-74"/>
      <use x="758.691406" xlink:href="#DejaVuSans-69"/>
      <use x="786.474609" xlink:href="#DejaVuSans-6d"/>
      <use x="883.886719" xlink:href="#DejaVuSans-65"/>
      <use x="945.410156" xlink:href="#DejaVuSans-20"/>
      <use x="977.197266" xlink:href="#DejaVuSans-73"/>
      <use x="1029.296875" xlink:href="#DejaVuSans-74"/>
      <use x="1068.505859" xlink:href="#DejaVuSans-65"/>
      <use x="1130.029297" xlink:href="#DejaVuSans-70"/>
     </g>
    </g>
    <g id="line2d_43">
     <path d="M 330.204375 162.317813 
L 366.204375 162.317813 
" style="fill:none;stroke:#1f77b4;stroke-linecap:square;stroke-width:1.5;"/>
    </g>
    <g id="line2d_44"/>
    <g id="text_21">
     <!-- 1/1 -->
     <g transform="translate(380.604375 168.617813)scale(0.18 -0.18)">
      <use xlink:href="#DejaVuSans-31"/>
      <use x="63.623047" xlink:href="#DejaVuSans-2f"/>
      <use x="97.314453" xlink:href="#DejaVuSans-31"/>
     </g>
    </g>
    <g id="line2d_45">
     <path d="M 330.204375 188.738438 
L 366.204375 188.738438 
" style="fill:none;stroke:#2ca02c;stroke-linecap:square;stroke-width:1.5;"/>
    </g>
    <g id="line2d_46"/>
    <g id="text_22">
     <!-- 1/2 -->
     <g transform="translate(380.604375 195.038438)scale(0.18 -0.18)">
      <use xlink:href="#DejaVuSans-31"/>
      <use x="63.623047" xlink:href="#DejaVuSans-2f"/>
      <use x="97.314453" xlink:href="#DejaVuSans-32"/>
     </g>
    </g>
    <g id="line2d_47">
     <path d="M 330.204375 215.159063 
L 366.204375 215.159063 
" style="fill:none;stroke:#9467bd;stroke-linecap:square;stroke-width:1.5;"/>
    </g>
    <g id="line2d_48"/>
    <g id="text_23">
     <!-- 1/5 -->
     <g transform="translate(380.604375 221.459063)scale(0.18 -0.18)">
      <use xlink:href="#DejaVuSans-31"/>
      <use x="63.623047" xlink:href="#DejaVuSans-2f"/>
      <use x="97.314453" xlink:href="#DejaVuSans-35"/>
     </g>
    </g>
    <g id="line2d_49">
     <path d="M 330.204375 241.579688 
L 366.204375 241.579688 
" style="fill:none;stroke:#e377c2;stroke-linecap:square;stroke-width:1.5;"/>
    </g>
    <g id="line2d_50"/>
    <g id="text_24">
     <!-- 1/10 -->
     <g transform="translate(380.604375 247.879688)scale(0.18 -0.18)">
      <use xlink:href="#DejaVuSans-31"/>
      <use x="63.623047" xlink:href="#DejaVuSans-2f"/>
      <use x="97.314453" xlink:href="#DejaVuSans-31"/>
      <use x="160.9375" xlink:href="#DejaVuSans-30"/>
     </g>
    </g>
    <g id="line2d_51">
     <path d="M 330.204375 268.000313 
L 366.204375 268.000313 
" style="fill:none;stroke:#bcbd22;stroke-linecap:square;stroke-width:1.5;"/>
    </g>
    <g id="line2d_52"/>
    <g id="text_25">
     <!-- 1/20 -->
     <g transform="translate(380.604375 274.300313)scale(0.18 -0.18)">
      <use xlink:href="#DejaVuSans-31"/>
      <use x="63.623047" xlink:href="#DejaVuSans-2f"/>
      <use x="97.314453" xlink:href="#DejaVuSans-32"/>
      <use x="160.9375" xlink:href="#DejaVuSans-30"/>
     </g>
    </g>
   </g>
  </g>
  <g id="axes_2">
   <g id="patch_8">
    <path d="M 1104.218182 833.04 
L 1814.4 833.04 
L 1814.4 112.32 
L 1104.218182 112.32 
z
" style="fill:#ffffff;"/>
   </g>
   <g id="matplotlib.axis_3">
    <g id="xtick_8">
     <g id="line2d_53">
      <path clip-path="url(#p511cf3284d)" d="M 1116.094707 833.04 
L 1116.094707 112.32 
" style="fill:none;stroke:#b0b0b0;stroke-linecap:square;stroke-width:0.8;"/>
     </g>
     <g id="line2d_54">
      <g>
       <use style="stroke:#000000;stroke-width:0.8;" x="1116.094707" xlink:href="#m22fe0eab7c" y="833.04"/>
      </g>
     </g>
     <g id="text_26">
      <!-- 0.0 -->
      <g transform="translate(1101.781894 853.717188)scale(0.18 -0.18)">
       <use xlink:href="#DejaVuSans-30"/>
       <use x="63.623047" xlink:href="#DejaVuSans-2e"/>
       <use x="95.410156" xlink:href="#DejaVuSans-30"/>
      </g>
     </g>
    </g>
    <g id="xtick_9">
     <g id="line2d_55">
      <path clip-path="url(#p511cf3284d)" d="M 1271.526522 833.04 
L 1271.526522 112.32 
" style="fill:none;stroke:#b0b0b0;stroke-linecap:square;stroke-width:0.8;"/>
     </g>
     <g id="line2d_56">
      <g>
       <use style="stroke:#000000;stroke-width:0.8;" x="1271.526522" xlink:href="#m22fe0eab7c" y="833.04"/>
      </g>
     </g>
     <g id="text_27">
      <!-- 0.2 -->
      <g transform="translate(1257.213709 853.717188)scale(0.18 -0.18)">
       <use xlink:href="#DejaVuSans-30"/>
       <use x="63.623047" xlink:href="#DejaVuSans-2e"/>
       <use x="95.410156" xlink:href="#DejaVuSans-32"/>
      </g>
     </g>
    </g>
    <g id="xtick_10">
     <g id="line2d_57">
      <path clip-path="url(#p511cf3284d)" d="M 1426.958337 833.04 
L 1426.958337 112.32 
" style="fill:none;stroke:#b0b0b0;stroke-linecap:square;stroke-width:0.8;"/>
     </g>
     <g id="line2d_58">
      <g>
       <use style="stroke:#000000;stroke-width:0.8;" x="1426.958337" xlink:href="#m22fe0eab7c" y="833.04"/>
      </g>
     </g>
     <g id="text_28">
      <!-- 0.4 -->
      <defs>
       <path d="M 37.796875 64.3125 
L 12.890625 25.390625 
L 37.796875 25.390625 
z
M 35.203125 72.90625 
L 47.609375 72.90625 
L 47.609375 25.390625 
L 58.015625 25.390625 
L 58.015625 17.1875 
L 47.609375 17.1875 
L 47.609375 0 
L 37.796875 0 
L 37.796875 17.1875 
L 4.890625 17.1875 
L 4.890625 26.703125 
z
" id="DejaVuSans-34"/>
      </defs>
      <g transform="translate(1412.645524 853.717188)scale(0.18 -0.18)">
       <use xlink:href="#DejaVuSans-30"/>
       <use x="63.623047" xlink:href="#DejaVuSans-2e"/>
       <use x="95.410156" xlink:href="#DejaVuSans-34"/>
      </g>
     </g>
    </g>
    <g id="xtick_11">
     <g id="line2d_59">
      <path clip-path="url(#p511cf3284d)" d="M 1582.390152 833.04 
L 1582.390152 112.32 
" style="fill:none;stroke:#b0b0b0;stroke-linecap:square;stroke-width:0.8;"/>
     </g>
     <g id="line2d_60">
      <g>
       <use style="stroke:#000000;stroke-width:0.8;" x="1582.390152" xlink:href="#m22fe0eab7c" y="833.04"/>
      </g>
     </g>
     <g id="text_29">
      <!-- 0.6 -->
      <defs>
       <path d="M 33.015625 40.375 
Q 26.375 40.375 22.484375 35.828125 
Q 18.609375 31.296875 18.609375 23.390625 
Q 18.609375 15.53125 22.484375 10.953125 
Q 26.375 6.390625 33.015625 6.390625 
Q 39.65625 6.390625 43.53125 10.953125 
Q 47.40625 15.53125 47.40625 23.390625 
Q 47.40625 31.296875 43.53125 35.828125 
Q 39.65625 40.375 33.015625 40.375 
z
M 52.59375 71.296875 
L 52.59375 62.3125 
Q 48.875 64.0625 45.09375 64.984375 
Q 41.3125 65.921875 37.59375 65.921875 
Q 27.828125 65.921875 22.671875 59.328125 
Q 17.53125 52.734375 16.796875 39.40625 
Q 19.671875 43.65625 24.015625 45.921875 
Q 28.375 48.1875 33.59375 48.1875 
Q 44.578125 48.1875 50.953125 41.515625 
Q 57.328125 34.859375 57.328125 23.390625 
Q 57.328125 12.15625 50.6875 5.359375 
Q 44.046875 -1.421875 33.015625 -1.421875 
Q 20.359375 -1.421875 13.671875 8.265625 
Q 6.984375 17.96875 6.984375 36.375 
Q 6.984375 53.65625 15.1875 63.9375 
Q 23.390625 74.21875 37.203125 74.21875 
Q 40.921875 74.21875 44.703125 73.484375 
Q 48.484375 72.75 52.59375 71.296875 
z
" id="DejaVuSans-36"/>
      </defs>
      <g transform="translate(1568.077339 853.717188)scale(0.18 -0.18)">
       <use xlink:href="#DejaVuSans-30"/>
       <use x="63.623047" xlink:href="#DejaVuSans-2e"/>
       <use x="95.410156" xlink:href="#DejaVuSans-36"/>
      </g>
     </g>
    </g>
    <g id="xtick_12">
     <g id="line2d_61">
      <path clip-path="url(#p511cf3284d)" d="M 1737.821967 833.04 
L 1737.821967 112.32 
" style="fill:none;stroke:#b0b0b0;stroke-linecap:square;stroke-width:0.8;"/>
     </g>
     <g id="line2d_62">
      <g>
       <use style="stroke:#000000;stroke-width:0.8;" x="1737.821967" xlink:href="#m22fe0eab7c" y="833.04"/>
      </g>
     </g>
     <g id="text_30">
      <!-- 0.8 -->
      <g transform="translate(1723.509154 853.717188)scale(0.18 -0.18)">
       <use xlink:href="#DejaVuSans-30"/>
       <use x="63.623047" xlink:href="#DejaVuSans-2e"/>
       <use x="95.410156" xlink:href="#DejaVuSans-38"/>
      </g>
     </g>
    </g>
    <g id="text_31">
     <!-- Moment 0 -->
     <defs>
      <path d="M 9.8125 72.90625 
L 24.515625 72.90625 
L 43.109375 23.296875 
L 61.8125 72.90625 
L 76.515625 72.90625 
L 76.515625 0 
L 66.890625 0 
L 66.890625 64.015625 
L 48.09375 14.015625 
L 38.1875 14.015625 
L 19.390625 64.015625 
L 19.390625 0 
L 9.8125 0 
z
" id="DejaVuSans-4d"/>
     </defs>
     <g transform="translate(1413.913935 875.137812)scale(0.18 -0.18)">
      <use xlink:href="#DejaVuSans-4d"/>
      <use x="86.279297" xlink:href="#DejaVuSans-6f"/>
      <use x="147.460938" xlink:href="#DejaVuSans-6d"/>
      <use x="244.873047" xlink:href="#DejaVuSans-65"/>
      <use x="306.396484" xlink:href="#DejaVuSans-6e"/>
      <use x="369.775391" xlink:href="#DejaVuSans-74"/>
      <use x="408.984375" xlink:href="#DejaVuSans-20"/>
      <use x="440.771484" xlink:href="#DejaVuSans-30"/>
     </g>
    </g>
    <g id="text_32">
     <!-- 1e8 -->
     <g transform="translate(1780.419375 874.137812)scale(0.18 -0.18)">
      <use xlink:href="#DejaVuSans-31"/>
      <use x="63.623047" xlink:href="#DejaVuSans-65"/>
      <use x="125.146484" xlink:href="#DejaVuSans-38"/>
     </g>
    </g>
   </g>
   <g id="matplotlib.axis_4">
    <g id="ytick_10">
     <g id="line2d_63">
      <path clip-path="url(#p511cf3284d)" d="M 1104.218182 800.28 
L 1814.4 800.28 
" style="fill:none;stroke:#b0b0b0;stroke-linecap:square;stroke-width:0.8;"/>
     </g>
     <g id="line2d_64">
      <g>
       <use style="stroke:#000000;stroke-width:0.8;" x="1104.218182" xlink:href="#m85f93e2a05" y="800.28"/>
      </g>
     </g>
     <g id="text_33">
      <!-- 0 -->
      <g transform="translate(1085.765682 807.118594)scale(0.18 -0.18)">
       <use xlink:href="#DejaVuSans-30"/>
      </g>
     </g>
    </g>
    <g id="ytick_11">
     <g id="line2d_65">
      <path clip-path="url(#p511cf3284d)" d="M 1104.218182 718.38 
L 1814.4 718.38 
" style="fill:none;stroke:#b0b0b0;stroke-linecap:square;stroke-width:0.8;"/>
     </g>
     <g id="line2d_66">
      <g>
       <use style="stroke:#000000;stroke-width:0.8;" x="1104.218182" xlink:href="#m85f93e2a05" y="718.38"/>
      </g>
     </g>
     <g id="text_34">
      <!-- 25 -->
      <g transform="translate(1074.313182 725.218594)scale(0.18 -0.18)">
       <use xlink:href="#DejaVuSans-32"/>
       <use x="63.623047" xlink:href="#DejaVuSans-35"/>
      </g>
     </g>
    </g>
    <g id="ytick_12">
     <g id="line2d_67">
      <path clip-path="url(#p511cf3284d)" d="M 1104.218182 636.48 
L 1814.4 636.48 
" style="fill:none;stroke:#b0b0b0;stroke-linecap:square;stroke-width:0.8;"/>
     </g>
     <g id="line2d_68">
      <g>
       <use style="stroke:#000000;stroke-width:0.8;" x="1104.218182" xlink:href="#m85f93e2a05" y="636.48"/>
      </g>
     </g>
     <g id="text_35">
      <!-- 50 -->
      <g transform="translate(1074.313182 643.318594)scale(0.18 -0.18)">
       <use xlink:href="#DejaVuSans-35"/>
       <use x="63.623047" xlink:href="#DejaVuSans-30"/>
      </g>
     </g>
    </g>
    <g id="ytick_13">
     <g id="line2d_69">
      <path clip-path="url(#p511cf3284d)" d="M 1104.218182 554.58 
L 1814.4 554.58 
" style="fill:none;stroke:#b0b0b0;stroke-linecap:square;stroke-width:0.8;"/>
     </g>
     <g id="line2d_70">
      <g>
       <use style="stroke:#000000;stroke-width:0.8;" x="1104.218182" xlink:href="#m85f93e2a05" y="554.58"/>
      </g>
     </g>
     <g id="text_36">
      <!-- 75 -->
      <g transform="translate(1074.313182 561.418594)scale(0.18 -0.18)">
       <use xlink:href="#DejaVuSans-37"/>
       <use x="63.623047" xlink:href="#DejaVuSans-35"/>
      </g>
     </g>
    </g>
    <g id="ytick_14">
     <g id="line2d_71">
      <path clip-path="url(#p511cf3284d)" d="M 1104.218182 472.68 
L 1814.4 472.68 
" style="fill:none;stroke:#b0b0b0;stroke-linecap:square;stroke-width:0.8;"/>
     </g>
     <g id="line2d_72">
      <g>
       <use style="stroke:#000000;stroke-width:0.8;" x="1104.218182" xlink:href="#m85f93e2a05" y="472.68"/>
      </g>
     </g>
     <g id="text_37">
      <!-- 100 -->
      <g transform="translate(1062.860682 479.518594)scale(0.18 -0.18)">
       <use xlink:href="#DejaVuSans-31"/>
       <use x="63.623047" xlink:href="#DejaVuSans-30"/>
       <use x="127.246094" xlink:href="#DejaVuSans-30"/>
      </g>
     </g>
    </g>
    <g id="ytick_15">
     <g id="line2d_73">
      <path clip-path="url(#p511cf3284d)" d="M 1104.218182 390.78 
L 1814.4 390.78 
" style="fill:none;stroke:#b0b0b0;stroke-linecap:square;stroke-width:0.8;"/>
     </g>
     <g id="line2d_74">
      <g>
       <use style="stroke:#000000;stroke-width:0.8;" x="1104.218182" xlink:href="#m85f93e2a05" y="390.78"/>
      </g>
     </g>
     <g id="text_38">
      <!-- 125 -->
      <g transform="translate(1062.860682 397.618594)scale(0.18 -0.18)">
       <use xlink:href="#DejaVuSans-31"/>
       <use x="63.623047" xlink:href="#DejaVuSans-32"/>
       <use x="127.246094" xlink:href="#DejaVuSans-35"/>
      </g>
     </g>
    </g>
    <g id="ytick_16">
     <g id="line2d_75">
      <path clip-path="url(#p511cf3284d)" d="M 1104.218182 308.88 
L 1814.4 308.88 
" style="fill:none;stroke:#b0b0b0;stroke-linecap:square;stroke-width:0.8;"/>
     </g>
     <g id="line2d_76">
      <g>
       <use style="stroke:#000000;stroke-width:0.8;" x="1104.218182" xlink:href="#m85f93e2a05" y="308.88"/>
      </g>
     </g>
     <g id="text_39">
      <!-- 150 -->
      <g transform="translate(1062.860682 315.718594)scale(0.18 -0.18)">
       <use xlink:href="#DejaVuSans-31"/>
       <use x="63.623047" xlink:href="#DejaVuSans-35"/>
       <use x="127.246094" xlink:href="#DejaVuSans-30"/>
      </g>
     </g>
    </g>
    <g id="ytick_17">
     <g id="line2d_77">
      <path clip-path="url(#p511cf3284d)" d="M 1104.218182 226.98 
L 1814.4 226.98 
" style="fill:none;stroke:#b0b0b0;stroke-linecap:square;stroke-width:0.8;"/>
     </g>
     <g id="line2d_78">
      <g>
       <use style="stroke:#000000;stroke-width:0.8;" x="1104.218182" xlink:href="#m85f93e2a05" y="226.98"/>
      </g>
     </g>
     <g id="text_40">
      <!-- 175 -->
      <g transform="translate(1062.860682 233.818594)scale(0.18 -0.18)">
       <use xlink:href="#DejaVuSans-31"/>
       <use x="63.623047" xlink:href="#DejaVuSans-37"/>
       <use x="127.246094" xlink:href="#DejaVuSans-35"/>
      </g>
     </g>
    </g>
    <g id="ytick_18">
     <g id="line2d_79">
      <path clip-path="url(#p511cf3284d)" d="M 1104.218182 145.08 
L 1814.4 145.08 
" style="fill:none;stroke:#b0b0b0;stroke-linecap:square;stroke-width:0.8;"/>
     </g>
     <g id="line2d_80">
      <g>
       <use style="stroke:#000000;stroke-width:0.8;" x="1104.218182" xlink:href="#m85f93e2a05" y="145.08"/>
      </g>
     </g>
     <g id="text_41">
      <!-- 200 -->
      <g transform="translate(1062.860682 151.918594)scale(0.18 -0.18)">
       <use xlink:href="#DejaVuSans-32"/>
       <use x="63.623047" xlink:href="#DejaVuSans-30"/>
       <use x="127.246094" xlink:href="#DejaVuSans-30"/>
      </g>
     </g>
    </g>
    <g id="text_42">
     <!-- Z [m]] -->
     <g transform="translate(1055.117244 501.006094)rotate(-90)scale(0.18 -0.18)">
      <use xlink:href="#DejaVuSans-5a"/>
      <use x="68.505859" xlink:href="#DejaVuSans-20"/>
      <use x="100.292969" xlink:href="#DejaVuSans-5b"/>
      <use x="139.306641" xlink:href="#DejaVuSans-6d"/>
      <use x="236.71875" xlink:href="#DejaVuSans-5d"/>
      <use x="275.732422" xlink:href="#DejaVuSans-5d"/>
     </g>
    </g>
   </g>
   <g id="line2d_81">
    <path clip-path="url(#p511cf3284d)" d="M 1136.499174 800.28 
L 1152.908219 793.728 
L 1154.702757 787.176 
L 1155.922112 780.624 
L 1157.183029 774.072 
L 1158.484732 767.52 
L 1159.927046 760.968 
L 1161.509707 754.416 
L 1163.129928 747.864 
L 1164.953633 741.312 
L 1166.909066 734.76 
L 1168.989692 728.208 
L 1171.319141 721.656 
L 1173.879966 715.104 
L 1176.711001 708.552 
L 1179.895495 702 
L 1183.422321 695.448 
L 1187.404165 688.896 
L 1191.912574 682.344 
L 1196.98454 675.792 
L 1202.69561 669.24 
L 1213.816974 662.688 
L 1348.273972 656.136 
L 1443.430643 649.584 
L 1755.575101 643.032 
L 1781.716844 636.48 
L 1782.105991 629.928 
L 1782.112426 623.376 
L 1782.112674 616.824 
L 1782.117392 610.272 
L 1782.118946 603.72 
L 1782.119008 597.168 
L 1782.119008 590.616 
L 1782.119008 584.064 
L 1782.119008 577.512 
L 1782.119008 570.96 
L 1782.119008 564.408 
L 1782.119008 557.856 
L 1782.119008 551.304 
L 1782.119008 544.752 
L 1782.119008 538.2 
L 1782.119008 531.648 
L 1782.119008 525.096 
L 1782.119008 518.544 
L 1782.119008 511.992 
L 1782.119008 505.44 
L 1782.119008 498.888 
L 1782.119008 492.336 
L 1782.119008 485.784 
L 1782.119008 479.232 
L 1782.119008 472.68 
L 1782.119008 466.128 
L 1782.119008 459.576 
L 1782.119008 453.024 
L 1782.119008 446.472 
L 1782.119008 439.92 
L 1782.119008 433.368 
L 1782.119008 426.816 
L 1782.119008 420.264 
L 1782.119008 413.712 
L 1782.119008 407.16 
L 1782.119008 400.608 
L 1782.119008 394.056 
L 1782.119008 387.504 
L 1782.119008 380.952 
L 1782.119008 374.4 
L 1782.119008 367.848 
L 1782.119008 361.296 
L 1782.119008 354.744 
L 1782.119008 348.192 
L 1782.119008 341.64 
L 1782.119008 335.088 
L 1782.119008 328.536 
L 1782.119008 321.984 
L 1782.119008 315.432 
L 1782.119008 308.88 
L 1782.119008 302.328 
L 1782.119008 295.776 
L 1782.119008 289.224 
L 1782.119008 282.672 
L 1782.119008 276.12 
L 1782.119008 269.568 
L 1782.119008 263.016 
L 1782.119008 256.464 
L 1782.119008 249.912 
L 1782.119008 243.36 
L 1782.119008 236.808 
L 1782.119008 230.256 
L 1782.119008 223.704 
L 1782.119008 217.152 
L 1782.119008 210.6 
L 1782.119008 204.048 
L 1782.119008 197.496 
L 1782.119008 190.944 
L 1782.119008 184.392 
L 1782.119008 177.84 
L 1782.119008 171.288 
L 1782.119008 164.736 
L 1782.119008 158.184 
L 1782.119008 151.632 
L 1782.119008 145.08 
" style="fill:none;stroke:#1f77b4;stroke-linecap:square;stroke-width:1.5;"/>
   </g>
   <g id="line2d_82">
    <path clip-path="url(#p511cf3284d)" d="M 1136.499174 800.28 
L 1153.492946 793.728 
L 1154.768435 787.176 
L 1155.922112 780.624 
L 1157.183029 774.072 
L 1158.484732 767.52 
L 1159.927046 760.968 
L 1161.475986 754.416 
L 1163.129928 747.864 
L 1164.953633 741.312 
L 1166.875407 734.76 
L 1168.989692 728.208 
L 1171.319141 721.656 
L 1173.879966 715.104 
L 1176.711001 708.552 
L 1179.834185 702 
L 1183.364104 695.448 
L 1187.323263 688.896 
L 1191.768504 682.344 
L 1196.682885 675.792 
L 1202.117209 669.24 
L 1210.491976 662.688 
L 1262.989515 656.136 
L 1474.880017 649.584 
L 1619.013027 643.032 
L 1714.12411 636.48 
L 1764.466936 629.928 
L 1772.00827 623.376 
L 1776.807895 616.824 
L 1780.259562 610.272 
L 1780.408893 603.72 
L 1780.848268 597.168 
L 1781.005736 590.616 
L 1781.005736 584.064 
L 1781.005736 577.512 
L 1781.005736 570.96 
L 1781.005736 564.408 
L 1781.005736 557.856 
L 1781.005736 551.304 
L 1781.005736 544.752 
L 1781.005736 538.2 
L 1781.005736 531.648 
L 1781.005736 525.096 
L 1781.005736 518.544 
L 1781.005736 511.992 
L 1781.005736 505.44 
L 1781.005736 498.888 
L 1781.005736 492.336 
L 1781.005736 485.784 
L 1781.005736 479.232 
L 1781.005736 472.68 
L 1781.005736 466.128 
L 1781.005736 459.576 
L 1781.005736 453.024 
L 1781.005736 446.472 
L 1781.005736 439.92 
L 1781.005736 433.368 
L 1781.005736 426.816 
L 1781.005736 420.264 
L 1781.005736 413.712 
L 1781.005736 407.16 
L 1781.005736 400.608 
L 1781.005736 394.056 
L 1781.005736 387.504 
L 1781.005736 380.952 
L 1781.005736 374.4 
L 1781.005736 367.848 
L 1781.005736 361.296 
L 1781.005736 354.744 
L 1781.005736 348.192 
L 1781.005736 341.64 
L 1781.005736 335.088 
L 1781.005736 328.536 
L 1781.005736 321.984 
L 1781.005736 315.432 
L 1781.005736 308.88 
L 1781.005736 302.328 
L 1781.005736 295.776 
L 1781.005736 289.224 
L 1781.005736 282.672 
L 1781.005736 276.12 
L 1781.005736 269.568 
L 1781.005736 263.016 
L 1781.005736 256.464 
L 1781.005736 249.912 
L 1781.005736 243.36 
L 1781.005736 236.808 
L 1781.005736 230.256 
L 1781.005736 223.704 
L 1781.005736 217.152 
L 1781.005736 210.6 
L 1781.005736 204.048 
L 1781.005736 197.496 
L 1781.005736 190.944 
L 1781.005736 184.392 
L 1781.005736 177.84 
L 1781.005736 171.288 
L 1781.005736 164.736 
L 1781.005736 158.184 
L 1781.005736 151.632 
L 1781.005736 145.08 
" style="fill:none;stroke:#ff7f0e;stroke-linecap:square;stroke-width:1.5;"/>
   </g>
   <g id="line2d_83">
    <path clip-path="url(#p511cf3284d)" d="M 1136.499174 800.28 
L 1153.623237 793.728 
L 1154.768435 787.176 
L 1155.922112 780.624 
L 1157.183029 774.072 
L 1158.484732 767.52 
L 1159.927046 760.968 
L 1161.475986 754.416 
L 1163.129928 747.864 
L 1164.919873 741.312 
L 1166.875407 734.76 
L 1168.989692 728.208 
L 1171.319141 721.656 
L 1173.879966 715.104 
L 1176.67923 708.552 
L 1179.803519 702 
L 1183.305825 695.448 
L 1187.269251 688.896 
L 1191.647951 682.344 
L 1196.520459 675.792 
L 1201.784569 669.24 
L 1209.251156 662.688 
L 1246.345215 656.136 
L 1413.965853 649.584 
L 1619.795712 643.032 
L 1707.490015 636.48 
L 1746.752589 629.928 
L 1765.864983 623.376 
L 1773.769763 616.824 
L 1777.255624 610.272 
L 1778.947306 603.72 
L 1779.822231 597.168 
L 1780.304458 590.616 
L 1780.563579 584.064 
L 1780.720184 577.512 
L 1780.780468 570.96 
L 1780.797216 564.408 
L 1780.797216 557.856 
L 1780.797216 551.304 
L 1780.797216 544.752 
L 1780.797216 538.2 
L 1780.797216 531.648 
L 1780.797216 525.096 
L 1780.797216 518.544 
L 1780.797216 511.992 
L 1780.797216 505.44 
L 1780.797216 498.888 
L 1780.797216 492.336 
L 1780.797216 485.784 
L 1780.797216 479.232 
L 1780.797216 472.68 
L 1780.797216 466.128 
L 1780.797216 459.576 
L 1780.797216 453.024 
L 1780.797216 446.472 
L 1780.797216 439.92 
L 1780.797216 433.368 
L 1780.797216 426.816 
L 1780.797216 420.264 
L 1780.797216 413.712 
L 1780.797216 407.16 
L 1780.797216 400.608 
L 1780.797216 394.056 
L 1780.797216 387.504 
L 1780.797216 380.952 
L 1780.797216 374.4 
L 1780.797216 367.848 
L 1780.797216 361.296 
L 1780.797216 354.744 
L 1780.797216 348.192 
L 1780.797216 341.64 
L 1780.797216 335.088 
L 1780.797216 328.536 
L 1780.797216 321.984 
L 1780.797216 315.432 
L 1780.797216 308.88 
L 1780.797216 302.328 
L 1780.797216 295.776 
L 1780.797216 289.224 
L 1780.797216 282.672 
L 1780.797216 276.12 
L 1780.797216 269.568 
L 1780.797216 263.016 
L 1780.797216 256.464 
L 1780.797216 249.912 
L 1780.797216 243.36 
L 1780.797216 236.808 
L 1780.797216 230.256 
L 1780.797216 223.704 
L 1780.797216 217.152 
L 1780.797216 210.6 
L 1780.797216 204.048 
L 1780.797216 197.496 
L 1780.797216 190.944 
L 1780.797216 184.392 
L 1780.797216 177.84 
L 1780.797216 171.288 
L 1780.797216 164.736 
L 1780.797216 158.184 
L 1780.797216 151.632 
L 1780.797216 145.08 
" style="fill:none;stroke:#2ca02c;stroke-linecap:square;stroke-width:1.5;"/>
   </g>
   <g id="line2d_84">
    <path clip-path="url(#p511cf3284d)" d="M 1136.499174 800.28 
L 1153.623237 793.728 
L 1154.768435 787.176 
L 1155.922112 780.624 
L 1157.183029 774.072 
L 1158.484732 767.52 
L 1159.927046 760.968 
L 1161.475986 754.416 
L 1163.129928 747.864 
L 1164.919873 741.312 
L 1166.875407 734.76 
L 1168.989692 728.208 
L 1171.286049 721.656 
L 1173.84741 715.104 
L 1176.67923 708.552 
L 1179.803519 702 
L 1183.305825 695.448 
L 1187.215168 688.896 
L 1191.599604 682.344 
L 1196.438842 675.792 
L 1201.684347 669.24 
L 1208.864022 662.688 
L 1242.336139 656.136 
L 1395.774254 649.584 
L 1602.182723 643.032 
L 1711.804422 636.48 
L 1750.002669 629.928 
L 1766.4563 623.376 
L 1773.769763 616.824 
L 1777.147833 610.272 
L 1778.85473 603.72 
L 1779.766703 597.168 
L 1780.259562 590.616 
L 1780.55388 584.064 
L 1780.693652 577.512 
L 1780.754939 570.96 
L 1780.763503 564.408 
L 1780.763503 557.856 
L 1780.763503 551.304 
L 1780.763503 544.752 
L 1780.763503 538.2 
L 1780.763503 531.648 
L 1780.763503 525.096 
L 1780.763503 518.544 
L 1780.763503 511.992 
L 1780.763503 505.44 
L 1780.763503 498.888 
L 1780.763503 492.336 
L 1780.763503 485.784 
L 1780.763503 479.232 
L 1780.763503 472.68 
L 1780.763503 466.128 
L 1780.763503 459.576 
L 1780.763503 453.024 
L 1780.763503 446.472 
L 1780.763503 439.92 
L 1780.763503 433.368 
L 1780.763503 426.816 
L 1780.763503 420.264 
L 1780.763503 413.712 
L 1780.763503 407.16 
L 1780.763503 400.608 
L 1780.763503 394.056 
L 1780.763503 387.504 
L 1780.763503 380.952 
L 1780.763503 374.4 
L 1780.763503 367.848 
L 1780.763503 361.296 
L 1780.763503 354.744 
L 1780.763503 348.192 
L 1780.763503 341.64 
L 1780.763503 335.088 
L 1780.763503 328.536 
L 1780.763503 321.984 
L 1780.763503 315.432 
L 1780.763503 308.88 
L 1780.763503 302.328 
L 1780.763503 295.776 
L 1780.763503 289.224 
L 1780.763503 282.672 
L 1780.763503 276.12 
L 1780.763503 269.568 
L 1780.763503 263.016 
L 1780.763503 256.464 
L 1780.763503 249.912 
L 1780.763503 243.36 
L 1780.763503 236.808 
L 1780.763503 230.256 
L 1780.763503 223.704 
L 1780.763503 217.152 
L 1780.763503 210.6 
L 1780.763503 204.048 
L 1780.763503 197.496 
L 1780.763503 190.944 
L 1780.763503 184.392 
L 1780.763503 177.84 
L 1780.763503 171.288 
L 1780.763503 164.736 
L 1780.763503 158.184 
L 1780.763503 151.632 
L 1780.763503 145.08 
" style="fill:none;stroke:#d62728;stroke-linecap:square;stroke-width:1.5;"/>
   </g>
   <g id="line2d_85">
    <path clip-path="url(#p511cf3284d)" d="M 1136.499174 800.28 
L 1153.623237 793.728 
L 1154.768435 787.176 
L 1155.922112 780.624 
L 1157.183029 774.072 
L 1158.484732 767.52 
L 1159.927046 760.968 
L 1161.475986 754.416 
L 1163.129928 747.864 
L 1164.919873 741.312 
L 1166.875407 734.76 
L 1168.989692 728.208 
L 1171.286049 721.656 
L 1173.84741 715.104 
L 1176.67923 708.552 
L 1179.803519 702 
L 1183.305825 695.448 
L 1187.215168 688.896 
L 1191.599604 682.344 
L 1196.418402 675.792 
L 1201.634142 669.24 
L 1208.713619 662.688 
L 1240.719446 656.136 
L 1387.952622 649.584 
L 1593.079174 643.032 
L 1706.506629 636.48 
L 1750.651643 629.928 
L 1767.447574 623.376 
L 1774.105138 616.824 
L 1777.308572 610.272 
L 1778.910585 603.72 
L 1779.794634 597.168 
L 1780.270862 590.616 
L 1780.55388 584.064 
L 1780.693652 577.512 
L 1780.73767 570.96 
L 1780.754939 564.408 
L 1780.754939 557.856 
L 1780.754939 551.304 
L 1780.754939 544.752 
L 1780.754939 538.2 
L 1780.754939 531.648 
L 1780.754939 525.096 
L 1780.754939 518.544 
L 1780.754939 511.992 
L 1780.754939 505.44 
L 1780.754939 498.888 
L 1780.754939 492.336 
L 1780.754939 485.784 
L 1780.754939 479.232 
L 1780.754939 472.68 
L 1780.754939 466.128 
L 1780.754939 459.576 
L 1780.754939 453.024 
L 1780.754939 446.472 
L 1780.754939 439.92 
L 1780.754939 433.368 
L 1780.754939 426.816 
L 1780.754939 420.264 
L 1780.754939 413.712 
L 1780.754939 407.16 
L 1780.754939 400.608 
L 1780.754939 394.056 
L 1780.754939 387.504 
L 1780.754939 380.952 
L 1780.754939 374.4 
L 1780.754939 367.848 
L 1780.754939 361.296 
L 1780.754939 354.744 
L 1780.754939 348.192 
L 1780.754939 341.64 
L 1780.754939 335.088 
L 1780.754939 328.536 
L 1780.754939 321.984 
L 1780.754939 315.432 
L 1780.754939 308.88 
L 1780.754939 302.328 
L 1780.754939 295.776 
L 1780.754939 289.224 
L 1780.754939 282.672 
L 1780.754939 276.12 
L 1780.754939 269.568 
L 1780.754939 263.016 
L 1780.754939 256.464 
L 1780.754939 249.912 
L 1780.754939 243.36 
L 1780.754939 236.808 
L 1780.754939 230.256 
L 1780.754939 223.704 
L 1780.754939 217.152 
L 1780.754939 210.6 
L 1780.754939 204.048 
L 1780.754939 197.496 
L 1780.754939 190.944 
L 1780.754939 184.392 
L 1780.754939 177.84 
L 1780.754939 171.288 
L 1780.754939 164.736 
L 1780.754939 158.184 
L 1780.754939 151.632 
L 1780.754939 145.08 
" style="fill:none;stroke:#9467bd;stroke-linecap:square;stroke-width:1.5;"/>
   </g>
   <g id="patch_9">
    <path d="M 1104.218182 833.04 
L 1104.218182 112.32 
" style="fill:none;stroke:#000000;stroke-linecap:square;stroke-linejoin:miter;stroke-width:0.8;"/>
   </g>
   <g id="patch_10">
    <path d="M 1814.4 833.04 
L 1814.4 112.32 
" style="fill:none;stroke:#000000;stroke-linecap:square;stroke-linejoin:miter;stroke-width:0.8;"/>
   </g>
   <g id="patch_11">
    <path d="M 1104.218182 833.04 
L 1814.4 833.04 
" style="fill:none;stroke:#000000;stroke-linecap:square;stroke-linejoin:miter;stroke-width:0.8;"/>
   </g>
   <g id="patch_12">
    <path d="M 1104.218182 112.32 
L 1814.4 112.32 
" style="fill:none;stroke:#000000;stroke-linecap:square;stroke-linejoin:miter;stroke-width:0.8;"/>
   </g>
   <g id="text_43">
    <!-- 0 moment for updraft velocity= 2[m/s] -->
    <g transform="translate(1249.060091 106.32)scale(0.216 -0.216)">
     <use xlink:href="#DejaVuSans-30"/>
     <use x="63.623047" xlink:href="#DejaVuSans-20"/>
     <use x="95.410156" xlink:href="#DejaVuSans-6d"/>
     <use x="192.822266" xlink:href="#DejaVuSans-6f"/>
     <use x="254.003906" xlink:href="#DejaVuSans-6d"/>
     <use x="351.416016" xlink:href="#DejaVuSans-65"/>
     <use x="412.939453" xlink:href="#DejaVuSans-6e"/>
     <use x="476.318359" xlink:href="#DejaVuSans-74"/>
     <use x="515.527344" xlink:href="#DejaVuSans-20"/>
     <use x="547.314453" xlink:href="#DejaVuSans-66"/>
     <use x="582.519531" xlink:href="#DejaVuSans-6f"/>
     <use x="643.701172" xlink:href="#DejaVuSans-72"/>
     <use x="684.814453" xlink:href="#DejaVuSans-20"/>
     <use x="716.601562" xlink:href="#DejaVuSans-75"/>
     <use x="779.980469" xlink:href="#DejaVuSans-70"/>
     <use x="843.457031" xlink:href="#DejaVuSans-64"/>
     <use x="906.933594" xlink:href="#DejaVuSans-72"/>
     <use x="948.046875" xlink:href="#DejaVuSans-61"/>
     <use x="1009.326172" xlink:href="#DejaVuSans-66"/>
     <use x="1044.515625" xlink:href="#DejaVuSans-74"/>
     <use x="1083.724609" xlink:href="#DejaVuSans-20"/>
     <use x="1115.511719" xlink:href="#DejaVuSans-76"/>
     <use x="1174.691406" xlink:href="#DejaVuSans-65"/>
     <use x="1236.214844" xlink:href="#DejaVuSans-6c"/>
     <use x="1263.998047" xlink:href="#DejaVuSans-6f"/>
     <use x="1325.179688" xlink:href="#DejaVuSans-63"/>
     <use x="1380.160156" xlink:href="#DejaVuSans-69"/>
     <use x="1407.943359" xlink:href="#DejaVuSans-74"/>
     <use x="1447.152344" xlink:href="#DejaVuSans-79"/>
     <use x="1506.332031" xlink:href="#DejaVuSans-3d"/>
     <use x="1590.121094" xlink:href="#DejaVuSans-20"/>
     <use x="1621.908203" xlink:href="#DejaVuSans-32"/>
     <use x="1685.53125" xlink:href="#DejaVuSans-5b"/>
     <use x="1724.544922" xlink:href="#DejaVuSans-6d"/>
     <use x="1821.957031" xlink:href="#DejaVuSans-2f"/>
     <use x="1855.648438" xlink:href="#DejaVuSans-73"/>
     <use x="1907.748047" xlink:href="#DejaVuSans-5d"/>
    </g>
   </g>
   <g id="legend_2">
    <g id="patch_13">
     <path d="M 1116.818182 285.24375 
L 1338.848182 285.24375 
Q 1342.448182 285.24375 1342.448182 281.64375 
L 1342.448182 124.92 
Q 1342.448182 121.32 1338.848182 121.32 
L 1116.818182 121.32 
Q 1113.218182 121.32 1113.218182 124.92 
L 1113.218182 281.64375 
Q 1113.218182 285.24375 1116.818182 285.24375 
z
" style="fill:#ffffff;opacity:0.8;stroke:#cccccc;stroke-linejoin:miter;"/>
    </g>
    <g id="text_44">
     <!-- Condensation time step -->
     <g transform="translate(1120.418182 142.197188)scale(0.18 -0.18)">
      <use xlink:href="#DejaVuSans-43"/>
      <use x="69.824219" xlink:href="#DejaVuSans-6f"/>
      <use x="131.005859" xlink:href="#DejaVuSans-6e"/>
      <use x="194.384766" xlink:href="#DejaVuSans-64"/>
      <use x="257.861328" xlink:href="#DejaVuSans-65"/>
      <use x="319.384766" xlink:href="#DejaVuSans-6e"/>
      <use x="382.763672" xlink:href="#DejaVuSans-73"/>
      <use x="434.863281" xlink:href="#DejaVuSans-61"/>
      <use x="496.142578" xlink:href="#DejaVuSans-74"/>
      <use x="535.351562" xlink:href="#DejaVuSans-69"/>
      <use x="563.134766" xlink:href="#DejaVuSans-6f"/>
      <use x="624.316406" xlink:href="#DejaVuSans-6e"/>
      <use x="687.695312" xlink:href="#DejaVuSans-20"/>
      <use x="719.482422" xlink:href="#DejaVuSans-74"/>
      <use x="758.691406" xlink:href="#DejaVuSans-69"/>
      <use x="786.474609" xlink:href="#DejaVuSans-6d"/>
      <use x="883.886719" xlink:href="#DejaVuSans-65"/>
      <use x="945.410156" xlink:href="#DejaVuSans-20"/>
      <use x="977.197266" xlink:href="#DejaVuSans-73"/>
      <use x="1029.296875" xlink:href="#DejaVuSans-74"/>
      <use x="1068.505859" xlink:href="#DejaVuSans-65"/>
      <use x="1130.029297" xlink:href="#DejaVuSans-70"/>
     </g>
    </g>
    <g id="line2d_86">
     <path d="M 1182.422557 162.317813 
L 1218.422557 162.317813 
" style="fill:none;stroke:#1f77b4;stroke-linecap:square;stroke-width:1.5;"/>
    </g>
    <g id="line2d_87"/>
    <g id="text_45">
     <!-- 1/1 -->
     <g transform="translate(1232.822557 168.617813)scale(0.18 -0.18)">
      <use xlink:href="#DejaVuSans-31"/>
      <use x="63.623047" xlink:href="#DejaVuSans-2f"/>
      <use x="97.314453" xlink:href="#DejaVuSans-31"/>
     </g>
    </g>
    <g id="line2d_88">
     <path d="M 1182.422557 188.738438 
L 1218.422557 188.738438 
" style="fill:none;stroke:#ff7f0e;stroke-linecap:square;stroke-width:1.5;"/>
    </g>
    <g id="line2d_89"/>
    <g id="text_46">
     <!-- 1/2 -->
     <g transform="translate(1232.822557 195.038438)scale(0.18 -0.18)">
      <use xlink:href="#DejaVuSans-31"/>
      <use x="63.623047" xlink:href="#DejaVuSans-2f"/>
      <use x="97.314453" xlink:href="#DejaVuSans-32"/>
     </g>
    </g>
    <g id="line2d_90">
     <path d="M 1182.422557 215.159063 
L 1218.422557 215.159063 
" style="fill:none;stroke:#2ca02c;stroke-linecap:square;stroke-width:1.5;"/>
    </g>
    <g id="line2d_91"/>
    <g id="text_47">
     <!-- 1/5 -->
     <g transform="translate(1232.822557 221.459063)scale(0.18 -0.18)">
      <use xlink:href="#DejaVuSans-31"/>
      <use x="63.623047" xlink:href="#DejaVuSans-2f"/>
      <use x="97.314453" xlink:href="#DejaVuSans-35"/>
     </g>
    </g>
    <g id="line2d_92">
     <path d="M 1182.422557 241.579688 
L 1218.422557 241.579688 
" style="fill:none;stroke:#d62728;stroke-linecap:square;stroke-width:1.5;"/>
    </g>
    <g id="line2d_93"/>
    <g id="text_48">
     <!-- 1/10 -->
     <g transform="translate(1232.822557 247.879688)scale(0.18 -0.18)">
      <use xlink:href="#DejaVuSans-31"/>
      <use x="63.623047" xlink:href="#DejaVuSans-2f"/>
      <use x="97.314453" xlink:href="#DejaVuSans-31"/>
      <use x="160.9375" xlink:href="#DejaVuSans-30"/>
     </g>
    </g>
    <g id="line2d_94">
     <path d="M 1182.422557 268.000313 
L 1218.422557 268.000313 
" style="fill:none;stroke:#9467bd;stroke-linecap:square;stroke-width:1.5;"/>
    </g>
    <g id="line2d_95"/>
    <g id="text_49">
     <!-- 1/20 -->
     <g transform="translate(1232.822557 274.300313)scale(0.18 -0.18)">
      <use xlink:href="#DejaVuSans-31"/>
      <use x="63.623047" xlink:href="#DejaVuSans-2f"/>
      <use x="97.314453" xlink:href="#DejaVuSans-32"/>
      <use x="160.9375" xlink:href="#DejaVuSans-30"/>
     </g>
    </g>
   </g>
  </g>
 </g>
 <defs>
  <clipPath id="p7c74bfd4fd">
   <rect height="720.72" width="710.181818" x="252" y="112.32"/>
  </clipPath>
  <clipPath id="p511cf3284d">
   <rect height="720.72" width="710.181818" x="1104.218182" y="112.32"/>
  </clipPath>
 </defs>
</svg>
