<?xml version="1.0" encoding="utf-8" standalone="no"?>
<!DOCTYPE svg PUBLIC "-//W3C//DTD SVG 1.1//EN"
  "http://www.w3.org/Graphics/SVG/1.1/DTD/svg11.dtd">
<!-- Created with matplotlib (http://matplotlib.org/) -->
<svg height="936pt" version="1.1" viewBox="0 0 2016 936" width="2016pt" xmlns="http://www.w3.org/2000/svg" xmlns:xlink="http://www.w3.org/1999/xlink">
 <defs>
  <style type="text/css">
*{stroke-linecap:butt;stroke-linejoin:round;}
  </style>
 </defs>
 <g id="figure_1">
  <g id="patch_1">
   <path d="M 0 936 
L 2016 936 
L 2016 0 
L 0 0 
z
" style="fill:#ffffff;"/>
  </g>
  <g id="axes_1">
   <g id="patch_2">
    <path d="M 252 833.04 
L 962.181818 833.04 
L 962.181818 112.32 
L 252 112.32 
z
" style="fill:#ffffff;"/>
   </g>
   <g id="matplotlib.axis_1">
    <g id="xtick_1">
     <g id="line2d_1">
      <path clip-path="url(#p8c19c96e42)" d="M 284.280992 833.04 
L 284.280992 112.32 
" style="fill:none;stroke:#b0b0b0;stroke-linecap:square;stroke-width:0.8;"/>
     </g>
     <g id="line2d_2">
      <defs>
       <path d="M 0 0 
L 0 3.5 
" id="m971483de22" style="stroke:#000000;stroke-width:0.8;"/>
      </defs>
      <g>
       <use style="stroke:#000000;stroke-width:0.8;" x="284.280992" xlink:href="#m971483de22" y="833.04"/>
      </g>
     </g>
     <g id="text_1">
      <!-- 98.0 -->
      <defs>
       <path d="M 10.984375 1.515625 
L 10.984375 10.5 
Q 14.703125 8.734375 18.5 7.8125 
Q 22.3125 6.890625 25.984375 6.890625 
Q 35.75 6.890625 40.890625 13.453125 
Q 46.046875 20.015625 46.78125 33.40625 
Q 43.953125 29.203125 39.59375 26.953125 
Q 35.25 24.703125 29.984375 24.703125 
Q 19.046875 24.703125 12.671875 31.3125 
Q 6.296875 37.9375 6.296875 49.421875 
Q 6.296875 60.640625 12.9375 67.421875 
Q 19.578125 74.21875 30.609375 74.21875 
Q 43.265625 74.21875 49.921875 64.515625 
Q 56.59375 54.828125 56.59375 36.375 
Q 56.59375 19.140625 48.40625 8.859375 
Q 40.234375 -1.421875 26.421875 -1.421875 
Q 22.703125 -1.421875 18.890625 -0.6875 
Q 15.09375 0.046875 10.984375 1.515625 
z
M 30.609375 32.421875 
Q 37.25 32.421875 41.125 36.953125 
Q 45.015625 41.5 45.015625 49.421875 
Q 45.015625 57.28125 41.125 61.84375 
Q 37.25 66.40625 30.609375 66.40625 
Q 23.96875 66.40625 20.09375 61.84375 
Q 16.21875 57.28125 16.21875 49.421875 
Q 16.21875 41.5 20.09375 36.953125 
Q 23.96875 32.421875 30.609375 32.421875 
z
" id="DejaVuSans-39"/>
       <path d="M 31.78125 34.625 
Q 24.75 34.625 20.71875 30.859375 
Q 16.703125 27.09375 16.703125 20.515625 
Q 16.703125 13.921875 20.71875 10.15625 
Q 24.75 6.390625 31.78125 6.390625 
Q 38.8125 6.390625 42.859375 10.171875 
Q 46.921875 13.96875 46.921875 20.515625 
Q 46.921875 27.09375 42.890625 30.859375 
Q 38.875 34.625 31.78125 34.625 
z
M 21.921875 38.8125 
Q 15.578125 40.375 12.03125 44.71875 
Q 8.5 49.078125 8.5 55.328125 
Q 8.5 64.0625 14.71875 69.140625 
Q 20.953125 74.21875 31.78125 74.21875 
Q 42.671875 74.21875 48.875 69.140625 
Q 55.078125 64.0625 55.078125 55.328125 
Q 55.078125 49.078125 51.53125 44.71875 
Q 48 40.375 41.703125 38.8125 
Q 48.828125 37.15625 52.796875 32.3125 
Q 56.78125 27.484375 56.78125 20.515625 
Q 56.78125 9.90625 50.3125 4.234375 
Q 43.84375 -1.421875 31.78125 -1.421875 
Q 19.734375 -1.421875 13.25 4.234375 
Q 6.78125 9.90625 6.78125 20.515625 
Q 6.78125 27.484375 10.78125 32.3125 
Q 14.796875 37.15625 21.921875 38.8125 
z
M 18.3125 54.390625 
Q 18.3125 48.734375 21.84375 45.5625 
Q 25.390625 42.390625 31.78125 42.390625 
Q 38.140625 42.390625 41.71875 45.5625 
Q 45.3125 48.734375 45.3125 54.390625 
Q 45.3125 60.0625 41.71875 63.234375 
Q 38.140625 66.40625 31.78125 66.40625 
Q 25.390625 66.40625 21.84375 63.234375 
Q 18.3125 60.0625 18.3125 54.390625 
z
" id="DejaVuSans-38"/>
       <path d="M 10.6875 12.40625 
L 21 12.40625 
L 21 0 
L 10.6875 0 
z
" id="DejaVuSans-2e"/>
       <path d="M 31.78125 66.40625 
Q 24.171875 66.40625 20.328125 58.90625 
Q 16.5 51.421875 16.5 36.375 
Q 16.5 21.390625 20.328125 13.890625 
Q 24.171875 6.390625 31.78125 6.390625 
Q 39.453125 6.390625 43.28125 13.890625 
Q 47.125 21.390625 47.125 36.375 
Q 47.125 51.421875 43.28125 58.90625 
Q 39.453125 66.40625 31.78125 66.40625 
z
M 31.78125 74.21875 
Q 44.046875 74.21875 50.515625 64.515625 
Q 56.984375 54.828125 56.984375 36.375 
Q 56.984375 17.96875 50.515625 8.265625 
Q 44.046875 -1.421875 31.78125 -1.421875 
Q 19.53125 -1.421875 13.0625 8.265625 
Q 6.59375 17.96875 6.59375 36.375 
Q 6.59375 54.828125 13.0625 64.515625 
Q 19.53125 74.21875 31.78125 74.21875 
z
" id="DejaVuSans-30"/>
      </defs>
      <g transform="translate(264.241929 853.717188)scale(0.18 -0.18)">
       <use xlink:href="#DejaVuSans-39"/>
       <use x="63.623047" xlink:href="#DejaVuSans-38"/>
       <use x="127.246094" xlink:href="#DejaVuSans-2e"/>
       <use x="159.033203" xlink:href="#DejaVuSans-30"/>
      </g>
     </g>
    </g>
    <g id="xtick_2">
     <g id="line2d_3">
      <path clip-path="url(#p8c19c96e42)" d="M 399.533317 833.04 
L 399.533317 112.32 
" style="fill:none;stroke:#b0b0b0;stroke-linecap:square;stroke-width:0.8;"/>
     </g>
     <g id="line2d_4">
      <g>
       <use style="stroke:#000000;stroke-width:0.8;" x="399.533317" xlink:href="#m971483de22" y="833.04"/>
      </g>
     </g>
     <g id="text_2">
      <!-- 98.5 -->
      <defs>
       <path d="M 10.796875 72.90625 
L 49.515625 72.90625 
L 49.515625 64.59375 
L 19.828125 64.59375 
L 19.828125 46.734375 
Q 21.96875 47.46875 24.109375 47.828125 
Q 26.265625 48.1875 28.421875 48.1875 
Q 40.625 48.1875 47.75 41.5 
Q 54.890625 34.8125 54.890625 23.390625 
Q 54.890625 11.625 47.5625 5.09375 
Q 40.234375 -1.421875 26.90625 -1.421875 
Q 22.3125 -1.421875 17.546875 -0.640625 
Q 12.796875 0.140625 7.71875 1.703125 
L 7.71875 11.625 
Q 12.109375 9.234375 16.796875 8.0625 
Q 21.484375 6.890625 26.703125 6.890625 
Q 35.15625 6.890625 40.078125 11.328125 
Q 45.015625 15.765625 45.015625 23.390625 
Q 45.015625 31 40.078125 35.4375 
Q 35.15625 39.890625 26.703125 39.890625 
Q 22.75 39.890625 18.8125 39.015625 
Q 14.890625 38.140625 10.796875 36.28125 
z
" id="DejaVuSans-35"/>
      </defs>
      <g transform="translate(379.494254 853.717188)scale(0.18 -0.18)">
       <use xlink:href="#DejaVuSans-39"/>
       <use x="63.623047" xlink:href="#DejaVuSans-38"/>
       <use x="127.246094" xlink:href="#DejaVuSans-2e"/>
       <use x="159.033203" xlink:href="#DejaVuSans-35"/>
      </g>
     </g>
    </g>
    <g id="xtick_3">
     <g id="line2d_5">
      <path clip-path="url(#p8c19c96e42)" d="M 514.785641 833.04 
L 514.785641 112.32 
" style="fill:none;stroke:#b0b0b0;stroke-linecap:square;stroke-width:0.8;"/>
     </g>
     <g id="line2d_6">
      <g>
       <use style="stroke:#000000;stroke-width:0.8;" x="514.785641" xlink:href="#m971483de22" y="833.04"/>
      </g>
     </g>
     <g id="text_3">
      <!-- 99.0 -->
      <g transform="translate(494.746579 853.717188)scale(0.18 -0.18)">
       <use xlink:href="#DejaVuSans-39"/>
       <use x="63.623047" xlink:href="#DejaVuSans-39"/>
       <use x="127.246094" xlink:href="#DejaVuSans-2e"/>
       <use x="159.033203" xlink:href="#DejaVuSans-30"/>
      </g>
     </g>
    </g>
    <g id="xtick_4">
     <g id="line2d_7">
      <path clip-path="url(#p8c19c96e42)" d="M 630.037966 833.04 
L 630.037966 112.32 
" style="fill:none;stroke:#b0b0b0;stroke-linecap:square;stroke-width:0.8;"/>
     </g>
     <g id="line2d_8">
      <g>
       <use style="stroke:#000000;stroke-width:0.8;" x="630.037966" xlink:href="#m971483de22" y="833.04"/>
      </g>
     </g>
     <g id="text_4">
      <!-- 99.5 -->
      <g transform="translate(609.998904 853.717188)scale(0.18 -0.18)">
       <use xlink:href="#DejaVuSans-39"/>
       <use x="63.623047" xlink:href="#DejaVuSans-39"/>
       <use x="127.246094" xlink:href="#DejaVuSans-2e"/>
       <use x="159.033203" xlink:href="#DejaVuSans-35"/>
      </g>
     </g>
    </g>
    <g id="xtick_5">
     <g id="line2d_9">
      <path clip-path="url(#p8c19c96e42)" d="M 745.290291 833.04 
L 745.290291 112.32 
" style="fill:none;stroke:#b0b0b0;stroke-linecap:square;stroke-width:0.8;"/>
     </g>
     <g id="line2d_10">
      <g>
       <use style="stroke:#000000;stroke-width:0.8;" x="745.290291" xlink:href="#m971483de22" y="833.04"/>
      </g>
     </g>
     <g id="text_5">
      <!-- 100.0 -->
      <defs>
       <path d="M 12.40625 8.296875 
L 28.515625 8.296875 
L 28.515625 63.921875 
L 10.984375 60.40625 
L 10.984375 69.390625 
L 28.421875 72.90625 
L 38.28125 72.90625 
L 38.28125 8.296875 
L 54.390625 8.296875 
L 54.390625 0 
L 12.40625 0 
z
" id="DejaVuSans-31"/>
      </defs>
      <g transform="translate(719.524979 853.717188)scale(0.18 -0.18)">
       <use xlink:href="#DejaVuSans-31"/>
       <use x="63.623047" xlink:href="#DejaVuSans-30"/>
       <use x="127.246094" xlink:href="#DejaVuSans-30"/>
       <use x="190.869141" xlink:href="#DejaVuSans-2e"/>
       <use x="222.65625" xlink:href="#DejaVuSans-30"/>
      </g>
     </g>
    </g>
    <g id="xtick_6">
     <g id="line2d_11">
      <path clip-path="url(#p8c19c96e42)" d="M 860.542616 833.04 
L 860.542616 112.32 
" style="fill:none;stroke:#b0b0b0;stroke-linecap:square;stroke-width:0.8;"/>
     </g>
     <g id="line2d_12">
      <g>
       <use style="stroke:#000000;stroke-width:0.8;" x="860.542616" xlink:href="#m971483de22" y="833.04"/>
      </g>
     </g>
     <g id="text_6">
      <!-- 100.5 -->
      <g transform="translate(834.777304 853.717188)scale(0.18 -0.18)">
       <use xlink:href="#DejaVuSans-31"/>
       <use x="63.623047" xlink:href="#DejaVuSans-30"/>
       <use x="127.246094" xlink:href="#DejaVuSans-30"/>
       <use x="190.869141" xlink:href="#DejaVuSans-2e"/>
       <use x="222.65625" xlink:href="#DejaVuSans-35"/>
      </g>
     </g>
    </g>
    <g id="text_7">
     <!-- RH [%] -->
     <defs>
      <path d="M 44.390625 34.1875 
Q 47.5625 33.109375 50.5625 29.59375 
Q 53.5625 26.078125 56.59375 19.921875 
L 66.609375 0 
L 56 0 
L 46.6875 18.703125 
Q 43.0625 26.03125 39.671875 28.421875 
Q 36.28125 30.8125 30.421875 30.8125 
L 19.671875 30.8125 
L 19.671875 0 
L 9.8125 0 
L 9.8125 72.90625 
L 32.078125 72.90625 
Q 44.578125 72.90625 50.734375 67.671875 
Q 56.890625 62.453125 56.890625 51.90625 
Q 56.890625 45.015625 53.6875 40.46875 
Q 50.484375 35.9375 44.390625 34.1875 
z
M 19.671875 64.796875 
L 19.671875 38.921875 
L 32.078125 38.921875 
Q 39.203125 38.921875 42.84375 42.21875 
Q 46.484375 45.515625 46.484375 51.90625 
Q 46.484375 58.296875 42.84375 61.546875 
Q 39.203125 64.796875 32.078125 64.796875 
z
" id="DejaVuSans-52"/>
      <path d="M 9.8125 72.90625 
L 19.671875 72.90625 
L 19.671875 43.015625 
L 55.515625 43.015625 
L 55.515625 72.90625 
L 65.375 72.90625 
L 65.375 0 
L 55.515625 0 
L 55.515625 34.71875 
L 19.671875 34.71875 
L 19.671875 0 
L 9.8125 0 
z
" id="DejaVuSans-48"/>
      <path id="DejaVuSans-20"/>
      <path d="M 8.59375 75.984375 
L 29.296875 75.984375 
L 29.296875 69 
L 17.578125 69 
L 17.578125 -6.203125 
L 29.296875 -6.203125 
L 29.296875 -13.1875 
L 8.59375 -13.1875 
z
" id="DejaVuSans-5b"/>
      <path d="M 72.703125 32.078125 
Q 68.453125 32.078125 66.03125 28.46875 
Q 63.625 24.859375 63.625 18.40625 
Q 63.625 12.0625 66.03125 8.421875 
Q 68.453125 4.78125 72.703125 4.78125 
Q 76.859375 4.78125 79.265625 8.421875 
Q 81.6875 12.0625 81.6875 18.40625 
Q 81.6875 24.8125 79.265625 28.4375 
Q 76.859375 32.078125 72.703125 32.078125 
z
M 72.703125 38.28125 
Q 80.421875 38.28125 84.953125 32.90625 
Q 89.5 27.546875 89.5 18.40625 
Q 89.5 9.28125 84.9375 3.921875 
Q 80.375 -1.421875 72.703125 -1.421875 
Q 64.890625 -1.421875 60.34375 3.921875 
Q 55.8125 9.28125 55.8125 18.40625 
Q 55.8125 27.59375 60.375 32.9375 
Q 64.9375 38.28125 72.703125 38.28125 
z
M 22.3125 68.015625 
Q 18.109375 68.015625 15.6875 64.375 
Q 13.28125 60.75 13.28125 54.390625 
Q 13.28125 47.953125 15.671875 44.328125 
Q 18.0625 40.71875 22.3125 40.71875 
Q 26.5625 40.71875 28.96875 44.328125 
Q 31.390625 47.953125 31.390625 54.390625 
Q 31.390625 60.6875 28.953125 64.34375 
Q 26.515625 68.015625 22.3125 68.015625 
z
M 66.40625 74.21875 
L 74.21875 74.21875 
L 28.609375 -1.421875 
L 20.796875 -1.421875 
z
M 22.3125 74.21875 
Q 30.03125 74.21875 34.609375 68.875 
Q 39.203125 63.53125 39.203125 54.390625 
Q 39.203125 45.171875 34.640625 39.84375 
Q 30.078125 34.515625 22.3125 34.515625 
Q 14.546875 34.515625 10.03125 39.859375 
Q 5.515625 45.21875 5.515625 54.390625 
Q 5.515625 63.484375 10.046875 68.84375 
Q 14.59375 74.21875 22.3125 74.21875 
z
" id="DejaVuSans-25"/>
      <path d="M 30.421875 75.984375 
L 30.421875 -13.1875 
L 9.71875 -13.1875 
L 9.71875 -6.203125 
L 21.390625 -6.203125 
L 21.390625 69 
L 9.71875 69 
L 9.71875 75.984375 
z
" id="DejaVuSans-5d"/>
     </defs>
     <g transform="translate(575.634503 875.137812)scale(0.18 -0.18)">
      <use xlink:href="#DejaVuSans-52"/>
      <use x="69.482422" xlink:href="#DejaVuSans-48"/>
      <use x="144.677734" xlink:href="#DejaVuSans-20"/>
      <use x="176.464844" xlink:href="#DejaVuSans-5b"/>
      <use x="215.478516" xlink:href="#DejaVuSans-25"/>
      <use x="310.498047" xlink:href="#DejaVuSans-5d"/>
     </g>
    </g>
   </g>
   <g id="matplotlib.axis_2">
    <g id="ytick_1">
     <g id="line2d_13">
      <path clip-path="url(#p8c19c96e42)" d="M 252 800.28 
L 962.181818 800.28 
" style="fill:none;stroke:#b0b0b0;stroke-linecap:square;stroke-width:0.8;"/>
     </g>
     <g id="line2d_14">
      <defs>
       <path d="M 0 0 
L -3.5 0 
" id="m6a433e8d80" style="stroke:#000000;stroke-width:0.8;"/>
      </defs>
      <g>
       <use style="stroke:#000000;stroke-width:0.8;" x="252" xlink:href="#m6a433e8d80" y="800.28"/>
      </g>
     </g>
     <g id="text_8">
      <!-- 0 -->
      <g transform="translate(233.5475 807.118594)scale(0.18 -0.18)">
       <use xlink:href="#DejaVuSans-30"/>
      </g>
     </g>
    </g>
    <g id="ytick_2">
     <g id="line2d_15">
      <path clip-path="url(#p8c19c96e42)" d="M 252 718.38 
L 962.181818 718.38 
" style="fill:none;stroke:#b0b0b0;stroke-linecap:square;stroke-width:0.8;"/>
     </g>
     <g id="line2d_16">
      <g>
       <use style="stroke:#000000;stroke-width:0.8;" x="252" xlink:href="#m6a433e8d80" y="718.38"/>
      </g>
     </g>
     <g id="text_9">
      <!-- 25 -->
      <defs>
       <path d="M 19.1875 8.296875 
L 53.609375 8.296875 
L 53.609375 0 
L 7.328125 0 
L 7.328125 8.296875 
Q 12.9375 14.109375 22.625 23.890625 
Q 32.328125 33.6875 34.8125 36.53125 
Q 39.546875 41.84375 41.421875 45.53125 
Q 43.3125 49.21875 43.3125 52.78125 
Q 43.3125 58.59375 39.234375 62.25 
Q 35.15625 65.921875 28.609375 65.921875 
Q 23.96875 65.921875 18.8125 64.3125 
Q 13.671875 62.703125 7.8125 59.421875 
L 7.8125 69.390625 
Q 13.765625 71.78125 18.9375 73 
Q 24.125 74.21875 28.421875 74.21875 
Q 39.75 74.21875 46.484375 68.546875 
Q 53.21875 62.890625 53.21875 53.421875 
Q 53.21875 48.921875 51.53125 44.890625 
Q 49.859375 40.875 45.40625 35.40625 
Q 44.1875 33.984375 37.640625 27.21875 
Q 31.109375 20.453125 19.1875 8.296875 
z
" id="DejaVuSans-32"/>
      </defs>
      <g transform="translate(222.095 725.218594)scale(0.18 -0.18)">
       <use xlink:href="#DejaVuSans-32"/>
       <use x="63.623047" xlink:href="#DejaVuSans-35"/>
      </g>
     </g>
    </g>
    <g id="ytick_3">
     <g id="line2d_17">
      <path clip-path="url(#p8c19c96e42)" d="M 252 636.48 
L 962.181818 636.48 
" style="fill:none;stroke:#b0b0b0;stroke-linecap:square;stroke-width:0.8;"/>
     </g>
     <g id="line2d_18">
      <g>
       <use style="stroke:#000000;stroke-width:0.8;" x="252" xlink:href="#m6a433e8d80" y="636.48"/>
      </g>
     </g>
     <g id="text_10">
      <!-- 50 -->
      <g transform="translate(222.095 643.318594)scale(0.18 -0.18)">
       <use xlink:href="#DejaVuSans-35"/>
       <use x="63.623047" xlink:href="#DejaVuSans-30"/>
      </g>
     </g>
    </g>
    <g id="ytick_4">
     <g id="line2d_19">
      <path clip-path="url(#p8c19c96e42)" d="M 252 554.58 
L 962.181818 554.58 
" style="fill:none;stroke:#b0b0b0;stroke-linecap:square;stroke-width:0.8;"/>
     </g>
     <g id="line2d_20">
      <g>
       <use style="stroke:#000000;stroke-width:0.8;" x="252" xlink:href="#m6a433e8d80" y="554.58"/>
      </g>
     </g>
     <g id="text_11">
      <!-- 75 -->
      <defs>
       <path d="M 8.203125 72.90625 
L 55.078125 72.90625 
L 55.078125 68.703125 
L 28.609375 0 
L 18.3125 0 
L 43.21875 64.59375 
L 8.203125 64.59375 
z
" id="DejaVuSans-37"/>
      </defs>
      <g transform="translate(222.095 561.418594)scale(0.18 -0.18)">
       <use xlink:href="#DejaVuSans-37"/>
       <use x="63.623047" xlink:href="#DejaVuSans-35"/>
      </g>
     </g>
    </g>
    <g id="ytick_5">
     <g id="line2d_21">
      <path clip-path="url(#p8c19c96e42)" d="M 252 472.68 
L 962.181818 472.68 
" style="fill:none;stroke:#b0b0b0;stroke-linecap:square;stroke-width:0.8;"/>
     </g>
     <g id="line2d_22">
      <g>
       <use style="stroke:#000000;stroke-width:0.8;" x="252" xlink:href="#m6a433e8d80" y="472.68"/>
      </g>
     </g>
     <g id="text_12">
      <!-- 100 -->
      <g transform="translate(210.6425 479.518594)scale(0.18 -0.18)">
       <use xlink:href="#DejaVuSans-31"/>
       <use x="63.623047" xlink:href="#DejaVuSans-30"/>
       <use x="127.246094" xlink:href="#DejaVuSans-30"/>
      </g>
     </g>
    </g>
    <g id="ytick_6">
     <g id="line2d_23">
      <path clip-path="url(#p8c19c96e42)" d="M 252 390.78 
L 962.181818 390.78 
" style="fill:none;stroke:#b0b0b0;stroke-linecap:square;stroke-width:0.8;"/>
     </g>
     <g id="line2d_24">
      <g>
       <use style="stroke:#000000;stroke-width:0.8;" x="252" xlink:href="#m6a433e8d80" y="390.78"/>
      </g>
     </g>
     <g id="text_13">
      <!-- 125 -->
      <g transform="translate(210.6425 397.618594)scale(0.18 -0.18)">
       <use xlink:href="#DejaVuSans-31"/>
       <use x="63.623047" xlink:href="#DejaVuSans-32"/>
       <use x="127.246094" xlink:href="#DejaVuSans-35"/>
      </g>
     </g>
    </g>
    <g id="ytick_7">
     <g id="line2d_25">
      <path clip-path="url(#p8c19c96e42)" d="M 252 308.88 
L 962.181818 308.88 
" style="fill:none;stroke:#b0b0b0;stroke-linecap:square;stroke-width:0.8;"/>
     </g>
     <g id="line2d_26">
      <g>
       <use style="stroke:#000000;stroke-width:0.8;" x="252" xlink:href="#m6a433e8d80" y="308.88"/>
      </g>
     </g>
     <g id="text_14">
      <!-- 150 -->
      <g transform="translate(210.6425 315.718594)scale(0.18 -0.18)">
       <use xlink:href="#DejaVuSans-31"/>
       <use x="63.623047" xlink:href="#DejaVuSans-35"/>
       <use x="127.246094" xlink:href="#DejaVuSans-30"/>
      </g>
     </g>
    </g>
    <g id="ytick_8">
     <g id="line2d_27">
      <path clip-path="url(#p8c19c96e42)" d="M 252 226.98 
L 962.181818 226.98 
" style="fill:none;stroke:#b0b0b0;stroke-linecap:square;stroke-width:0.8;"/>
     </g>
     <g id="line2d_28">
      <g>
       <use style="stroke:#000000;stroke-width:0.8;" x="252" xlink:href="#m6a433e8d80" y="226.98"/>
      </g>
     </g>
     <g id="text_15">
      <!-- 175 -->
      <g transform="translate(210.6425 233.818594)scale(0.18 -0.18)">
       <use xlink:href="#DejaVuSans-31"/>
       <use x="63.623047" xlink:href="#DejaVuSans-37"/>
       <use x="127.246094" xlink:href="#DejaVuSans-35"/>
      </g>
     </g>
    </g>
    <g id="ytick_9">
     <g id="line2d_29">
      <path clip-path="url(#p8c19c96e42)" d="M 252 145.08 
L 962.181818 145.08 
" style="fill:none;stroke:#b0b0b0;stroke-linecap:square;stroke-width:0.8;"/>
     </g>
     <g id="line2d_30">
      <g>
       <use style="stroke:#000000;stroke-width:0.8;" x="252" xlink:href="#m6a433e8d80" y="145.08"/>
      </g>
     </g>
     <g id="text_16">
      <!-- 200 -->
      <g transform="translate(210.6425 151.918594)scale(0.18 -0.18)">
       <use xlink:href="#DejaVuSans-32"/>
       <use x="63.623047" xlink:href="#DejaVuSans-30"/>
       <use x="127.246094" xlink:href="#DejaVuSans-30"/>
      </g>
     </g>
    </g>
    <g id="text_17">
     <!-- Z [m]] -->
     <defs>
      <path d="M 5.609375 72.90625 
L 62.890625 72.90625 
L 62.890625 65.375 
L 16.796875 8.296875 
L 64.015625 8.296875 
L 64.015625 0 
L 4.5 0 
L 4.5 7.515625 
L 50.59375 64.59375 
L 5.609375 64.59375 
z
" id="DejaVuSans-5a"/>
      <path d="M 52 44.1875 
Q 55.375 50.25 60.0625 53.125 
Q 64.75 56 71.09375 56 
Q 79.640625 56 84.28125 50.015625 
Q 88.921875 44.046875 88.921875 33.015625 
L 88.921875 0 
L 79.890625 0 
L 79.890625 32.71875 
Q 79.890625 40.578125 77.09375 44.375 
Q 74.3125 48.1875 68.609375 48.1875 
Q 61.625 48.1875 57.5625 43.546875 
Q 53.515625 38.921875 53.515625 30.90625 
L 53.515625 0 
L 44.484375 0 
L 44.484375 32.71875 
Q 44.484375 40.625 41.703125 44.40625 
Q 38.921875 48.1875 33.109375 48.1875 
Q 26.21875 48.1875 22.15625 43.53125 
Q 18.109375 38.875 18.109375 30.90625 
L 18.109375 0 
L 9.078125 0 
L 9.078125 54.6875 
L 18.109375 54.6875 
L 18.109375 46.1875 
Q 21.1875 51.21875 25.484375 53.609375 
Q 29.78125 56 35.6875 56 
Q 41.65625 56 45.828125 52.96875 
Q 50 49.953125 52 44.1875 
z
" id="DejaVuSans-6d"/>
     </defs>
     <g transform="translate(202.899062 501.006094)rotate(-90)scale(0.18 -0.18)">
      <use xlink:href="#DejaVuSans-5a"/>
      <use x="68.505859" xlink:href="#DejaVuSans-20"/>
      <use x="100.292969" xlink:href="#DejaVuSans-5b"/>
      <use x="139.306641" xlink:href="#DejaVuSans-6d"/>
      <use x="236.71875" xlink:href="#DejaVuSans-5d"/>
      <use x="275.732422" xlink:href="#DejaVuSans-5d"/>
     </g>
    </g>
   </g>
   <g id="line2d_31">
    <path clip-path="url(#p8c19c96e42)" d="M 284.280992 800.28 
L 308.646552 793.728 
L 333.163463 787.176 
L 357.713427 780.624 
L 382.294725 774.072 
L 406.905818 767.52 
L 431.545773 760.968 
L 456.213847 754.416 
L 480.909275 747.864 
L 505.631145 741.312 
L 530.378293 734.76 
L 555.149188 728.208 
L 579.94176 721.656 
L 604.753155 715.104 
L 629.579357 708.552 
L 654.414596 702 
L 679.250377 695.448 
L 704.073887 688.896 
L 728.865294 682.344 
L 753.593167 675.792 
L 778.206451 669.24 
L 802.613672 662.688 
L 826.475378 656.136 
L 849.064769 649.584 
L 868.968279 643.032 
L 884.455763 636.48 
L 895.66714 629.928 
L 902.767284 623.376 
L 906.135177 616.824 
L 906.302759 610.272 
L 903.884062 603.72 
L 899.509448 597.168 
L 893.773333 590.616 
L 887.200182 584.064 
L 880.222933 577.512 
L 873.176086 570.96 
L 866.307888 564.408 
L 859.786648 557.856 
L 853.71514 551.304 
L 848.145001 544.752 
L 843.090099 538.2 
L 838.538036 531.648 
L 834.459481 525.096 
L 830.815374 518.544 
L 827.562205 511.992 
L 824.655706 505.44 
L 822.053269 498.888 
L 819.715401 492.336 
L 817.606475 485.784 
L 815.695005 479.232 
L 813.953586 472.68 
L 812.358647 466.128 
L 810.890098 459.576 
L 809.53092 453.024 
L 808.266765 446.472 
L 807.085564 439.92 
L 805.977177 433.368 
L 804.933078 426.816 
L 803.946085 420.264 
L 803.01013 413.712 
L 802.120062 407.16 
L 801.271494 400.608 
L 800.460659 394.056 
L 799.684311 387.504 
L 798.939632 380.952 
L 798.224159 374.4 
L 797.535726 367.848 
L 796.872418 361.296 
L 796.23253 354.744 
L 795.614535 348.192 
L 795.017062 341.64 
L 794.43887 335.088 
L 793.878832 328.536 
L 793.335921 321.984 
L 792.809198 315.432 
L 792.2978 308.88 
L 791.800934 302.328 
L 791.317866 295.776 
L 790.847917 289.224 
L 790.390458 282.672 
L 789.944904 276.12 
L 789.510709 269.568 
L 789.087364 263.016 
L 788.674394 256.464 
L 788.271352 249.912 
L 787.877822 243.36 
L 787.493411 236.808 
L 787.117749 230.256 
L 786.750489 223.704 
L 786.391305 217.152 
L 786.039886 210.6 
L 785.695939 204.048 
L 785.35919 197.496 
L 785.029375 190.944 
L 784.706248 184.392 
L 784.389573 177.84 
L 784.079126 171.288 
L 783.774695 164.736 
L 783.476079 158.184 
L 783.183084 151.632 
L 782.895528 145.08 
" style="fill:none;stroke:#1f77b4;stroke-linecap:square;stroke-width:1.5;"/>
   </g>
   <g id="line2d_32">
    <path clip-path="url(#p8c19c96e42)" d="M 745.290291 800.28 
L 745.290291 793.728 
L 745.290291 787.176 
L 745.290291 780.624 
L 745.290291 774.072 
L 745.290291 767.52 
L 745.290291 760.968 
L 745.290291 754.416 
L 745.290291 747.864 
L 745.290291 741.312 
L 745.290291 734.76 
L 745.290291 728.208 
L 745.290291 721.656 
L 745.290291 715.104 
L 745.290291 708.552 
L 745.290291 702 
L 745.290291 695.448 
L 745.290291 688.896 
L 745.290291 682.344 
L 745.290291 675.792 
L 745.290291 669.24 
L 745.290291 662.688 
L 745.290291 656.136 
L 745.290291 649.584 
L 745.290291 643.032 
L 745.290291 636.48 
L 745.290291 629.928 
L 745.290291 623.376 
L 745.290291 616.824 
L 745.290291 610.272 
L 745.290291 603.72 
L 745.290291 597.168 
L 745.290291 590.616 
L 745.290291 584.064 
L 745.290291 577.512 
L 745.290291 570.96 
L 745.290291 564.408 
L 745.290291 557.856 
L 745.290291 551.304 
L 745.290291 544.752 
L 745.290291 538.2 
L 745.290291 531.648 
L 745.290291 525.096 
L 745.290291 518.544 
L 745.290291 511.992 
L 745.290291 505.44 
L 745.290291 498.888 
L 745.290291 492.336 
L 745.290291 485.784 
L 745.290291 479.232 
L 745.290291 472.68 
L 745.290291 466.128 
L 745.290291 459.576 
L 745.290291 453.024 
L 745.290291 446.472 
L 745.290291 439.92 
L 745.290291 433.368 
L 745.290291 426.816 
L 745.290291 420.264 
L 745.290291 413.712 
L 745.290291 407.16 
L 745.290291 400.608 
L 745.290291 394.056 
L 745.290291 387.504 
L 745.290291 380.952 
L 745.290291 374.4 
L 745.290291 367.848 
L 745.290291 361.296 
L 745.290291 354.744 
L 745.290291 348.192 
L 745.290291 341.64 
L 745.290291 335.088 
L 745.290291 328.536 
L 745.290291 321.984 
L 745.290291 315.432 
L 745.290291 308.88 
L 745.290291 302.328 
L 745.290291 295.776 
L 745.290291 289.224 
L 745.290291 282.672 
L 745.290291 276.12 
L 745.290291 269.568 
L 745.290291 263.016 
L 745.290291 256.464 
L 745.290291 249.912 
L 745.290291 243.36 
L 745.290291 236.808 
L 745.290291 230.256 
L 745.290291 223.704 
L 745.290291 217.152 
L 745.290291 210.6 
L 745.290291 204.048 
L 745.290291 197.496 
L 745.290291 190.944 
L 745.290291 184.392 
L 745.290291 177.84 
L 745.290291 171.288 
L 745.290291 164.736 
L 745.290291 158.184 
L 745.290291 151.632 
L 745.290291 145.08 
" style="fill:none;stroke:#ff7f0e;stroke-linecap:square;stroke-width:1.5;"/>
   </g>
   <g id="line2d_33">
    <path clip-path="url(#p8c19c96e42)" d="M 284.280992 800.28 
L 308.632051 793.728 
L 333.159538 787.176 
L 357.711485 780.624 
L 382.293685 774.072 
L 406.905272 767.52 
L 431.545544 760.968 
L 456.21386 754.416 
L 480.909509 747.864 
L 505.631614 741.312 
L 530.379049 734.76 
L 555.150322 728.208 
L 579.943422 721.656 
L 604.755584 715.104 
L 629.582944 708.552 
L 654.419981 702 
L 679.258649 695.448 
L 704.086946 688.896 
L 728.886568 682.344 
L 753.628999 675.792 
L 778.268831 669.24 
L 802.728886 662.688 
L 826.825677 656.136 
L 849.954149 649.584 
L 871.043412 643.032 
L 888.786886 636.48 
L 902.433982 629.928 
L 911.935905 623.376 
L 917.613971 616.824 
L 919.910111 610.272 
L 919.384323 603.72 
L 916.637975 597.168 
L 912.240792 590.616 
L 906.712404 584.064 
L 900.49638 577.512 
L 893.952975 570.96 
L 887.360829 564.408 
L 880.924181 557.856 
L 874.783314 551.304 
L 869.026199 544.752 
L 863.699896 538.2 
L 858.820876 531.648 
L 854.383827 525.096 
L 850.368827 518.544 
L 846.746945 511.992 
L 843.484461 505.44 
L 840.545899 498.888 
L 837.89613 492.336 
L 835.501734 485.784 
L 833.331805 479.232 
L 831.358363 472.68 
L 829.556484 466.128 
L 827.904238 459.576 
L 826.38252 453.024 
L 824.974803 446.472 
L 823.666877 439.92 
L 822.446562 433.368 
L 821.303455 426.816 
L 820.228671 420.264 
L 819.21463 413.712 
L 818.254854 407.16 
L 817.3438 400.608 
L 816.476707 394.056 
L 815.649477 387.504 
L 814.858565 380.952 
L 814.100894 374.4 
L 813.373773 367.848 
L 812.674846 361.296 
L 812.002034 354.744 
L 811.353493 348.192 
L 810.727582 341.64 
L 810.12283 335.088 
L 809.537914 328.536 
L 808.97164 321.984 
L 808.422923 315.432 
L 807.890775 308.88 
L 807.374292 302.328 
L 806.872646 295.776 
L 806.385074 289.224 
L 805.910871 282.672 
L 805.44938 276.12 
L 805.000013 269.568 
L 804.562194 263.016 
L 804.135404 256.464 
L 803.719154 249.912 
L 803.312985 243.36 
L 802.916471 236.808 
L 802.52921 230.256 
L 802.150824 223.704 
L 801.780959 217.152 
L 801.419279 210.6 
L 801.06547 204.048 
L 800.719235 197.496 
L 800.38029 190.944 
L 800.04837 184.392 
L 799.723223 177.84 
L 799.404608 171.288 
L 799.092299 164.736 
L 798.78608 158.184 
L 798.485745 151.632 
L 798.1911 145.08 
" style="fill:none;stroke:#2ca02c;stroke-linecap:square;stroke-width:1.5;"/>
   </g>
   <g id="line2d_34">
    <path clip-path="url(#p8c19c96e42)" d="M 745.290291 800.28 
L 745.290291 793.728 
L 745.290291 787.176 
L 745.290291 780.624 
L 745.290291 774.072 
L 745.290291 767.52 
L 745.290291 760.968 
L 745.290291 754.416 
L 745.290291 747.864 
L 745.290291 741.312 
L 745.290291 734.76 
L 745.290291 728.208 
L 745.290291 721.656 
L 745.290291 715.104 
L 745.290291 708.552 
L 745.290291 702 
L 745.290291 695.448 
L 745.290291 688.896 
L 745.290291 682.344 
L 745.290291 675.792 
L 745.290291 669.24 
L 745.290291 662.688 
L 745.290291 656.136 
L 745.290291 649.584 
L 745.290291 643.032 
L 745.290291 636.48 
L 745.290291 629.928 
L 745.290291 623.376 
L 745.290291 616.824 
L 745.290291 610.272 
L 745.290291 603.72 
L 745.290291 597.168 
L 745.290291 590.616 
L 745.290291 584.064 
L 745.290291 577.512 
L 745.290291 570.96 
L 745.290291 564.408 
L 745.290291 557.856 
L 745.290291 551.304 
L 745.290291 544.752 
L 745.290291 538.2 
L 745.290291 531.648 
L 745.290291 525.096 
L 745.290291 518.544 
L 745.290291 511.992 
L 745.290291 505.44 
L 745.290291 498.888 
L 745.290291 492.336 
L 745.290291 485.784 
L 745.290291 479.232 
L 745.290291 472.68 
L 745.290291 466.128 
L 745.290291 459.576 
L 745.290291 453.024 
L 745.290291 446.472 
L 745.290291 439.92 
L 745.290291 433.368 
L 745.290291 426.816 
L 745.290291 420.264 
L 745.290291 413.712 
L 745.290291 407.16 
L 745.290291 400.608 
L 745.290291 394.056 
L 745.290291 387.504 
L 745.290291 380.952 
L 745.290291 374.4 
L 745.290291 367.848 
L 745.290291 361.296 
L 745.290291 354.744 
L 745.290291 348.192 
L 745.290291 341.64 
L 745.290291 335.088 
L 745.290291 328.536 
L 745.290291 321.984 
L 745.290291 315.432 
L 745.290291 308.88 
L 745.290291 302.328 
L 745.290291 295.776 
L 745.290291 289.224 
L 745.290291 282.672 
L 745.290291 276.12 
L 745.290291 269.568 
L 745.290291 263.016 
L 745.290291 256.464 
L 745.290291 249.912 
L 745.290291 243.36 
L 745.290291 236.808 
L 745.290291 230.256 
L 745.290291 223.704 
L 745.290291 217.152 
L 745.290291 210.6 
L 745.290291 204.048 
L 745.290291 197.496 
L 745.290291 190.944 
L 745.290291 184.392 
L 745.290291 177.84 
L 745.290291 171.288 
L 745.290291 164.736 
L 745.290291 158.184 
L 745.290291 151.632 
L 745.290291 145.08 
" style="fill:none;stroke:#d62728;stroke-linecap:square;stroke-width:1.5;"/>
   </g>
   <g id="line2d_35">
    <path clip-path="url(#p8c19c96e42)" d="M 284.280992 800.28 
L 308.623028 793.728 
L 333.157835 787.176 
L 357.710611 780.624 
L 382.293232 774.072 
L 406.905056 767.52 
L 431.545485 760.968 
L 456.213927 754.416 
L 480.909696 747.864 
L 505.631937 741.312 
L 530.379541 734.76 
L 555.15104 728.208 
L 579.944457 721.656 
L 604.757082 715.104 
L 629.585137 708.552 
L 654.42325 702 
L 679.263631 695.448 
L 704.094738 688.896 
L 728.899113 682.344 
L 753.649809 675.792 
L 778.304384 669.24 
L 802.792379 662.688 
L 826.965703 656.136 
L 850.371231 649.584 
L 871.91967 643.032 
L 890.39497 636.48 
L 905.071948 629.928 
L 915.755945 623.376 
L 922.621974 616.824 
L 926.069927 610.272 
L 926.619956 603.72 
L 924.837894 597.168 
L 921.28063 590.616 
L 916.457538 584.064 
L 910.809424 577.512 
L 904.700628 570.96 
L 898.419418 564.408 
L 892.183599 557.856 
L 886.149288 551.304 
L 880.421075 544.752 
L 875.062253 538.2 
L 870.104311 531.648 
L 865.555226 525.096 
L 861.406383 518.544 
L 857.638133 511.992 
L 854.2241 505.44 
L 851.134405 498.888 
L 848.337993 492.336 
L 845.804252 485.784 
L 843.504052 479.232 
L 841.410385 472.68 
L 839.498651 466.128 
L 837.746831 459.576 
L 836.13545 453.024 
L 834.647354 446.472 
L 833.267719 439.92 
L 831.983473 433.368 
L 830.7835 426.816 
L 829.658131 420.264 
L 828.599038 413.712 
L 827.599083 407.16 
L 826.652128 400.608 
L 825.752834 394.056 
L 824.896698 387.504 
L 824.079706 380.952 
L 823.29844 374.4 
L 822.549928 367.848 
L 821.831422 361.296 
L 821.140714 354.744 
L 820.47577 348.192 
L 819.834734 341.64 
L 819.216049 335.088 
L 818.618191 328.536 
L 818.039911 321.984 
L 817.479988 315.432 
L 816.937363 308.88 
L 816.411048 302.328 
L 815.900158 295.776 
L 815.403885 289.224 
L 814.921485 282.672 
L 814.452253 276.12 
L 813.995554 269.568 
L 813.550793 263.016 
L 813.117416 256.464 
L 812.694912 249.912 
L 812.282799 243.36 
L 811.880627 236.808 
L 811.487978 230.256 
L 811.104456 223.704 
L 810.72969 217.152 
L 810.363333 210.6 
L 810.005055 204.048 
L 809.654547 197.496 
L 809.311515 190.944 
L 808.975684 184.392 
L 808.64679 177.84 
L 808.324586 171.288 
L 808.008837 164.736 
L 807.699318 158.184 
L 807.395818 151.632 
L 807.098135 145.08 
" style="fill:none;stroke:#9467bd;stroke-linecap:square;stroke-width:1.5;"/>
   </g>
   <g id="line2d_36">
    <path clip-path="url(#p8c19c96e42)" d="M 745.290291 800.28 
L 745.290291 793.728 
L 745.290291 787.176 
L 745.290291 780.624 
L 745.290291 774.072 
L 745.290291 767.52 
L 745.290291 760.968 
L 745.290291 754.416 
L 745.290291 747.864 
L 745.290291 741.312 
L 745.290291 734.76 
L 745.290291 728.208 
L 745.290291 721.656 
L 745.290291 715.104 
L 745.290291 708.552 
L 745.290291 702 
L 745.290291 695.448 
L 745.290291 688.896 
L 745.290291 682.344 
L 745.290291 675.792 
L 745.290291 669.24 
L 745.290291 662.688 
L 745.290291 656.136 
L 745.290291 649.584 
L 745.290291 643.032 
L 745.290291 636.48 
L 745.290291 629.928 
L 745.290291 623.376 
L 745.290291 616.824 
L 745.290291 610.272 
L 745.290291 603.72 
L 745.290291 597.168 
L 745.290291 590.616 
L 745.290291 584.064 
L 745.290291 577.512 
L 745.290291 570.96 
L 745.290291 564.408 
L 745.290291 557.856 
L 745.290291 551.304 
L 745.290291 544.752 
L 745.290291 538.2 
L 745.290291 531.648 
L 745.290291 525.096 
L 745.290291 518.544 
L 745.290291 511.992 
L 745.290291 505.44 
L 745.290291 498.888 
L 745.290291 492.336 
L 745.290291 485.784 
L 745.290291 479.232 
L 745.290291 472.68 
L 745.290291 466.128 
L 745.290291 459.576 
L 745.290291 453.024 
L 745.290291 446.472 
L 745.290291 439.92 
L 745.290291 433.368 
L 745.290291 426.816 
L 745.290291 420.264 
L 745.290291 413.712 
L 745.290291 407.16 
L 745.290291 400.608 
L 745.290291 394.056 
L 745.290291 387.504 
L 745.290291 380.952 
L 745.290291 374.4 
L 745.290291 367.848 
L 745.290291 361.296 
L 745.290291 354.744 
L 745.290291 348.192 
L 745.290291 341.64 
L 745.290291 335.088 
L 745.290291 328.536 
L 745.290291 321.984 
L 745.290291 315.432 
L 745.290291 308.88 
L 745.290291 302.328 
L 745.290291 295.776 
L 745.290291 289.224 
L 745.290291 282.672 
L 745.290291 276.12 
L 745.290291 269.568 
L 745.290291 263.016 
L 745.290291 256.464 
L 745.290291 249.912 
L 745.290291 243.36 
L 745.290291 236.808 
L 745.290291 230.256 
L 745.290291 223.704 
L 745.290291 217.152 
L 745.290291 210.6 
L 745.290291 204.048 
L 745.290291 197.496 
L 745.290291 190.944 
L 745.290291 184.392 
L 745.290291 177.84 
L 745.290291 171.288 
L 745.290291 164.736 
L 745.290291 158.184 
L 745.290291 151.632 
L 745.290291 145.08 
" style="fill:none;stroke:#8c564b;stroke-linecap:square;stroke-width:1.5;"/>
   </g>
   <g id="line2d_37">
    <path clip-path="url(#p8c19c96e42)" d="M 284.280992 800.28 
L 308.620155 793.728 
L 333.157375 787.176 
L 357.710365 780.624 
L 382.293107 774.072 
L 406.905001 767.52 
L 431.545477 760.968 
L 456.213958 754.416 
L 480.909766 747.864 
L 505.632051 741.312 
L 530.37971 734.76 
L 555.151285 728.208 
L 579.944807 721.656 
L 604.757587 715.104 
L 629.585873 708.552 
L 654.424344 702 
L 679.265291 695.448 
L 704.097325 688.896 
L 728.903254 682.344 
L 753.656631 675.792 
L 778.315941 669.24 
L 802.812736 662.688 
L 827.007603 656.136 
L 850.492305 649.584 
L 872.249492 643.032 
L 890.983817 636.48 
L 905.926083 629.928 
L 916.900856 623.376 
L 924.078493 616.824 
L 927.847183 610.272 
L 928.714572 603.72 
L 927.235069 597.168 
L 923.955667 590.616 
L 919.378447 584.064 
L 913.939411 577.512 
L 908.001123 570.96 
L 901.852521 564.408 
L 895.713909 557.856 
L 889.745123 551.304 
L 884.055155 544.752 
L 878.711869 538.2 
L 873.751341 531.648 
L 869.185999 525.096 
L 865.010758 518.544 
L 861.209206 511.992 
L 857.75759 505.44 
L 854.628134 498.888 
L 851.791425 492.336 
L 849.218061 485.784 
L 846.879778 479.232 
L 844.750136 472.68 
L 842.804911 466.128 
L 841.022253 459.576 
L 839.382689 453.024 
L 837.869035 446.472 
L 836.466235 439.92 
L 835.161175 433.368 
L 833.942479 426.816 
L 832.800309 420.264 
L 831.726173 413.712 
L 830.712745 407.16 
L 829.753704 400.608 
L 828.843594 394.056 
L 827.977695 387.504 
L 827.151913 380.952 
L 826.362691 374.4 
L 825.606923 367.848 
L 824.881892 361.296 
L 824.185205 354.744 
L 823.514751 348.192 
L 822.868659 341.64 
L 822.245258 335.088 
L 821.643057 328.536 
L 821.060712 321.984 
L 820.497013 315.432 
L 819.950862 308.88 
L 819.421261 302.328 
L 818.907297 295.776 
L 818.408138 289.224 
L 817.923013 282.672 
L 817.451218 276.12 
L 816.992098 269.568 
L 816.545047 263.016 
L 816.109503 256.464 
L 815.684942 249.912 
L 815.270877 243.36 
L 814.866851 236.808 
L 814.472437 230.256 
L 814.087234 223.704 
L 813.710867 217.152 
L 813.342982 210.6 
L 812.983245 204.048 
L 812.631342 197.496 
L 812.286978 190.944 
L 811.949872 184.392 
L 811.619758 177.84 
L 811.296386 171.288 
L 810.979517 164.736 
L 810.668926 158.184 
L 810.364397 151.632 
L 810.065727 145.08 
" style="fill:none;stroke:#e377c2;stroke-linecap:square;stroke-width:1.5;"/>
   </g>
   <g id="line2d_38">
    <path clip-path="url(#p8c19c96e42)" d="M 745.290291 800.28 
L 745.290291 793.728 
L 745.290291 787.176 
L 745.290291 780.624 
L 745.290291 774.072 
L 745.290291 767.52 
L 745.290291 760.968 
L 745.290291 754.416 
L 745.290291 747.864 
L 745.290291 741.312 
L 745.290291 734.76 
L 745.290291 728.208 
L 745.290291 721.656 
L 745.290291 715.104 
L 745.290291 708.552 
L 745.290291 702 
L 745.290291 695.448 
L 745.290291 688.896 
L 745.290291 682.344 
L 745.290291 675.792 
L 745.290291 669.24 
L 745.290291 662.688 
L 745.290291 656.136 
L 745.290291 649.584 
L 745.290291 643.032 
L 745.290291 636.48 
L 745.290291 629.928 
L 745.290291 623.376 
L 745.290291 616.824 
L 745.290291 610.272 
L 745.290291 603.72 
L 745.290291 597.168 
L 745.290291 590.616 
L 745.290291 584.064 
L 745.290291 577.512 
L 745.290291 570.96 
L 745.290291 564.408 
L 745.290291 557.856 
L 745.290291 551.304 
L 745.290291 544.752 
L 745.290291 538.2 
L 745.290291 531.648 
L 745.290291 525.096 
L 745.290291 518.544 
L 745.290291 511.992 
L 745.290291 505.44 
L 745.290291 498.888 
L 745.290291 492.336 
L 745.290291 485.784 
L 745.290291 479.232 
L 745.290291 472.68 
L 745.290291 466.128 
L 745.290291 459.576 
L 745.290291 453.024 
L 745.290291 446.472 
L 745.290291 439.92 
L 745.290291 433.368 
L 745.290291 426.816 
L 745.290291 420.264 
L 745.290291 413.712 
L 745.290291 407.16 
L 745.290291 400.608 
L 745.290291 394.056 
L 745.290291 387.504 
L 745.290291 380.952 
L 745.290291 374.4 
L 745.290291 367.848 
L 745.290291 361.296 
L 745.290291 354.744 
L 745.290291 348.192 
L 745.290291 341.64 
L 745.290291 335.088 
L 745.290291 328.536 
L 745.290291 321.984 
L 745.290291 315.432 
L 745.290291 308.88 
L 745.290291 302.328 
L 745.290291 295.776 
L 745.290291 289.224 
L 745.290291 282.672 
L 745.290291 276.12 
L 745.290291 269.568 
L 745.290291 263.016 
L 745.290291 256.464 
L 745.290291 249.912 
L 745.290291 243.36 
L 745.290291 236.808 
L 745.290291 230.256 
L 745.290291 223.704 
L 745.290291 217.152 
L 745.290291 210.6 
L 745.290291 204.048 
L 745.290291 197.496 
L 745.290291 190.944 
L 745.290291 184.392 
L 745.290291 177.84 
L 745.290291 171.288 
L 745.290291 164.736 
L 745.290291 158.184 
L 745.290291 151.632 
L 745.290291 145.08 
" style="fill:none;stroke:#7f7f7f;stroke-linecap:square;stroke-width:1.5;"/>
   </g>
   <g id="line2d_39">
    <path clip-path="url(#p8c19c96e42)" d="M 284.280992 800.28 
L 308.618766 793.728 
L 333.157162 787.176 
L 357.710249 780.624 
L 382.293049 774.072 
L 406.904976 767.52 
L 431.545475 760.968 
L 456.213975 754.416 
L 480.909802 747.864 
L 505.632109 741.312 
L 530.379796 734.76 
L 555.151408 728.208 
L 579.944983 721.656 
L 604.75784 715.104 
L 629.586242 708.552 
L 654.424891 702 
L 679.266122 695.448 
L 704.098616 688.896 
L 728.905317 682.344 
L 753.660022 675.792 
L 778.321666 669.24 
L 802.822774 662.688 
L 827.027862 656.136 
L 850.548653 649.584 
L 872.407628 643.032 
L 891.313052 636.48 
L 906.446465 629.928 
L 917.59997 623.376 
L 924.94731 616.824 
L 928.878837 610.272 
L 929.900826 603.72 
L 928.563979 597.168 
L 925.412189 590.616 
L 920.944976 584.064 
L 915.597029 577.512 
L 909.730864 570.96 
L 903.636305 564.408 
L 897.535221 557.856 
L 891.58946 551.304 
L 885.910241 544.752 
L 880.567763 538.2 
L 875.60022 531.648 
L 871.021771 525.096 
L 866.829263 518.544 
L 863.007701 511.992 
L 859.534545 505.44 
L 856.382976 498.888 
L 853.524296 492.336 
L 850.929634 485.784 
L 848.571087 479.232 
L 846.422452 472.68 
L 844.459635 466.128 
L 842.660835 459.576 
L 841.006572 453.024 
L 839.479612 446.472 
L 838.064822 439.92 
L 836.748993 433.368 
L 835.520649 426.816 
L 834.369845 420.264 
L 833.287985 413.712 
L 832.267647 407.16 
L 831.302418 400.608 
L 830.386756 394.056 
L 829.515867 387.504 
L 828.685588 380.952 
L 827.892303 374.4 
L 827.132852 367.848 
L 826.404471 361.296 
L 825.704728 354.744 
L 825.031478 348.192 
L 824.382816 341.64 
L 823.757048 335.088 
L 823.152659 328.536 
L 822.568285 321.984 
L 822.0027 315.432 
L 821.454791 308.88 
L 820.923547 302.328 
L 820.408045 295.776 
L 819.907441 289.224 
L 819.420958 282.672 
L 818.947883 276.12 
L 818.487554 269.568 
L 818.039362 263.016 
L 817.602737 256.464 
L 817.177152 249.912 
L 816.762115 243.36 
L 816.357166 236.808 
L 815.961874 230.256 
L 815.575835 223.704 
L 815.198672 217.152 
L 814.830027 210.6 
L 814.469566 204.048 
L 814.116972 197.496 
L 813.771947 190.944 
L 813.434209 184.392 
L 813.103492 177.84 
L 812.779541 171.288 
L 812.462119 164.736 
L 812.150997 158.184 
L 811.84596 151.632 
L 811.546803 145.08 
" style="fill:none;stroke:#bcbd22;stroke-linecap:square;stroke-width:1.5;"/>
   </g>
   <g id="line2d_40">
    <path clip-path="url(#p8c19c96e42)" d="M 745.290291 800.28 
L 745.290291 793.728 
L 745.290291 787.176 
L 745.290291 780.624 
L 745.290291 774.072 
L 745.290291 767.52 
L 745.290291 760.968 
L 745.290291 754.416 
L 745.290291 747.864 
L 745.290291 741.312 
L 745.290291 734.76 
L 745.290291 728.208 
L 745.290291 721.656 
L 745.290291 715.104 
L 745.290291 708.552 
L 745.290291 702 
L 745.290291 695.448 
L 745.290291 688.896 
L 745.290291 682.344 
L 745.290291 675.792 
L 745.290291 669.24 
L 745.290291 662.688 
L 745.290291 656.136 
L 745.290291 649.584 
L 745.290291 643.032 
L 745.290291 636.48 
L 745.290291 629.928 
L 745.290291 623.376 
L 745.290291 616.824 
L 745.290291 610.272 
L 745.290291 603.72 
L 745.290291 597.168 
L 745.290291 590.616 
L 745.290291 584.064 
L 745.290291 577.512 
L 745.290291 570.96 
L 745.290291 564.408 
L 745.290291 557.856 
L 745.290291 551.304 
L 745.290291 544.752 
L 745.290291 538.2 
L 745.290291 531.648 
L 745.290291 525.096 
L 745.290291 518.544 
L 745.290291 511.992 
L 745.290291 505.44 
L 745.290291 498.888 
L 745.290291 492.336 
L 745.290291 485.784 
L 745.290291 479.232 
L 745.290291 472.68 
L 745.290291 466.128 
L 745.290291 459.576 
L 745.290291 453.024 
L 745.290291 446.472 
L 745.290291 439.92 
L 745.290291 433.368 
L 745.290291 426.816 
L 745.290291 420.264 
L 745.290291 413.712 
L 745.290291 407.16 
L 745.290291 400.608 
L 745.290291 394.056 
L 745.290291 387.504 
L 745.290291 380.952 
L 745.290291 374.4 
L 745.290291 367.848 
L 745.290291 361.296 
L 745.290291 354.744 
L 745.290291 348.192 
L 745.290291 341.64 
L 745.290291 335.088 
L 745.290291 328.536 
L 745.290291 321.984 
L 745.290291 315.432 
L 745.290291 308.88 
L 745.290291 302.328 
L 745.290291 295.776 
L 745.290291 289.224 
L 745.290291 282.672 
L 745.290291 276.12 
L 745.290291 269.568 
L 745.290291 263.016 
L 745.290291 256.464 
L 745.290291 249.912 
L 745.290291 243.36 
L 745.290291 236.808 
L 745.290291 230.256 
L 745.290291 223.704 
L 745.290291 217.152 
L 745.290291 210.6 
L 745.290291 204.048 
L 745.290291 197.496 
L 745.290291 190.944 
L 745.290291 184.392 
L 745.290291 177.84 
L 745.290291 171.288 
L 745.290291 164.736 
L 745.290291 158.184 
L 745.290291 151.632 
L 745.290291 145.08 
" style="fill:none;stroke:#17becf;stroke-linecap:square;stroke-width:1.5;"/>
   </g>
   <g id="patch_3">
    <path d="M 252 833.04 
L 252 112.32 
" style="fill:none;stroke:#000000;stroke-linecap:square;stroke-linejoin:miter;stroke-width:0.8;"/>
   </g>
   <g id="patch_4">
    <path d="M 962.181818 833.04 
L 962.181818 112.32 
" style="fill:none;stroke:#000000;stroke-linecap:square;stroke-linejoin:miter;stroke-width:0.8;"/>
   </g>
   <g id="patch_5">
    <path d="M 252 833.04 
L 962.181818 833.04 
" style="fill:none;stroke:#000000;stroke-linecap:square;stroke-linejoin:miter;stroke-width:0.8;"/>
   </g>
   <g id="patch_6">
    <path d="M 252 112.32 
L 962.181818 112.32 
" style="fill:none;stroke:#000000;stroke-linecap:square;stroke-linejoin:miter;stroke-width:0.8;"/>
   </g>
   <g id="text_18">
    <!-- Saturation for updraft velocity= 2[m/s] -->
    <defs>
     <path d="M 53.515625 70.515625 
L 53.515625 60.890625 
Q 47.90625 63.578125 42.921875 64.890625 
Q 37.9375 66.21875 33.296875 66.21875 
Q 25.25 66.21875 20.875 63.09375 
Q 16.5 59.96875 16.5 54.203125 
Q 16.5 49.359375 19.40625 46.890625 
Q 22.3125 44.4375 30.421875 42.921875 
L 36.375 41.703125 
Q 47.40625 39.59375 52.65625 34.296875 
Q 57.90625 29 57.90625 20.125 
Q 57.90625 9.515625 50.796875 4.046875 
Q 43.703125 -1.421875 29.984375 -1.421875 
Q 24.8125 -1.421875 18.96875 -0.25 
Q 13.140625 0.921875 6.890625 3.21875 
L 6.890625 13.375 
Q 12.890625 10.015625 18.65625 8.296875 
Q 24.421875 6.59375 29.984375 6.59375 
Q 38.421875 6.59375 43.015625 9.90625 
Q 47.609375 13.234375 47.609375 19.390625 
Q 47.609375 24.75 44.3125 27.78125 
Q 41.015625 30.8125 33.5 32.328125 
L 27.484375 33.5 
Q 16.453125 35.6875 11.515625 40.375 
Q 6.59375 45.0625 6.59375 53.421875 
Q 6.59375 63.09375 13.40625 68.65625 
Q 20.21875 74.21875 32.171875 74.21875 
Q 37.3125 74.21875 42.625 73.28125 
Q 47.953125 72.359375 53.515625 70.515625 
z
" id="DejaVuSans-53"/>
     <path d="M 34.28125 27.484375 
Q 23.390625 27.484375 19.1875 25 
Q 14.984375 22.515625 14.984375 16.5 
Q 14.984375 11.71875 18.140625 8.90625 
Q 21.296875 6.109375 26.703125 6.109375 
Q 34.1875 6.109375 38.703125 11.40625 
Q 43.21875 16.703125 43.21875 25.484375 
L 43.21875 27.484375 
z
M 52.203125 31.203125 
L 52.203125 0 
L 43.21875 0 
L 43.21875 8.296875 
Q 40.140625 3.328125 35.546875 0.953125 
Q 30.953125 -1.421875 24.3125 -1.421875 
Q 15.921875 -1.421875 10.953125 3.296875 
Q 6 8.015625 6 15.921875 
Q 6 25.140625 12.171875 29.828125 
Q 18.359375 34.515625 30.609375 34.515625 
L 43.21875 34.515625 
L 43.21875 35.40625 
Q 43.21875 41.609375 39.140625 45 
Q 35.0625 48.390625 27.6875 48.390625 
Q 23 48.390625 18.546875 47.265625 
Q 14.109375 46.140625 10.015625 43.890625 
L 10.015625 52.203125 
Q 14.9375 54.109375 19.578125 55.046875 
Q 24.21875 56 28.609375 56 
Q 40.484375 56 46.34375 49.84375 
Q 52.203125 43.703125 52.203125 31.203125 
z
" id="DejaVuSans-61"/>
     <path d="M 18.3125 70.21875 
L 18.3125 54.6875 
L 36.8125 54.6875 
L 36.8125 47.703125 
L 18.3125 47.703125 
L 18.3125 18.015625 
Q 18.3125 11.328125 20.140625 9.421875 
Q 21.96875 7.515625 27.59375 7.515625 
L 36.8125 7.515625 
L 36.8125 0 
L 27.59375 0 
Q 17.1875 0 13.234375 3.875 
Q 9.28125 7.765625 9.28125 18.015625 
L 9.28125 47.703125 
L 2.6875 47.703125 
L 2.6875 54.6875 
L 9.28125 54.6875 
L 9.28125 70.21875 
z
" id="DejaVuSans-74"/>
     <path d="M 8.5 21.578125 
L 8.5 54.6875 
L 17.484375 54.6875 
L 17.484375 21.921875 
Q 17.484375 14.15625 20.5 10.265625 
Q 23.53125 6.390625 29.59375 6.390625 
Q 36.859375 6.390625 41.078125 11.03125 
Q 45.3125 15.671875 45.3125 23.6875 
L 45.3125 54.6875 
L 54.296875 54.6875 
L 54.296875 0 
L 45.3125 0 
L 45.3125 8.40625 
Q 42.046875 3.421875 37.71875 1 
Q 33.40625 -1.421875 27.6875 -1.421875 
Q 18.265625 -1.421875 13.375 4.4375 
Q 8.5 10.296875 8.5 21.578125 
z
M 31.109375 56 
z
" id="DejaVuSans-75"/>
     <path d="M 41.109375 46.296875 
Q 39.59375 47.171875 37.8125 47.578125 
Q 36.03125 48 33.890625 48 
Q 26.265625 48 22.1875 43.046875 
Q 18.109375 38.09375 18.109375 28.8125 
L 18.109375 0 
L 9.078125 0 
L 9.078125 54.6875 
L 18.109375 54.6875 
L 18.109375 46.1875 
Q 20.953125 51.171875 25.484375 53.578125 
Q 30.03125 56 36.53125 56 
Q 37.453125 56 38.578125 55.875 
Q 39.703125 55.765625 41.0625 55.515625 
z
" id="DejaVuSans-72"/>
     <path d="M 9.421875 54.6875 
L 18.40625 54.6875 
L 18.40625 0 
L 9.421875 0 
z
M 9.421875 75.984375 
L 18.40625 75.984375 
L 18.40625 64.59375 
L 9.421875 64.59375 
z
" id="DejaVuSans-69"/>
     <path d="M 30.609375 48.390625 
Q 23.390625 48.390625 19.1875 42.75 
Q 14.984375 37.109375 14.984375 27.296875 
Q 14.984375 17.484375 19.15625 11.84375 
Q 23.34375 6.203125 30.609375 6.203125 
Q 37.796875 6.203125 41.984375 11.859375 
Q 46.1875 17.53125 46.1875 27.296875 
Q 46.1875 37.015625 41.984375 42.703125 
Q 37.796875 48.390625 30.609375 48.390625 
z
M 30.609375 56 
Q 42.328125 56 49.015625 48.375 
Q 55.71875 40.765625 55.71875 27.296875 
Q 55.71875 13.875 49.015625 6.21875 
Q 42.328125 -1.421875 30.609375 -1.421875 
Q 18.84375 -1.421875 12.171875 6.21875 
Q 5.515625 13.875 5.515625 27.296875 
Q 5.515625 40.765625 12.171875 48.375 
Q 18.84375 56 30.609375 56 
z
" id="DejaVuSans-6f"/>
     <path d="M 54.890625 33.015625 
L 54.890625 0 
L 45.90625 0 
L 45.90625 32.71875 
Q 45.90625 40.484375 42.875 44.328125 
Q 39.84375 48.1875 33.796875 48.1875 
Q 26.515625 48.1875 22.3125 43.546875 
Q 18.109375 38.921875 18.109375 30.90625 
L 18.109375 0 
L 9.078125 0 
L 9.078125 54.6875 
L 18.109375 54.6875 
L 18.109375 46.1875 
Q 21.34375 51.125 25.703125 53.5625 
Q 30.078125 56 35.796875 56 
Q 45.21875 56 50.046875 50.171875 
Q 54.890625 44.34375 54.890625 33.015625 
z
" id="DejaVuSans-6e"/>
     <path d="M 37.109375 75.984375 
L 37.109375 68.5 
L 28.515625 68.5 
Q 23.6875 68.5 21.796875 66.546875 
Q 19.921875 64.59375 19.921875 59.515625 
L 19.921875 54.6875 
L 34.71875 54.6875 
L 34.71875 47.703125 
L 19.921875 47.703125 
L 19.921875 0 
L 10.890625 0 
L 10.890625 47.703125 
L 2.296875 47.703125 
L 2.296875 54.6875 
L 10.890625 54.6875 
L 10.890625 58.5 
Q 10.890625 67.625 15.140625 71.796875 
Q 19.390625 75.984375 28.609375 75.984375 
z
" id="DejaVuSans-66"/>
     <path d="M 18.109375 8.203125 
L 18.109375 -20.796875 
L 9.078125 -20.796875 
L 9.078125 54.6875 
L 18.109375 54.6875 
L 18.109375 46.390625 
Q 20.953125 51.265625 25.265625 53.625 
Q 29.59375 56 35.59375 56 
Q 45.5625 56 51.78125 48.09375 
Q 58.015625 40.1875 58.015625 27.296875 
Q 58.015625 14.40625 51.78125 6.484375 
Q 45.5625 -1.421875 35.59375 -1.421875 
Q 29.59375 -1.421875 25.265625 0.953125 
Q 20.953125 3.328125 18.109375 8.203125 
z
M 48.6875 27.296875 
Q 48.6875 37.203125 44.609375 42.84375 
Q 40.53125 48.484375 33.40625 48.484375 
Q 26.265625 48.484375 22.1875 42.84375 
Q 18.109375 37.203125 18.109375 27.296875 
Q 18.109375 17.390625 22.1875 11.75 
Q 26.265625 6.109375 33.40625 6.109375 
Q 40.53125 6.109375 44.609375 11.75 
Q 48.6875 17.390625 48.6875 27.296875 
z
" id="DejaVuSans-70"/>
     <path d="M 45.40625 46.390625 
L 45.40625 75.984375 
L 54.390625 75.984375 
L 54.390625 0 
L 45.40625 0 
L 45.40625 8.203125 
Q 42.578125 3.328125 38.25 0.953125 
Q 33.9375 -1.421875 27.875 -1.421875 
Q 17.96875 -1.421875 11.734375 6.484375 
Q 5.515625 14.40625 5.515625 27.296875 
Q 5.515625 40.1875 11.734375 48.09375 
Q 17.96875 56 27.875 56 
Q 33.9375 56 38.25 53.625 
Q 42.578125 51.265625 45.40625 46.390625 
z
M 14.796875 27.296875 
Q 14.796875 17.390625 18.875 11.75 
Q 22.953125 6.109375 30.078125 6.109375 
Q 37.203125 6.109375 41.296875 11.75 
Q 45.40625 17.390625 45.40625 27.296875 
Q 45.40625 37.203125 41.296875 42.84375 
Q 37.203125 48.484375 30.078125 48.484375 
Q 22.953125 48.484375 18.875 42.84375 
Q 14.796875 37.203125 14.796875 27.296875 
z
" id="DejaVuSans-64"/>
     <path d="M 2.984375 54.6875 
L 12.5 54.6875 
L 29.59375 8.796875 
L 46.6875 54.6875 
L 56.203125 54.6875 
L 35.6875 0 
L 23.484375 0 
z
" id="DejaVuSans-76"/>
     <path d="M 56.203125 29.59375 
L 56.203125 25.203125 
L 14.890625 25.203125 
Q 15.484375 15.921875 20.484375 11.0625 
Q 25.484375 6.203125 34.421875 6.203125 
Q 39.59375 6.203125 44.453125 7.46875 
Q 49.3125 8.734375 54.109375 11.28125 
L 54.109375 2.78125 
Q 49.265625 0.734375 44.1875 -0.34375 
Q 39.109375 -1.421875 33.890625 -1.421875 
Q 20.796875 -1.421875 13.15625 6.1875 
Q 5.515625 13.8125 5.515625 26.8125 
Q 5.515625 40.234375 12.765625 48.109375 
Q 20.015625 56 32.328125 56 
Q 43.359375 56 49.78125 48.890625 
Q 56.203125 41.796875 56.203125 29.59375 
z
M 47.21875 32.234375 
Q 47.125 39.59375 43.09375 43.984375 
Q 39.0625 48.390625 32.421875 48.390625 
Q 24.90625 48.390625 20.390625 44.140625 
Q 15.875 39.890625 15.1875 32.171875 
z
" id="DejaVuSans-65"/>
     <path d="M 9.421875 75.984375 
L 18.40625 75.984375 
L 18.40625 0 
L 9.421875 0 
z
" id="DejaVuSans-6c"/>
     <path d="M 48.78125 52.59375 
L 48.78125 44.1875 
Q 44.96875 46.296875 41.140625 47.34375 
Q 37.3125 48.390625 33.40625 48.390625 
Q 24.65625 48.390625 19.8125 42.84375 
Q 14.984375 37.3125 14.984375 27.296875 
Q 14.984375 17.28125 19.8125 11.734375 
Q 24.65625 6.203125 33.40625 6.203125 
Q 37.3125 6.203125 41.140625 7.25 
Q 44.96875 8.296875 48.78125 10.40625 
L 48.78125 2.09375 
Q 45.015625 0.34375 40.984375 -0.53125 
Q 36.96875 -1.421875 32.421875 -1.421875 
Q 20.0625 -1.421875 12.78125 6.34375 
Q 5.515625 14.109375 5.515625 27.296875 
Q 5.515625 40.671875 12.859375 48.328125 
Q 20.21875 56 33.015625 56 
Q 37.15625 56 41.109375 55.140625 
Q 45.0625 54.296875 48.78125 52.59375 
z
" id="DejaVuSans-63"/>
     <path d="M 32.171875 -5.078125 
Q 28.375 -14.84375 24.75 -17.8125 
Q 21.140625 -20.796875 15.09375 -20.796875 
L 7.90625 -20.796875 
L 7.90625 -13.28125 
L 13.1875 -13.28125 
Q 16.890625 -13.28125 18.9375 -11.515625 
Q 21 -9.765625 23.484375 -3.21875 
L 25.09375 0.875 
L 2.984375 54.6875 
L 12.5 54.6875 
L 29.59375 11.921875 
L 46.6875 54.6875 
L 56.203125 54.6875 
z
" id="DejaVuSans-79"/>
     <path d="M 10.59375 45.40625 
L 73.1875 45.40625 
L 73.1875 37.203125 
L 10.59375 37.203125 
z
M 10.59375 25.484375 
L 73.1875 25.484375 
L 73.1875 17.1875 
L 10.59375 17.1875 
z
" id="DejaVuSans-3d"/>
     <path d="M 25.390625 72.90625 
L 33.6875 72.90625 
L 8.296875 -9.28125 
L 0 -9.28125 
z
" id="DejaVuSans-2f"/>
     <path d="M 44.28125 53.078125 
L 44.28125 44.578125 
Q 40.484375 46.53125 36.375 47.5 
Q 32.28125 48.484375 27.875 48.484375 
Q 21.1875 48.484375 17.84375 46.4375 
Q 14.5 44.390625 14.5 40.28125 
Q 14.5 37.15625 16.890625 35.375 
Q 19.28125 33.59375 26.515625 31.984375 
L 29.59375 31.296875 
Q 39.15625 29.25 43.1875 25.515625 
Q 47.21875 21.78125 47.21875 15.09375 
Q 47.21875 7.46875 41.1875 3.015625 
Q 35.15625 -1.421875 24.609375 -1.421875 
Q 20.21875 -1.421875 15.453125 -0.5625 
Q 10.6875 0.296875 5.421875 2 
L 5.421875 11.28125 
Q 10.40625 8.6875 15.234375 7.390625 
Q 20.0625 6.109375 24.8125 6.109375 
Q 31.15625 6.109375 34.5625 8.28125 
Q 37.984375 10.453125 37.984375 14.40625 
Q 37.984375 18.0625 35.515625 20.015625 
Q 33.0625 21.96875 24.703125 23.78125 
L 21.578125 24.515625 
Q 13.234375 26.265625 9.515625 29.90625 
Q 5.8125 33.546875 5.8125 39.890625 
Q 5.8125 47.609375 11.28125 51.796875 
Q 16.75 56 26.8125 56 
Q 31.78125 56 36.171875 55.265625 
Q 40.578125 54.546875 44.28125 53.078125 
z
" id="DejaVuSans-73"/>
    </defs>
    <g transform="translate(396.219222 106.32)scale(0.216 -0.216)">
     <use xlink:href="#DejaVuSans-53"/>
     <use x="63.476562" xlink:href="#DejaVuSans-61"/>
     <use x="124.755859" xlink:href="#DejaVuSans-74"/>
     <use x="163.964844" xlink:href="#DejaVuSans-75"/>
     <use x="227.34375" xlink:href="#DejaVuSans-72"/>
     <use x="268.457031" xlink:href="#DejaVuSans-61"/>
     <use x="329.736328" xlink:href="#DejaVuSans-74"/>
     <use x="368.945312" xlink:href="#DejaVuSans-69"/>
     <use x="396.728516" xlink:href="#DejaVuSans-6f"/>
     <use x="457.910156" xlink:href="#DejaVuSans-6e"/>
     <use x="521.289062" xlink:href="#DejaVuSans-20"/>
     <use x="553.076172" xlink:href="#DejaVuSans-66"/>
     <use x="588.28125" xlink:href="#DejaVuSans-6f"/>
     <use x="649.462891" xlink:href="#DejaVuSans-72"/>
     <use x="690.576172" xlink:href="#DejaVuSans-20"/>
     <use x="722.363281" xlink:href="#DejaVuSans-75"/>
     <use x="785.742188" xlink:href="#DejaVuSans-70"/>
     <use x="849.21875" xlink:href="#DejaVuSans-64"/>
     <use x="912.695312" xlink:href="#DejaVuSans-72"/>
     <use x="953.808594" xlink:href="#DejaVuSans-61"/>
     <use x="1015.087891" xlink:href="#DejaVuSans-66"/>
     <use x="1050.277344" xlink:href="#DejaVuSans-74"/>
     <use x="1089.486328" xlink:href="#DejaVuSans-20"/>
     <use x="1121.273438" xlink:href="#DejaVuSans-76"/>
     <use x="1180.453125" xlink:href="#DejaVuSans-65"/>
     <use x="1241.976562" xlink:href="#DejaVuSans-6c"/>
     <use x="1269.759766" xlink:href="#DejaVuSans-6f"/>
     <use x="1330.941406" xlink:href="#DejaVuSans-63"/>
     <use x="1385.921875" xlink:href="#DejaVuSans-69"/>
     <use x="1413.705078" xlink:href="#DejaVuSans-74"/>
     <use x="1452.914062" xlink:href="#DejaVuSans-79"/>
     <use x="1512.09375" xlink:href="#DejaVuSans-3d"/>
     <use x="1595.882812" xlink:href="#DejaVuSans-20"/>
     <use x="1627.669922" xlink:href="#DejaVuSans-32"/>
     <use x="1691.292969" xlink:href="#DejaVuSans-5b"/>
     <use x="1730.306641" xlink:href="#DejaVuSans-6d"/>
     <use x="1827.71875" xlink:href="#DejaVuSans-2f"/>
     <use x="1861.410156" xlink:href="#DejaVuSans-73"/>
     <use x="1913.509766" xlink:href="#DejaVuSans-5d"/>
    </g>
   </g>
   <g id="legend_1">
    <g id="patch_7">
     <path d="M 264.6 285.24375 
L 486.63 285.24375 
Q 490.23 285.24375 490.23 281.64375 
L 490.23 124.92 
Q 490.23 121.32 486.63 121.32 
L 264.6 121.32 
Q 261 121.32 261 124.92 
L 261 281.64375 
Q 261 285.24375 264.6 285.24375 
z
" style="fill:#ffffff;opacity:0.8;stroke:#cccccc;stroke-linejoin:miter;"/>
    </g>
    <g id="text_19">
     <!-- Condensation time step -->
     <defs>
      <path d="M 64.40625 67.28125 
L 64.40625 56.890625 
Q 59.421875 61.53125 53.78125 63.8125 
Q 48.140625 66.109375 41.796875 66.109375 
Q 29.296875 66.109375 22.65625 58.46875 
Q 16.015625 50.828125 16.015625 36.375 
Q 16.015625 21.96875 22.65625 14.328125 
Q 29.296875 6.6875 41.796875 6.6875 
Q 48.140625 6.6875 53.78125 8.984375 
Q 59.421875 11.28125 64.40625 15.921875 
L 64.40625 5.609375 
Q 59.234375 2.09375 53.4375 0.328125 
Q 47.65625 -1.421875 41.21875 -1.421875 
Q 24.65625 -1.421875 15.125 8.703125 
Q 5.609375 18.84375 5.609375 36.375 
Q 5.609375 53.953125 15.125 64.078125 
Q 24.65625 74.21875 41.21875 74.21875 
Q 47.75 74.21875 53.53125 72.484375 
Q 59.328125 70.75 64.40625 67.28125 
z
" id="DejaVuSans-43"/>
     </defs>
     <g transform="translate(268.2 142.197188)scale(0.18 -0.18)">
      <use xlink:href="#DejaVuSans-43"/>
      <use x="69.824219" xlink:href="#DejaVuSans-6f"/>
      <use x="131.005859" xlink:href="#DejaVuSans-6e"/>
      <use x="194.384766" xlink:href="#DejaVuSans-64"/>
      <use x="257.861328" xlink:href="#DejaVuSans-65"/>
      <use x="319.384766" xlink:href="#DejaVuSans-6e"/>
      <use x="382.763672" xlink:href="#DejaVuSans-73"/>
      <use x="434.863281" xlink:href="#DejaVuSans-61"/>
      <use x="496.142578" xlink:href="#DejaVuSans-74"/>
      <use x="535.351562" xlink:href="#DejaVuSans-69"/>
      <use x="563.134766" xlink:href="#DejaVuSans-6f"/>
      <use x="624.316406" xlink:href="#DejaVuSans-6e"/>
      <use x="687.695312" xlink:href="#DejaVuSans-20"/>
      <use x="719.482422" xlink:href="#DejaVuSans-74"/>
      <use x="758.691406" xlink:href="#DejaVuSans-69"/>
      <use x="786.474609" xlink:href="#DejaVuSans-6d"/>
      <use x="883.886719" xlink:href="#DejaVuSans-65"/>
      <use x="945.410156" xlink:href="#DejaVuSans-20"/>
      <use x="977.197266" xlink:href="#DejaVuSans-73"/>
      <use x="1029.296875" xlink:href="#DejaVuSans-74"/>
      <use x="1068.505859" xlink:href="#DejaVuSans-65"/>
      <use x="1130.029297" xlink:href="#DejaVuSans-70"/>
     </g>
    </g>
    <g id="line2d_41">
     <path d="M 330.204375 162.317813 
L 366.204375 162.317813 
" style="fill:none;stroke:#1f77b4;stroke-linecap:square;stroke-width:1.5;"/>
    </g>
    <g id="line2d_42"/>
    <g id="text_20">
     <!-- 1/1 -->
     <g transform="translate(380.604375 168.617813)scale(0.18 -0.18)">
      <use xlink:href="#DejaVuSans-31"/>
      <use x="63.623047" xlink:href="#DejaVuSans-2f"/>
      <use x="97.314453" xlink:href="#DejaVuSans-31"/>
     </g>
    </g>
    <g id="line2d_43">
     <path d="M 330.204375 188.738438 
L 366.204375 188.738438 
" style="fill:none;stroke:#2ca02c;stroke-linecap:square;stroke-width:1.5;"/>
    </g>
    <g id="line2d_44"/>
    <g id="text_21">
     <!-- 1/2 -->
     <g transform="translate(380.604375 195.038438)scale(0.18 -0.18)">
      <use xlink:href="#DejaVuSans-31"/>
      <use x="63.623047" xlink:href="#DejaVuSans-2f"/>
      <use x="97.314453" xlink:href="#DejaVuSans-32"/>
     </g>
    </g>
    <g id="line2d_45">
     <path d="M 330.204375 215.159063 
L 366.204375 215.159063 
" style="fill:none;stroke:#9467bd;stroke-linecap:square;stroke-width:1.5;"/>
    </g>
    <g id="line2d_46"/>
    <g id="text_22">
     <!-- 1/5 -->
     <g transform="translate(380.604375 221.459063)scale(0.18 -0.18)">
      <use xlink:href="#DejaVuSans-31"/>
      <use x="63.623047" xlink:href="#DejaVuSans-2f"/>
      <use x="97.314453" xlink:href="#DejaVuSans-35"/>
     </g>
    </g>
    <g id="line2d_47">
     <path d="M 330.204375 241.579688 
L 366.204375 241.579688 
" style="fill:none;stroke:#e377c2;stroke-linecap:square;stroke-width:1.5;"/>
    </g>
    <g id="line2d_48"/>
    <g id="text_23">
     <!-- 1/10 -->
     <g transform="translate(380.604375 247.879688)scale(0.18 -0.18)">
      <use xlink:href="#DejaVuSans-31"/>
      <use x="63.623047" xlink:href="#DejaVuSans-2f"/>
      <use x="97.314453" xlink:href="#DejaVuSans-31"/>
      <use x="160.9375" xlink:href="#DejaVuSans-30"/>
     </g>
    </g>
    <g id="line2d_49">
     <path d="M 330.204375 268.000313 
L 366.204375 268.000313 
" style="fill:none;stroke:#bcbd22;stroke-linecap:square;stroke-width:1.5;"/>
    </g>
    <g id="line2d_50"/>
    <g id="text_24">
     <!-- 1/20 -->
     <g transform="translate(380.604375 274.300313)scale(0.18 -0.18)">
      <use xlink:href="#DejaVuSans-31"/>
      <use x="63.623047" xlink:href="#DejaVuSans-2f"/>
      <use x="97.314453" xlink:href="#DejaVuSans-32"/>
      <use x="160.9375" xlink:href="#DejaVuSans-30"/>
     </g>
    </g>
   </g>
  </g>
  <g id="axes_2">
   <g id="patch_8">
    <path d="M 1104.218182 833.04 
L 1814.4 833.04 
L 1814.4 112.32 
L 1104.218182 112.32 
z
" style="fill:#ffffff;"/>
   </g>
   <g id="matplotlib.axis_3">
    <g id="xtick_7">
     <g id="line2d_51">
      <path clip-path="url(#pa77fb971bc)" d="M 1116.082523 833.04 
L 1116.082523 112.32 
" style="fill:none;stroke:#b0b0b0;stroke-linecap:square;stroke-width:0.8;"/>
     </g>
     <g id="line2d_52">
      <g>
       <use style="stroke:#000000;stroke-width:0.8;" x="1116.082523" xlink:href="#m971483de22" y="833.04"/>
      </g>
     </g>
     <g id="text_25">
      <!-- 0.00 -->
      <g transform="translate(1096.043461 853.717188)scale(0.18 -0.18)">
       <use xlink:href="#DejaVuSans-30"/>
       <use x="63.623047" xlink:href="#DejaVuSans-2e"/>
       <use x="95.410156" xlink:href="#DejaVuSans-30"/>
       <use x="159.033203" xlink:href="#DejaVuSans-30"/>
      </g>
     </g>
    </g>
    <g id="xtick_8">
     <g id="line2d_53">
      <path clip-path="url(#pa77fb971bc)" d="M 1213.232739 833.04 
L 1213.232739 112.32 
" style="fill:none;stroke:#b0b0b0;stroke-linecap:square;stroke-width:0.8;"/>
     </g>
     <g id="line2d_54">
      <g>
       <use style="stroke:#000000;stroke-width:0.8;" x="1213.232739" xlink:href="#m971483de22" y="833.04"/>
      </g>
     </g>
     <g id="text_26">
      <!-- 0.25 -->
      <g transform="translate(1193.193677 853.717188)scale(0.18 -0.18)">
       <use xlink:href="#DejaVuSans-30"/>
       <use x="63.623047" xlink:href="#DejaVuSans-2e"/>
       <use x="95.410156" xlink:href="#DejaVuSans-32"/>
       <use x="159.033203" xlink:href="#DejaVuSans-35"/>
      </g>
     </g>
    </g>
    <g id="xtick_9">
     <g id="line2d_55">
      <path clip-path="url(#pa77fb971bc)" d="M 1310.382955 833.04 
L 1310.382955 112.32 
" style="fill:none;stroke:#b0b0b0;stroke-linecap:square;stroke-width:0.8;"/>
     </g>
     <g id="line2d_56">
      <g>
       <use style="stroke:#000000;stroke-width:0.8;" x="1310.382955" xlink:href="#m971483de22" y="833.04"/>
      </g>
     </g>
     <g id="text_27">
      <!-- 0.50 -->
      <g transform="translate(1290.343893 853.717188)scale(0.18 -0.18)">
       <use xlink:href="#DejaVuSans-30"/>
       <use x="63.623047" xlink:href="#DejaVuSans-2e"/>
       <use x="95.410156" xlink:href="#DejaVuSans-35"/>
       <use x="159.033203" xlink:href="#DejaVuSans-30"/>
      </g>
     </g>
    </g>
    <g id="xtick_10">
     <g id="line2d_57">
      <path clip-path="url(#pa77fb971bc)" d="M 1407.533171 833.04 
L 1407.533171 112.32 
" style="fill:none;stroke:#b0b0b0;stroke-linecap:square;stroke-width:0.8;"/>
     </g>
     <g id="line2d_58">
      <g>
       <use style="stroke:#000000;stroke-width:0.8;" x="1407.533171" xlink:href="#m971483de22" y="833.04"/>
      </g>
     </g>
     <g id="text_28">
      <!-- 0.75 -->
      <g transform="translate(1387.494108 853.717188)scale(0.18 -0.18)">
       <use xlink:href="#DejaVuSans-30"/>
       <use x="63.623047" xlink:href="#DejaVuSans-2e"/>
       <use x="95.410156" xlink:href="#DejaVuSans-37"/>
       <use x="159.033203" xlink:href="#DejaVuSans-35"/>
      </g>
     </g>
    </g>
    <g id="xtick_11">
     <g id="line2d_59">
      <path clip-path="url(#pa77fb971bc)" d="M 1504.683387 833.04 
L 1504.683387 112.32 
" style="fill:none;stroke:#b0b0b0;stroke-linecap:square;stroke-width:0.8;"/>
     </g>
     <g id="line2d_60">
      <g>
       <use style="stroke:#000000;stroke-width:0.8;" x="1504.683387" xlink:href="#m971483de22" y="833.04"/>
      </g>
     </g>
     <g id="text_29">
      <!-- 1.00 -->
      <g transform="translate(1484.644324 853.717188)scale(0.18 -0.18)">
       <use xlink:href="#DejaVuSans-31"/>
       <use x="63.623047" xlink:href="#DejaVuSans-2e"/>
       <use x="95.410156" xlink:href="#DejaVuSans-30"/>
       <use x="159.033203" xlink:href="#DejaVuSans-30"/>
      </g>
     </g>
    </g>
    <g id="xtick_12">
     <g id="line2d_61">
      <path clip-path="url(#pa77fb971bc)" d="M 1601.833603 833.04 
L 1601.833603 112.32 
" style="fill:none;stroke:#b0b0b0;stroke-linecap:square;stroke-width:0.8;"/>
     </g>
     <g id="line2d_62">
      <g>
       <use style="stroke:#000000;stroke-width:0.8;" x="1601.833603" xlink:href="#m971483de22" y="833.04"/>
      </g>
     </g>
     <g id="text_30">
      <!-- 1.25 -->
      <g transform="translate(1581.79454 853.717188)scale(0.18 -0.18)">
       <use xlink:href="#DejaVuSans-31"/>
       <use x="63.623047" xlink:href="#DejaVuSans-2e"/>
       <use x="95.410156" xlink:href="#DejaVuSans-32"/>
       <use x="159.033203" xlink:href="#DejaVuSans-35"/>
      </g>
     </g>
    </g>
    <g id="xtick_13">
     <g id="line2d_63">
      <path clip-path="url(#pa77fb971bc)" d="M 1698.983819 833.04 
L 1698.983819 112.32 
" style="fill:none;stroke:#b0b0b0;stroke-linecap:square;stroke-width:0.8;"/>
     </g>
     <g id="line2d_64">
      <g>
       <use style="stroke:#000000;stroke-width:0.8;" x="1698.983819" xlink:href="#m971483de22" y="833.04"/>
      </g>
     </g>
     <g id="text_31">
      <!-- 1.50 -->
      <g transform="translate(1678.944756 853.717188)scale(0.18 -0.18)">
       <use xlink:href="#DejaVuSans-31"/>
       <use x="63.623047" xlink:href="#DejaVuSans-2e"/>
       <use x="95.410156" xlink:href="#DejaVuSans-35"/>
       <use x="159.033203" xlink:href="#DejaVuSans-30"/>
      </g>
     </g>
    </g>
    <g id="xtick_14">
     <g id="line2d_65">
      <path clip-path="url(#pa77fb971bc)" d="M 1796.134034 833.04 
L 1796.134034 112.32 
" style="fill:none;stroke:#b0b0b0;stroke-linecap:square;stroke-width:0.8;"/>
     </g>
     <g id="line2d_66">
      <g>
       <use style="stroke:#000000;stroke-width:0.8;" x="1796.134034" xlink:href="#m971483de22" y="833.04"/>
      </g>
     </g>
     <g id="text_32">
      <!-- 1.75 -->
      <g transform="translate(1776.094972 853.717188)scale(0.18 -0.18)">
       <use xlink:href="#DejaVuSans-31"/>
       <use x="63.623047" xlink:href="#DejaVuSans-2e"/>
       <use x="95.410156" xlink:href="#DejaVuSans-37"/>
       <use x="159.033203" xlink:href="#DejaVuSans-35"/>
      </g>
     </g>
    </g>
    <g id="text_33">
     <!-- Moment 0 -->
     <defs>
      <path d="M 9.8125 72.90625 
L 24.515625 72.90625 
L 43.109375 23.296875 
L 61.8125 72.90625 
L 76.515625 72.90625 
L 76.515625 0 
L 66.890625 0 
L 66.890625 64.015625 
L 48.09375 14.015625 
L 38.1875 14.015625 
L 19.390625 64.015625 
L 19.390625 0 
L 9.8125 0 
z
" id="DejaVuSans-4d"/>
     </defs>
     <g transform="translate(1413.913935 875.137812)scale(0.18 -0.18)">
      <use xlink:href="#DejaVuSans-4d"/>
      <use x="86.279297" xlink:href="#DejaVuSans-6f"/>
      <use x="147.460938" xlink:href="#DejaVuSans-6d"/>
      <use x="244.873047" xlink:href="#DejaVuSans-65"/>
      <use x="306.396484" xlink:href="#DejaVuSans-6e"/>
      <use x="369.775391" xlink:href="#DejaVuSans-74"/>
      <use x="408.984375" xlink:href="#DejaVuSans-20"/>
      <use x="440.771484" xlink:href="#DejaVuSans-30"/>
     </g>
    </g>
    <g id="text_34">
     <!-- 1e8 -->
     <g transform="translate(1780.419375 874.137812)scale(0.18 -0.18)">
      <use xlink:href="#DejaVuSans-31"/>
      <use x="63.623047" xlink:href="#DejaVuSans-65"/>
      <use x="125.146484" xlink:href="#DejaVuSans-38"/>
     </g>
    </g>
   </g>
   <g id="matplotlib.axis_4">
    <g id="ytick_10">
     <g id="line2d_67">
      <path clip-path="url(#pa77fb971bc)" d="M 1104.218182 800.28 
L 1814.4 800.28 
" style="fill:none;stroke:#b0b0b0;stroke-linecap:square;stroke-width:0.8;"/>
     </g>
     <g id="line2d_68">
      <g>
       <use style="stroke:#000000;stroke-width:0.8;" x="1104.218182" xlink:href="#m6a433e8d80" y="800.28"/>
      </g>
     </g>
     <g id="text_35">
      <!-- 0 -->
      <g transform="translate(1085.765682 807.118594)scale(0.18 -0.18)">
       <use xlink:href="#DejaVuSans-30"/>
      </g>
     </g>
    </g>
    <g id="ytick_11">
     <g id="line2d_69">
      <path clip-path="url(#pa77fb971bc)" d="M 1104.218182 718.38 
L 1814.4 718.38 
" style="fill:none;stroke:#b0b0b0;stroke-linecap:square;stroke-width:0.8;"/>
     </g>
     <g id="line2d_70">
      <g>
       <use style="stroke:#000000;stroke-width:0.8;" x="1104.218182" xlink:href="#m6a433e8d80" y="718.38"/>
      </g>
     </g>
     <g id="text_36">
      <!-- 25 -->
      <g transform="translate(1074.313182 725.218594)scale(0.18 -0.18)">
       <use xlink:href="#DejaVuSans-32"/>
       <use x="63.623047" xlink:href="#DejaVuSans-35"/>
      </g>
     </g>
    </g>
    <g id="ytick_12">
     <g id="line2d_71">
      <path clip-path="url(#pa77fb971bc)" d="M 1104.218182 636.48 
L 1814.4 636.48 
" style="fill:none;stroke:#b0b0b0;stroke-linecap:square;stroke-width:0.8;"/>
     </g>
     <g id="line2d_72">
      <g>
       <use style="stroke:#000000;stroke-width:0.8;" x="1104.218182" xlink:href="#m6a433e8d80" y="636.48"/>
      </g>
     </g>
     <g id="text_37">
      <!-- 50 -->
      <g transform="translate(1074.313182 643.318594)scale(0.18 -0.18)">
       <use xlink:href="#DejaVuSans-35"/>
       <use x="63.623047" xlink:href="#DejaVuSans-30"/>
      </g>
     </g>
    </g>
    <g id="ytick_13">
     <g id="line2d_73">
      <path clip-path="url(#pa77fb971bc)" d="M 1104.218182 554.58 
L 1814.4 554.58 
" style="fill:none;stroke:#b0b0b0;stroke-linecap:square;stroke-width:0.8;"/>
     </g>
     <g id="line2d_74">
      <g>
       <use style="stroke:#000000;stroke-width:0.8;" x="1104.218182" xlink:href="#m6a433e8d80" y="554.58"/>
      </g>
     </g>
     <g id="text_38">
      <!-- 75 -->
      <g transform="translate(1074.313182 561.418594)scale(0.18 -0.18)">
       <use xlink:href="#DejaVuSans-37"/>
       <use x="63.623047" xlink:href="#DejaVuSans-35"/>
      </g>
     </g>
    </g>
    <g id="ytick_14">
     <g id="line2d_75">
      <path clip-path="url(#pa77fb971bc)" d="M 1104.218182 472.68 
L 1814.4 472.68 
" style="fill:none;stroke:#b0b0b0;stroke-linecap:square;stroke-width:0.8;"/>
     </g>
     <g id="line2d_76">
      <g>
       <use style="stroke:#000000;stroke-width:0.8;" x="1104.218182" xlink:href="#m6a433e8d80" y="472.68"/>
      </g>
     </g>
     <g id="text_39">
      <!-- 100 -->
      <g transform="translate(1062.860682 479.518594)scale(0.18 -0.18)">
       <use xlink:href="#DejaVuSans-31"/>
       <use x="63.623047" xlink:href="#DejaVuSans-30"/>
       <use x="127.246094" xlink:href="#DejaVuSans-30"/>
      </g>
     </g>
    </g>
    <g id="ytick_15">
     <g id="line2d_77">
      <path clip-path="url(#pa77fb971bc)" d="M 1104.218182 390.78 
L 1814.4 390.78 
" style="fill:none;stroke:#b0b0b0;stroke-linecap:square;stroke-width:0.8;"/>
     </g>
     <g id="line2d_78">
      <g>
       <use style="stroke:#000000;stroke-width:0.8;" x="1104.218182" xlink:href="#m6a433e8d80" y="390.78"/>
      </g>
     </g>
     <g id="text_40">
      <!-- 125 -->
      <g transform="translate(1062.860682 397.618594)scale(0.18 -0.18)">
       <use xlink:href="#DejaVuSans-31"/>
       <use x="63.623047" xlink:href="#DejaVuSans-32"/>
       <use x="127.246094" xlink:href="#DejaVuSans-35"/>
      </g>
     </g>
    </g>
    <g id="ytick_16">
     <g id="line2d_79">
      <path clip-path="url(#pa77fb971bc)" d="M 1104.218182 308.88 
L 1814.4 308.88 
" style="fill:none;stroke:#b0b0b0;stroke-linecap:square;stroke-width:0.8;"/>
     </g>
     <g id="line2d_80">
      <g>
       <use style="stroke:#000000;stroke-width:0.8;" x="1104.218182" xlink:href="#m6a433e8d80" y="308.88"/>
      </g>
     </g>
     <g id="text_41">
      <!-- 150 -->
      <g transform="translate(1062.860682 315.718594)scale(0.18 -0.18)">
       <use xlink:href="#DejaVuSans-31"/>
       <use x="63.623047" xlink:href="#DejaVuSans-35"/>
       <use x="127.246094" xlink:href="#DejaVuSans-30"/>
      </g>
     </g>
    </g>
    <g id="ytick_17">
     <g id="line2d_81">
      <path clip-path="url(#pa77fb971bc)" d="M 1104.218182 226.98 
L 1814.4 226.98 
" style="fill:none;stroke:#b0b0b0;stroke-linecap:square;stroke-width:0.8;"/>
     </g>
     <g id="line2d_82">
      <g>
       <use style="stroke:#000000;stroke-width:0.8;" x="1104.218182" xlink:href="#m6a433e8d80" y="226.98"/>
      </g>
     </g>
     <g id="text_42">
      <!-- 175 -->
      <g transform="translate(1062.860682 233.818594)scale(0.18 -0.18)">
       <use xlink:href="#DejaVuSans-31"/>
       <use x="63.623047" xlink:href="#DejaVuSans-37"/>
       <use x="127.246094" xlink:href="#DejaVuSans-35"/>
      </g>
     </g>
    </g>
    <g id="ytick_18">
     <g id="line2d_83">
      <path clip-path="url(#pa77fb971bc)" d="M 1104.218182 145.08 
L 1814.4 145.08 
" style="fill:none;stroke:#b0b0b0;stroke-linecap:square;stroke-width:0.8;"/>
     </g>
     <g id="line2d_84">
      <g>
       <use style="stroke:#000000;stroke-width:0.8;" x="1104.218182" xlink:href="#m6a433e8d80" y="145.08"/>
      </g>
     </g>
     <g id="text_43">
      <!-- 200 -->
      <g transform="translate(1062.860682 151.918594)scale(0.18 -0.18)">
       <use xlink:href="#DejaVuSans-32"/>
       <use x="63.623047" xlink:href="#DejaVuSans-30"/>
       <use x="127.246094" xlink:href="#DejaVuSans-30"/>
      </g>
     </g>
    </g>
    <g id="text_44">
     <!-- Z [m]] -->
     <g transform="translate(1055.117244 501.006094)rotate(-90)scale(0.18 -0.18)">
      <use xlink:href="#DejaVuSans-5a"/>
      <use x="68.505859" xlink:href="#DejaVuSans-20"/>
      <use x="100.292969" xlink:href="#DejaVuSans-5b"/>
      <use x="139.306641" xlink:href="#DejaVuSans-6d"/>
      <use x="236.71875" xlink:href="#DejaVuSans-5d"/>
      <use x="275.732422" xlink:href="#DejaVuSans-5d"/>
     </g>
    </g>
   </g>
   <g id="line2d_85">
    <path clip-path="url(#pa77fb971bc)" d="M 1136.499174 800.28 
L 1152.892355 793.728 
L 1154.703698 787.176 
L 1155.923419 780.624 
L 1157.151398 774.072 
L 1158.523967 767.52 
L 1159.937926 760.968 
L 1161.461082 754.416 
L 1163.126688 747.864 
L 1164.897445 741.312 
L 1166.838541 734.76 
L 1168.977691 728.208 
L 1171.304097 721.656 
L 1173.83582 715.104 
L 1176.680713 708.552 
L 1179.827599 702 
L 1183.364018 695.448 
L 1187.318343 688.896 
L 1191.831242 682.344 
L 1196.839215 675.792 
L 1202.50244 669.24 
L 1212.910943 662.688 
L 1327.781323 656.136 
L 1422.333346 649.584 
L 1744.782766 643.032 
L 1781.284783 636.48 
L 1782.092502 629.928 
L 1782.117842 623.376 
L 1782.118779 616.824 
L 1782.119008 610.272 
L 1782.119008 603.72 
L 1782.119008 597.168 
L 1782.119008 590.616 
L 1782.119008 584.064 
L 1782.119008 577.512 
L 1782.119008 570.96 
L 1782.119008 564.408 
L 1782.119008 557.856 
L 1782.119008 551.304 
L 1782.119008 544.752 
L 1782.119008 538.2 
L 1782.119008 531.648 
L 1782.119008 525.096 
L 1782.119008 518.544 
L 1782.119008 511.992 
L 1782.119008 505.44 
L 1782.119008 498.888 
L 1782.119008 492.336 
L 1782.119008 485.784 
L 1782.119008 479.232 
L 1782.119008 472.68 
L 1782.119008 466.128 
L 1782.119008 459.576 
L 1782.119008 453.024 
L 1782.119008 446.472 
L 1782.119008 439.92 
L 1782.119008 433.368 
L 1782.119008 426.816 
L 1782.119008 420.264 
L 1782.119008 413.712 
L 1782.119008 407.16 
L 1782.119008 400.608 
L 1782.119008 394.056 
L 1782.119008 387.504 
L 1782.119008 380.952 
L 1782.119008 374.4 
L 1782.119008 367.848 
L 1782.119008 361.296 
L 1782.119008 354.744 
L 1782.119008 348.192 
L 1782.119008 341.64 
L 1782.119008 335.088 
L 1782.119008 328.536 
L 1782.119008 321.984 
L 1782.119008 315.432 
L 1782.119008 308.88 
L 1782.119008 302.328 
L 1782.119008 295.776 
L 1782.119008 289.224 
L 1782.119008 282.672 
L 1782.119008 276.12 
L 1782.119008 269.568 
L 1782.119008 263.016 
L 1782.119008 256.464 
L 1782.119008 249.912 
L 1782.119008 243.36 
L 1782.119008 236.808 
L 1782.119008 230.256 
L 1782.119008 223.704 
L 1782.119008 217.152 
L 1782.119008 210.6 
L 1782.119008 204.048 
L 1782.119008 197.496 
L 1782.119008 190.944 
L 1782.119008 184.392 
L 1782.119008 177.84 
L 1782.119008 171.288 
L 1782.119008 164.736 
L 1782.119008 158.184 
L 1782.119008 151.632 
L 1782.119008 145.08 
" style="fill:none;stroke:#1f77b4;stroke-linecap:square;stroke-width:1.5;"/>
   </g>
   <g id="line2d_86">
    <path clip-path="url(#pa77fb971bc)" d="M 1136.499174 800.28 
L 1153.493498 793.728 
L 1154.737452 787.176 
L 1155.923419 780.624 
L 1157.151398 774.072 
L 1158.523967 767.52 
L 1159.937926 760.968 
L 1161.461082 754.416 
L 1163.126688 747.864 
L 1164.897445 741.312 
L 1166.838541 734.76 
L 1168.977691 728.208 
L 1171.304097 721.656 
L 1173.83582 715.104 
L 1176.648047 708.552 
L 1179.796071 702 
L 1183.304111 695.448 
L 1187.235031 688.896 
L 1191.633133 682.344 
L 1196.548165 675.792 
L 1201.92351 669.24 
L 1209.898019 662.688 
L 1256.641997 656.136 
L 1466.98261 649.584 
L 1596.800402 643.032 
L 1696.954051 636.48 
L 1754.238521 629.928 
L 1765.058952 623.376 
L 1768.584747 616.824 
L 1772.495067 610.272 
L 1772.787427 603.72 
L 1772.977468 597.168 
L 1773.215991 590.616 
L 1773.215991 584.064 
L 1773.215991 577.512 
L 1773.215991 570.96 
L 1773.215991 564.408 
L 1773.215991 557.856 
L 1773.215991 551.304 
L 1773.215991 544.752 
L 1773.215991 538.2 
L 1773.215991 531.648 
L 1773.215991 525.096 
L 1773.215991 518.544 
L 1773.215991 511.992 
L 1773.215991 505.44 
L 1773.215991 498.888 
L 1773.215991 492.336 
L 1773.215991 485.784 
L 1773.215991 479.232 
L 1773.215991 472.68 
L 1773.215991 466.128 
L 1773.215991 459.576 
L 1773.215991 453.024 
L 1773.215991 446.472 
L 1773.215991 439.92 
L 1773.215991 433.368 
L 1773.215991 426.816 
L 1773.215991 420.264 
L 1773.215991 413.712 
L 1773.215991 407.16 
L 1773.215991 400.608 
L 1773.215991 394.056 
L 1773.215991 387.504 
L 1773.215991 380.952 
L 1773.215991 374.4 
L 1773.215991 367.848 
L 1773.215991 361.296 
L 1773.215991 354.744 
L 1773.215991 348.192 
L 1773.215991 341.64 
L 1773.215991 335.088 
L 1773.215991 328.536 
L 1773.215991 321.984 
L 1773.215991 315.432 
L 1773.215991 308.88 
L 1773.215991 302.328 
L 1773.215991 295.776 
L 1773.215991 289.224 
L 1773.215991 282.672 
L 1773.215991 276.12 
L 1773.215991 269.568 
L 1773.215991 263.016 
L 1773.215991 256.464 
L 1773.215991 249.912 
L 1773.215991 243.36 
L 1773.215991 236.808 
L 1773.215991 230.256 
L 1773.215991 223.704 
L 1773.215991 217.152 
L 1773.215991 210.6 
L 1773.215991 204.048 
L 1773.215991 197.496 
L 1773.215991 190.944 
L 1773.215991 184.392 
L 1773.215991 177.84 
L 1773.215991 171.288 
L 1773.215991 164.736 
L 1773.215991 158.184 
L 1773.215991 151.632 
L 1773.215991 145.08 
" style="fill:none;stroke:#ff7f0e;stroke-linecap:square;stroke-width:1.5;"/>
   </g>
   <g id="line2d_87">
    <path clip-path="url(#pa77fb971bc)" d="M 1136.499174 800.28 
L 1153.627444 793.728 
L 1154.737452 787.176 
L 1155.923419 780.624 
L 1157.151398 774.072 
L 1158.523967 767.52 
L 1159.937926 760.968 
L 1161.461082 754.416 
L 1163.126688 747.864 
L 1164.897445 741.312 
L 1166.838541 734.76 
L 1168.943304 728.208 
L 1171.270075 721.656 
L 1173.80235 715.104 
L 1176.615373 708.552 
L 1179.764525 702 
L 1183.244142 695.448 
L 1187.151575 688.896 
L 1191.533652 682.344 
L 1196.359297 675.792 
L 1201.597435 669.24 
L 1208.724285 662.688 
L 1241.84511 656.136 
L 1396.46398 649.584 
L 1603.146331 643.032 
L 1694.454314 636.48 
L 1735.923171 629.928 
L 1755.762955 623.376 
L 1765.058952 616.824 
L 1769.285426 610.272 
L 1771.238814 603.72 
L 1772.039098 597.168 
L 1772.193042 590.616 
L 1772.243938 584.064 
L 1772.243938 577.512 
L 1772.243938 570.96 
L 1772.243938 564.408 
L 1772.243938 557.856 
L 1772.243938 551.304 
L 1772.243938 544.752 
L 1772.243938 538.2 
L 1772.243938 531.648 
L 1772.243938 525.096 
L 1772.243938 518.544 
L 1772.243938 511.992 
L 1772.243938 505.44 
L 1772.243938 498.888 
L 1772.243938 492.336 
L 1772.243938 485.784 
L 1772.243938 479.232 
L 1772.243938 472.68 
L 1772.243938 466.128 
L 1772.243938 459.576 
L 1772.243938 453.024 
L 1772.243938 446.472 
L 1772.243938 439.92 
L 1772.243938 433.368 
L 1772.243938 426.816 
L 1772.243938 420.264 
L 1772.243938 413.712 
L 1772.243938 407.16 
L 1772.243938 400.608 
L 1772.243938 394.056 
L 1772.243938 387.504 
L 1772.243938 380.952 
L 1772.243938 374.4 
L 1772.243938 367.848 
L 1772.243938 361.296 
L 1772.243938 354.744 
L 1772.243938 348.192 
L 1772.243938 341.64 
L 1772.243938 335.088 
L 1772.243938 328.536 
L 1772.243938 321.984 
L 1772.243938 315.432 
L 1772.243938 308.88 
L 1772.243938 302.328 
L 1772.243938 295.776 
L 1772.243938 289.224 
L 1772.243938 282.672 
L 1772.243938 276.12 
L 1772.243938 269.568 
L 1772.243938 263.016 
L 1772.243938 256.464 
L 1772.243938 249.912 
L 1772.243938 243.36 
L 1772.243938 236.808 
L 1772.243938 230.256 
L 1772.243938 223.704 
L 1772.243938 217.152 
L 1772.243938 210.6 
L 1772.243938 204.048 
L 1772.243938 197.496 
L 1772.243938 190.944 
L 1772.243938 184.392 
L 1772.243938 177.84 
L 1772.243938 171.288 
L 1772.243938 164.736 
L 1772.243938 158.184 
L 1772.243938 151.632 
L 1772.243938 145.08 
" style="fill:none;stroke:#2ca02c;stroke-linecap:square;stroke-width:1.5;"/>
   </g>
   <g id="line2d_88">
    <path clip-path="url(#pa77fb971bc)" d="M 1136.499174 800.28 
L 1153.627444 793.728 
L 1154.737452 787.176 
L 1155.923419 780.624 
L 1157.151398 774.072 
L 1158.523967 767.52 
L 1159.937926 760.968 
L 1161.461082 754.416 
L 1163.126688 747.864 
L 1164.897445 741.312 
L 1166.838541 734.76 
L 1168.943304 728.208 
L 1171.270075 721.656 
L 1173.80235 715.104 
L 1176.615373 708.552 
L 1179.73297 702 
L 1183.244142 695.448 
L 1187.151575 688.896 
L 1191.508723 682.344 
L 1196.296006 675.792 
L 1201.49395 669.24 
L 1208.37292 662.688 
L 1238.361952 656.136 
L 1379.281193 649.584 
L 1582.962892 643.032 
L 1696.954051 636.48 
L 1738.359501 629.928 
L 1757.108653 623.376 
L 1765.219002 616.824 
L 1769.348616 610.272 
L 1771.183489 603.72 
L 1771.830835 597.168 
L 1771.935474 590.616 
L 1771.935474 584.064 
L 1771.935474 577.512 
L 1771.935474 570.96 
L 1771.935474 564.408 
L 1771.935474 557.856 
L 1771.935474 551.304 
L 1771.935474 544.752 
L 1771.935474 538.2 
L 1771.935474 531.648 
L 1771.935474 525.096 
L 1771.935474 518.544 
L 1771.935474 511.992 
L 1771.935474 505.44 
L 1771.935474 498.888 
L 1771.935474 492.336 
L 1771.935474 485.784 
L 1771.935474 479.232 
L 1771.935474 472.68 
L 1771.935474 466.128 
L 1771.935474 459.576 
L 1771.935474 453.024 
L 1771.935474 446.472 
L 1771.935474 439.92 
L 1771.935474 433.368 
L 1771.935474 426.816 
L 1771.935474 420.264 
L 1771.935474 413.712 
L 1771.935474 407.16 
L 1771.935474 400.608 
L 1771.935474 394.056 
L 1771.935474 387.504 
L 1771.935474 380.952 
L 1771.935474 374.4 
L 1771.935474 367.848 
L 1771.935474 361.296 
L 1771.935474 354.744 
L 1771.935474 348.192 
L 1771.935474 341.64 
L 1771.935474 335.088 
L 1771.935474 328.536 
L 1771.935474 321.984 
L 1771.935474 315.432 
L 1771.935474 308.88 
L 1771.935474 302.328 
L 1771.935474 295.776 
L 1771.935474 289.224 
L 1771.935474 282.672 
L 1771.935474 276.12 
L 1771.935474 269.568 
L 1771.935474 263.016 
L 1771.935474 256.464 
L 1771.935474 249.912 
L 1771.935474 243.36 
L 1771.935474 236.808 
L 1771.935474 230.256 
L 1771.935474 223.704 
L 1771.935474 217.152 
L 1771.935474 210.6 
L 1771.935474 204.048 
L 1771.935474 197.496 
L 1771.935474 190.944 
L 1771.935474 184.392 
L 1771.935474 177.84 
L 1771.935474 171.288 
L 1771.935474 164.736 
L 1771.935474 158.184 
L 1771.935474 151.632 
L 1771.935474 145.08 
" style="fill:none;stroke:#d62728;stroke-linecap:square;stroke-width:1.5;"/>
   </g>
   <g id="line2d_89">
    <path clip-path="url(#pa77fb971bc)" d="M 1136.499174 800.28 
L 1153.627444 793.728 
L 1154.737452 787.176 
L 1155.923419 780.624 
L 1157.151398 774.072 
L 1158.489564 767.52 
L 1159.937926 760.968 
L 1161.461082 754.416 
L 1163.091966 747.864 
L 1164.897445 741.312 
L 1166.838541 734.76 
L 1168.943304 728.208 
L 1171.270075 721.656 
L 1173.80235 715.104 
L 1176.615373 708.552 
L 1179.73297 702 
L 1183.214142 695.448 
L 1187.123712 688.896 
L 1191.483779 682.344 
L 1196.253722 675.792 
L 1201.42481 669.24 
L 1208.226297 662.688 
L 1236.726121 656.136 
L 1371.972745 649.584 
L 1573.236193 643.032 
L 1691.045861 636.48 
L 1739.037228 629.928 
L 1757.97702 623.376 
L 1766.001014 616.824 
L 1769.536851 610.272 
L 1771.183489 603.72 
L 1771.778215 597.168 
L 1771.830835 590.616 
L 1771.830835 584.064 
L 1771.830835 577.512 
L 1771.830835 570.96 
L 1771.830835 564.408 
L 1771.830835 557.856 
L 1771.830835 551.304 
L 1771.830835 544.752 
L 1771.830835 538.2 
L 1771.830835 531.648 
L 1771.830835 525.096 
L 1771.830835 518.544 
L 1771.830835 511.992 
L 1771.830835 505.44 
L 1771.830835 498.888 
L 1771.830835 492.336 
L 1771.830835 485.784 
L 1771.830835 479.232 
L 1771.830835 472.68 
L 1771.830835 466.128 
L 1771.830835 459.576 
L 1771.830835 453.024 
L 1771.830835 446.472 
L 1771.830835 439.92 
L 1771.830835 433.368 
L 1771.830835 426.816 
L 1771.830835 420.264 
L 1771.830835 413.712 
L 1771.830835 407.16 
L 1771.830835 400.608 
L 1771.830835 394.056 
L 1771.830835 387.504 
L 1771.830835 380.952 
L 1771.830835 374.4 
L 1771.830835 367.848 
L 1771.830835 361.296 
L 1771.830835 354.744 
L 1771.830835 348.192 
L 1771.830835 341.64 
L 1771.830835 335.088 
L 1771.830835 328.536 
L 1771.830835 321.984 
L 1771.830835 315.432 
L 1771.830835 308.88 
L 1771.830835 302.328 
L 1771.830835 295.776 
L 1771.830835 289.224 
L 1771.830835 282.672 
L 1771.830835 276.12 
L 1771.830835 269.568 
L 1771.830835 263.016 
L 1771.830835 256.464 
L 1771.830835 249.912 
L 1771.830835 243.36 
L 1771.830835 236.808 
L 1771.830835 230.256 
L 1771.830835 223.704 
L 1771.830835 217.152 
L 1771.830835 210.6 
L 1771.830835 204.048 
L 1771.830835 197.496 
L 1771.830835 190.944 
L 1771.830835 184.392 
L 1771.830835 177.84 
L 1771.830835 171.288 
L 1771.830835 164.736 
L 1771.830835 158.184 
L 1771.830835 151.632 
L 1771.830835 145.08 
" style="fill:none;stroke:#9467bd;stroke-linecap:square;stroke-width:1.5;"/>
   </g>
   <g id="patch_9">
    <path d="M 1104.218182 833.04 
L 1104.218182 112.32 
" style="fill:none;stroke:#000000;stroke-linecap:square;stroke-linejoin:miter;stroke-width:0.8;"/>
   </g>
   <g id="patch_10">
    <path d="M 1814.4 833.04 
L 1814.4 112.32 
" style="fill:none;stroke:#000000;stroke-linecap:square;stroke-linejoin:miter;stroke-width:0.8;"/>
   </g>
   <g id="patch_11">
    <path d="M 1104.218182 833.04 
L 1814.4 833.04 
" style="fill:none;stroke:#000000;stroke-linecap:square;stroke-linejoin:miter;stroke-width:0.8;"/>
   </g>
   <g id="patch_12">
    <path d="M 1104.218182 112.32 
L 1814.4 112.32 
" style="fill:none;stroke:#000000;stroke-linecap:square;stroke-linejoin:miter;stroke-width:0.8;"/>
   </g>
   <g id="text_45">
    <!-- 0 moment for updraft velocity= 2[m/s] -->
    <g transform="translate(1249.060091 106.32)scale(0.216 -0.216)">
     <use xlink:href="#DejaVuSans-30"/>
     <use x="63.623047" xlink:href="#DejaVuSans-20"/>
     <use x="95.410156" xlink:href="#DejaVuSans-6d"/>
     <use x="192.822266" xlink:href="#DejaVuSans-6f"/>
     <use x="254.003906" xlink:href="#DejaVuSans-6d"/>
     <use x="351.416016" xlink:href="#DejaVuSans-65"/>
     <use x="412.939453" xlink:href="#DejaVuSans-6e"/>
     <use x="476.318359" xlink:href="#DejaVuSans-74"/>
     <use x="515.527344" xlink:href="#DejaVuSans-20"/>
     <use x="547.314453" xlink:href="#DejaVuSans-66"/>
     <use x="582.519531" xlink:href="#DejaVuSans-6f"/>
     <use x="643.701172" xlink:href="#DejaVuSans-72"/>
     <use x="684.814453" xlink:href="#DejaVuSans-20"/>
     <use x="716.601562" xlink:href="#DejaVuSans-75"/>
     <use x="779.980469" xlink:href="#DejaVuSans-70"/>
     <use x="843.457031" xlink:href="#DejaVuSans-64"/>
     <use x="906.933594" xlink:href="#DejaVuSans-72"/>
     <use x="948.046875" xlink:href="#DejaVuSans-61"/>
     <use x="1009.326172" xlink:href="#DejaVuSans-66"/>
     <use x="1044.515625" xlink:href="#DejaVuSans-74"/>
     <use x="1083.724609" xlink:href="#DejaVuSans-20"/>
     <use x="1115.511719" xlink:href="#DejaVuSans-76"/>
     <use x="1174.691406" xlink:href="#DejaVuSans-65"/>
     <use x="1236.214844" xlink:href="#DejaVuSans-6c"/>
     <use x="1263.998047" xlink:href="#DejaVuSans-6f"/>
     <use x="1325.179688" xlink:href="#DejaVuSans-63"/>
     <use x="1380.160156" xlink:href="#DejaVuSans-69"/>
     <use x="1407.943359" xlink:href="#DejaVuSans-74"/>
     <use x="1447.152344" xlink:href="#DejaVuSans-79"/>
     <use x="1506.332031" xlink:href="#DejaVuSans-3d"/>
     <use x="1590.121094" xlink:href="#DejaVuSans-20"/>
     <use x="1621.908203" xlink:href="#DejaVuSans-32"/>
     <use x="1685.53125" xlink:href="#DejaVuSans-5b"/>
     <use x="1724.544922" xlink:href="#DejaVuSans-6d"/>
     <use x="1821.957031" xlink:href="#DejaVuSans-2f"/>
     <use x="1855.648438" xlink:href="#DejaVuSans-73"/>
     <use x="1907.748047" xlink:href="#DejaVuSans-5d"/>
    </g>
   </g>
   <g id="legend_2">
    <g id="patch_13">
     <path d="M 1116.818182 285.24375 
L 1338.848182 285.24375 
Q 1342.448182 285.24375 1342.448182 281.64375 
L 1342.448182 124.92 
Q 1342.448182 121.32 1338.848182 121.32 
L 1116.818182 121.32 
Q 1113.218182 121.32 1113.218182 124.92 
L 1113.218182 281.64375 
Q 1113.218182 285.24375 1116.818182 285.24375 
z
" style="fill:#ffffff;opacity:0.8;stroke:#cccccc;stroke-linejoin:miter;"/>
    </g>
    <g id="text_46">
     <!-- Condensation time step -->
     <g transform="translate(1120.418182 142.197188)scale(0.18 -0.18)">
      <use xlink:href="#DejaVuSans-43"/>
      <use x="69.824219" xlink:href="#DejaVuSans-6f"/>
      <use x="131.005859" xlink:href="#DejaVuSans-6e"/>
      <use x="194.384766" xlink:href="#DejaVuSans-64"/>
      <use x="257.861328" xlink:href="#DejaVuSans-65"/>
      <use x="319.384766" xlink:href="#DejaVuSans-6e"/>
      <use x="382.763672" xlink:href="#DejaVuSans-73"/>
      <use x="434.863281" xlink:href="#DejaVuSans-61"/>
      <use x="496.142578" xlink:href="#DejaVuSans-74"/>
      <use x="535.351562" xlink:href="#DejaVuSans-69"/>
      <use x="563.134766" xlink:href="#DejaVuSans-6f"/>
      <use x="624.316406" xlink:href="#DejaVuSans-6e"/>
      <use x="687.695312" xlink:href="#DejaVuSans-20"/>
      <use x="719.482422" xlink:href="#DejaVuSans-74"/>
      <use x="758.691406" xlink:href="#DejaVuSans-69"/>
      <use x="786.474609" xlink:href="#DejaVuSans-6d"/>
      <use x="883.886719" xlink:href="#DejaVuSans-65"/>
      <use x="945.410156" xlink:href="#DejaVuSans-20"/>
      <use x="977.197266" xlink:href="#DejaVuSans-73"/>
      <use x="1029.296875" xlink:href="#DejaVuSans-74"/>
      <use x="1068.505859" xlink:href="#DejaVuSans-65"/>
      <use x="1130.029297" xlink:href="#DejaVuSans-70"/>
     </g>
    </g>
    <g id="line2d_90">
     <path d="M 1182.422557 162.317813 
L 1218.422557 162.317813 
" style="fill:none;stroke:#1f77b4;stroke-linecap:square;stroke-width:1.5;"/>
    </g>
    <g id="line2d_91"/>
    <g id="text_47">
     <!-- 1/1 -->
     <g transform="translate(1232.822557 168.617813)scale(0.18 -0.18)">
      <use xlink:href="#DejaVuSans-31"/>
      <use x="63.623047" xlink:href="#DejaVuSans-2f"/>
      <use x="97.314453" xlink:href="#DejaVuSans-31"/>
     </g>
    </g>
    <g id="line2d_92">
     <path d="M 1182.422557 188.738438 
L 1218.422557 188.738438 
" style="fill:none;stroke:#ff7f0e;stroke-linecap:square;stroke-width:1.5;"/>
    </g>
    <g id="line2d_93"/>
    <g id="text_48">
     <!-- 1/2 -->
     <g transform="translate(1232.822557 195.038438)scale(0.18 -0.18)">
      <use xlink:href="#DejaVuSans-31"/>
      <use x="63.623047" xlink:href="#DejaVuSans-2f"/>
      <use x="97.314453" xlink:href="#DejaVuSans-32"/>
     </g>
    </g>
    <g id="line2d_94">
     <path d="M 1182.422557 215.159063 
L 1218.422557 215.159063 
" style="fill:none;stroke:#2ca02c;stroke-linecap:square;stroke-width:1.5;"/>
    </g>
    <g id="line2d_95"/>
    <g id="text_49">
     <!-- 1/5 -->
     <g transform="translate(1232.822557 221.459063)scale(0.18 -0.18)">
      <use xlink:href="#DejaVuSans-31"/>
      <use x="63.623047" xlink:href="#DejaVuSans-2f"/>
      <use x="97.314453" xlink:href="#DejaVuSans-35"/>
     </g>
    </g>
    <g id="line2d_96">
     <path d="M 1182.422557 241.579688 
L 1218.422557 241.579688 
" style="fill:none;stroke:#d62728;stroke-linecap:square;stroke-width:1.5;"/>
    </g>
    <g id="line2d_97"/>
    <g id="text_50">
     <!-- 1/10 -->
     <g transform="translate(1232.822557 247.879688)scale(0.18 -0.18)">
      <use xlink:href="#DejaVuSans-31"/>
      <use x="63.623047" xlink:href="#DejaVuSans-2f"/>
      <use x="97.314453" xlink:href="#DejaVuSans-31"/>
      <use x="160.9375" xlink:href="#DejaVuSans-30"/>
     </g>
    </g>
    <g id="line2d_98">
     <path d="M 1182.422557 268.000313 
L 1218.422557 268.000313 
" style="fill:none;stroke:#9467bd;stroke-linecap:square;stroke-width:1.5;"/>
    </g>
    <g id="line2d_99"/>
    <g id="text_51">
     <!-- 1/20 -->
     <g transform="translate(1232.822557 274.300313)scale(0.18 -0.18)">
      <use xlink:href="#DejaVuSans-31"/>
      <use x="63.623047" xlink:href="#DejaVuSans-2f"/>
      <use x="97.314453" xlink:href="#DejaVuSans-32"/>
      <use x="160.9375" xlink:href="#DejaVuSans-30"/>
     </g>
    </g>
   </g>
  </g>
 </g>
 <defs>
  <clipPath id="p8c19c96e42">
   <rect height="720.72" width="710.181818" x="252" y="112.32"/>
  </clipPath>
  <clipPath id="pa77fb971bc">
   <rect height="720.72" width="710.181818" x="1104.218182" y="112.32"/>
  </clipPath>
 </defs>
</svg>
