<?xml version="1.0" encoding="utf-8" standalone="no"?>
<!DOCTYPE svg PUBLIC "-//W3C//DTD SVG 1.1//EN"
  "http://www.w3.org/Graphics/SVG/1.1/DTD/svg11.dtd">
<!-- Created with matplotlib (http://matplotlib.org/) -->
<svg height="936pt" version="1.1" viewBox="0 0 2016 936" width="2016pt" xmlns="http://www.w3.org/2000/svg" xmlns:xlink="http://www.w3.org/1999/xlink">
 <defs>
  <style type="text/css">
*{stroke-linecap:butt;stroke-linejoin:round;}
  </style>
 </defs>
 <g id="figure_1">
  <g id="patch_1">
   <path d="M 0 936 
L 2016 936 
L 2016 0 
L 0 0 
z
" style="fill:#ffffff;"/>
  </g>
  <g id="axes_1">
   <g id="patch_2">
    <path d="M 252 833.04 
L 962.181818 833.04 
L 962.181818 112.32 
L 252 112.32 
z
" style="fill:#ffffff;"/>
   </g>
   <g id="matplotlib.axis_1">
    <g id="xtick_1">
     <g id="line2d_1">
      <path clip-path="url(#pb6d33a8604)" d="M 284.280992 833.04 
L 284.280992 112.32 
" style="fill:none;stroke:#b0b0b0;stroke-linecap:square;stroke-width:0.8;"/>
     </g>
     <g id="line2d_2">
      <defs>
       <path d="M 0 0 
L 0 3.5 
" id="m2a02d437ff" style="stroke:#000000;stroke-width:0.8;"/>
      </defs>
      <g>
       <use style="stroke:#000000;stroke-width:0.8;" x="284.280992" xlink:href="#m2a02d437ff" y="833.04"/>
      </g>
     </g>
     <g id="text_1">
      <!-- 98.0 -->
      <defs>
       <path d="M 10.984375 1.515625 
L 10.984375 10.5 
Q 14.703125 8.734375 18.5 7.8125 
Q 22.3125 6.890625 25.984375 6.890625 
Q 35.75 6.890625 40.890625 13.453125 
Q 46.046875 20.015625 46.78125 33.40625 
Q 43.953125 29.203125 39.59375 26.953125 
Q 35.25 24.703125 29.984375 24.703125 
Q 19.046875 24.703125 12.671875 31.3125 
Q 6.296875 37.9375 6.296875 49.421875 
Q 6.296875 60.640625 12.9375 67.421875 
Q 19.578125 74.21875 30.609375 74.21875 
Q 43.265625 74.21875 49.921875 64.515625 
Q 56.59375 54.828125 56.59375 36.375 
Q 56.59375 19.140625 48.40625 8.859375 
Q 40.234375 -1.421875 26.421875 -1.421875 
Q 22.703125 -1.421875 18.890625 -0.6875 
Q 15.09375 0.046875 10.984375 1.515625 
z
M 30.609375 32.421875 
Q 37.25 32.421875 41.125 36.953125 
Q 45.015625 41.5 45.015625 49.421875 
Q 45.015625 57.28125 41.125 61.84375 
Q 37.25 66.40625 30.609375 66.40625 
Q 23.96875 66.40625 20.09375 61.84375 
Q 16.21875 57.28125 16.21875 49.421875 
Q 16.21875 41.5 20.09375 36.953125 
Q 23.96875 32.421875 30.609375 32.421875 
z
" id="DejaVuSans-39"/>
       <path d="M 31.78125 34.625 
Q 24.75 34.625 20.71875 30.859375 
Q 16.703125 27.09375 16.703125 20.515625 
Q 16.703125 13.921875 20.71875 10.15625 
Q 24.75 6.390625 31.78125 6.390625 
Q 38.8125 6.390625 42.859375 10.171875 
Q 46.921875 13.96875 46.921875 20.515625 
Q 46.921875 27.09375 42.890625 30.859375 
Q 38.875 34.625 31.78125 34.625 
z
M 21.921875 38.8125 
Q 15.578125 40.375 12.03125 44.71875 
Q 8.5 49.078125 8.5 55.328125 
Q 8.5 64.0625 14.71875 69.140625 
Q 20.953125 74.21875 31.78125 74.21875 
Q 42.671875 74.21875 48.875 69.140625 
Q 55.078125 64.0625 55.078125 55.328125 
Q 55.078125 49.078125 51.53125 44.71875 
Q 48 40.375 41.703125 38.8125 
Q 48.828125 37.15625 52.796875 32.3125 
Q 56.78125 27.484375 56.78125 20.515625 
Q 56.78125 9.90625 50.3125 4.234375 
Q 43.84375 -1.421875 31.78125 -1.421875 
Q 19.734375 -1.421875 13.25 4.234375 
Q 6.78125 9.90625 6.78125 20.515625 
Q 6.78125 27.484375 10.78125 32.3125 
Q 14.796875 37.15625 21.921875 38.8125 
z
M 18.3125 54.390625 
Q 18.3125 48.734375 21.84375 45.5625 
Q 25.390625 42.390625 31.78125 42.390625 
Q 38.140625 42.390625 41.71875 45.5625 
Q 45.3125 48.734375 45.3125 54.390625 
Q 45.3125 60.0625 41.71875 63.234375 
Q 38.140625 66.40625 31.78125 66.40625 
Q 25.390625 66.40625 21.84375 63.234375 
Q 18.3125 60.0625 18.3125 54.390625 
z
" id="DejaVuSans-38"/>
       <path d="M 10.6875 12.40625 
L 21 12.40625 
L 21 0 
L 10.6875 0 
z
" id="DejaVuSans-2e"/>
       <path d="M 31.78125 66.40625 
Q 24.171875 66.40625 20.328125 58.90625 
Q 16.5 51.421875 16.5 36.375 
Q 16.5 21.390625 20.328125 13.890625 
Q 24.171875 6.390625 31.78125 6.390625 
Q 39.453125 6.390625 43.28125 13.890625 
Q 47.125 21.390625 47.125 36.375 
Q 47.125 51.421875 43.28125 58.90625 
Q 39.453125 66.40625 31.78125 66.40625 
z
M 31.78125 74.21875 
Q 44.046875 74.21875 50.515625 64.515625 
Q 56.984375 54.828125 56.984375 36.375 
Q 56.984375 17.96875 50.515625 8.265625 
Q 44.046875 -1.421875 31.78125 -1.421875 
Q 19.53125 -1.421875 13.0625 8.265625 
Q 6.59375 17.96875 6.59375 36.375 
Q 6.59375 54.828125 13.0625 64.515625 
Q 19.53125 74.21875 31.78125 74.21875 
z
" id="DejaVuSans-30"/>
      </defs>
      <g transform="translate(264.241929 853.717188)scale(0.18 -0.18)">
       <use xlink:href="#DejaVuSans-39"/>
       <use x="63.623047" xlink:href="#DejaVuSans-38"/>
       <use x="127.246094" xlink:href="#DejaVuSans-2e"/>
       <use x="159.033203" xlink:href="#DejaVuSans-30"/>
      </g>
     </g>
    </g>
    <g id="xtick_2">
     <g id="line2d_3">
      <path clip-path="url(#pb6d33a8604)" d="M 384.62422 833.04 
L 384.62422 112.32 
" style="fill:none;stroke:#b0b0b0;stroke-linecap:square;stroke-width:0.8;"/>
     </g>
     <g id="line2d_4">
      <g>
       <use style="stroke:#000000;stroke-width:0.8;" x="384.62422" xlink:href="#m2a02d437ff" y="833.04"/>
      </g>
     </g>
     <g id="text_2">
      <!-- 98.5 -->
      <defs>
       <path d="M 10.796875 72.90625 
L 49.515625 72.90625 
L 49.515625 64.59375 
L 19.828125 64.59375 
L 19.828125 46.734375 
Q 21.96875 47.46875 24.109375 47.828125 
Q 26.265625 48.1875 28.421875 48.1875 
Q 40.625 48.1875 47.75 41.5 
Q 54.890625 34.8125 54.890625 23.390625 
Q 54.890625 11.625 47.5625 5.09375 
Q 40.234375 -1.421875 26.90625 -1.421875 
Q 22.3125 -1.421875 17.546875 -0.640625 
Q 12.796875 0.140625 7.71875 1.703125 
L 7.71875 11.625 
Q 12.109375 9.234375 16.796875 8.0625 
Q 21.484375 6.890625 26.703125 6.890625 
Q 35.15625 6.890625 40.078125 11.328125 
Q 45.015625 15.765625 45.015625 23.390625 
Q 45.015625 31 40.078125 35.4375 
Q 35.15625 39.890625 26.703125 39.890625 
Q 22.75 39.890625 18.8125 39.015625 
Q 14.890625 38.140625 10.796875 36.28125 
z
" id="DejaVuSans-35"/>
      </defs>
      <g transform="translate(364.585157 853.717188)scale(0.18 -0.18)">
       <use xlink:href="#DejaVuSans-39"/>
       <use x="63.623047" xlink:href="#DejaVuSans-38"/>
       <use x="127.246094" xlink:href="#DejaVuSans-2e"/>
       <use x="159.033203" xlink:href="#DejaVuSans-35"/>
      </g>
     </g>
    </g>
    <g id="xtick_3">
     <g id="line2d_5">
      <path clip-path="url(#pb6d33a8604)" d="M 484.967447 833.04 
L 484.967447 112.32 
" style="fill:none;stroke:#b0b0b0;stroke-linecap:square;stroke-width:0.8;"/>
     </g>
     <g id="line2d_6">
      <g>
       <use style="stroke:#000000;stroke-width:0.8;" x="484.967447" xlink:href="#m2a02d437ff" y="833.04"/>
      </g>
     </g>
     <g id="text_3">
      <!-- 99.0 -->
      <g transform="translate(464.928385 853.717188)scale(0.18 -0.18)">
       <use xlink:href="#DejaVuSans-39"/>
       <use x="63.623047" xlink:href="#DejaVuSans-39"/>
       <use x="127.246094" xlink:href="#DejaVuSans-2e"/>
       <use x="159.033203" xlink:href="#DejaVuSans-30"/>
      </g>
     </g>
    </g>
    <g id="xtick_4">
     <g id="line2d_7">
      <path clip-path="url(#pb6d33a8604)" d="M 585.310675 833.04 
L 585.310675 112.32 
" style="fill:none;stroke:#b0b0b0;stroke-linecap:square;stroke-width:0.8;"/>
     </g>
     <g id="line2d_8">
      <g>
       <use style="stroke:#000000;stroke-width:0.8;" x="585.310675" xlink:href="#m2a02d437ff" y="833.04"/>
      </g>
     </g>
     <g id="text_4">
      <!-- 99.5 -->
      <g transform="translate(565.271613 853.717188)scale(0.18 -0.18)">
       <use xlink:href="#DejaVuSans-39"/>
       <use x="63.623047" xlink:href="#DejaVuSans-39"/>
       <use x="127.246094" xlink:href="#DejaVuSans-2e"/>
       <use x="159.033203" xlink:href="#DejaVuSans-35"/>
      </g>
     </g>
    </g>
    <g id="xtick_5">
     <g id="line2d_9">
      <path clip-path="url(#pb6d33a8604)" d="M 685.653903 833.04 
L 685.653903 112.32 
" style="fill:none;stroke:#b0b0b0;stroke-linecap:square;stroke-width:0.8;"/>
     </g>
     <g id="line2d_10">
      <g>
       <use style="stroke:#000000;stroke-width:0.8;" x="685.653903" xlink:href="#m2a02d437ff" y="833.04"/>
      </g>
     </g>
     <g id="text_5">
      <!-- 100.0 -->
      <defs>
       <path d="M 12.40625 8.296875 
L 28.515625 8.296875 
L 28.515625 63.921875 
L 10.984375 60.40625 
L 10.984375 69.390625 
L 28.421875 72.90625 
L 38.28125 72.90625 
L 38.28125 8.296875 
L 54.390625 8.296875 
L 54.390625 0 
L 12.40625 0 
z
" id="DejaVuSans-31"/>
      </defs>
      <g transform="translate(659.888591 853.717188)scale(0.18 -0.18)">
       <use xlink:href="#DejaVuSans-31"/>
       <use x="63.623047" xlink:href="#DejaVuSans-30"/>
       <use x="127.246094" xlink:href="#DejaVuSans-30"/>
       <use x="190.869141" xlink:href="#DejaVuSans-2e"/>
       <use x="222.65625" xlink:href="#DejaVuSans-30"/>
      </g>
     </g>
    </g>
    <g id="xtick_6">
     <g id="line2d_11">
      <path clip-path="url(#pb6d33a8604)" d="M 785.997131 833.04 
L 785.997131 112.32 
" style="fill:none;stroke:#b0b0b0;stroke-linecap:square;stroke-width:0.8;"/>
     </g>
     <g id="line2d_12">
      <g>
       <use style="stroke:#000000;stroke-width:0.8;" x="785.997131" xlink:href="#m2a02d437ff" y="833.04"/>
      </g>
     </g>
     <g id="text_6">
      <!-- 100.5 -->
      <g transform="translate(760.231818 853.717188)scale(0.18 -0.18)">
       <use xlink:href="#DejaVuSans-31"/>
       <use x="63.623047" xlink:href="#DejaVuSans-30"/>
       <use x="127.246094" xlink:href="#DejaVuSans-30"/>
       <use x="190.869141" xlink:href="#DejaVuSans-2e"/>
       <use x="222.65625" xlink:href="#DejaVuSans-35"/>
      </g>
     </g>
    </g>
    <g id="xtick_7">
     <g id="line2d_13">
      <path clip-path="url(#pb6d33a8604)" d="M 886.340359 833.04 
L 886.340359 112.32 
" style="fill:none;stroke:#b0b0b0;stroke-linecap:square;stroke-width:0.8;"/>
     </g>
     <g id="line2d_14">
      <g>
       <use style="stroke:#000000;stroke-width:0.8;" x="886.340359" xlink:href="#m2a02d437ff" y="833.04"/>
      </g>
     </g>
     <g id="text_7">
      <!-- 101.0 -->
      <g transform="translate(860.575046 853.717188)scale(0.18 -0.18)">
       <use xlink:href="#DejaVuSans-31"/>
       <use x="63.623047" xlink:href="#DejaVuSans-30"/>
       <use x="127.246094" xlink:href="#DejaVuSans-31"/>
       <use x="190.869141" xlink:href="#DejaVuSans-2e"/>
       <use x="222.65625" xlink:href="#DejaVuSans-30"/>
      </g>
     </g>
    </g>
    <g id="text_8">
     <!-- RH [%] -->
     <defs>
      <path d="M 44.390625 34.1875 
Q 47.5625 33.109375 50.5625 29.59375 
Q 53.5625 26.078125 56.59375 19.921875 
L 66.609375 0 
L 56 0 
L 46.6875 18.703125 
Q 43.0625 26.03125 39.671875 28.421875 
Q 36.28125 30.8125 30.421875 30.8125 
L 19.671875 30.8125 
L 19.671875 0 
L 9.8125 0 
L 9.8125 72.90625 
L 32.078125 72.90625 
Q 44.578125 72.90625 50.734375 67.671875 
Q 56.890625 62.453125 56.890625 51.90625 
Q 56.890625 45.015625 53.6875 40.46875 
Q 50.484375 35.9375 44.390625 34.1875 
z
M 19.671875 64.796875 
L 19.671875 38.921875 
L 32.078125 38.921875 
Q 39.203125 38.921875 42.84375 42.21875 
Q 46.484375 45.515625 46.484375 51.90625 
Q 46.484375 58.296875 42.84375 61.546875 
Q 39.203125 64.796875 32.078125 64.796875 
z
" id="DejaVuSans-52"/>
      <path d="M 9.8125 72.90625 
L 19.671875 72.90625 
L 19.671875 43.015625 
L 55.515625 43.015625 
L 55.515625 72.90625 
L 65.375 72.90625 
L 65.375 0 
L 55.515625 0 
L 55.515625 34.71875 
L 19.671875 34.71875 
L 19.671875 0 
L 9.8125 0 
z
" id="DejaVuSans-48"/>
      <path id="DejaVuSans-20"/>
      <path d="M 8.59375 75.984375 
L 29.296875 75.984375 
L 29.296875 69 
L 17.578125 69 
L 17.578125 -6.203125 
L 29.296875 -6.203125 
L 29.296875 -13.1875 
L 8.59375 -13.1875 
z
" id="DejaVuSans-5b"/>
      <path d="M 72.703125 32.078125 
Q 68.453125 32.078125 66.03125 28.46875 
Q 63.625 24.859375 63.625 18.40625 
Q 63.625 12.0625 66.03125 8.421875 
Q 68.453125 4.78125 72.703125 4.78125 
Q 76.859375 4.78125 79.265625 8.421875 
Q 81.6875 12.0625 81.6875 18.40625 
Q 81.6875 24.8125 79.265625 28.4375 
Q 76.859375 32.078125 72.703125 32.078125 
z
M 72.703125 38.28125 
Q 80.421875 38.28125 84.953125 32.90625 
Q 89.5 27.546875 89.5 18.40625 
Q 89.5 9.28125 84.9375 3.921875 
Q 80.375 -1.421875 72.703125 -1.421875 
Q 64.890625 -1.421875 60.34375 3.921875 
Q 55.8125 9.28125 55.8125 18.40625 
Q 55.8125 27.59375 60.375 32.9375 
Q 64.9375 38.28125 72.703125 38.28125 
z
M 22.3125 68.015625 
Q 18.109375 68.015625 15.6875 64.375 
Q 13.28125 60.75 13.28125 54.390625 
Q 13.28125 47.953125 15.671875 44.328125 
Q 18.0625 40.71875 22.3125 40.71875 
Q 26.5625 40.71875 28.96875 44.328125 
Q 31.390625 47.953125 31.390625 54.390625 
Q 31.390625 60.6875 28.953125 64.34375 
Q 26.515625 68.015625 22.3125 68.015625 
z
M 66.40625 74.21875 
L 74.21875 74.21875 
L 28.609375 -1.421875 
L 20.796875 -1.421875 
z
M 22.3125 74.21875 
Q 30.03125 74.21875 34.609375 68.875 
Q 39.203125 63.53125 39.203125 54.390625 
Q 39.203125 45.171875 34.640625 39.84375 
Q 30.078125 34.515625 22.3125 34.515625 
Q 14.546875 34.515625 10.03125 39.859375 
Q 5.515625 45.21875 5.515625 54.390625 
Q 5.515625 63.484375 10.046875 68.84375 
Q 14.59375 74.21875 22.3125 74.21875 
z
" id="DejaVuSans-25"/>
      <path d="M 30.421875 75.984375 
L 30.421875 -13.1875 
L 9.71875 -13.1875 
L 9.71875 -6.203125 
L 21.390625 -6.203125 
L 21.390625 69 
L 9.71875 69 
L 9.71875 75.984375 
z
" id="DejaVuSans-5d"/>
     </defs>
     <g transform="translate(575.634503 875.137812)scale(0.18 -0.18)">
      <use xlink:href="#DejaVuSans-52"/>
      <use x="69.482422" xlink:href="#DejaVuSans-48"/>
      <use x="144.677734" xlink:href="#DejaVuSans-20"/>
      <use x="176.464844" xlink:href="#DejaVuSans-5b"/>
      <use x="215.478516" xlink:href="#DejaVuSans-25"/>
      <use x="310.498047" xlink:href="#DejaVuSans-5d"/>
     </g>
    </g>
   </g>
   <g id="matplotlib.axis_2">
    <g id="ytick_1">
     <g id="line2d_15">
      <path clip-path="url(#pb6d33a8604)" d="M 252 800.28 
L 962.181818 800.28 
" style="fill:none;stroke:#b0b0b0;stroke-linecap:square;stroke-width:0.8;"/>
     </g>
     <g id="line2d_16">
      <defs>
       <path d="M 0 0 
L -3.5 0 
" id="m52c8bb0ce7" style="stroke:#000000;stroke-width:0.8;"/>
      </defs>
      <g>
       <use style="stroke:#000000;stroke-width:0.8;" x="252" xlink:href="#m52c8bb0ce7" y="800.28"/>
      </g>
     </g>
     <g id="text_9">
      <!-- 0 -->
      <g transform="translate(233.5475 807.118594)scale(0.18 -0.18)">
       <use xlink:href="#DejaVuSans-30"/>
      </g>
     </g>
    </g>
    <g id="ytick_2">
     <g id="line2d_17">
      <path clip-path="url(#pb6d33a8604)" d="M 252 718.38 
L 962.181818 718.38 
" style="fill:none;stroke:#b0b0b0;stroke-linecap:square;stroke-width:0.8;"/>
     </g>
     <g id="line2d_18">
      <g>
       <use style="stroke:#000000;stroke-width:0.8;" x="252" xlink:href="#m52c8bb0ce7" y="718.38"/>
      </g>
     </g>
     <g id="text_10">
      <!-- 25 -->
      <defs>
       <path d="M 19.1875 8.296875 
L 53.609375 8.296875 
L 53.609375 0 
L 7.328125 0 
L 7.328125 8.296875 
Q 12.9375 14.109375 22.625 23.890625 
Q 32.328125 33.6875 34.8125 36.53125 
Q 39.546875 41.84375 41.421875 45.53125 
Q 43.3125 49.21875 43.3125 52.78125 
Q 43.3125 58.59375 39.234375 62.25 
Q 35.15625 65.921875 28.609375 65.921875 
Q 23.96875 65.921875 18.8125 64.3125 
Q 13.671875 62.703125 7.8125 59.421875 
L 7.8125 69.390625 
Q 13.765625 71.78125 18.9375 73 
Q 24.125 74.21875 28.421875 74.21875 
Q 39.75 74.21875 46.484375 68.546875 
Q 53.21875 62.890625 53.21875 53.421875 
Q 53.21875 48.921875 51.53125 44.890625 
Q 49.859375 40.875 45.40625 35.40625 
Q 44.1875 33.984375 37.640625 27.21875 
Q 31.109375 20.453125 19.1875 8.296875 
z
" id="DejaVuSans-32"/>
      </defs>
      <g transform="translate(222.095 725.218594)scale(0.18 -0.18)">
       <use xlink:href="#DejaVuSans-32"/>
       <use x="63.623047" xlink:href="#DejaVuSans-35"/>
      </g>
     </g>
    </g>
    <g id="ytick_3">
     <g id="line2d_19">
      <path clip-path="url(#pb6d33a8604)" d="M 252 636.48 
L 962.181818 636.48 
" style="fill:none;stroke:#b0b0b0;stroke-linecap:square;stroke-width:0.8;"/>
     </g>
     <g id="line2d_20">
      <g>
       <use style="stroke:#000000;stroke-width:0.8;" x="252" xlink:href="#m52c8bb0ce7" y="636.48"/>
      </g>
     </g>
     <g id="text_11">
      <!-- 50 -->
      <g transform="translate(222.095 643.318594)scale(0.18 -0.18)">
       <use xlink:href="#DejaVuSans-35"/>
       <use x="63.623047" xlink:href="#DejaVuSans-30"/>
      </g>
     </g>
    </g>
    <g id="ytick_4">
     <g id="line2d_21">
      <path clip-path="url(#pb6d33a8604)" d="M 252 554.58 
L 962.181818 554.58 
" style="fill:none;stroke:#b0b0b0;stroke-linecap:square;stroke-width:0.8;"/>
     </g>
     <g id="line2d_22">
      <g>
       <use style="stroke:#000000;stroke-width:0.8;" x="252" xlink:href="#m52c8bb0ce7" y="554.58"/>
      </g>
     </g>
     <g id="text_12">
      <!-- 75 -->
      <defs>
       <path d="M 8.203125 72.90625 
L 55.078125 72.90625 
L 55.078125 68.703125 
L 28.609375 0 
L 18.3125 0 
L 43.21875 64.59375 
L 8.203125 64.59375 
z
" id="DejaVuSans-37"/>
      </defs>
      <g transform="translate(222.095 561.418594)scale(0.18 -0.18)">
       <use xlink:href="#DejaVuSans-37"/>
       <use x="63.623047" xlink:href="#DejaVuSans-35"/>
      </g>
     </g>
    </g>
    <g id="ytick_5">
     <g id="line2d_23">
      <path clip-path="url(#pb6d33a8604)" d="M 252 472.68 
L 962.181818 472.68 
" style="fill:none;stroke:#b0b0b0;stroke-linecap:square;stroke-width:0.8;"/>
     </g>
     <g id="line2d_24">
      <g>
       <use style="stroke:#000000;stroke-width:0.8;" x="252" xlink:href="#m52c8bb0ce7" y="472.68"/>
      </g>
     </g>
     <g id="text_13">
      <!-- 100 -->
      <g transform="translate(210.6425 479.518594)scale(0.18 -0.18)">
       <use xlink:href="#DejaVuSans-31"/>
       <use x="63.623047" xlink:href="#DejaVuSans-30"/>
       <use x="127.246094" xlink:href="#DejaVuSans-30"/>
      </g>
     </g>
    </g>
    <g id="ytick_6">
     <g id="line2d_25">
      <path clip-path="url(#pb6d33a8604)" d="M 252 390.78 
L 962.181818 390.78 
" style="fill:none;stroke:#b0b0b0;stroke-linecap:square;stroke-width:0.8;"/>
     </g>
     <g id="line2d_26">
      <g>
       <use style="stroke:#000000;stroke-width:0.8;" x="252" xlink:href="#m52c8bb0ce7" y="390.78"/>
      </g>
     </g>
     <g id="text_14">
      <!-- 125 -->
      <g transform="translate(210.6425 397.618594)scale(0.18 -0.18)">
       <use xlink:href="#DejaVuSans-31"/>
       <use x="63.623047" xlink:href="#DejaVuSans-32"/>
       <use x="127.246094" xlink:href="#DejaVuSans-35"/>
      </g>
     </g>
    </g>
    <g id="ytick_7">
     <g id="line2d_27">
      <path clip-path="url(#pb6d33a8604)" d="M 252 308.88 
L 962.181818 308.88 
" style="fill:none;stroke:#b0b0b0;stroke-linecap:square;stroke-width:0.8;"/>
     </g>
     <g id="line2d_28">
      <g>
       <use style="stroke:#000000;stroke-width:0.8;" x="252" xlink:href="#m52c8bb0ce7" y="308.88"/>
      </g>
     </g>
     <g id="text_15">
      <!-- 150 -->
      <g transform="translate(210.6425 315.718594)scale(0.18 -0.18)">
       <use xlink:href="#DejaVuSans-31"/>
       <use x="63.623047" xlink:href="#DejaVuSans-35"/>
       <use x="127.246094" xlink:href="#DejaVuSans-30"/>
      </g>
     </g>
    </g>
    <g id="ytick_8">
     <g id="line2d_29">
      <path clip-path="url(#pb6d33a8604)" d="M 252 226.98 
L 962.181818 226.98 
" style="fill:none;stroke:#b0b0b0;stroke-linecap:square;stroke-width:0.8;"/>
     </g>
     <g id="line2d_30">
      <g>
       <use style="stroke:#000000;stroke-width:0.8;" x="252" xlink:href="#m52c8bb0ce7" y="226.98"/>
      </g>
     </g>
     <g id="text_16">
      <!-- 175 -->
      <g transform="translate(210.6425 233.818594)scale(0.18 -0.18)">
       <use xlink:href="#DejaVuSans-31"/>
       <use x="63.623047" xlink:href="#DejaVuSans-37"/>
       <use x="127.246094" xlink:href="#DejaVuSans-35"/>
      </g>
     </g>
    </g>
    <g id="ytick_9">
     <g id="line2d_31">
      <path clip-path="url(#pb6d33a8604)" d="M 252 145.08 
L 962.181818 145.08 
" style="fill:none;stroke:#b0b0b0;stroke-linecap:square;stroke-width:0.8;"/>
     </g>
     <g id="line2d_32">
      <g>
       <use style="stroke:#000000;stroke-width:0.8;" x="252" xlink:href="#m52c8bb0ce7" y="145.08"/>
      </g>
     </g>
     <g id="text_17">
      <!-- 200 -->
      <g transform="translate(210.6425 151.918594)scale(0.18 -0.18)">
       <use xlink:href="#DejaVuSans-32"/>
       <use x="63.623047" xlink:href="#DejaVuSans-30"/>
       <use x="127.246094" xlink:href="#DejaVuSans-30"/>
      </g>
     </g>
    </g>
    <g id="text_18">
     <!-- Z [m]] -->
     <defs>
      <path d="M 5.609375 72.90625 
L 62.890625 72.90625 
L 62.890625 65.375 
L 16.796875 8.296875 
L 64.015625 8.296875 
L 64.015625 0 
L 4.5 0 
L 4.5 7.515625 
L 50.59375 64.59375 
L 5.609375 64.59375 
z
" id="DejaVuSans-5a"/>
      <path d="M 52 44.1875 
Q 55.375 50.25 60.0625 53.125 
Q 64.75 56 71.09375 56 
Q 79.640625 56 84.28125 50.015625 
Q 88.921875 44.046875 88.921875 33.015625 
L 88.921875 0 
L 79.890625 0 
L 79.890625 32.71875 
Q 79.890625 40.578125 77.09375 44.375 
Q 74.3125 48.1875 68.609375 48.1875 
Q 61.625 48.1875 57.5625 43.546875 
Q 53.515625 38.921875 53.515625 30.90625 
L 53.515625 0 
L 44.484375 0 
L 44.484375 32.71875 
Q 44.484375 40.625 41.703125 44.40625 
Q 38.921875 48.1875 33.109375 48.1875 
Q 26.21875 48.1875 22.15625 43.53125 
Q 18.109375 38.875 18.109375 30.90625 
L 18.109375 0 
L 9.078125 0 
L 9.078125 54.6875 
L 18.109375 54.6875 
L 18.109375 46.1875 
Q 21.1875 51.21875 25.484375 53.609375 
Q 29.78125 56 35.6875 56 
Q 41.65625 56 45.828125 52.96875 
Q 50 49.953125 52 44.1875 
z
" id="DejaVuSans-6d"/>
     </defs>
     <g transform="translate(202.899062 501.006094)rotate(-90)scale(0.18 -0.18)">
      <use xlink:href="#DejaVuSans-5a"/>
      <use x="68.505859" xlink:href="#DejaVuSans-20"/>
      <use x="100.292969" xlink:href="#DejaVuSans-5b"/>
      <use x="139.306641" xlink:href="#DejaVuSans-6d"/>
      <use x="236.71875" xlink:href="#DejaVuSans-5d"/>
      <use x="275.732422" xlink:href="#DejaVuSans-5d"/>
     </g>
    </g>
   </g>
   <g id="line2d_33">
    <path clip-path="url(#pb6d33a8604)" d="M 284.280992 800.28 
L 305.598836 793.728 
L 326.96392 787.176 
L 348.354277 780.624 
L 369.771348 774.072 
L 391.215168 767.52 
L 412.685712 760.968 
L 434.182943 754.416 
L 455.706795 747.864 
L 477.257172 741.312 
L 498.833925 734.76 
L 520.436832 728.208 
L 542.065554 721.656 
L 563.719566 715.104 
L 585.398034 708.552 
L 607.099589 702 
L 628.821866 695.448 
L 650.560561 688.896 
L 672.307268 682.344 
L 694.044219 675.792 
L 715.730663 669.24 
L 737.268777 662.688 
L 758.446452 656.136 
L 778.996062 649.584 
L 798.634888 643.032 
L 816.921507 636.48 
L 832.690151 629.928 
L 844.889545 623.376 
L 853.650378 616.824 
L 858.278127 610.272 
L 859.323986 603.72 
L 857.421739 597.168 
L 853.257807 590.616 
L 847.480964 584.064 
L 840.646025 577.512 
L 833.222136 570.96 
L 825.583056 564.408 
L 818.016444 557.856 
L 810.728143 551.304 
L 803.855982 544.752 
L 797.481677 538.2 
L 791.643533 531.648 
L 786.347713 525.096 
L 781.577878 518.544 
L 777.30302 511.992 
L 773.483544 505.44 
L 770.075806 498.888 
L 767.035347 492.336 
L 764.319081 485.784 
L 761.886673 479.232 
L 759.701309 472.68 
L 757.730035 466.128 
L 755.943795 459.576 
L 754.317274 453.024 
L 752.828627 446.472 
L 751.459137 439.92 
L 750.192864 433.368 
L 749.016284 426.816 
L 747.917958 420.264 
L 746.888223 413.712 
L 745.918922 407.16 
L 745.00316 400.608 
L 744.1351 394.056 
L 743.309789 387.504 
L 742.523005 380.952 
L 741.77114 374.4 
L 741.051089 367.848 
L 740.360168 361.296 
L 739.696046 354.744 
L 739.056683 348.192 
L 738.440285 341.64 
L 737.845265 335.088 
L 737.27021 328.536 
L 736.713854 321.984 
L 736.17506 315.432 
L 735.6528 308.88 
L 735.146138 302.328 
L 734.654224 295.776 
L 734.176275 289.224 
L 733.711576 282.672 
L 733.259464 276.12 
L 732.81933 269.568 
L 732.390605 263.016 
L 731.972764 256.464 
L 731.565317 249.912 
L 731.167804 243.36 
L 730.779798 236.808 
L 730.4009 230.256 
L 730.030732 223.704 
L 729.66894 217.152 
L 729.315193 210.6 
L 728.969176 204.048 
L 728.630594 197.496 
L 728.299169 190.944 
L 727.974635 184.392 
L 727.656742 177.84 
L 727.345255 171.288 
L 727.039946 164.736 
L 726.740605 158.184 
L 726.447028 151.632 
L 726.159022 145.08 
" style="fill:none;stroke:#1f77b4;stroke-linecap:square;stroke-width:1.5;"/>
   </g>
   <g id="line2d_34">
    <path clip-path="url(#pb6d33a8604)" d="M 685.653903 800.28 
L 685.653903 793.728 
L 685.653903 787.176 
L 685.653903 780.624 
L 685.653903 774.072 
L 685.653903 767.52 
L 685.653903 760.968 
L 685.653903 754.416 
L 685.653903 747.864 
L 685.653903 741.312 
L 685.653903 734.76 
L 685.653903 728.208 
L 685.653903 721.656 
L 685.653903 715.104 
L 685.653903 708.552 
L 685.653903 702 
L 685.653903 695.448 
L 685.653903 688.896 
L 685.653903 682.344 
L 685.653903 675.792 
L 685.653903 669.24 
L 685.653903 662.688 
L 685.653903 656.136 
L 685.653903 649.584 
L 685.653903 643.032 
L 685.653903 636.48 
L 685.653903 629.928 
L 685.653903 623.376 
L 685.653903 616.824 
L 685.653903 610.272 
L 685.653903 603.72 
L 685.653903 597.168 
L 685.653903 590.616 
L 685.653903 584.064 
L 685.653903 577.512 
L 685.653903 570.96 
L 685.653903 564.408 
L 685.653903 557.856 
L 685.653903 551.304 
L 685.653903 544.752 
L 685.653903 538.2 
L 685.653903 531.648 
L 685.653903 525.096 
L 685.653903 518.544 
L 685.653903 511.992 
L 685.653903 505.44 
L 685.653903 498.888 
L 685.653903 492.336 
L 685.653903 485.784 
L 685.653903 479.232 
L 685.653903 472.68 
L 685.653903 466.128 
L 685.653903 459.576 
L 685.653903 453.024 
L 685.653903 446.472 
L 685.653903 439.92 
L 685.653903 433.368 
L 685.653903 426.816 
L 685.653903 420.264 
L 685.653903 413.712 
L 685.653903 407.16 
L 685.653903 400.608 
L 685.653903 394.056 
L 685.653903 387.504 
L 685.653903 380.952 
L 685.653903 374.4 
L 685.653903 367.848 
L 685.653903 361.296 
L 685.653903 354.744 
L 685.653903 348.192 
L 685.653903 341.64 
L 685.653903 335.088 
L 685.653903 328.536 
L 685.653903 321.984 
L 685.653903 315.432 
L 685.653903 308.88 
L 685.653903 302.328 
L 685.653903 295.776 
L 685.653903 289.224 
L 685.653903 282.672 
L 685.653903 276.12 
L 685.653903 269.568 
L 685.653903 263.016 
L 685.653903 256.464 
L 685.653903 249.912 
L 685.653903 243.36 
L 685.653903 236.808 
L 685.653903 230.256 
L 685.653903 223.704 
L 685.653903 217.152 
L 685.653903 210.6 
L 685.653903 204.048 
L 685.653903 197.496 
L 685.653903 190.944 
L 685.653903 184.392 
L 685.653903 177.84 
L 685.653903 171.288 
L 685.653903 164.736 
L 685.653903 158.184 
L 685.653903 151.632 
L 685.653903 145.08 
" style="fill:none;stroke:#ff7f0e;stroke-linecap:square;stroke-width:1.5;"/>
   </g>
   <g id="line2d_35">
    <path clip-path="url(#pb6d33a8604)" d="M 284.280992 800.28 
L 305.597866 793.728 
L 326.963921 787.176 
L 348.35427 780.624 
L 369.771349 774.072 
L 391.215173 767.52 
L 412.685722 760.968 
L 434.182956 754.416 
L 455.706814 747.864 
L 477.257199 741.312 
L 498.833965 734.76 
L 520.436892 728.208 
L 542.065646 721.656 
L 563.719714 715.104 
L 585.398284 708.552 
L 607.10003 702 
L 628.822695 695.448 
L 650.56223 688.896 
L 672.310927 682.344 
L 694.053076 675.792 
L 715.754527 669.24 
L 737.338611 662.688 
L 758.645155 656.136 
L 779.421245 649.584 
L 799.395841 643.032 
L 818.324725 636.48 
L 836.009091 629.928 
L 852.291367 623.376 
L 867.037078 616.824 
L 880.008069 610.272 
L 890.959725 603.72 
L 899.926151 597.168 
L 906.725945 590.616 
L 911.526237 584.064 
L 914.505011 577.512 
L 915.846421 570.96 
L 915.7753 564.408 
L 914.49354 557.856 
L 912.194913 551.304 
L 909.062473 544.752 
L 905.265774 538.2 
L 900.959035 531.648 
L 896.279939 525.096 
L 891.349198 518.544 
L 886.270729 511.992 
L 881.132323 505.44 
L 876.00668 498.888 
L 870.952675 492.336 
L 866.016777 485.784 
L 861.234511 479.232 
L 856.631922 472.68 
L 852.226972 466.128 
L 848.030847 459.576 
L 844.049153 453.024 
L 840.282985 446.472 
L 836.729869 439.92 
L 833.384587 433.368 
L 830.239852 426.816 
L 827.286918 420.264 
L 824.516051 413.712 
L 821.91693 407.16 
L 819.478967 400.608 
L 817.191552 394.056 
L 815.044252 387.504 
L 813.026951 380.952 
L 811.129957 374.4 
L 809.34407 367.848 
L 807.66063 361.296 
L 806.071538 354.744 
L 804.569263 348.192 
L 803.146837 341.64 
L 801.797838 335.088 
L 800.51637 328.536 
L 799.297033 321.984 
L 798.134897 315.432 
L 797.025467 308.88 
L 795.96465 302.328 
L 794.94873 295.776 
L 793.97433 289.224 
L 793.038382 282.672 
L 792.138111 276.12 
L 791.270999 269.568 
L 790.434748 263.016 
L 789.627281 256.464 
L 788.84671 249.912 
L 788.091327 243.36 
L 787.359556 236.808 
L 786.649976 230.256 
L 785.961289 223.704 
L 785.292308 217.152 
L 784.641938 210.6 
L 784.009179 204.048 
L 783.393116 197.496 
L 782.792902 190.944 
L 782.207763 184.392 
L 781.636965 177.84 
L 781.079861 171.288 
L 780.535813 164.736 
L 780.004254 158.184 
L 779.48465 151.632 
L 778.976492 145.08 
" style="fill:none;stroke:#2ca02c;stroke-linecap:square;stroke-width:1.5;"/>
   </g>
   <g id="line2d_36">
    <path clip-path="url(#pb6d33a8604)" d="M 685.653903 800.28 
L 685.653903 793.728 
L 685.653903 787.176 
L 685.653903 780.624 
L 685.653903 774.072 
L 685.653903 767.52 
L 685.653903 760.968 
L 685.653903 754.416 
L 685.653903 747.864 
L 685.653903 741.312 
L 685.653903 734.76 
L 685.653903 728.208 
L 685.653903 721.656 
L 685.653903 715.104 
L 685.653903 708.552 
L 685.653903 702 
L 685.653903 695.448 
L 685.653903 688.896 
L 685.653903 682.344 
L 685.653903 675.792 
L 685.653903 669.24 
L 685.653903 662.688 
L 685.653903 656.136 
L 685.653903 649.584 
L 685.653903 643.032 
L 685.653903 636.48 
L 685.653903 629.928 
L 685.653903 623.376 
L 685.653903 616.824 
L 685.653903 610.272 
L 685.653903 603.72 
L 685.653903 597.168 
L 685.653903 590.616 
L 685.653903 584.064 
L 685.653903 577.512 
L 685.653903 570.96 
L 685.653903 564.408 
L 685.653903 557.856 
L 685.653903 551.304 
L 685.653903 544.752 
L 685.653903 538.2 
L 685.653903 531.648 
L 685.653903 525.096 
L 685.653903 518.544 
L 685.653903 511.992 
L 685.653903 505.44 
L 685.653903 498.888 
L 685.653903 492.336 
L 685.653903 485.784 
L 685.653903 479.232 
L 685.653903 472.68 
L 685.653903 466.128 
L 685.653903 459.576 
L 685.653903 453.024 
L 685.653903 446.472 
L 685.653903 439.92 
L 685.653903 433.368 
L 685.653903 426.816 
L 685.653903 420.264 
L 685.653903 413.712 
L 685.653903 407.16 
L 685.653903 400.608 
L 685.653903 394.056 
L 685.653903 387.504 
L 685.653903 380.952 
L 685.653903 374.4 
L 685.653903 367.848 
L 685.653903 361.296 
L 685.653903 354.744 
L 685.653903 348.192 
L 685.653903 341.64 
L 685.653903 335.088 
L 685.653903 328.536 
L 685.653903 321.984 
L 685.653903 315.432 
L 685.653903 308.88 
L 685.653903 302.328 
L 685.653903 295.776 
L 685.653903 289.224 
L 685.653903 282.672 
L 685.653903 276.12 
L 685.653903 269.568 
L 685.653903 263.016 
L 685.653903 256.464 
L 685.653903 249.912 
L 685.653903 243.36 
L 685.653903 236.808 
L 685.653903 230.256 
L 685.653903 223.704 
L 685.653903 217.152 
L 685.653903 210.6 
L 685.653903 204.048 
L 685.653903 197.496 
L 685.653903 190.944 
L 685.653903 184.392 
L 685.653903 177.84 
L 685.653903 171.288 
L 685.653903 164.736 
L 685.653903 158.184 
L 685.653903 151.632 
L 685.653903 145.08 
" style="fill:none;stroke:#d62728;stroke-linecap:square;stroke-width:1.5;"/>
   </g>
   <g id="line2d_37">
    <path clip-path="url(#pb6d33a8604)" d="M 284.280992 800.28 
L 305.597536 793.728 
L 326.963936 787.176 
L 348.354271 780.624 
L 369.771351 774.072 
L 391.215177 767.52 
L 412.685728 760.968 
L 434.182965 754.416 
L 455.706826 747.864 
L 477.257216 741.312 
L 498.83399 734.76 
L 520.43693 728.208 
L 542.065705 721.656 
L 563.719808 715.104 
L 585.398441 708.552 
L 607.100305 702 
L 628.823207 695.448 
L 650.56325 688.896 
L 672.313116 682.344 
L 694.058199 675.792 
L 715.767618 669.24 
L 737.374191 662.688 
L 758.739385 656.136 
L 779.630182 649.584 
L 799.76737 643.032 
L 818.906722 636.48 
L 836.852581 629.928 
L 853.448707 623.376 
L 868.567785 616.824 
L 882.097983 610.272 
L 893.936082 603.72 
L 903.994177 597.168 
L 912.213379 590.616 
L 918.578925 584.064 
L 923.132185 577.512 
L 925.96957 570.96 
L 927.238517 564.408 
L 927.120925 557.856 
L 925.817211 551.304 
L 923.528681 544.752 
L 920.439172 538.2 
L 916.711883 531.648 
L 912.493419 525.096 
L 907.913768 518.544 
L 903.086545 511.992 
L 898.109546 505.44 
L 893.065585 498.888 
L 888.023558 492.336 
L 883.039662 485.784 
L 878.158704 479.232 
L 873.415429 472.68 
L 868.835825 466.128 
L 864.438375 459.576 
L 860.235226 453.024 
L 856.233247 446.472 
L 852.434996 439.92 
L 848.839566 433.368 
L 845.443327 426.816 
L 842.240561 420.264 
L 839.224008 413.712 
L 836.385318 407.16 
L 833.715431 400.608 
L 831.204877 394.056 
L 828.84403 387.504 
L 826.623298 380.952 
L 824.533274 374.4 
L 822.564847 367.848 
L 820.709289 361.296 
L 818.958301 354.744 
L 817.304059 348.192 
L 815.739222 341.64 
L 814.256947 335.088 
L 812.850877 328.536 
L 811.515131 321.984 
L 810.244288 315.432 
L 809.033361 308.88 
L 807.877776 302.328 
L 806.773345 295.776 
L 805.716239 289.224 
L 804.70296 282.672 
L 803.730319 276.12 
L 802.79541 269.568 
L 801.895581 263.016 
L 801.028419 256.464 
L 800.191724 249.912 
L 799.38349 243.36 
L 798.601888 236.808 
L 797.84525 230.256 
L 797.112052 223.704 
L 796.4009 217.152 
L 795.710518 210.6 
L 795.039737 204.048 
L 794.387485 197.496 
L 793.752774 190.944 
L 793.134698 184.392 
L 792.532418 177.84 
L 791.945162 171.288 
L 791.372214 164.736 
L 790.812911 158.184 
L 790.266637 151.632 
L 789.732819 145.08 
" style="fill:none;stroke:#9467bd;stroke-linecap:square;stroke-width:1.5;"/>
   </g>
   <g id="line2d_38">
    <path clip-path="url(#pb6d33a8604)" d="M 685.653903 800.28 
L 685.653903 793.728 
L 685.653903 787.176 
L 685.653903 780.624 
L 685.653903 774.072 
L 685.653903 767.52 
L 685.653903 760.968 
L 685.653903 754.416 
L 685.653903 747.864 
L 685.653903 741.312 
L 685.653903 734.76 
L 685.653903 728.208 
L 685.653903 721.656 
L 685.653903 715.104 
L 685.653903 708.552 
L 685.653903 702 
L 685.653903 695.448 
L 685.653903 688.896 
L 685.653903 682.344 
L 685.653903 675.792 
L 685.653903 669.24 
L 685.653903 662.688 
L 685.653903 656.136 
L 685.653903 649.584 
L 685.653903 643.032 
L 685.653903 636.48 
L 685.653903 629.928 
L 685.653903 623.376 
L 685.653903 616.824 
L 685.653903 610.272 
L 685.653903 603.72 
L 685.653903 597.168 
L 685.653903 590.616 
L 685.653903 584.064 
L 685.653903 577.512 
L 685.653903 570.96 
L 685.653903 564.408 
L 685.653903 557.856 
L 685.653903 551.304 
L 685.653903 544.752 
L 685.653903 538.2 
L 685.653903 531.648 
L 685.653903 525.096 
L 685.653903 518.544 
L 685.653903 511.992 
L 685.653903 505.44 
L 685.653903 498.888 
L 685.653903 492.336 
L 685.653903 485.784 
L 685.653903 479.232 
L 685.653903 472.68 
L 685.653903 466.128 
L 685.653903 459.576 
L 685.653903 453.024 
L 685.653903 446.472 
L 685.653903 439.92 
L 685.653903 433.368 
L 685.653903 426.816 
L 685.653903 420.264 
L 685.653903 413.712 
L 685.653903 407.16 
L 685.653903 400.608 
L 685.653903 394.056 
L 685.653903 387.504 
L 685.653903 380.952 
L 685.653903 374.4 
L 685.653903 367.848 
L 685.653903 361.296 
L 685.653903 354.744 
L 685.653903 348.192 
L 685.653903 341.64 
L 685.653903 335.088 
L 685.653903 328.536 
L 685.653903 321.984 
L 685.653903 315.432 
L 685.653903 308.88 
L 685.653903 302.328 
L 685.653903 295.776 
L 685.653903 289.224 
L 685.653903 282.672 
L 685.653903 276.12 
L 685.653903 269.568 
L 685.653903 263.016 
L 685.653903 256.464 
L 685.653903 249.912 
L 685.653903 243.36 
L 685.653903 236.808 
L 685.653903 230.256 
L 685.653903 223.704 
L 685.653903 217.152 
L 685.653903 210.6 
L 685.653903 204.048 
L 685.653903 197.496 
L 685.653903 190.944 
L 685.653903 184.392 
L 685.653903 177.84 
L 685.653903 171.288 
L 685.653903 164.736 
L 685.653903 158.184 
L 685.653903 151.632 
L 685.653903 145.08 
" style="fill:none;stroke:#8c564b;stroke-linecap:square;stroke-width:1.5;"/>
   </g>
   <g id="line2d_39">
    <path clip-path="url(#pb6d33a8604)" d="M 284.280992 800.28 
L 305.597476 793.728 
L 326.963939 787.176 
L 348.354271 780.624 
L 369.771353 774.072 
L 391.215179 767.52 
L 412.68573 760.968 
L 434.182968 754.416 
L 455.70683 747.864 
L 477.257222 741.312 
L 498.833999 734.76 
L 520.436942 728.208 
L 542.065724 721.656 
L 563.71984 715.104 
L 585.398494 708.552 
L 607.100398 702 
L 628.82338 695.448 
L 650.563592 688.896 
L 672.313843 682.344 
L 694.059873 675.792 
L 715.771797 669.24 
L 737.385207 662.688 
L 758.767881 656.136 
L 779.694985 649.584 
L 799.88901 643.032 
L 819.097782 636.48 
L 837.123484 629.928 
L 853.810242 623.376 
L 869.030377 616.824 
L 882.673379 610.272 
L 894.639288 603.72 
L 904.842433 597.168 
L 913.223835 590.616 
L 919.765169 584.064 
L 924.503229 577.512 
L 927.530205 570.96 
L 928.988519 564.408 
L 929.059011 557.856 
L 927.942474 551.304 
L 925.837801 544.752 
L 922.923406 538.2 
L 919.359833 531.648 
L 915.291768 525.096 
L 910.847944 518.544 
L 906.141299 511.992 
L 901.269432 505.44 
L 896.315366 498.888 
L 891.348529 492.336 
L 886.425905 485.784 
L 881.593266 479.232 
L 876.886447 472.68 
L 872.332596 466.128 
L 867.951383 459.576 
L 863.756131 453.024 
L 859.754849 446.472 
L 855.951178 439.92 
L 852.345219 433.368 
L 848.934267 426.816 
L 845.713445 420.264 
L 842.67624 413.712 
L 839.814964 407.16 
L 837.121129 400.608 
L 834.585762 394.056 
L 832.199656 387.504 
L 829.953568 380.952 
L 827.83838 374.4 
L 825.845215 367.848 
L 823.965527 361.296 
L 822.19116 354.744 
L 820.514393 348.192 
L 818.92796 341.64 
L 817.425064 335.088 
L 815.999373 328.536 
L 814.645015 321.984 
L 813.356558 315.432 
L 812.128998 308.88 
L 810.957734 302.328 
L 809.838541 295.776 
L 808.767552 289.224 
L 807.741227 282.672 
L 806.756333 276.12 
L 805.809916 269.568 
L 804.899283 263.016 
L 804.021973 256.464 
L 803.175743 249.912 
L 802.358547 243.36 
L 801.568516 236.808 
L 800.803944 230.256 
L 800.063269 223.704 
L 799.345065 217.152 
L 798.648026 210.6 
L 797.970953 204.048 
L 797.312745 197.496 
L 796.672392 190.944 
L 796.048962 184.392 
L 795.441598 177.84 
L 794.849505 171.288 
L 794.271951 164.736 
L 793.708257 158.184 
L 793.15779 151.632 
L 792.619964 145.08 
" style="fill:none;stroke:#e377c2;stroke-linecap:square;stroke-width:1.5;"/>
   </g>
   <g id="line2d_40">
    <path clip-path="url(#pb6d33a8604)" d="M 685.653903 800.28 
L 685.653903 793.728 
L 685.653903 787.176 
L 685.653903 780.624 
L 685.653903 774.072 
L 685.653903 767.52 
L 685.653903 760.968 
L 685.653903 754.416 
L 685.653903 747.864 
L 685.653903 741.312 
L 685.653903 734.76 
L 685.653903 728.208 
L 685.653903 721.656 
L 685.653903 715.104 
L 685.653903 708.552 
L 685.653903 702 
L 685.653903 695.448 
L 685.653903 688.896 
L 685.653903 682.344 
L 685.653903 675.792 
L 685.653903 669.24 
L 685.653903 662.688 
L 685.653903 656.136 
L 685.653903 649.584 
L 685.653903 643.032 
L 685.653903 636.48 
L 685.653903 629.928 
L 685.653903 623.376 
L 685.653903 616.824 
L 685.653903 610.272 
L 685.653903 603.72 
L 685.653903 597.168 
L 685.653903 590.616 
L 685.653903 584.064 
L 685.653903 577.512 
L 685.653903 570.96 
L 685.653903 564.408 
L 685.653903 557.856 
L 685.653903 551.304 
L 685.653903 544.752 
L 685.653903 538.2 
L 685.653903 531.648 
L 685.653903 525.096 
L 685.653903 518.544 
L 685.653903 511.992 
L 685.653903 505.44 
L 685.653903 498.888 
L 685.653903 492.336 
L 685.653903 485.784 
L 685.653903 479.232 
L 685.653903 472.68 
L 685.653903 466.128 
L 685.653903 459.576 
L 685.653903 453.024 
L 685.653903 446.472 
L 685.653903 439.92 
L 685.653903 433.368 
L 685.653903 426.816 
L 685.653903 420.264 
L 685.653903 413.712 
L 685.653903 407.16 
L 685.653903 400.608 
L 685.653903 394.056 
L 685.653903 387.504 
L 685.653903 380.952 
L 685.653903 374.4 
L 685.653903 367.848 
L 685.653903 361.296 
L 685.653903 354.744 
L 685.653903 348.192 
L 685.653903 341.64 
L 685.653903 335.088 
L 685.653903 328.536 
L 685.653903 321.984 
L 685.653903 315.432 
L 685.653903 308.88 
L 685.653903 302.328 
L 685.653903 295.776 
L 685.653903 289.224 
L 685.653903 282.672 
L 685.653903 276.12 
L 685.653903 269.568 
L 685.653903 263.016 
L 685.653903 256.464 
L 685.653903 249.912 
L 685.653903 243.36 
L 685.653903 236.808 
L 685.653903 230.256 
L 685.653903 223.704 
L 685.653903 217.152 
L 685.653903 210.6 
L 685.653903 204.048 
L 685.653903 197.496 
L 685.653903 190.944 
L 685.653903 184.392 
L 685.653903 177.84 
L 685.653903 171.288 
L 685.653903 164.736 
L 685.653903 158.184 
L 685.653903 151.632 
L 685.653903 145.08 
" style="fill:none;stroke:#7f7f7f;stroke-linecap:square;stroke-width:1.5;"/>
   </g>
   <g id="line2d_41">
    <path clip-path="url(#pb6d33a8604)" d="M 284.280992 800.28 
L 305.597453 793.728 
L 326.963941 787.176 
L 348.354272 780.624 
L 369.771353 774.072 
L 391.21518 767.52 
L 412.685731 760.968 
L 434.182969 754.416 
L 455.706832 747.864 
L 477.257225 741.312 
L 498.834003 734.76 
L 520.436949 728.208 
L 542.065734 721.656 
L 563.719856 715.104 
L 585.39852 708.552 
L 607.100445 702 
L 628.823467 695.448 
L 650.563763 688.896 
L 672.314206 682.344 
L 694.060704 675.792 
L 715.773853 669.24 
L 737.390571 662.688 
L 758.781645 656.136 
L 779.726259 649.584 
L 799.948375 643.032 
L 819.194199 636.48 
L 837.262552 629.928 
L 853.99562 623.376 
L 869.265666 616.824 
L 882.961621 610.272 
L 894.982878 603.72 
L 905.243514 597.168 
L 913.684922 590.616 
L 920.29027 584.064 
L 925.098115 577.512 
L 928.201059 570.96 
L 929.74181 564.408 
L 929.900826 557.856 
L 928.875806 551.304 
L 926.862777 544.752 
L 924.037673 538.2 
L 920.559256 531.648 
L 916.570908 525.096 
L 912.200439 518.544 
L 907.560181 511.992 
L 902.747414 505.44 
L 897.845075 498.888 
L 892.9227 492.336 
L 888.037535 485.784 
L 883.235733 479.232 
L 878.553591 472.68 
L 874.018778 466.128 
L 869.651512 459.576 
L 865.465675 453.024 
L 861.469832 446.472 
L 857.668157 439.92 
L 854.061258 433.368 
L 850.646901 426.816 
L 847.420641 420.264 
L 844.376357 413.712 
L 841.506711 407.16 
L 838.803523 400.608 
L 836.25809 394.056 
L 833.861435 387.504 
L 831.604514 380.952 
L 829.478374 374.4 
L 827.474274 367.848 
L 825.583781 361.296 
L 823.798827 354.744 
L 822.111761 348.192 
L 820.51537 341.64 
L 819.002893 335.088 
L 817.568026 328.536 
L 816.204908 321.984 
L 814.908119 315.432 
L 813.672653 308.88 
L 812.493902 302.328 
L 811.367633 295.776 
L 810.289965 289.224 
L 809.257344 282.672 
L 808.266518 276.12 
L 807.314518 269.568 
L 806.398627 263.016 
L 805.51637 256.464 
L 804.665485 249.912 
L 803.843904 243.36 
L 803.049744 236.808 
L 802.281278 230.256 
L 801.536932 223.704 
L 800.815262 217.152 
L 800.114947 210.6 
L 799.434775 204.048 
L 798.773634 197.496 
L 798.1305 190.944 
L 797.504431 184.392 
L 796.894559 177.84 
L 796.300081 171.288 
L 795.720255 164.736 
L 795.154393 158.184 
L 794.601857 151.632 
L 794.062054 145.08 
" style="fill:none;stroke:#bcbd22;stroke-linecap:square;stroke-width:1.5;"/>
   </g>
   <g id="line2d_42">
    <path clip-path="url(#pb6d33a8604)" d="M 685.653903 800.28 
L 685.653903 793.728 
L 685.653903 787.176 
L 685.653903 780.624 
L 685.653903 774.072 
L 685.653903 767.52 
L 685.653903 760.968 
L 685.653903 754.416 
L 685.653903 747.864 
L 685.653903 741.312 
L 685.653903 734.76 
L 685.653903 728.208 
L 685.653903 721.656 
L 685.653903 715.104 
L 685.653903 708.552 
L 685.653903 702 
L 685.653903 695.448 
L 685.653903 688.896 
L 685.653903 682.344 
L 685.653903 675.792 
L 685.653903 669.24 
L 685.653903 662.688 
L 685.653903 656.136 
L 685.653903 649.584 
L 685.653903 643.032 
L 685.653903 636.48 
L 685.653903 629.928 
L 685.653903 623.376 
L 685.653903 616.824 
L 685.653903 610.272 
L 685.653903 603.72 
L 685.653903 597.168 
L 685.653903 590.616 
L 685.653903 584.064 
L 685.653903 577.512 
L 685.653903 570.96 
L 685.653903 564.408 
L 685.653903 557.856 
L 685.653903 551.304 
L 685.653903 544.752 
L 685.653903 538.2 
L 685.653903 531.648 
L 685.653903 525.096 
L 685.653903 518.544 
L 685.653903 511.992 
L 685.653903 505.44 
L 685.653903 498.888 
L 685.653903 492.336 
L 685.653903 485.784 
L 685.653903 479.232 
L 685.653903 472.68 
L 685.653903 466.128 
L 685.653903 459.576 
L 685.653903 453.024 
L 685.653903 446.472 
L 685.653903 439.92 
L 685.653903 433.368 
L 685.653903 426.816 
L 685.653903 420.264 
L 685.653903 413.712 
L 685.653903 407.16 
L 685.653903 400.608 
L 685.653903 394.056 
L 685.653903 387.504 
L 685.653903 380.952 
L 685.653903 374.4 
L 685.653903 367.848 
L 685.653903 361.296 
L 685.653903 354.744 
L 685.653903 348.192 
L 685.653903 341.64 
L 685.653903 335.088 
L 685.653903 328.536 
L 685.653903 321.984 
L 685.653903 315.432 
L 685.653903 308.88 
L 685.653903 302.328 
L 685.653903 295.776 
L 685.653903 289.224 
L 685.653903 282.672 
L 685.653903 276.12 
L 685.653903 269.568 
L 685.653903 263.016 
L 685.653903 256.464 
L 685.653903 249.912 
L 685.653903 243.36 
L 685.653903 236.808 
L 685.653903 230.256 
L 685.653903 223.704 
L 685.653903 217.152 
L 685.653903 210.6 
L 685.653903 204.048 
L 685.653903 197.496 
L 685.653903 190.944 
L 685.653903 184.392 
L 685.653903 177.84 
L 685.653903 171.288 
L 685.653903 164.736 
L 685.653903 158.184 
L 685.653903 151.632 
L 685.653903 145.08 
" style="fill:none;stroke:#17becf;stroke-linecap:square;stroke-width:1.5;"/>
   </g>
   <g id="patch_3">
    <path d="M 252 833.04 
L 252 112.32 
" style="fill:none;stroke:#000000;stroke-linecap:square;stroke-linejoin:miter;stroke-width:0.8;"/>
   </g>
   <g id="patch_4">
    <path d="M 962.181818 833.04 
L 962.181818 112.32 
" style="fill:none;stroke:#000000;stroke-linecap:square;stroke-linejoin:miter;stroke-width:0.8;"/>
   </g>
   <g id="patch_5">
    <path d="M 252 833.04 
L 962.181818 833.04 
" style="fill:none;stroke:#000000;stroke-linecap:square;stroke-linejoin:miter;stroke-width:0.8;"/>
   </g>
   <g id="patch_6">
    <path d="M 252 112.32 
L 962.181818 112.32 
" style="fill:none;stroke:#000000;stroke-linecap:square;stroke-linejoin:miter;stroke-width:0.8;"/>
   </g>
   <g id="text_19">
    <!-- Saturation for updraft velocity= 2[m/s] -->
    <defs>
     <path d="M 53.515625 70.515625 
L 53.515625 60.890625 
Q 47.90625 63.578125 42.921875 64.890625 
Q 37.9375 66.21875 33.296875 66.21875 
Q 25.25 66.21875 20.875 63.09375 
Q 16.5 59.96875 16.5 54.203125 
Q 16.5 49.359375 19.40625 46.890625 
Q 22.3125 44.4375 30.421875 42.921875 
L 36.375 41.703125 
Q 47.40625 39.59375 52.65625 34.296875 
Q 57.90625 29 57.90625 20.125 
Q 57.90625 9.515625 50.796875 4.046875 
Q 43.703125 -1.421875 29.984375 -1.421875 
Q 24.8125 -1.421875 18.96875 -0.25 
Q 13.140625 0.921875 6.890625 3.21875 
L 6.890625 13.375 
Q 12.890625 10.015625 18.65625 8.296875 
Q 24.421875 6.59375 29.984375 6.59375 
Q 38.421875 6.59375 43.015625 9.90625 
Q 47.609375 13.234375 47.609375 19.390625 
Q 47.609375 24.75 44.3125 27.78125 
Q 41.015625 30.8125 33.5 32.328125 
L 27.484375 33.5 
Q 16.453125 35.6875 11.515625 40.375 
Q 6.59375 45.0625 6.59375 53.421875 
Q 6.59375 63.09375 13.40625 68.65625 
Q 20.21875 74.21875 32.171875 74.21875 
Q 37.3125 74.21875 42.625 73.28125 
Q 47.953125 72.359375 53.515625 70.515625 
z
" id="DejaVuSans-53"/>
     <path d="M 34.28125 27.484375 
Q 23.390625 27.484375 19.1875 25 
Q 14.984375 22.515625 14.984375 16.5 
Q 14.984375 11.71875 18.140625 8.90625 
Q 21.296875 6.109375 26.703125 6.109375 
Q 34.1875 6.109375 38.703125 11.40625 
Q 43.21875 16.703125 43.21875 25.484375 
L 43.21875 27.484375 
z
M 52.203125 31.203125 
L 52.203125 0 
L 43.21875 0 
L 43.21875 8.296875 
Q 40.140625 3.328125 35.546875 0.953125 
Q 30.953125 -1.421875 24.3125 -1.421875 
Q 15.921875 -1.421875 10.953125 3.296875 
Q 6 8.015625 6 15.921875 
Q 6 25.140625 12.171875 29.828125 
Q 18.359375 34.515625 30.609375 34.515625 
L 43.21875 34.515625 
L 43.21875 35.40625 
Q 43.21875 41.609375 39.140625 45 
Q 35.0625 48.390625 27.6875 48.390625 
Q 23 48.390625 18.546875 47.265625 
Q 14.109375 46.140625 10.015625 43.890625 
L 10.015625 52.203125 
Q 14.9375 54.109375 19.578125 55.046875 
Q 24.21875 56 28.609375 56 
Q 40.484375 56 46.34375 49.84375 
Q 52.203125 43.703125 52.203125 31.203125 
z
" id="DejaVuSans-61"/>
     <path d="M 18.3125 70.21875 
L 18.3125 54.6875 
L 36.8125 54.6875 
L 36.8125 47.703125 
L 18.3125 47.703125 
L 18.3125 18.015625 
Q 18.3125 11.328125 20.140625 9.421875 
Q 21.96875 7.515625 27.59375 7.515625 
L 36.8125 7.515625 
L 36.8125 0 
L 27.59375 0 
Q 17.1875 0 13.234375 3.875 
Q 9.28125 7.765625 9.28125 18.015625 
L 9.28125 47.703125 
L 2.6875 47.703125 
L 2.6875 54.6875 
L 9.28125 54.6875 
L 9.28125 70.21875 
z
" id="DejaVuSans-74"/>
     <path d="M 8.5 21.578125 
L 8.5 54.6875 
L 17.484375 54.6875 
L 17.484375 21.921875 
Q 17.484375 14.15625 20.5 10.265625 
Q 23.53125 6.390625 29.59375 6.390625 
Q 36.859375 6.390625 41.078125 11.03125 
Q 45.3125 15.671875 45.3125 23.6875 
L 45.3125 54.6875 
L 54.296875 54.6875 
L 54.296875 0 
L 45.3125 0 
L 45.3125 8.40625 
Q 42.046875 3.421875 37.71875 1 
Q 33.40625 -1.421875 27.6875 -1.421875 
Q 18.265625 -1.421875 13.375 4.4375 
Q 8.5 10.296875 8.5 21.578125 
z
M 31.109375 56 
z
" id="DejaVuSans-75"/>
     <path d="M 41.109375 46.296875 
Q 39.59375 47.171875 37.8125 47.578125 
Q 36.03125 48 33.890625 48 
Q 26.265625 48 22.1875 43.046875 
Q 18.109375 38.09375 18.109375 28.8125 
L 18.109375 0 
L 9.078125 0 
L 9.078125 54.6875 
L 18.109375 54.6875 
L 18.109375 46.1875 
Q 20.953125 51.171875 25.484375 53.578125 
Q 30.03125 56 36.53125 56 
Q 37.453125 56 38.578125 55.875 
Q 39.703125 55.765625 41.0625 55.515625 
z
" id="DejaVuSans-72"/>
     <path d="M 9.421875 54.6875 
L 18.40625 54.6875 
L 18.40625 0 
L 9.421875 0 
z
M 9.421875 75.984375 
L 18.40625 75.984375 
L 18.40625 64.59375 
L 9.421875 64.59375 
z
" id="DejaVuSans-69"/>
     <path d="M 30.609375 48.390625 
Q 23.390625 48.390625 19.1875 42.75 
Q 14.984375 37.109375 14.984375 27.296875 
Q 14.984375 17.484375 19.15625 11.84375 
Q 23.34375 6.203125 30.609375 6.203125 
Q 37.796875 6.203125 41.984375 11.859375 
Q 46.1875 17.53125 46.1875 27.296875 
Q 46.1875 37.015625 41.984375 42.703125 
Q 37.796875 48.390625 30.609375 48.390625 
z
M 30.609375 56 
Q 42.328125 56 49.015625 48.375 
Q 55.71875 40.765625 55.71875 27.296875 
Q 55.71875 13.875 49.015625 6.21875 
Q 42.328125 -1.421875 30.609375 -1.421875 
Q 18.84375 -1.421875 12.171875 6.21875 
Q 5.515625 13.875 5.515625 27.296875 
Q 5.515625 40.765625 12.171875 48.375 
Q 18.84375 56 30.609375 56 
z
" id="DejaVuSans-6f"/>
     <path d="M 54.890625 33.015625 
L 54.890625 0 
L 45.90625 0 
L 45.90625 32.71875 
Q 45.90625 40.484375 42.875 44.328125 
Q 39.84375 48.1875 33.796875 48.1875 
Q 26.515625 48.1875 22.3125 43.546875 
Q 18.109375 38.921875 18.109375 30.90625 
L 18.109375 0 
L 9.078125 0 
L 9.078125 54.6875 
L 18.109375 54.6875 
L 18.109375 46.1875 
Q 21.34375 51.125 25.703125 53.5625 
Q 30.078125 56 35.796875 56 
Q 45.21875 56 50.046875 50.171875 
Q 54.890625 44.34375 54.890625 33.015625 
z
" id="DejaVuSans-6e"/>
     <path d="M 37.109375 75.984375 
L 37.109375 68.5 
L 28.515625 68.5 
Q 23.6875 68.5 21.796875 66.546875 
Q 19.921875 64.59375 19.921875 59.515625 
L 19.921875 54.6875 
L 34.71875 54.6875 
L 34.71875 47.703125 
L 19.921875 47.703125 
L 19.921875 0 
L 10.890625 0 
L 10.890625 47.703125 
L 2.296875 47.703125 
L 2.296875 54.6875 
L 10.890625 54.6875 
L 10.890625 58.5 
Q 10.890625 67.625 15.140625 71.796875 
Q 19.390625 75.984375 28.609375 75.984375 
z
" id="DejaVuSans-66"/>
     <path d="M 18.109375 8.203125 
L 18.109375 -20.796875 
L 9.078125 -20.796875 
L 9.078125 54.6875 
L 18.109375 54.6875 
L 18.109375 46.390625 
Q 20.953125 51.265625 25.265625 53.625 
Q 29.59375 56 35.59375 56 
Q 45.5625 56 51.78125 48.09375 
Q 58.015625 40.1875 58.015625 27.296875 
Q 58.015625 14.40625 51.78125 6.484375 
Q 45.5625 -1.421875 35.59375 -1.421875 
Q 29.59375 -1.421875 25.265625 0.953125 
Q 20.953125 3.328125 18.109375 8.203125 
z
M 48.6875 27.296875 
Q 48.6875 37.203125 44.609375 42.84375 
Q 40.53125 48.484375 33.40625 48.484375 
Q 26.265625 48.484375 22.1875 42.84375 
Q 18.109375 37.203125 18.109375 27.296875 
Q 18.109375 17.390625 22.1875 11.75 
Q 26.265625 6.109375 33.40625 6.109375 
Q 40.53125 6.109375 44.609375 11.75 
Q 48.6875 17.390625 48.6875 27.296875 
z
" id="DejaVuSans-70"/>
     <path d="M 45.40625 46.390625 
L 45.40625 75.984375 
L 54.390625 75.984375 
L 54.390625 0 
L 45.40625 0 
L 45.40625 8.203125 
Q 42.578125 3.328125 38.25 0.953125 
Q 33.9375 -1.421875 27.875 -1.421875 
Q 17.96875 -1.421875 11.734375 6.484375 
Q 5.515625 14.40625 5.515625 27.296875 
Q 5.515625 40.1875 11.734375 48.09375 
Q 17.96875 56 27.875 56 
Q 33.9375 56 38.25 53.625 
Q 42.578125 51.265625 45.40625 46.390625 
z
M 14.796875 27.296875 
Q 14.796875 17.390625 18.875 11.75 
Q 22.953125 6.109375 30.078125 6.109375 
Q 37.203125 6.109375 41.296875 11.75 
Q 45.40625 17.390625 45.40625 27.296875 
Q 45.40625 37.203125 41.296875 42.84375 
Q 37.203125 48.484375 30.078125 48.484375 
Q 22.953125 48.484375 18.875 42.84375 
Q 14.796875 37.203125 14.796875 27.296875 
z
" id="DejaVuSans-64"/>
     <path d="M 2.984375 54.6875 
L 12.5 54.6875 
L 29.59375 8.796875 
L 46.6875 54.6875 
L 56.203125 54.6875 
L 35.6875 0 
L 23.484375 0 
z
" id="DejaVuSans-76"/>
     <path d="M 56.203125 29.59375 
L 56.203125 25.203125 
L 14.890625 25.203125 
Q 15.484375 15.921875 20.484375 11.0625 
Q 25.484375 6.203125 34.421875 6.203125 
Q 39.59375 6.203125 44.453125 7.46875 
Q 49.3125 8.734375 54.109375 11.28125 
L 54.109375 2.78125 
Q 49.265625 0.734375 44.1875 -0.34375 
Q 39.109375 -1.421875 33.890625 -1.421875 
Q 20.796875 -1.421875 13.15625 6.1875 
Q 5.515625 13.8125 5.515625 26.8125 
Q 5.515625 40.234375 12.765625 48.109375 
Q 20.015625 56 32.328125 56 
Q 43.359375 56 49.78125 48.890625 
Q 56.203125 41.796875 56.203125 29.59375 
z
M 47.21875 32.234375 
Q 47.125 39.59375 43.09375 43.984375 
Q 39.0625 48.390625 32.421875 48.390625 
Q 24.90625 48.390625 20.390625 44.140625 
Q 15.875 39.890625 15.1875 32.171875 
z
" id="DejaVuSans-65"/>
     <path d="M 9.421875 75.984375 
L 18.40625 75.984375 
L 18.40625 0 
L 9.421875 0 
z
" id="DejaVuSans-6c"/>
     <path d="M 48.78125 52.59375 
L 48.78125 44.1875 
Q 44.96875 46.296875 41.140625 47.34375 
Q 37.3125 48.390625 33.40625 48.390625 
Q 24.65625 48.390625 19.8125 42.84375 
Q 14.984375 37.3125 14.984375 27.296875 
Q 14.984375 17.28125 19.8125 11.734375 
Q 24.65625 6.203125 33.40625 6.203125 
Q 37.3125 6.203125 41.140625 7.25 
Q 44.96875 8.296875 48.78125 10.40625 
L 48.78125 2.09375 
Q 45.015625 0.34375 40.984375 -0.53125 
Q 36.96875 -1.421875 32.421875 -1.421875 
Q 20.0625 -1.421875 12.78125 6.34375 
Q 5.515625 14.109375 5.515625 27.296875 
Q 5.515625 40.671875 12.859375 48.328125 
Q 20.21875 56 33.015625 56 
Q 37.15625 56 41.109375 55.140625 
Q 45.0625 54.296875 48.78125 52.59375 
z
" id="DejaVuSans-63"/>
     <path d="M 32.171875 -5.078125 
Q 28.375 -14.84375 24.75 -17.8125 
Q 21.140625 -20.796875 15.09375 -20.796875 
L 7.90625 -20.796875 
L 7.90625 -13.28125 
L 13.1875 -13.28125 
Q 16.890625 -13.28125 18.9375 -11.515625 
Q 21 -9.765625 23.484375 -3.21875 
L 25.09375 0.875 
L 2.984375 54.6875 
L 12.5 54.6875 
L 29.59375 11.921875 
L 46.6875 54.6875 
L 56.203125 54.6875 
z
" id="DejaVuSans-79"/>
     <path d="M 10.59375 45.40625 
L 73.1875 45.40625 
L 73.1875 37.203125 
L 10.59375 37.203125 
z
M 10.59375 25.484375 
L 73.1875 25.484375 
L 73.1875 17.1875 
L 10.59375 17.1875 
z
" id="DejaVuSans-3d"/>
     <path d="M 25.390625 72.90625 
L 33.6875 72.90625 
L 8.296875 -9.28125 
L 0 -9.28125 
z
" id="DejaVuSans-2f"/>
     <path d="M 44.28125 53.078125 
L 44.28125 44.578125 
Q 40.484375 46.53125 36.375 47.5 
Q 32.28125 48.484375 27.875 48.484375 
Q 21.1875 48.484375 17.84375 46.4375 
Q 14.5 44.390625 14.5 40.28125 
Q 14.5 37.15625 16.890625 35.375 
Q 19.28125 33.59375 26.515625 31.984375 
L 29.59375 31.296875 
Q 39.15625 29.25 43.1875 25.515625 
Q 47.21875 21.78125 47.21875 15.09375 
Q 47.21875 7.46875 41.1875 3.015625 
Q 35.15625 -1.421875 24.609375 -1.421875 
Q 20.21875 -1.421875 15.453125 -0.5625 
Q 10.6875 0.296875 5.421875 2 
L 5.421875 11.28125 
Q 10.40625 8.6875 15.234375 7.390625 
Q 20.0625 6.109375 24.8125 6.109375 
Q 31.15625 6.109375 34.5625 8.28125 
Q 37.984375 10.453125 37.984375 14.40625 
Q 37.984375 18.0625 35.515625 20.015625 
Q 33.0625 21.96875 24.703125 23.78125 
L 21.578125 24.515625 
Q 13.234375 26.265625 9.515625 29.90625 
Q 5.8125 33.546875 5.8125 39.890625 
Q 5.8125 47.609375 11.28125 51.796875 
Q 16.75 56 26.8125 56 
Q 31.78125 56 36.171875 55.265625 
Q 40.578125 54.546875 44.28125 53.078125 
z
" id="DejaVuSans-73"/>
    </defs>
    <g transform="translate(396.219222 106.32)scale(0.216 -0.216)">
     <use xlink:href="#DejaVuSans-53"/>
     <use x="63.476562" xlink:href="#DejaVuSans-61"/>
     <use x="124.755859" xlink:href="#DejaVuSans-74"/>
     <use x="163.964844" xlink:href="#DejaVuSans-75"/>
     <use x="227.34375" xlink:href="#DejaVuSans-72"/>
     <use x="268.457031" xlink:href="#DejaVuSans-61"/>
     <use x="329.736328" xlink:href="#DejaVuSans-74"/>
     <use x="368.945312" xlink:href="#DejaVuSans-69"/>
     <use x="396.728516" xlink:href="#DejaVuSans-6f"/>
     <use x="457.910156" xlink:href="#DejaVuSans-6e"/>
     <use x="521.289062" xlink:href="#DejaVuSans-20"/>
     <use x="553.076172" xlink:href="#DejaVuSans-66"/>
     <use x="588.28125" xlink:href="#DejaVuSans-6f"/>
     <use x="649.462891" xlink:href="#DejaVuSans-72"/>
     <use x="690.576172" xlink:href="#DejaVuSans-20"/>
     <use x="722.363281" xlink:href="#DejaVuSans-75"/>
     <use x="785.742188" xlink:href="#DejaVuSans-70"/>
     <use x="849.21875" xlink:href="#DejaVuSans-64"/>
     <use x="912.695312" xlink:href="#DejaVuSans-72"/>
     <use x="953.808594" xlink:href="#DejaVuSans-61"/>
     <use x="1015.087891" xlink:href="#DejaVuSans-66"/>
     <use x="1050.277344" xlink:href="#DejaVuSans-74"/>
     <use x="1089.486328" xlink:href="#DejaVuSans-20"/>
     <use x="1121.273438" xlink:href="#DejaVuSans-76"/>
     <use x="1180.453125" xlink:href="#DejaVuSans-65"/>
     <use x="1241.976562" xlink:href="#DejaVuSans-6c"/>
     <use x="1269.759766" xlink:href="#DejaVuSans-6f"/>
     <use x="1330.941406" xlink:href="#DejaVuSans-63"/>
     <use x="1385.921875" xlink:href="#DejaVuSans-69"/>
     <use x="1413.705078" xlink:href="#DejaVuSans-74"/>
     <use x="1452.914062" xlink:href="#DejaVuSans-79"/>
     <use x="1512.09375" xlink:href="#DejaVuSans-3d"/>
     <use x="1595.882812" xlink:href="#DejaVuSans-20"/>
     <use x="1627.669922" xlink:href="#DejaVuSans-32"/>
     <use x="1691.292969" xlink:href="#DejaVuSans-5b"/>
     <use x="1730.306641" xlink:href="#DejaVuSans-6d"/>
     <use x="1827.71875" xlink:href="#DejaVuSans-2f"/>
     <use x="1861.410156" xlink:href="#DejaVuSans-73"/>
     <use x="1913.509766" xlink:href="#DejaVuSans-5d"/>
    </g>
   </g>
   <g id="legend_1">
    <g id="patch_7">
     <path d="M 264.6 285.24375 
L 486.63 285.24375 
Q 490.23 285.24375 490.23 281.64375 
L 490.23 124.92 
Q 490.23 121.32 486.63 121.32 
L 264.6 121.32 
Q 261 121.32 261 124.92 
L 261 281.64375 
Q 261 285.24375 264.6 285.24375 
z
" style="fill:#ffffff;opacity:0.8;stroke:#cccccc;stroke-linejoin:miter;"/>
    </g>
    <g id="text_20">
     <!-- Condensation time step -->
     <defs>
      <path d="M 64.40625 67.28125 
L 64.40625 56.890625 
Q 59.421875 61.53125 53.78125 63.8125 
Q 48.140625 66.109375 41.796875 66.109375 
Q 29.296875 66.109375 22.65625 58.46875 
Q 16.015625 50.828125 16.015625 36.375 
Q 16.015625 21.96875 22.65625 14.328125 
Q 29.296875 6.6875 41.796875 6.6875 
Q 48.140625 6.6875 53.78125 8.984375 
Q 59.421875 11.28125 64.40625 15.921875 
L 64.40625 5.609375 
Q 59.234375 2.09375 53.4375 0.328125 
Q 47.65625 -1.421875 41.21875 -1.421875 
Q 24.65625 -1.421875 15.125 8.703125 
Q 5.609375 18.84375 5.609375 36.375 
Q 5.609375 53.953125 15.125 64.078125 
Q 24.65625 74.21875 41.21875 74.21875 
Q 47.75 74.21875 53.53125 72.484375 
Q 59.328125 70.75 64.40625 67.28125 
z
" id="DejaVuSans-43"/>
     </defs>
     <g transform="translate(268.2 142.197188)scale(0.18 -0.18)">
      <use xlink:href="#DejaVuSans-43"/>
      <use x="69.824219" xlink:href="#DejaVuSans-6f"/>
      <use x="131.005859" xlink:href="#DejaVuSans-6e"/>
      <use x="194.384766" xlink:href="#DejaVuSans-64"/>
      <use x="257.861328" xlink:href="#DejaVuSans-65"/>
      <use x="319.384766" xlink:href="#DejaVuSans-6e"/>
      <use x="382.763672" xlink:href="#DejaVuSans-73"/>
      <use x="434.863281" xlink:href="#DejaVuSans-61"/>
      <use x="496.142578" xlink:href="#DejaVuSans-74"/>
      <use x="535.351562" xlink:href="#DejaVuSans-69"/>
      <use x="563.134766" xlink:href="#DejaVuSans-6f"/>
      <use x="624.316406" xlink:href="#DejaVuSans-6e"/>
      <use x="687.695312" xlink:href="#DejaVuSans-20"/>
      <use x="719.482422" xlink:href="#DejaVuSans-74"/>
      <use x="758.691406" xlink:href="#DejaVuSans-69"/>
      <use x="786.474609" xlink:href="#DejaVuSans-6d"/>
      <use x="883.886719" xlink:href="#DejaVuSans-65"/>
      <use x="945.410156" xlink:href="#DejaVuSans-20"/>
      <use x="977.197266" xlink:href="#DejaVuSans-73"/>
      <use x="1029.296875" xlink:href="#DejaVuSans-74"/>
      <use x="1068.505859" xlink:href="#DejaVuSans-65"/>
      <use x="1130.029297" xlink:href="#DejaVuSans-70"/>
     </g>
    </g>
    <g id="line2d_43">
     <path d="M 330.204375 162.317813 
L 366.204375 162.317813 
" style="fill:none;stroke:#1f77b4;stroke-linecap:square;stroke-width:1.5;"/>
    </g>
    <g id="line2d_44"/>
    <g id="text_21">
     <!-- 1/1 -->
     <g transform="translate(380.604375 168.617813)scale(0.18 -0.18)">
      <use xlink:href="#DejaVuSans-31"/>
      <use x="63.623047" xlink:href="#DejaVuSans-2f"/>
      <use x="97.314453" xlink:href="#DejaVuSans-31"/>
     </g>
    </g>
    <g id="line2d_45">
     <path d="M 330.204375 188.738438 
L 366.204375 188.738438 
" style="fill:none;stroke:#2ca02c;stroke-linecap:square;stroke-width:1.5;"/>
    </g>
    <g id="line2d_46"/>
    <g id="text_22">
     <!-- 1/2 -->
     <g transform="translate(380.604375 195.038438)scale(0.18 -0.18)">
      <use xlink:href="#DejaVuSans-31"/>
      <use x="63.623047" xlink:href="#DejaVuSans-2f"/>
      <use x="97.314453" xlink:href="#DejaVuSans-32"/>
     </g>
    </g>
    <g id="line2d_47">
     <path d="M 330.204375 215.159063 
L 366.204375 215.159063 
" style="fill:none;stroke:#9467bd;stroke-linecap:square;stroke-width:1.5;"/>
    </g>
    <g id="line2d_48"/>
    <g id="text_23">
     <!-- 1/5 -->
     <g transform="translate(380.604375 221.459063)scale(0.18 -0.18)">
      <use xlink:href="#DejaVuSans-31"/>
      <use x="63.623047" xlink:href="#DejaVuSans-2f"/>
      <use x="97.314453" xlink:href="#DejaVuSans-35"/>
     </g>
    </g>
    <g id="line2d_49">
     <path d="M 330.204375 241.579688 
L 366.204375 241.579688 
" style="fill:none;stroke:#e377c2;stroke-linecap:square;stroke-width:1.5;"/>
    </g>
    <g id="line2d_50"/>
    <g id="text_24">
     <!-- 1/10 -->
     <g transform="translate(380.604375 247.879688)scale(0.18 -0.18)">
      <use xlink:href="#DejaVuSans-31"/>
      <use x="63.623047" xlink:href="#DejaVuSans-2f"/>
      <use x="97.314453" xlink:href="#DejaVuSans-31"/>
      <use x="160.9375" xlink:href="#DejaVuSans-30"/>
     </g>
    </g>
    <g id="line2d_51">
     <path d="M 330.204375 268.000313 
L 366.204375 268.000313 
" style="fill:none;stroke:#bcbd22;stroke-linecap:square;stroke-width:1.5;"/>
    </g>
    <g id="line2d_52"/>
    <g id="text_25">
     <!-- 1/20 -->
     <g transform="translate(380.604375 274.300313)scale(0.18 -0.18)">
      <use xlink:href="#DejaVuSans-31"/>
      <use x="63.623047" xlink:href="#DejaVuSans-2f"/>
      <use x="97.314453" xlink:href="#DejaVuSans-32"/>
      <use x="160.9375" xlink:href="#DejaVuSans-30"/>
     </g>
    </g>
   </g>
  </g>
  <g id="axes_2">
   <g id="patch_8">
    <path d="M 1104.218182 833.04 
L 1814.4 833.04 
L 1814.4 112.32 
L 1104.218182 112.32 
z
" style="fill:#ffffff;"/>
   </g>
   <g id="matplotlib.axis_3">
    <g id="xtick_8">
     <g id="line2d_53">
      <path clip-path="url(#pdcf4ffb73c)" d="M 1134.65947 833.04 
L 1134.65947 112.32 
" style="fill:none;stroke:#b0b0b0;stroke-linecap:square;stroke-width:0.8;"/>
     </g>
     <g id="line2d_54">
      <g>
       <use style="stroke:#000000;stroke-width:0.8;" x="1134.65947" xlink:href="#m2a02d437ff" y="833.04"/>
      </g>
     </g>
     <g id="text_26">
      <!-- 0.0 -->
      <g transform="translate(1120.346657 853.717188)scale(0.18 -0.18)">
       <use xlink:href="#DejaVuSans-30"/>
       <use x="63.623047" xlink:href="#DejaVuSans-2e"/>
       <use x="95.410156" xlink:href="#DejaVuSans-30"/>
      </g>
     </g>
    </g>
    <g id="xtick_9">
     <g id="line2d_55">
      <path clip-path="url(#pdcf4ffb73c)" d="M 1226.635234 833.04 
L 1226.635234 112.32 
" style="fill:none;stroke:#b0b0b0;stroke-linecap:square;stroke-width:0.8;"/>
     </g>
     <g id="line2d_56">
      <g>
       <use style="stroke:#000000;stroke-width:0.8;" x="1226.635234" xlink:href="#m2a02d437ff" y="833.04"/>
      </g>
     </g>
     <g id="text_27">
      <!-- 0.2 -->
      <g transform="translate(1212.322421 853.717188)scale(0.18 -0.18)">
       <use xlink:href="#DejaVuSans-30"/>
       <use x="63.623047" xlink:href="#DejaVuSans-2e"/>
       <use x="95.410156" xlink:href="#DejaVuSans-32"/>
      </g>
     </g>
    </g>
    <g id="xtick_10">
     <g id="line2d_57">
      <path clip-path="url(#pdcf4ffb73c)" d="M 1318.610998 833.04 
L 1318.610998 112.32 
" style="fill:none;stroke:#b0b0b0;stroke-linecap:square;stroke-width:0.8;"/>
     </g>
     <g id="line2d_58">
      <g>
       <use style="stroke:#000000;stroke-width:0.8;" x="1318.610998" xlink:href="#m2a02d437ff" y="833.04"/>
      </g>
     </g>
     <g id="text_28">
      <!-- 0.4 -->
      <defs>
       <path d="M 37.796875 64.3125 
L 12.890625 25.390625 
L 37.796875 25.390625 
z
M 35.203125 72.90625 
L 47.609375 72.90625 
L 47.609375 25.390625 
L 58.015625 25.390625 
L 58.015625 17.1875 
L 47.609375 17.1875 
L 47.609375 0 
L 37.796875 0 
L 37.796875 17.1875 
L 4.890625 17.1875 
L 4.890625 26.703125 
z
" id="DejaVuSans-34"/>
      </defs>
      <g transform="translate(1304.298186 853.717188)scale(0.18 -0.18)">
       <use xlink:href="#DejaVuSans-30"/>
       <use x="63.623047" xlink:href="#DejaVuSans-2e"/>
       <use x="95.410156" xlink:href="#DejaVuSans-34"/>
      </g>
     </g>
    </g>
    <g id="xtick_11">
     <g id="line2d_59">
      <path clip-path="url(#pdcf4ffb73c)" d="M 1410.586762 833.04 
L 1410.586762 112.32 
" style="fill:none;stroke:#b0b0b0;stroke-linecap:square;stroke-width:0.8;"/>
     </g>
     <g id="line2d_60">
      <g>
       <use style="stroke:#000000;stroke-width:0.8;" x="1410.586762" xlink:href="#m2a02d437ff" y="833.04"/>
      </g>
     </g>
     <g id="text_29">
      <!-- 0.6 -->
      <defs>
       <path d="M 33.015625 40.375 
Q 26.375 40.375 22.484375 35.828125 
Q 18.609375 31.296875 18.609375 23.390625 
Q 18.609375 15.53125 22.484375 10.953125 
Q 26.375 6.390625 33.015625 6.390625 
Q 39.65625 6.390625 43.53125 10.953125 
Q 47.40625 15.53125 47.40625 23.390625 
Q 47.40625 31.296875 43.53125 35.828125 
Q 39.65625 40.375 33.015625 40.375 
z
M 52.59375 71.296875 
L 52.59375 62.3125 
Q 48.875 64.0625 45.09375 64.984375 
Q 41.3125 65.921875 37.59375 65.921875 
Q 27.828125 65.921875 22.671875 59.328125 
Q 17.53125 52.734375 16.796875 39.40625 
Q 19.671875 43.65625 24.015625 45.921875 
Q 28.375 48.1875 33.59375 48.1875 
Q 44.578125 48.1875 50.953125 41.515625 
Q 57.328125 34.859375 57.328125 23.390625 
Q 57.328125 12.15625 50.6875 5.359375 
Q 44.046875 -1.421875 33.015625 -1.421875 
Q 20.359375 -1.421875 13.671875 8.265625 
Q 6.984375 17.96875 6.984375 36.375 
Q 6.984375 53.65625 15.1875 63.9375 
Q 23.390625 74.21875 37.203125 74.21875 
Q 40.921875 74.21875 44.703125 73.484375 
Q 48.484375 72.75 52.59375 71.296875 
z
" id="DejaVuSans-36"/>
      </defs>
      <g transform="translate(1396.27395 853.717188)scale(0.18 -0.18)">
       <use xlink:href="#DejaVuSans-30"/>
       <use x="63.623047" xlink:href="#DejaVuSans-2e"/>
       <use x="95.410156" xlink:href="#DejaVuSans-36"/>
      </g>
     </g>
    </g>
    <g id="xtick_12">
     <g id="line2d_61">
      <path clip-path="url(#pdcf4ffb73c)" d="M 1502.562527 833.04 
L 1502.562527 112.32 
" style="fill:none;stroke:#b0b0b0;stroke-linecap:square;stroke-width:0.8;"/>
     </g>
     <g id="line2d_62">
      <g>
       <use style="stroke:#000000;stroke-width:0.8;" x="1502.562527" xlink:href="#m2a02d437ff" y="833.04"/>
      </g>
     </g>
     <g id="text_30">
      <!-- 0.8 -->
      <g transform="translate(1488.249714 853.717188)scale(0.18 -0.18)">
       <use xlink:href="#DejaVuSans-30"/>
       <use x="63.623047" xlink:href="#DejaVuSans-2e"/>
       <use x="95.410156" xlink:href="#DejaVuSans-38"/>
      </g>
     </g>
    </g>
    <g id="xtick_13">
     <g id="line2d_63">
      <path clip-path="url(#pdcf4ffb73c)" d="M 1594.538291 833.04 
L 1594.538291 112.32 
" style="fill:none;stroke:#b0b0b0;stroke-linecap:square;stroke-width:0.8;"/>
     </g>
     <g id="line2d_64">
      <g>
       <use style="stroke:#000000;stroke-width:0.8;" x="1594.538291" xlink:href="#m2a02d437ff" y="833.04"/>
      </g>
     </g>
     <g id="text_31">
      <!-- 1.0 -->
      <g transform="translate(1580.225478 853.717188)scale(0.18 -0.18)">
       <use xlink:href="#DejaVuSans-31"/>
       <use x="63.623047" xlink:href="#DejaVuSans-2e"/>
       <use x="95.410156" xlink:href="#DejaVuSans-30"/>
      </g>
     </g>
    </g>
    <g id="xtick_14">
     <g id="line2d_65">
      <path clip-path="url(#pdcf4ffb73c)" d="M 1686.514055 833.04 
L 1686.514055 112.32 
" style="fill:none;stroke:#b0b0b0;stroke-linecap:square;stroke-width:0.8;"/>
     </g>
     <g id="line2d_66">
      <g>
       <use style="stroke:#000000;stroke-width:0.8;" x="1686.514055" xlink:href="#m2a02d437ff" y="833.04"/>
      </g>
     </g>
     <g id="text_32">
      <!-- 1.2 -->
      <g transform="translate(1672.201243 853.717188)scale(0.18 -0.18)">
       <use xlink:href="#DejaVuSans-31"/>
       <use x="63.623047" xlink:href="#DejaVuSans-2e"/>
       <use x="95.410156" xlink:href="#DejaVuSans-32"/>
      </g>
     </g>
    </g>
    <g id="xtick_15">
     <g id="line2d_67">
      <path clip-path="url(#pdcf4ffb73c)" d="M 1778.489819 833.04 
L 1778.489819 112.32 
" style="fill:none;stroke:#b0b0b0;stroke-linecap:square;stroke-width:0.8;"/>
     </g>
     <g id="line2d_68">
      <g>
       <use style="stroke:#000000;stroke-width:0.8;" x="1778.489819" xlink:href="#m2a02d437ff" y="833.04"/>
      </g>
     </g>
     <g id="text_33">
      <!-- 1.4 -->
      <g transform="translate(1764.177007 853.717188)scale(0.18 -0.18)">
       <use xlink:href="#DejaVuSans-31"/>
       <use x="63.623047" xlink:href="#DejaVuSans-2e"/>
       <use x="95.410156" xlink:href="#DejaVuSans-34"/>
      </g>
     </g>
    </g>
    <g id="text_34">
     <!-- Moment 0 -->
     <defs>
      <path d="M 9.8125 72.90625 
L 24.515625 72.90625 
L 43.109375 23.296875 
L 61.8125 72.90625 
L 76.515625 72.90625 
L 76.515625 0 
L 66.890625 0 
L 66.890625 64.015625 
L 48.09375 14.015625 
L 38.1875 14.015625 
L 19.390625 64.015625 
L 19.390625 0 
L 9.8125 0 
z
" id="DejaVuSans-4d"/>
     </defs>
     <g transform="translate(1413.913935 875.137812)scale(0.18 -0.18)">
      <use xlink:href="#DejaVuSans-4d"/>
      <use x="86.279297" xlink:href="#DejaVuSans-6f"/>
      <use x="147.460938" xlink:href="#DejaVuSans-6d"/>
      <use x="244.873047" xlink:href="#DejaVuSans-65"/>
      <use x="306.396484" xlink:href="#DejaVuSans-6e"/>
      <use x="369.775391" xlink:href="#DejaVuSans-74"/>
      <use x="408.984375" xlink:href="#DejaVuSans-20"/>
      <use x="440.771484" xlink:href="#DejaVuSans-30"/>
     </g>
    </g>
    <g id="text_35">
     <!-- 1e8 -->
     <g transform="translate(1780.419375 874.137812)scale(0.18 -0.18)">
      <use xlink:href="#DejaVuSans-31"/>
      <use x="63.623047" xlink:href="#DejaVuSans-65"/>
      <use x="125.146484" xlink:href="#DejaVuSans-38"/>
     </g>
    </g>
   </g>
   <g id="matplotlib.axis_4">
    <g id="ytick_10">
     <g id="line2d_69">
      <path clip-path="url(#pdcf4ffb73c)" d="M 1104.218182 800.28 
L 1814.4 800.28 
" style="fill:none;stroke:#b0b0b0;stroke-linecap:square;stroke-width:0.8;"/>
     </g>
     <g id="line2d_70">
      <g>
       <use style="stroke:#000000;stroke-width:0.8;" x="1104.218182" xlink:href="#m52c8bb0ce7" y="800.28"/>
      </g>
     </g>
     <g id="text_36">
      <!-- 0 -->
      <g transform="translate(1085.765682 807.118594)scale(0.18 -0.18)">
       <use xlink:href="#DejaVuSans-30"/>
      </g>
     </g>
    </g>
    <g id="ytick_11">
     <g id="line2d_71">
      <path clip-path="url(#pdcf4ffb73c)" d="M 1104.218182 718.38 
L 1814.4 718.38 
" style="fill:none;stroke:#b0b0b0;stroke-linecap:square;stroke-width:0.8;"/>
     </g>
     <g id="line2d_72">
      <g>
       <use style="stroke:#000000;stroke-width:0.8;" x="1104.218182" xlink:href="#m52c8bb0ce7" y="718.38"/>
      </g>
     </g>
     <g id="text_37">
      <!-- 25 -->
      <g transform="translate(1074.313182 725.218594)scale(0.18 -0.18)">
       <use xlink:href="#DejaVuSans-32"/>
       <use x="63.623047" xlink:href="#DejaVuSans-35"/>
      </g>
     </g>
    </g>
    <g id="ytick_12">
     <g id="line2d_73">
      <path clip-path="url(#pdcf4ffb73c)" d="M 1104.218182 636.48 
L 1814.4 636.48 
" style="fill:none;stroke:#b0b0b0;stroke-linecap:square;stroke-width:0.8;"/>
     </g>
     <g id="line2d_74">
      <g>
       <use style="stroke:#000000;stroke-width:0.8;" x="1104.218182" xlink:href="#m52c8bb0ce7" y="636.48"/>
      </g>
     </g>
     <g id="text_38">
      <!-- 50 -->
      <g transform="translate(1074.313182 643.318594)scale(0.18 -0.18)">
       <use xlink:href="#DejaVuSans-35"/>
       <use x="63.623047" xlink:href="#DejaVuSans-30"/>
      </g>
     </g>
    </g>
    <g id="ytick_13">
     <g id="line2d_75">
      <path clip-path="url(#pdcf4ffb73c)" d="M 1104.218182 554.58 
L 1814.4 554.58 
" style="fill:none;stroke:#b0b0b0;stroke-linecap:square;stroke-width:0.8;"/>
     </g>
     <g id="line2d_76">
      <g>
       <use style="stroke:#000000;stroke-width:0.8;" x="1104.218182" xlink:href="#m52c8bb0ce7" y="554.58"/>
      </g>
     </g>
     <g id="text_39">
      <!-- 75 -->
      <g transform="translate(1074.313182 561.418594)scale(0.18 -0.18)">
       <use xlink:href="#DejaVuSans-37"/>
       <use x="63.623047" xlink:href="#DejaVuSans-35"/>
      </g>
     </g>
    </g>
    <g id="ytick_14">
     <g id="line2d_77">
      <path clip-path="url(#pdcf4ffb73c)" d="M 1104.218182 472.68 
L 1814.4 472.68 
" style="fill:none;stroke:#b0b0b0;stroke-linecap:square;stroke-width:0.8;"/>
     </g>
     <g id="line2d_78">
      <g>
       <use style="stroke:#000000;stroke-width:0.8;" x="1104.218182" xlink:href="#m52c8bb0ce7" y="472.68"/>
      </g>
     </g>
     <g id="text_40">
      <!-- 100 -->
      <g transform="translate(1062.860682 479.518594)scale(0.18 -0.18)">
       <use xlink:href="#DejaVuSans-31"/>
       <use x="63.623047" xlink:href="#DejaVuSans-30"/>
       <use x="127.246094" xlink:href="#DejaVuSans-30"/>
      </g>
     </g>
    </g>
    <g id="ytick_15">
     <g id="line2d_79">
      <path clip-path="url(#pdcf4ffb73c)" d="M 1104.218182 390.78 
L 1814.4 390.78 
" style="fill:none;stroke:#b0b0b0;stroke-linecap:square;stroke-width:0.8;"/>
     </g>
     <g id="line2d_80">
      <g>
       <use style="stroke:#000000;stroke-width:0.8;" x="1104.218182" xlink:href="#m52c8bb0ce7" y="390.78"/>
      </g>
     </g>
     <g id="text_41">
      <!-- 125 -->
      <g transform="translate(1062.860682 397.618594)scale(0.18 -0.18)">
       <use xlink:href="#DejaVuSans-31"/>
       <use x="63.623047" xlink:href="#DejaVuSans-32"/>
       <use x="127.246094" xlink:href="#DejaVuSans-35"/>
      </g>
     </g>
    </g>
    <g id="ytick_16">
     <g id="line2d_81">
      <path clip-path="url(#pdcf4ffb73c)" d="M 1104.218182 308.88 
L 1814.4 308.88 
" style="fill:none;stroke:#b0b0b0;stroke-linecap:square;stroke-width:0.8;"/>
     </g>
     <g id="line2d_82">
      <g>
       <use style="stroke:#000000;stroke-width:0.8;" x="1104.218182" xlink:href="#m52c8bb0ce7" y="308.88"/>
      </g>
     </g>
     <g id="text_42">
      <!-- 150 -->
      <g transform="translate(1062.860682 315.718594)scale(0.18 -0.18)">
       <use xlink:href="#DejaVuSans-31"/>
       <use x="63.623047" xlink:href="#DejaVuSans-35"/>
       <use x="127.246094" xlink:href="#DejaVuSans-30"/>
      </g>
     </g>
    </g>
    <g id="ytick_17">
     <g id="line2d_83">
      <path clip-path="url(#pdcf4ffb73c)" d="M 1104.218182 226.98 
L 1814.4 226.98 
" style="fill:none;stroke:#b0b0b0;stroke-linecap:square;stroke-width:0.8;"/>
     </g>
     <g id="line2d_84">
      <g>
       <use style="stroke:#000000;stroke-width:0.8;" x="1104.218182" xlink:href="#m52c8bb0ce7" y="226.98"/>
      </g>
     </g>
     <g id="text_43">
      <!-- 175 -->
      <g transform="translate(1062.860682 233.818594)scale(0.18 -0.18)">
       <use xlink:href="#DejaVuSans-31"/>
       <use x="63.623047" xlink:href="#DejaVuSans-37"/>
       <use x="127.246094" xlink:href="#DejaVuSans-35"/>
      </g>
     </g>
    </g>
    <g id="ytick_18">
     <g id="line2d_85">
      <path clip-path="url(#pdcf4ffb73c)" d="M 1104.218182 145.08 
L 1814.4 145.08 
" style="fill:none;stroke:#b0b0b0;stroke-linecap:square;stroke-width:0.8;"/>
     </g>
     <g id="line2d_86">
      <g>
       <use style="stroke:#000000;stroke-width:0.8;" x="1104.218182" xlink:href="#m52c8bb0ce7" y="145.08"/>
      </g>
     </g>
     <g id="text_44">
      <!-- 200 -->
      <g transform="translate(1062.860682 151.918594)scale(0.18 -0.18)">
       <use xlink:href="#DejaVuSans-32"/>
       <use x="63.623047" xlink:href="#DejaVuSans-30"/>
       <use x="127.246094" xlink:href="#DejaVuSans-30"/>
      </g>
     </g>
    </g>
    <g id="text_45">
     <!-- Z [m]] -->
     <g transform="translate(1055.117244 501.006094)rotate(-90)scale(0.18 -0.18)">
      <use xlink:href="#DejaVuSans-5a"/>
      <use x="68.505859" xlink:href="#DejaVuSans-20"/>
      <use x="100.292969" xlink:href="#DejaVuSans-5b"/>
      <use x="139.306641" xlink:href="#DejaVuSans-6d"/>
      <use x="236.71875" xlink:href="#DejaVuSans-5d"/>
      <use x="275.732422" xlink:href="#DejaVuSans-5d"/>
     </g>
    </g>
   </g>
   <g id="line2d_87">
    <path clip-path="url(#pdcf4ffb73c)" d="M 1136.499174 800.28 
L 1141.669959 793.728 
L 1142.529233 787.176 
L 1143.172333 780.624 
L 1143.857925 774.072 
L 1144.647412 767.52 
L 1145.533718 760.968 
L 1146.550736 754.416 
L 1147.740957 747.864 
L 1149.103689 741.312 
L 1150.719887 734.76 
L 1152.693958 728.208 
L 1155.021722 721.656 
L 1157.912226 715.104 
L 1161.560882 708.552 
L 1166.171889 702 
L 1172.264547 695.448 
L 1180.541644 688.896 
L 1192.273774 682.344 
L 1209.900455 675.792 
L 1237.636474 669.24 
L 1281.373686 662.688 
L 1340.099434 656.136 
L 1351.340169 649.584 
L 1374.426192 643.032 
L 1436.126326 636.48 
L 1612.325718 629.928 
L 1649.04386 623.376 
L 1669.327951 616.824 
L 1756.660968 610.272 
L 1772.296181 603.72 
L 1781.596991 597.168 
L 1782.119008 590.616 
L 1782.119008 584.064 
L 1782.119008 577.512 
L 1782.119008 570.96 
L 1782.119008 564.408 
L 1782.119008 557.856 
L 1782.119008 551.304 
L 1782.119008 544.752 
L 1782.119008 538.2 
L 1782.119008 531.648 
L 1782.119008 525.096 
L 1782.119008 518.544 
L 1782.119008 511.992 
L 1782.119008 505.44 
L 1782.119008 498.888 
L 1782.119008 492.336 
L 1782.119008 485.784 
L 1782.119008 479.232 
L 1782.119008 472.68 
L 1782.119008 466.128 
L 1782.119008 459.576 
L 1782.119008 453.024 
L 1782.119008 446.472 
L 1782.119008 439.92 
L 1782.119008 433.368 
L 1782.119008 426.816 
L 1782.119008 420.264 
L 1782.119008 413.712 
L 1782.119008 407.16 
L 1782.119008 400.608 
L 1782.119008 394.056 
L 1782.119008 387.504 
L 1782.119008 380.952 
L 1782.119008 374.4 
L 1782.119008 367.848 
L 1782.119008 361.296 
L 1782.119008 354.744 
L 1782.119008 348.192 
L 1782.119008 341.64 
L 1782.119008 335.088 
L 1782.119008 328.536 
L 1782.119008 321.984 
L 1782.119008 315.432 
L 1782.119008 308.88 
L 1782.119008 302.328 
L 1782.119008 295.776 
L 1782.119008 289.224 
L 1782.119008 282.672 
L 1782.119008 276.12 
L 1782.119008 269.568 
L 1782.119008 263.016 
L 1782.119008 256.464 
L 1782.119008 249.912 
L 1782.119008 243.36 
L 1782.119008 236.808 
L 1782.119008 230.256 
L 1782.119008 223.704 
L 1782.119008 217.152 
L 1782.119008 210.6 
L 1782.119008 204.048 
L 1782.119008 197.496 
L 1782.119008 190.944 
L 1782.119008 184.392 
L 1782.119008 177.84 
L 1782.119008 171.288 
L 1782.119008 164.736 
L 1782.119008 158.184 
L 1782.119008 151.632 
L 1782.119008 145.08 
" style="fill:none;stroke:#1f77b4;stroke-linecap:square;stroke-width:1.5;"/>
   </g>
   <g id="line2d_88">
    <path clip-path="url(#pdcf4ffb73c)" d="M 1136.499174 800.28 
L 1141.942235 793.728 
L 1142.562069 787.176 
L 1143.172333 780.624 
L 1143.857925 774.072 
L 1144.647412 767.52 
L 1145.533718 760.968 
L 1146.550736 754.416 
L 1147.740957 747.864 
L 1149.076965 741.312 
L 1150.719887 734.76 
L 1152.693958 728.208 
L 1154.986937 721.656 
L 1157.873835 715.104 
L 1161.518223 708.552 
L 1166.124172 702 
L 1172.157 695.448 
L 1180.297494 688.896 
L 1191.855546 682.344 
L 1208.787056 675.792 
L 1234.454199 669.24 
L 1272.88813 662.688 
L 1319.957335 656.136 
L 1353.245401 649.584 
L 1364.608266 643.032 
L 1370.879993 636.48 
L 1375.77326 629.928 
L 1378.295764 623.376 
L 1386.104847 616.824 
L 1404.556036 610.272 
L 1417.728791 603.72 
L 1427.469544 597.168 
L 1445.192993 590.616 
L 1446.682352 584.064 
L 1450.227976 577.512 
L 1450.516321 570.96 
L 1450.516321 564.408 
L 1450.516321 557.856 
L 1450.516321 551.304 
L 1450.516321 544.752 
L 1450.516321 538.2 
L 1450.516321 531.648 
L 1450.516321 525.096 
L 1450.516321 518.544 
L 1450.516321 511.992 
L 1450.516321 505.44 
L 1450.516321 498.888 
L 1450.516321 492.336 
L 1450.516321 485.784 
L 1450.516321 479.232 
L 1450.516321 472.68 
L 1450.516321 466.128 
L 1450.516321 459.576 
L 1450.516321 453.024 
L 1450.516321 446.472 
L 1450.516321 439.92 
L 1450.516321 433.368 
L 1450.516321 426.816 
L 1450.516321 420.264 
L 1450.516321 413.712 
L 1450.516321 407.16 
L 1450.516321 400.608 
L 1450.516321 394.056 
L 1450.516321 387.504 
L 1450.516321 380.952 
L 1450.516321 374.4 
L 1450.516321 367.848 
L 1450.516321 361.296 
L 1450.516321 354.744 
L 1450.516321 348.192 
L 1450.516321 341.64 
L 1450.516321 335.088 
L 1450.516321 328.536 
L 1450.516321 321.984 
L 1450.516321 315.432 
L 1450.516321 308.88 
L 1450.516321 302.328 
L 1450.516321 295.776 
L 1450.516321 289.224 
L 1450.516321 282.672 
L 1450.516321 276.12 
L 1450.516321 269.568 
L 1450.516321 263.016 
L 1450.516321 256.464 
L 1450.516321 249.912 
L 1450.516321 243.36 
L 1450.516321 236.808 
L 1450.516321 230.256 
L 1450.516321 223.704 
L 1450.516321 217.152 
L 1450.516321 210.6 
L 1450.516321 204.048 
L 1450.516321 197.496 
L 1450.516321 190.944 
L 1450.516321 184.392 
L 1450.516321 177.84 
L 1450.516321 171.288 
L 1450.516321 164.736 
L 1450.516321 158.184 
L 1450.516321 151.632 
L 1450.516321 145.08 
" style="fill:none;stroke:#ff7f0e;stroke-linecap:square;stroke-width:1.5;"/>
   </g>
   <g id="line2d_89">
    <path clip-path="url(#pdcf4ffb73c)" d="M 1136.499174 800.28 
L 1142.019366 793.728 
L 1142.562069 787.176 
L 1143.172333 780.624 
L 1143.857925 774.072 
L 1144.647412 767.52 
L 1145.533718 760.968 
L 1146.550736 754.416 
L 1147.740957 747.864 
L 1149.076965 741.312 
L 1150.719887 734.76 
L 1152.662263 728.208 
L 1154.986937 721.656 
L 1157.873835 715.104 
L 1161.475611 708.552 
L 1166.076519 702 
L 1172.103305 695.448 
L 1180.175732 688.896 
L 1191.508246 682.344 
L 1207.996272 675.792 
L 1232.608922 669.24 
L 1268.683003 662.688 
L 1312.751898 656.136 
L 1347.778385 649.584 
L 1364.422084 643.032 
L 1370.426198 636.48 
L 1373.594763 629.928 
L 1376.2792 623.376 
L 1379.682644 616.824 
L 1384.987419 610.272 
L 1392.13739 603.72 
L 1400.634065 597.168 
L 1409.633126 590.616 
L 1418.331163 584.064 
L 1425.853751 577.512 
L 1431.553079 570.96 
L 1435.345902 564.408 
L 1437.709091 557.856 
L 1438.511083 551.304 
L 1438.511083 544.752 
L 1438.511083 538.2 
L 1438.511083 531.648 
L 1438.511083 525.096 
L 1438.511083 518.544 
L 1438.511083 511.992 
L 1438.511083 505.44 
L 1438.511083 498.888 
L 1438.511083 492.336 
L 1438.511083 485.784 
L 1438.511083 479.232 
L 1438.511083 472.68 
L 1438.511083 466.128 
L 1438.511083 459.576 
L 1438.511083 453.024 
L 1438.511083 446.472 
L 1438.511083 439.92 
L 1438.511083 433.368 
L 1438.511083 426.816 
L 1438.511083 420.264 
L 1438.511083 413.712 
L 1438.511083 407.16 
L 1438.511083 400.608 
L 1438.511083 394.056 
L 1438.511083 387.504 
L 1438.511083 380.952 
L 1438.511083 374.4 
L 1438.511083 367.848 
L 1438.511083 361.296 
L 1438.511083 354.744 
L 1438.511083 348.192 
L 1438.511083 341.64 
L 1438.511083 335.088 
L 1438.511083 328.536 
L 1438.511083 321.984 
L 1438.511083 315.432 
L 1438.511083 308.88 
L 1438.511083 302.328 
L 1438.511083 295.776 
L 1438.511083 289.224 
L 1438.511083 282.672 
L 1438.511083 276.12 
L 1438.511083 269.568 
L 1438.511083 263.016 
L 1438.511083 256.464 
L 1438.511083 249.912 
L 1438.511083 243.36 
L 1438.511083 236.808 
L 1438.511083 230.256 
L 1438.511083 223.704 
L 1438.511083 217.152 
L 1438.511083 210.6 
L 1438.511083 204.048 
L 1438.511083 197.496 
L 1438.511083 190.944 
L 1438.511083 184.392 
L 1438.511083 177.84 
L 1438.511083 171.288 
L 1438.511083 164.736 
L 1438.511083 158.184 
L 1438.511083 151.632 
L 1438.511083 145.08 
" style="fill:none;stroke:#2ca02c;stroke-linecap:square;stroke-width:1.5;"/>
   </g>
   <g id="line2d_90">
    <path clip-path="url(#pdcf4ffb73c)" d="M 1136.499174 800.28 
L 1142.019366 793.728 
L 1142.562069 787.176 
L 1143.172333 780.624 
L 1143.857925 774.072 
L 1144.647412 767.52 
L 1145.533718 760.968 
L 1146.550736 754.416 
L 1147.740957 747.864 
L 1149.076965 741.312 
L 1150.719887 734.76 
L 1152.662263 728.208 
L 1154.986937 721.656 
L 1157.873835 715.104 
L 1161.475611 708.552 
L 1166.028917 702 
L 1172.049683 695.448 
L 1180.114941 688.896 
L 1191.438956 682.344 
L 1207.759765 675.792 
L 1232.083308 669.24 
L 1267.425621 662.688 
L 1310.56035 656.136 
L 1345.709119 649.584 
L 1363.365991 643.032 
L 1370.747497 636.48 
L 1373.881815 629.928 
L 1376.376575 623.376 
L 1379.501672 616.824 
L 1384.312621 610.272 
L 1391.225726 603.72 
L 1399.85332 597.168 
L 1408.796252 590.616 
L 1417.728791 584.064 
L 1425.173374 577.512 
L 1431.060784 570.96 
L 1434.829201 564.408 
L 1437.177899 557.856 
L 1437.443249 551.304 
L 1437.443249 544.752 
L 1437.443249 538.2 
L 1437.443249 531.648 
L 1437.443249 525.096 
L 1437.443249 518.544 
L 1437.443249 511.992 
L 1437.443249 505.44 
L 1437.443249 498.888 
L 1437.443249 492.336 
L 1437.443249 485.784 
L 1437.443249 479.232 
L 1437.443249 472.68 
L 1437.443249 466.128 
L 1437.443249 459.576 
L 1437.443249 453.024 
L 1437.443249 446.472 
L 1437.443249 439.92 
L 1437.443249 433.368 
L 1437.443249 426.816 
L 1437.443249 420.264 
L 1437.443249 413.712 
L 1437.443249 407.16 
L 1437.443249 400.608 
L 1437.443249 394.056 
L 1437.443249 387.504 
L 1437.443249 380.952 
L 1437.443249 374.4 
L 1437.443249 367.848 
L 1437.443249 361.296 
L 1437.443249 354.744 
L 1437.443249 348.192 
L 1437.443249 341.64 
L 1437.443249 335.088 
L 1437.443249 328.536 
L 1437.443249 321.984 
L 1437.443249 315.432 
L 1437.443249 308.88 
L 1437.443249 302.328 
L 1437.443249 295.776 
L 1437.443249 289.224 
L 1437.443249 282.672 
L 1437.443249 276.12 
L 1437.443249 269.568 
L 1437.443249 263.016 
L 1437.443249 256.464 
L 1437.443249 249.912 
L 1437.443249 243.36 
L 1437.443249 236.808 
L 1437.443249 230.256 
L 1437.443249 223.704 
L 1437.443249 217.152 
L 1437.443249 210.6 
L 1437.443249 204.048 
L 1437.443249 197.496 
L 1437.443249 190.944 
L 1437.443249 184.392 
L 1437.443249 177.84 
L 1437.443249 171.288 
L 1437.443249 164.736 
L 1437.443249 158.184 
L 1437.443249 151.632 
L 1437.443249 145.08 
" style="fill:none;stroke:#d62728;stroke-linecap:square;stroke-width:1.5;"/>
   </g>
   <g id="line2d_91">
    <path clip-path="url(#pdcf4ffb73c)" d="M 1136.499174 800.28 
L 1142.019366 793.728 
L 1142.562069 787.176 
L 1143.172333 780.624 
L 1143.857925 774.072 
L 1144.647412 767.52 
L 1145.533718 760.968 
L 1146.550736 754.416 
L 1147.740957 747.864 
L 1149.076965 741.312 
L 1150.719887 734.76 
L 1152.662263 728.208 
L 1154.986937 721.656 
L 1157.873835 715.104 
L 1161.433031 708.552 
L 1166.028917 702 
L 1172.049683 695.448 
L 1180.054168 688.896 
L 1191.369675 682.344 
L 1207.680993 675.792 
L 1231.820786 669.24 
L 1266.79624 662.688 
L 1309.489881 656.136 
L 1344.714851 649.584 
L 1362.713414 643.032 
L 1370.357345 636.48 
L 1373.985665 629.928 
L 1376.576006 623.376 
L 1379.775144 616.824 
L 1384.757972 610.272 
L 1391.676495 603.72 
L 1399.982063 597.168 
L 1408.962461 590.616 
L 1417.728791 584.064 
L 1425.173374 577.512 
L 1430.815687 570.96 
L 1434.57217 564.408 
L 1436.387914 557.856 
L 1436.913956 551.304 
L 1436.913956 544.752 
L 1436.913956 538.2 
L 1436.913956 531.648 
L 1436.913956 525.096 
L 1436.913956 518.544 
L 1436.913956 511.992 
L 1436.913956 505.44 
L 1436.913956 498.888 
L 1436.913956 492.336 
L 1436.913956 485.784 
L 1436.913956 479.232 
L 1436.913956 472.68 
L 1436.913956 466.128 
L 1436.913956 459.576 
L 1436.913956 453.024 
L 1436.913956 446.472 
L 1436.913956 439.92 
L 1436.913956 433.368 
L 1436.913956 426.816 
L 1436.913956 420.264 
L 1436.913956 413.712 
L 1436.913956 407.16 
L 1436.913956 400.608 
L 1436.913956 394.056 
L 1436.913956 387.504 
L 1436.913956 380.952 
L 1436.913956 374.4 
L 1436.913956 367.848 
L 1436.913956 361.296 
L 1436.913956 354.744 
L 1436.913956 348.192 
L 1436.913956 341.64 
L 1436.913956 335.088 
L 1436.913956 328.536 
L 1436.913956 321.984 
L 1436.913956 315.432 
L 1436.913956 308.88 
L 1436.913956 302.328 
L 1436.913956 295.776 
L 1436.913956 289.224 
L 1436.913956 282.672 
L 1436.913956 276.12 
L 1436.913956 269.568 
L 1436.913956 263.016 
L 1436.913956 256.464 
L 1436.913956 249.912 
L 1436.913956 243.36 
L 1436.913956 236.808 
L 1436.913956 230.256 
L 1436.913956 223.704 
L 1436.913956 217.152 
L 1436.913956 210.6 
L 1436.913956 204.048 
L 1436.913956 197.496 
L 1436.913956 190.944 
L 1436.913956 184.392 
L 1436.913956 177.84 
L 1436.913956 171.288 
L 1436.913956 164.736 
L 1436.913956 158.184 
L 1436.913956 151.632 
L 1436.913956 145.08 
" style="fill:none;stroke:#9467bd;stroke-linecap:square;stroke-width:1.5;"/>
   </g>
   <g id="patch_9">
    <path d="M 1104.218182 833.04 
L 1104.218182 112.32 
" style="fill:none;stroke:#000000;stroke-linecap:square;stroke-linejoin:miter;stroke-width:0.8;"/>
   </g>
   <g id="patch_10">
    <path d="M 1814.4 833.04 
L 1814.4 112.32 
" style="fill:none;stroke:#000000;stroke-linecap:square;stroke-linejoin:miter;stroke-width:0.8;"/>
   </g>
   <g id="patch_11">
    <path d="M 1104.218182 833.04 
L 1814.4 833.04 
" style="fill:none;stroke:#000000;stroke-linecap:square;stroke-linejoin:miter;stroke-width:0.8;"/>
   </g>
   <g id="patch_12">
    <path d="M 1104.218182 112.32 
L 1814.4 112.32 
" style="fill:none;stroke:#000000;stroke-linecap:square;stroke-linejoin:miter;stroke-width:0.8;"/>
   </g>
   <g id="text_46">
    <!-- 0 moment for updraft velocity= 2[m/s] -->
    <g transform="translate(1249.060091 106.32)scale(0.216 -0.216)">
     <use xlink:href="#DejaVuSans-30"/>
     <use x="63.623047" xlink:href="#DejaVuSans-20"/>
     <use x="95.410156" xlink:href="#DejaVuSans-6d"/>
     <use x="192.822266" xlink:href="#DejaVuSans-6f"/>
     <use x="254.003906" xlink:href="#DejaVuSans-6d"/>
     <use x="351.416016" xlink:href="#DejaVuSans-65"/>
     <use x="412.939453" xlink:href="#DejaVuSans-6e"/>
     <use x="476.318359" xlink:href="#DejaVuSans-74"/>
     <use x="515.527344" xlink:href="#DejaVuSans-20"/>
     <use x="547.314453" xlink:href="#DejaVuSans-66"/>
     <use x="582.519531" xlink:href="#DejaVuSans-6f"/>
     <use x="643.701172" xlink:href="#DejaVuSans-72"/>
     <use x="684.814453" xlink:href="#DejaVuSans-20"/>
     <use x="716.601562" xlink:href="#DejaVuSans-75"/>
     <use x="779.980469" xlink:href="#DejaVuSans-70"/>
     <use x="843.457031" xlink:href="#DejaVuSans-64"/>
     <use x="906.933594" xlink:href="#DejaVuSans-72"/>
     <use x="948.046875" xlink:href="#DejaVuSans-61"/>
     <use x="1009.326172" xlink:href="#DejaVuSans-66"/>
     <use x="1044.515625" xlink:href="#DejaVuSans-74"/>
     <use x="1083.724609" xlink:href="#DejaVuSans-20"/>
     <use x="1115.511719" xlink:href="#DejaVuSans-76"/>
     <use x="1174.691406" xlink:href="#DejaVuSans-65"/>
     <use x="1236.214844" xlink:href="#DejaVuSans-6c"/>
     <use x="1263.998047" xlink:href="#DejaVuSans-6f"/>
     <use x="1325.179688" xlink:href="#DejaVuSans-63"/>
     <use x="1380.160156" xlink:href="#DejaVuSans-69"/>
     <use x="1407.943359" xlink:href="#DejaVuSans-74"/>
     <use x="1447.152344" xlink:href="#DejaVuSans-79"/>
     <use x="1506.332031" xlink:href="#DejaVuSans-3d"/>
     <use x="1590.121094" xlink:href="#DejaVuSans-20"/>
     <use x="1621.908203" xlink:href="#DejaVuSans-32"/>
     <use x="1685.53125" xlink:href="#DejaVuSans-5b"/>
     <use x="1724.544922" xlink:href="#DejaVuSans-6d"/>
     <use x="1821.957031" xlink:href="#DejaVuSans-2f"/>
     <use x="1855.648438" xlink:href="#DejaVuSans-73"/>
     <use x="1907.748047" xlink:href="#DejaVuSans-5d"/>
    </g>
   </g>
   <g id="legend_2">
    <g id="patch_13">
     <path d="M 1116.818182 285.24375 
L 1338.848182 285.24375 
Q 1342.448182 285.24375 1342.448182 281.64375 
L 1342.448182 124.92 
Q 1342.448182 121.32 1338.848182 121.32 
L 1116.818182 121.32 
Q 1113.218182 121.32 1113.218182 124.92 
L 1113.218182 281.64375 
Q 1113.218182 285.24375 1116.818182 285.24375 
z
" style="fill:#ffffff;opacity:0.8;stroke:#cccccc;stroke-linejoin:miter;"/>
    </g>
    <g id="text_47">
     <!-- Condensation time step -->
     <g transform="translate(1120.418182 142.197188)scale(0.18 -0.18)">
      <use xlink:href="#DejaVuSans-43"/>
      <use x="69.824219" xlink:href="#DejaVuSans-6f"/>
      <use x="131.005859" xlink:href="#DejaVuSans-6e"/>
      <use x="194.384766" xlink:href="#DejaVuSans-64"/>
      <use x="257.861328" xlink:href="#DejaVuSans-65"/>
      <use x="319.384766" xlink:href="#DejaVuSans-6e"/>
      <use x="382.763672" xlink:href="#DejaVuSans-73"/>
      <use x="434.863281" xlink:href="#DejaVuSans-61"/>
      <use x="496.142578" xlink:href="#DejaVuSans-74"/>
      <use x="535.351562" xlink:href="#DejaVuSans-69"/>
      <use x="563.134766" xlink:href="#DejaVuSans-6f"/>
      <use x="624.316406" xlink:href="#DejaVuSans-6e"/>
      <use x="687.695312" xlink:href="#DejaVuSans-20"/>
      <use x="719.482422" xlink:href="#DejaVuSans-74"/>
      <use x="758.691406" xlink:href="#DejaVuSans-69"/>
      <use x="786.474609" xlink:href="#DejaVuSans-6d"/>
      <use x="883.886719" xlink:href="#DejaVuSans-65"/>
      <use x="945.410156" xlink:href="#DejaVuSans-20"/>
      <use x="977.197266" xlink:href="#DejaVuSans-73"/>
      <use x="1029.296875" xlink:href="#DejaVuSans-74"/>
      <use x="1068.505859" xlink:href="#DejaVuSans-65"/>
      <use x="1130.029297" xlink:href="#DejaVuSans-70"/>
     </g>
    </g>
    <g id="line2d_92">
     <path d="M 1182.422557 162.317813 
L 1218.422557 162.317813 
" style="fill:none;stroke:#1f77b4;stroke-linecap:square;stroke-width:1.5;"/>
    </g>
    <g id="line2d_93"/>
    <g id="text_48">
     <!-- 1/1 -->
     <g transform="translate(1232.822557 168.617813)scale(0.18 -0.18)">
      <use xlink:href="#DejaVuSans-31"/>
      <use x="63.623047" xlink:href="#DejaVuSans-2f"/>
      <use x="97.314453" xlink:href="#DejaVuSans-31"/>
     </g>
    </g>
    <g id="line2d_94">
     <path d="M 1182.422557 188.738438 
L 1218.422557 188.738438 
" style="fill:none;stroke:#ff7f0e;stroke-linecap:square;stroke-width:1.5;"/>
    </g>
    <g id="line2d_95"/>
    <g id="text_49">
     <!-- 1/2 -->
     <g transform="translate(1232.822557 195.038438)scale(0.18 -0.18)">
      <use xlink:href="#DejaVuSans-31"/>
      <use x="63.623047" xlink:href="#DejaVuSans-2f"/>
      <use x="97.314453" xlink:href="#DejaVuSans-32"/>
     </g>
    </g>
    <g id="line2d_96">
     <path d="M 1182.422557 215.159063 
L 1218.422557 215.159063 
" style="fill:none;stroke:#2ca02c;stroke-linecap:square;stroke-width:1.5;"/>
    </g>
    <g id="line2d_97"/>
    <g id="text_50">
     <!-- 1/5 -->
     <g transform="translate(1232.822557 221.459063)scale(0.18 -0.18)">
      <use xlink:href="#DejaVuSans-31"/>
      <use x="63.623047" xlink:href="#DejaVuSans-2f"/>
      <use x="97.314453" xlink:href="#DejaVuSans-35"/>
     </g>
    </g>
    <g id="line2d_98">
     <path d="M 1182.422557 241.579688 
L 1218.422557 241.579688 
" style="fill:none;stroke:#d62728;stroke-linecap:square;stroke-width:1.5;"/>
    </g>
    <g id="line2d_99"/>
    <g id="text_51">
     <!-- 1/10 -->
     <g transform="translate(1232.822557 247.879688)scale(0.18 -0.18)">
      <use xlink:href="#DejaVuSans-31"/>
      <use x="63.623047" xlink:href="#DejaVuSans-2f"/>
      <use x="97.314453" xlink:href="#DejaVuSans-31"/>
      <use x="160.9375" xlink:href="#DejaVuSans-30"/>
     </g>
    </g>
    <g id="line2d_100">
     <path d="M 1182.422557 268.000313 
L 1218.422557 268.000313 
" style="fill:none;stroke:#9467bd;stroke-linecap:square;stroke-width:1.5;"/>
    </g>
    <g id="line2d_101"/>
    <g id="text_52">
     <!-- 1/20 -->
     <g transform="translate(1232.822557 274.300313)scale(0.18 -0.18)">
      <use xlink:href="#DejaVuSans-31"/>
      <use x="63.623047" xlink:href="#DejaVuSans-2f"/>
      <use x="97.314453" xlink:href="#DejaVuSans-32"/>
      <use x="160.9375" xlink:href="#DejaVuSans-30"/>
     </g>
    </g>
   </g>
  </g>
 </g>
 <defs>
  <clipPath id="pb6d33a8604">
   <rect height="720.72" width="710.181818" x="252" y="112.32"/>
  </clipPath>
  <clipPath id="pdcf4ffb73c">
   <rect height="720.72" width="710.181818" x="1104.218182" y="112.32"/>
  </clipPath>
 </defs>
</svg>
