<?xml version="1.0" encoding="utf-8" standalone="no"?>
<!DOCTYPE svg PUBLIC "-//W3C//DTD SVG 1.1//EN"
  "http://www.w3.org/Graphics/SVG/1.1/DTD/svg11.dtd">
<!-- Created with matplotlib (http://matplotlib.org/) -->
<svg height="936pt" version="1.1" viewBox="0 0 2016 936" width="2016pt" xmlns="http://www.w3.org/2000/svg" xmlns:xlink="http://www.w3.org/1999/xlink">
 <defs>
  <style type="text/css">
*{stroke-linecap:butt;stroke-linejoin:round;}
  </style>
 </defs>
 <g id="figure_1">
  <g id="patch_1">
   <path d="M 0 936 
L 2016 936 
L 2016 0 
L 0 0 
z
" style="fill:#ffffff;"/>
  </g>
  <g id="axes_1">
   <g id="patch_2">
    <path d="M 252 833.04 
L 711.529412 833.04 
L 711.529412 112.32 
L 252 112.32 
z
" style="fill:#ffffff;"/>
   </g>
   <g id="matplotlib.axis_1">
    <g id="xtick_1">
     <g id="line2d_1">
      <path clip-path="url(#p241b1ab7e2)" d="M 272.887701 833.04 
L 272.887701 112.32 
" style="fill:none;stroke:#b0b0b0;stroke-linecap:square;stroke-width:0.8;"/>
     </g>
     <g id="line2d_2">
      <defs>
       <path d="M 0 0 
L 0 3.5 
" id="m8702436f6b" style="stroke:#000000;stroke-width:0.8;"/>
      </defs>
      <g>
       <use style="stroke:#000000;stroke-width:0.8;" x="272.887701" xlink:href="#m8702436f6b" y="833.04"/>
      </g>
     </g>
     <g id="text_1">
      <!-- 98 -->
      <defs>
       <path d="M 10.984375 1.515625 
L 10.984375 10.5 
Q 14.703125 8.734375 18.5 7.8125 
Q 22.3125 6.890625 25.984375 6.890625 
Q 35.75 6.890625 40.890625 13.453125 
Q 46.046875 20.015625 46.78125 33.40625 
Q 43.953125 29.203125 39.59375 26.953125 
Q 35.25 24.703125 29.984375 24.703125 
Q 19.046875 24.703125 12.671875 31.3125 
Q 6.296875 37.9375 6.296875 49.421875 
Q 6.296875 60.640625 12.9375 67.421875 
Q 19.578125 74.21875 30.609375 74.21875 
Q 43.265625 74.21875 49.921875 64.515625 
Q 56.59375 54.828125 56.59375 36.375 
Q 56.59375 19.140625 48.40625 8.859375 
Q 40.234375 -1.421875 26.421875 -1.421875 
Q 22.703125 -1.421875 18.890625 -0.6875 
Q 15.09375 0.046875 10.984375 1.515625 
z
M 30.609375 32.421875 
Q 37.25 32.421875 41.125 36.953125 
Q 45.015625 41.5 45.015625 49.421875 
Q 45.015625 57.28125 41.125 61.84375 
Q 37.25 66.40625 30.609375 66.40625 
Q 23.96875 66.40625 20.09375 61.84375 
Q 16.21875 57.28125 16.21875 49.421875 
Q 16.21875 41.5 20.09375 36.953125 
Q 23.96875 32.421875 30.609375 32.421875 
z
" id="DejaVuSans-39"/>
       <path d="M 31.78125 34.625 
Q 24.75 34.625 20.71875 30.859375 
Q 16.703125 27.09375 16.703125 20.515625 
Q 16.703125 13.921875 20.71875 10.15625 
Q 24.75 6.390625 31.78125 6.390625 
Q 38.8125 6.390625 42.859375 10.171875 
Q 46.921875 13.96875 46.921875 20.515625 
Q 46.921875 27.09375 42.890625 30.859375 
Q 38.875 34.625 31.78125 34.625 
z
M 21.921875 38.8125 
Q 15.578125 40.375 12.03125 44.71875 
Q 8.5 49.078125 8.5 55.328125 
Q 8.5 64.0625 14.71875 69.140625 
Q 20.953125 74.21875 31.78125 74.21875 
Q 42.671875 74.21875 48.875 69.140625 
Q 55.078125 64.0625 55.078125 55.328125 
Q 55.078125 49.078125 51.53125 44.71875 
Q 48 40.375 41.703125 38.8125 
Q 48.828125 37.15625 52.796875 32.3125 
Q 56.78125 27.484375 56.78125 20.515625 
Q 56.78125 9.90625 50.3125 4.234375 
Q 43.84375 -1.421875 31.78125 -1.421875 
Q 19.734375 -1.421875 13.25 4.234375 
Q 6.78125 9.90625 6.78125 20.515625 
Q 6.78125 27.484375 10.78125 32.3125 
Q 14.796875 37.15625 21.921875 38.8125 
z
M 18.3125 54.390625 
Q 18.3125 48.734375 21.84375 45.5625 
Q 25.390625 42.390625 31.78125 42.390625 
Q 38.140625 42.390625 41.71875 45.5625 
Q 45.3125 48.734375 45.3125 54.390625 
Q 45.3125 60.0625 41.71875 63.234375 
Q 38.140625 66.40625 31.78125 66.40625 
Q 25.390625 66.40625 21.84375 63.234375 
Q 18.3125 60.0625 18.3125 54.390625 
z
" id="DejaVuSans-38"/>
      </defs>
      <g transform="translate(261.435201 853.717188)scale(0.18 -0.18)">
       <use xlink:href="#DejaVuSans-39"/>
       <use x="63.623047" xlink:href="#DejaVuSans-38"/>
      </g>
     </g>
    </g>
    <g id="xtick_2">
     <g id="line2d_3">
      <path clip-path="url(#p241b1ab7e2)" d="M 378.203365 833.04 
L 378.203365 112.32 
" style="fill:none;stroke:#b0b0b0;stroke-linecap:square;stroke-width:0.8;"/>
     </g>
     <g id="line2d_4">
      <g>
       <use style="stroke:#000000;stroke-width:0.8;" x="378.203365" xlink:href="#m8702436f6b" y="833.04"/>
      </g>
     </g>
     <g id="text_2">
      <!-- 99 -->
      <g transform="translate(366.750865 853.717188)scale(0.18 -0.18)">
       <use xlink:href="#DejaVuSans-39"/>
       <use x="63.623047" xlink:href="#DejaVuSans-39"/>
      </g>
     </g>
    </g>
    <g id="xtick_3">
     <g id="line2d_5">
      <path clip-path="url(#p241b1ab7e2)" d="M 483.51903 833.04 
L 483.51903 112.32 
" style="fill:none;stroke:#b0b0b0;stroke-linecap:square;stroke-width:0.8;"/>
     </g>
     <g id="line2d_6">
      <g>
       <use style="stroke:#000000;stroke-width:0.8;" x="483.51903" xlink:href="#m8702436f6b" y="833.04"/>
      </g>
     </g>
     <g id="text_3">
      <!-- 100 -->
      <defs>
       <path d="M 12.40625 8.296875 
L 28.515625 8.296875 
L 28.515625 63.921875 
L 10.984375 60.40625 
L 10.984375 69.390625 
L 28.421875 72.90625 
L 38.28125 72.90625 
L 38.28125 8.296875 
L 54.390625 8.296875 
L 54.390625 0 
L 12.40625 0 
z
" id="DejaVuSans-31"/>
       <path d="M 31.78125 66.40625 
Q 24.171875 66.40625 20.328125 58.90625 
Q 16.5 51.421875 16.5 36.375 
Q 16.5 21.390625 20.328125 13.890625 
Q 24.171875 6.390625 31.78125 6.390625 
Q 39.453125 6.390625 43.28125 13.890625 
Q 47.125 21.390625 47.125 36.375 
Q 47.125 51.421875 43.28125 58.90625 
Q 39.453125 66.40625 31.78125 66.40625 
z
M 31.78125 74.21875 
Q 44.046875 74.21875 50.515625 64.515625 
Q 56.984375 54.828125 56.984375 36.375 
Q 56.984375 17.96875 50.515625 8.265625 
Q 44.046875 -1.421875 31.78125 -1.421875 
Q 19.53125 -1.421875 13.0625 8.265625 
Q 6.59375 17.96875 6.59375 36.375 
Q 6.59375 54.828125 13.0625 64.515625 
Q 19.53125 74.21875 31.78125 74.21875 
z
" id="DejaVuSans-30"/>
      </defs>
      <g transform="translate(466.34028 853.717188)scale(0.18 -0.18)">
       <use xlink:href="#DejaVuSans-31"/>
       <use x="63.623047" xlink:href="#DejaVuSans-30"/>
       <use x="127.246094" xlink:href="#DejaVuSans-30"/>
      </g>
     </g>
    </g>
    <g id="xtick_4">
     <g id="line2d_7">
      <path clip-path="url(#p241b1ab7e2)" d="M 588.834695 833.04 
L 588.834695 112.32 
" style="fill:none;stroke:#b0b0b0;stroke-linecap:square;stroke-width:0.8;"/>
     </g>
     <g id="line2d_8">
      <g>
       <use style="stroke:#000000;stroke-width:0.8;" x="588.834695" xlink:href="#m8702436f6b" y="833.04"/>
      </g>
     </g>
     <g id="text_4">
      <!-- 101 -->
      <g transform="translate(571.655945 853.717188)scale(0.18 -0.18)">
       <use xlink:href="#DejaVuSans-31"/>
       <use x="63.623047" xlink:href="#DejaVuSans-30"/>
       <use x="127.246094" xlink:href="#DejaVuSans-31"/>
      </g>
     </g>
    </g>
    <g id="xtick_5">
     <g id="line2d_9">
      <path clip-path="url(#p241b1ab7e2)" d="M 694.150359 833.04 
L 694.150359 112.32 
" style="fill:none;stroke:#b0b0b0;stroke-linecap:square;stroke-width:0.8;"/>
     </g>
     <g id="line2d_10">
      <g>
       <use style="stroke:#000000;stroke-width:0.8;" x="694.150359" xlink:href="#m8702436f6b" y="833.04"/>
      </g>
     </g>
     <g id="text_5">
      <!-- 102 -->
      <defs>
       <path d="M 19.1875 8.296875 
L 53.609375 8.296875 
L 53.609375 0 
L 7.328125 0 
L 7.328125 8.296875 
Q 12.9375 14.109375 22.625 23.890625 
Q 32.328125 33.6875 34.8125 36.53125 
Q 39.546875 41.84375 41.421875 45.53125 
Q 43.3125 49.21875 43.3125 52.78125 
Q 43.3125 58.59375 39.234375 62.25 
Q 35.15625 65.921875 28.609375 65.921875 
Q 23.96875 65.921875 18.8125 64.3125 
Q 13.671875 62.703125 7.8125 59.421875 
L 7.8125 69.390625 
Q 13.765625 71.78125 18.9375 73 
Q 24.125 74.21875 28.421875 74.21875 
Q 39.75 74.21875 46.484375 68.546875 
Q 53.21875 62.890625 53.21875 53.421875 
Q 53.21875 48.921875 51.53125 44.890625 
Q 49.859375 40.875 45.40625 35.40625 
Q 44.1875 33.984375 37.640625 27.21875 
Q 31.109375 20.453125 19.1875 8.296875 
z
" id="DejaVuSans-32"/>
      </defs>
      <g transform="translate(676.971609 853.717188)scale(0.18 -0.18)">
       <use xlink:href="#DejaVuSans-31"/>
       <use x="63.623047" xlink:href="#DejaVuSans-30"/>
       <use x="127.246094" xlink:href="#DejaVuSans-32"/>
      </g>
     </g>
    </g>
    <g id="text_6">
     <!-- RH [%] -->
     <defs>
      <path d="M 44.390625 34.1875 
Q 47.5625 33.109375 50.5625 29.59375 
Q 53.5625 26.078125 56.59375 19.921875 
L 66.609375 0 
L 56 0 
L 46.6875 18.703125 
Q 43.0625 26.03125 39.671875 28.421875 
Q 36.28125 30.8125 30.421875 30.8125 
L 19.671875 30.8125 
L 19.671875 0 
L 9.8125 0 
L 9.8125 72.90625 
L 32.078125 72.90625 
Q 44.578125 72.90625 50.734375 67.671875 
Q 56.890625 62.453125 56.890625 51.90625 
Q 56.890625 45.015625 53.6875 40.46875 
Q 50.484375 35.9375 44.390625 34.1875 
z
M 19.671875 64.796875 
L 19.671875 38.921875 
L 32.078125 38.921875 
Q 39.203125 38.921875 42.84375 42.21875 
Q 46.484375 45.515625 46.484375 51.90625 
Q 46.484375 58.296875 42.84375 61.546875 
Q 39.203125 64.796875 32.078125 64.796875 
z
" id="DejaVuSans-52"/>
      <path d="M 9.8125 72.90625 
L 19.671875 72.90625 
L 19.671875 43.015625 
L 55.515625 43.015625 
L 55.515625 72.90625 
L 65.375 72.90625 
L 65.375 0 
L 55.515625 0 
L 55.515625 34.71875 
L 19.671875 34.71875 
L 19.671875 0 
L 9.8125 0 
z
" id="DejaVuSans-48"/>
      <path id="DejaVuSans-20"/>
      <path d="M 8.59375 75.984375 
L 29.296875 75.984375 
L 29.296875 69 
L 17.578125 69 
L 17.578125 -6.203125 
L 29.296875 -6.203125 
L 29.296875 -13.1875 
L 8.59375 -13.1875 
z
" id="DejaVuSans-5b"/>
      <path d="M 72.703125 32.078125 
Q 68.453125 32.078125 66.03125 28.46875 
Q 63.625 24.859375 63.625 18.40625 
Q 63.625 12.0625 66.03125 8.421875 
Q 68.453125 4.78125 72.703125 4.78125 
Q 76.859375 4.78125 79.265625 8.421875 
Q 81.6875 12.0625 81.6875 18.40625 
Q 81.6875 24.8125 79.265625 28.4375 
Q 76.859375 32.078125 72.703125 32.078125 
z
M 72.703125 38.28125 
Q 80.421875 38.28125 84.953125 32.90625 
Q 89.5 27.546875 89.5 18.40625 
Q 89.5 9.28125 84.9375 3.921875 
Q 80.375 -1.421875 72.703125 -1.421875 
Q 64.890625 -1.421875 60.34375 3.921875 
Q 55.8125 9.28125 55.8125 18.40625 
Q 55.8125 27.59375 60.375 32.9375 
Q 64.9375 38.28125 72.703125 38.28125 
z
M 22.3125 68.015625 
Q 18.109375 68.015625 15.6875 64.375 
Q 13.28125 60.75 13.28125 54.390625 
Q 13.28125 47.953125 15.671875 44.328125 
Q 18.0625 40.71875 22.3125 40.71875 
Q 26.5625 40.71875 28.96875 44.328125 
Q 31.390625 47.953125 31.390625 54.390625 
Q 31.390625 60.6875 28.953125 64.34375 
Q 26.515625 68.015625 22.3125 68.015625 
z
M 66.40625 74.21875 
L 74.21875 74.21875 
L 28.609375 -1.421875 
L 20.796875 -1.421875 
z
M 22.3125 74.21875 
Q 30.03125 74.21875 34.609375 68.875 
Q 39.203125 63.53125 39.203125 54.390625 
Q 39.203125 45.171875 34.640625 39.84375 
Q 30.078125 34.515625 22.3125 34.515625 
Q 14.546875 34.515625 10.03125 39.859375 
Q 5.515625 45.21875 5.515625 54.390625 
Q 5.515625 63.484375 10.046875 68.84375 
Q 14.59375 74.21875 22.3125 74.21875 
z
" id="DejaVuSans-25"/>
      <path d="M 30.421875 75.984375 
L 30.421875 -13.1875 
L 9.71875 -13.1875 
L 9.71875 -6.203125 
L 21.390625 -6.203125 
L 21.390625 69 
L 9.71875 69 
L 9.71875 75.984375 
z
" id="DejaVuSans-5d"/>
     </defs>
     <g transform="translate(450.3083 875.137812)scale(0.18 -0.18)">
      <use xlink:href="#DejaVuSans-52"/>
      <use x="69.482422" xlink:href="#DejaVuSans-48"/>
      <use x="144.677734" xlink:href="#DejaVuSans-20"/>
      <use x="176.464844" xlink:href="#DejaVuSans-5b"/>
      <use x="215.478516" xlink:href="#DejaVuSans-25"/>
      <use x="310.498047" xlink:href="#DejaVuSans-5d"/>
     </g>
    </g>
   </g>
   <g id="matplotlib.axis_2">
    <g id="ytick_1">
     <g id="line2d_11">
      <path clip-path="url(#p241b1ab7e2)" d="M 252 800.28 
L 711.529412 800.28 
" style="fill:none;stroke:#b0b0b0;stroke-linecap:square;stroke-width:0.8;"/>
     </g>
     <g id="line2d_12">
      <defs>
       <path d="M 0 0 
L -3.5 0 
" id="mf72c9edbb4" style="stroke:#000000;stroke-width:0.8;"/>
      </defs>
      <g>
       <use style="stroke:#000000;stroke-width:0.8;" x="252" xlink:href="#mf72c9edbb4" y="800.28"/>
      </g>
     </g>
     <g id="text_7">
      <!-- 0 -->
      <g transform="translate(233.5475 807.118594)scale(0.18 -0.18)">
       <use xlink:href="#DejaVuSans-30"/>
      </g>
     </g>
    </g>
    <g id="ytick_2">
     <g id="line2d_13">
      <path clip-path="url(#p241b1ab7e2)" d="M 252 718.38 
L 711.529412 718.38 
" style="fill:none;stroke:#b0b0b0;stroke-linecap:square;stroke-width:0.8;"/>
     </g>
     <g id="line2d_14">
      <g>
       <use style="stroke:#000000;stroke-width:0.8;" x="252" xlink:href="#mf72c9edbb4" y="718.38"/>
      </g>
     </g>
     <g id="text_8">
      <!-- 25 -->
      <defs>
       <path d="M 10.796875 72.90625 
L 49.515625 72.90625 
L 49.515625 64.59375 
L 19.828125 64.59375 
L 19.828125 46.734375 
Q 21.96875 47.46875 24.109375 47.828125 
Q 26.265625 48.1875 28.421875 48.1875 
Q 40.625 48.1875 47.75 41.5 
Q 54.890625 34.8125 54.890625 23.390625 
Q 54.890625 11.625 47.5625 5.09375 
Q 40.234375 -1.421875 26.90625 -1.421875 
Q 22.3125 -1.421875 17.546875 -0.640625 
Q 12.796875 0.140625 7.71875 1.703125 
L 7.71875 11.625 
Q 12.109375 9.234375 16.796875 8.0625 
Q 21.484375 6.890625 26.703125 6.890625 
Q 35.15625 6.890625 40.078125 11.328125 
Q 45.015625 15.765625 45.015625 23.390625 
Q 45.015625 31 40.078125 35.4375 
Q 35.15625 39.890625 26.703125 39.890625 
Q 22.75 39.890625 18.8125 39.015625 
Q 14.890625 38.140625 10.796875 36.28125 
z
" id="DejaVuSans-35"/>
      </defs>
      <g transform="translate(222.095 725.218594)scale(0.18 -0.18)">
       <use xlink:href="#DejaVuSans-32"/>
       <use x="63.623047" xlink:href="#DejaVuSans-35"/>
      </g>
     </g>
    </g>
    <g id="ytick_3">
     <g id="line2d_15">
      <path clip-path="url(#p241b1ab7e2)" d="M 252 636.48 
L 711.529412 636.48 
" style="fill:none;stroke:#b0b0b0;stroke-linecap:square;stroke-width:0.8;"/>
     </g>
     <g id="line2d_16">
      <g>
       <use style="stroke:#000000;stroke-width:0.8;" x="252" xlink:href="#mf72c9edbb4" y="636.48"/>
      </g>
     </g>
     <g id="text_9">
      <!-- 50 -->
      <g transform="translate(222.095 643.318594)scale(0.18 -0.18)">
       <use xlink:href="#DejaVuSans-35"/>
       <use x="63.623047" xlink:href="#DejaVuSans-30"/>
      </g>
     </g>
    </g>
    <g id="ytick_4">
     <g id="line2d_17">
      <path clip-path="url(#p241b1ab7e2)" d="M 252 554.58 
L 711.529412 554.58 
" style="fill:none;stroke:#b0b0b0;stroke-linecap:square;stroke-width:0.8;"/>
     </g>
     <g id="line2d_18">
      <g>
       <use style="stroke:#000000;stroke-width:0.8;" x="252" xlink:href="#mf72c9edbb4" y="554.58"/>
      </g>
     </g>
     <g id="text_10">
      <!-- 75 -->
      <defs>
       <path d="M 8.203125 72.90625 
L 55.078125 72.90625 
L 55.078125 68.703125 
L 28.609375 0 
L 18.3125 0 
L 43.21875 64.59375 
L 8.203125 64.59375 
z
" id="DejaVuSans-37"/>
      </defs>
      <g transform="translate(222.095 561.418594)scale(0.18 -0.18)">
       <use xlink:href="#DejaVuSans-37"/>
       <use x="63.623047" xlink:href="#DejaVuSans-35"/>
      </g>
     </g>
    </g>
    <g id="ytick_5">
     <g id="line2d_19">
      <path clip-path="url(#p241b1ab7e2)" d="M 252 472.68 
L 711.529412 472.68 
" style="fill:none;stroke:#b0b0b0;stroke-linecap:square;stroke-width:0.8;"/>
     </g>
     <g id="line2d_20">
      <g>
       <use style="stroke:#000000;stroke-width:0.8;" x="252" xlink:href="#mf72c9edbb4" y="472.68"/>
      </g>
     </g>
     <g id="text_11">
      <!-- 100 -->
      <g transform="translate(210.6425 479.518594)scale(0.18 -0.18)">
       <use xlink:href="#DejaVuSans-31"/>
       <use x="63.623047" xlink:href="#DejaVuSans-30"/>
       <use x="127.246094" xlink:href="#DejaVuSans-30"/>
      </g>
     </g>
    </g>
    <g id="ytick_6">
     <g id="line2d_21">
      <path clip-path="url(#p241b1ab7e2)" d="M 252 390.78 
L 711.529412 390.78 
" style="fill:none;stroke:#b0b0b0;stroke-linecap:square;stroke-width:0.8;"/>
     </g>
     <g id="line2d_22">
      <g>
       <use style="stroke:#000000;stroke-width:0.8;" x="252" xlink:href="#mf72c9edbb4" y="390.78"/>
      </g>
     </g>
     <g id="text_12">
      <!-- 125 -->
      <g transform="translate(210.6425 397.618594)scale(0.18 -0.18)">
       <use xlink:href="#DejaVuSans-31"/>
       <use x="63.623047" xlink:href="#DejaVuSans-32"/>
       <use x="127.246094" xlink:href="#DejaVuSans-35"/>
      </g>
     </g>
    </g>
    <g id="ytick_7">
     <g id="line2d_23">
      <path clip-path="url(#p241b1ab7e2)" d="M 252 308.88 
L 711.529412 308.88 
" style="fill:none;stroke:#b0b0b0;stroke-linecap:square;stroke-width:0.8;"/>
     </g>
     <g id="line2d_24">
      <g>
       <use style="stroke:#000000;stroke-width:0.8;" x="252" xlink:href="#mf72c9edbb4" y="308.88"/>
      </g>
     </g>
     <g id="text_13">
      <!-- 150 -->
      <g transform="translate(210.6425 315.718594)scale(0.18 -0.18)">
       <use xlink:href="#DejaVuSans-31"/>
       <use x="63.623047" xlink:href="#DejaVuSans-35"/>
       <use x="127.246094" xlink:href="#DejaVuSans-30"/>
      </g>
     </g>
    </g>
    <g id="ytick_8">
     <g id="line2d_25">
      <path clip-path="url(#p241b1ab7e2)" d="M 252 226.98 
L 711.529412 226.98 
" style="fill:none;stroke:#b0b0b0;stroke-linecap:square;stroke-width:0.8;"/>
     </g>
     <g id="line2d_26">
      <g>
       <use style="stroke:#000000;stroke-width:0.8;" x="252" xlink:href="#mf72c9edbb4" y="226.98"/>
      </g>
     </g>
     <g id="text_14">
      <!-- 175 -->
      <g transform="translate(210.6425 233.818594)scale(0.18 -0.18)">
       <use xlink:href="#DejaVuSans-31"/>
       <use x="63.623047" xlink:href="#DejaVuSans-37"/>
       <use x="127.246094" xlink:href="#DejaVuSans-35"/>
      </g>
     </g>
    </g>
    <g id="ytick_9">
     <g id="line2d_27">
      <path clip-path="url(#p241b1ab7e2)" d="M 252 145.08 
L 711.529412 145.08 
" style="fill:none;stroke:#b0b0b0;stroke-linecap:square;stroke-width:0.8;"/>
     </g>
     <g id="line2d_28">
      <g>
       <use style="stroke:#000000;stroke-width:0.8;" x="252" xlink:href="#mf72c9edbb4" y="145.08"/>
      </g>
     </g>
     <g id="text_15">
      <!-- 200 -->
      <g transform="translate(210.6425 151.918594)scale(0.18 -0.18)">
       <use xlink:href="#DejaVuSans-32"/>
       <use x="63.623047" xlink:href="#DejaVuSans-30"/>
       <use x="127.246094" xlink:href="#DejaVuSans-30"/>
      </g>
     </g>
    </g>
    <g id="text_16">
     <!-- Z [m] -->
     <defs>
      <path d="M 5.609375 72.90625 
L 62.890625 72.90625 
L 62.890625 65.375 
L 16.796875 8.296875 
L 64.015625 8.296875 
L 64.015625 0 
L 4.5 0 
L 4.5 7.515625 
L 50.59375 64.59375 
L 5.609375 64.59375 
z
" id="DejaVuSans-5a"/>
      <path d="M 52 44.1875 
Q 55.375 50.25 60.0625 53.125 
Q 64.75 56 71.09375 56 
Q 79.640625 56 84.28125 50.015625 
Q 88.921875 44.046875 88.921875 33.015625 
L 88.921875 0 
L 79.890625 0 
L 79.890625 32.71875 
Q 79.890625 40.578125 77.09375 44.375 
Q 74.3125 48.1875 68.609375 48.1875 
Q 61.625 48.1875 57.5625 43.546875 
Q 53.515625 38.921875 53.515625 30.90625 
L 53.515625 0 
L 44.484375 0 
L 44.484375 32.71875 
Q 44.484375 40.625 41.703125 44.40625 
Q 38.921875 48.1875 33.109375 48.1875 
Q 26.21875 48.1875 22.15625 43.53125 
Q 18.109375 38.875 18.109375 30.90625 
L 18.109375 0 
L 9.078125 0 
L 9.078125 54.6875 
L 18.109375 54.6875 
L 18.109375 46.1875 
Q 21.1875 51.21875 25.484375 53.609375 
Q 29.78125 56 35.6875 56 
Q 41.65625 56 45.828125 52.96875 
Q 50 49.953125 52 44.1875 
z
" id="DejaVuSans-6d"/>
     </defs>
     <g transform="translate(202.899062 497.494688)rotate(-90)scale(0.18 -0.18)">
      <use xlink:href="#DejaVuSans-5a"/>
      <use x="68.505859" xlink:href="#DejaVuSans-20"/>
      <use x="100.292969" xlink:href="#DejaVuSans-5b"/>
      <use x="139.306641" xlink:href="#DejaVuSans-6d"/>
      <use x="236.71875" xlink:href="#DejaVuSans-5d"/>
     </g>
    </g>
   </g>
   <g id="line2d_29">
    <path clip-path="url(#p241b1ab7e2)" d="M 272.887701 800.28 
L 300.876191 783.9 
L 328.977714 767.52 
L 357.165518 751.14 
L 385.437807 734.76 
L 413.791383 718.38 
L 442.220162 702 
L 470.711044 685.62 
L 499.232358 669.24 
L 527.468969 652.86 
L 554.415247 636.48 
L 579.275473 620.1 
L 601.442044 603.72 
L 620.469389 587.34 
L 636.092322 570.96 
L 648.227309 554.58 
L 656.958252 538.2 
L 662.50968 521.82 
L 665.211958 505.44 
L 665.466142 489.06 
L 663.697748 472.68 
L 660.337629 456.3 
L 655.791811 439.92 
L 650.425128 423.54 
L 644.551398 407.16 
L 638.429659 390.78 
L 632.265065 374.4 
L 626.212985 358.02 
L 620.385028 341.64 
L 614.855925 325.26 
L 609.670512 308.88 
L 604.850276 292.5 
L 600.399178 276.12 
L 596.308598 259.74 
L 592.561391 243.36 
L 589.135089 226.98 
L 586.004362 210.6 
L 583.142824 194.22 
L 580.524324 177.84 
L 578.123811 161.46 
L 575.917873 145.08 
" style="fill:none;stroke:#1f77b4;stroke-linecap:square;stroke-width:1.5;"/>
   </g>
   <g id="line2d_30">
    <path clip-path="url(#p241b1ab7e2)" d="M 483.51903 800.28 
L 483.51903 783.9 
L 483.51903 767.52 
L 483.51903 751.14 
L 483.51903 734.76 
L 483.51903 718.38 
L 483.51903 702 
L 483.51903 685.62 
L 483.51903 669.24 
L 483.51903 652.86 
L 483.51903 636.48 
L 483.51903 620.1 
L 483.51903 603.72 
L 483.51903 587.34 
L 483.51903 570.96 
L 483.51903 554.58 
L 483.51903 538.2 
L 483.51903 521.82 
L 483.51903 505.44 
L 483.51903 489.06 
L 483.51903 472.68 
L 483.51903 456.3 
L 483.51903 439.92 
L 483.51903 423.54 
L 483.51903 407.16 
L 483.51903 390.78 
L 483.51903 374.4 
L 483.51903 358.02 
L 483.51903 341.64 
L 483.51903 325.26 
L 483.51903 308.88 
L 483.51903 292.5 
L 483.51903 276.12 
L 483.51903 259.74 
L 483.51903 243.36 
L 483.51903 226.98 
L 483.51903 210.6 
L 483.51903 194.22 
L 483.51903 177.84 
L 483.51903 161.46 
L 483.51903 145.08 
" style="fill:none;stroke:#ff7f0e;stroke-linecap:square;stroke-width:1.5;"/>
   </g>
   <g id="line2d_31">
    <path clip-path="url(#p241b1ab7e2)" d="M 272.887701 800.28 
L 300.872746 783.9 
L 328.976734 767.52 
L 357.165151 751.14 
L 385.437938 734.76 
L 413.792226 718.38 
L 442.222462 702 
L 470.717023 685.62 
L 499.249275 669.24 
L 527.724324 652.86 
L 555.554358 636.48 
L 581.464294 620.1 
L 604.807857 603.72 
L 625.140335 587.34 
L 642.175674 570.96 
L 655.803672 554.58 
L 666.077385 538.2 
L 673.182427 521.82 
L 677.410481 505.44 
L 679.121901 489.06 
L 678.712334 472.68 
L 676.583793 456.3 
L 673.121783 439.92 
L 668.679034 423.54 
L 663.565476 407.16 
L 658.043576 390.78 
L 652.327865 374.4 
L 646.587462 358.02 
L 640.950519 341.64 
L 635.509668 325.26 
L 630.327805 308.88 
L 625.443726 292.5 
L 620.877295 276.12 
L 616.634002 259.74 
L 612.708819 243.36 
L 609.089384 226.98 
L 605.758531 210.6 
L 602.696273 194.22 
L 599.881287 177.84 
L 597.292007 161.46 
L 594.90739 145.08 
" style="fill:none;stroke:#2ca02c;stroke-linecap:square;stroke-width:1.5;"/>
   </g>
   <g id="line2d_32">
    <path clip-path="url(#p241b1ab7e2)" d="M 483.51903 800.28 
L 483.51903 783.9 
L 483.51903 767.52 
L 483.51903 751.14 
L 483.51903 734.76 
L 483.51903 718.38 
L 483.51903 702 
L 483.51903 685.62 
L 483.51903 669.24 
L 483.51903 652.86 
L 483.51903 636.48 
L 483.51903 620.1 
L 483.51903 603.72 
L 483.51903 587.34 
L 483.51903 570.96 
L 483.51903 554.58 
L 483.51903 538.2 
L 483.51903 521.82 
L 483.51903 505.44 
L 483.51903 489.06 
L 483.51903 472.68 
L 483.51903 456.3 
L 483.51903 439.92 
L 483.51903 423.54 
L 483.51903 407.16 
L 483.51903 390.78 
L 483.51903 374.4 
L 483.51903 358.02 
L 483.51903 341.64 
L 483.51903 325.26 
L 483.51903 308.88 
L 483.51903 292.5 
L 483.51903 276.12 
L 483.51903 259.74 
L 483.51903 243.36 
L 483.51903 226.98 
L 483.51903 210.6 
L 483.51903 194.22 
L 483.51903 177.84 
L 483.51903 161.46 
L 483.51903 145.08 
" style="fill:none;stroke:#d62728;stroke-linecap:square;stroke-width:1.5;"/>
   </g>
   <g id="line2d_33">
    <path clip-path="url(#p241b1ab7e2)" d="M 272.887701 800.28 
L 300.870618 783.9 
L 328.976339 767.52 
L 357.165047 751.14 
L 385.438107 734.76 
L 413.792812 718.38 
L 442.223904 702 
L 470.720558 685.62 
L 499.258647 669.24 
L 527.767473 652.86 
L 555.799506 636.48 
L 582.210227 620.1 
L 606.152257 603.72 
L 627.171487 587.34 
L 644.975515 570.96 
L 659.439906 554.58 
L 670.597159 538.2 
L 678.612624 521.82 
L 683.753586 505.44 
L 686.356157 489.06 
L 686.793685 472.68 
L 685.449284 456.3 
L 682.693969 439.92 
L 678.870846 423.54 
L 674.285044 407.16 
L 669.198605 390.78 
L 663.829303 374.4 
L 658.352326 358.02 
L 652.903854 341.64 
L 647.585709 325.26 
L 642.470446 308.88 
L 637.606434 292.5 
L 633.022619 276.12 
L 628.7328 259.74 
L 624.739323 243.36 
L 621.036185 226.98 
L 617.611574 210.6 
L 614.449885 194.22 
L 611.533295 177.84 
L 608.842948 161.46 
L 606.359832 145.08 
" style="fill:none;stroke:#9467bd;stroke-linecap:square;stroke-width:1.5;"/>
   </g>
   <g id="line2d_34">
    <path clip-path="url(#p241b1ab7e2)" d="M 483.51903 800.28 
L 483.51903 783.9 
L 483.51903 767.52 
L 483.51903 751.14 
L 483.51903 734.76 
L 483.51903 718.38 
L 483.51903 702 
L 483.51903 685.62 
L 483.51903 669.24 
L 483.51903 652.86 
L 483.51903 636.48 
L 483.51903 620.1 
L 483.51903 603.72 
L 483.51903 587.34 
L 483.51903 570.96 
L 483.51903 554.58 
L 483.51903 538.2 
L 483.51903 521.82 
L 483.51903 505.44 
L 483.51903 489.06 
L 483.51903 472.68 
L 483.51903 456.3 
L 483.51903 439.92 
L 483.51903 423.54 
L 483.51903 407.16 
L 483.51903 390.78 
L 483.51903 374.4 
L 483.51903 358.02 
L 483.51903 341.64 
L 483.51903 325.26 
L 483.51903 308.88 
L 483.51903 292.5 
L 483.51903 276.12 
L 483.51903 259.74 
L 483.51903 243.36 
L 483.51903 226.98 
L 483.51903 210.6 
L 483.51903 194.22 
L 483.51903 177.84 
L 483.51903 161.46 
L 483.51903 145.08 
" style="fill:none;stroke:#8c564b;stroke-linecap:square;stroke-width:1.5;"/>
   </g>
   <g id="line2d_35">
    <path clip-path="url(#p241b1ab7e2)" d="M 272.887701 800.28 
L 300.869947 783.9 
L 328.976241 767.52 
L 357.16503 751.14 
L 385.438178 734.76 
L 413.793019 718.38 
L 442.224393 702 
L 470.721724 685.62 
L 499.261653 669.24 
L 527.778472 652.86 
L 555.875972 636.48 
L 582.413916 620.1 
L 606.532214 603.72 
L 627.761095 587.34 
L 645.80547 570.96 
L 660.536043 554.58 
L 671.978819 538.2 
L 680.291537 521.82 
L 685.733285 505.44 
L 688.631993 489.06 
L 689.353422 472.68 
L 688.274189 456.3 
L 685.760224 439.92 
L 682.151124 423.54 
L 677.750079 407.16 
L 672.818625 390.78 
L 667.575252 374.4 
L 662.196819 358.02 
L 656.821865 341.64 
L 651.554998 325.26 
L 646.471767 308.88 
L 641.623564 292.5 
L 637.042246 276.12 
L 632.744313 259.74 
L 628.734545 243.36 
L 625.009071 226.98 
L 621.557898 210.6 
L 618.366943 194.22 
L 615.419619 177.84 
L 612.698056 161.46 
L 610.183997 145.08 
" style="fill:none;stroke:#e377c2;stroke-linecap:square;stroke-width:1.5;"/>
   </g>
   <g id="line2d_36">
    <path clip-path="url(#p241b1ab7e2)" d="M 483.51903 800.28 
L 483.51903 783.9 
L 483.51903 767.52 
L 483.51903 751.14 
L 483.51903 734.76 
L 483.51903 718.38 
L 483.51903 702 
L 483.51903 685.62 
L 483.51903 669.24 
L 483.51903 652.86 
L 483.51903 636.48 
L 483.51903 620.1 
L 483.51903 603.72 
L 483.51903 587.34 
L 483.51903 570.96 
L 483.51903 554.58 
L 483.51903 538.2 
L 483.51903 521.82 
L 483.51903 505.44 
L 483.51903 489.06 
L 483.51903 472.68 
L 483.51903 456.3 
L 483.51903 439.92 
L 483.51903 423.54 
L 483.51903 407.16 
L 483.51903 390.78 
L 483.51903 374.4 
L 483.51903 358.02 
L 483.51903 341.64 
L 483.51903 325.26 
L 483.51903 308.88 
L 483.51903 292.5 
L 483.51903 276.12 
L 483.51903 259.74 
L 483.51903 243.36 
L 483.51903 226.98 
L 483.51903 210.6 
L 483.51903 194.22 
L 483.51903 177.84 
L 483.51903 161.46 
L 483.51903 145.08 
" style="fill:none;stroke:#7f7f7f;stroke-linecap:square;stroke-width:1.5;"/>
   </g>
   <g id="line2d_37">
    <path clip-path="url(#p241b1ab7e2)" d="M 272.887701 800.28 
L 300.869624 783.9 
L 328.976197 767.52 
L 357.165025 751.14 
L 385.438215 734.76 
L 413.793124 718.38 
L 442.224638 702 
L 470.722305 685.62 
L 499.263134 669.24 
L 527.783619 652.86 
L 555.915378 636.48 
L 582.52848 620.1 
L 606.735959 603.72 
L 628.071129 587.34 
L 646.236602 570.96 
L 661.100374 554.58 
L 672.685253 538.2 
L 681.14531 521.82 
L 686.735703 505.44 
L 689.780455 489.06 
L 690.641711 472.68 
L 689.692993 456.3 
L 687.297815 439.92 
L 683.794099 423.54 
L 679.484113 407.16 
L 674.629154 390.78 
L 669.448059 374.4 
L 664.118493 358.02 
L 658.780132 341.64 
L 653.53893 325.26 
L 648.471887 308.88 
L 643.631859 292.5 
L 639.052119 276.12 
L 634.750485 259.74 
L 630.732926 243.36 
L 626.996616 226.98 
L 623.532461 210.6 
L 620.327128 194.22 
L 617.364645 177.84 
L 614.627632 161.46 
L 612.098216 145.08 
" style="fill:none;stroke:#bcbd22;stroke-linecap:square;stroke-width:1.5;"/>
   </g>
   <g id="line2d_38">
    <path clip-path="url(#p241b1ab7e2)" d="M 483.51903 800.28 
L 483.51903 783.9 
L 483.51903 767.52 
L 483.51903 751.14 
L 483.51903 734.76 
L 483.51903 718.38 
L 483.51903 702 
L 483.51903 685.62 
L 483.51903 669.24 
L 483.51903 652.86 
L 483.51903 636.48 
L 483.51903 620.1 
L 483.51903 603.72 
L 483.51903 587.34 
L 483.51903 570.96 
L 483.51903 554.58 
L 483.51903 538.2 
L 483.51903 521.82 
L 483.51903 505.44 
L 483.51903 489.06 
L 483.51903 472.68 
L 483.51903 456.3 
L 483.51903 439.92 
L 483.51903 423.54 
L 483.51903 407.16 
L 483.51903 390.78 
L 483.51903 374.4 
L 483.51903 358.02 
L 483.51903 341.64 
L 483.51903 325.26 
L 483.51903 308.88 
L 483.51903 292.5 
L 483.51903 276.12 
L 483.51903 259.74 
L 483.51903 243.36 
L 483.51903 226.98 
L 483.51903 210.6 
L 483.51903 194.22 
L 483.51903 177.84 
L 483.51903 161.46 
L 483.51903 145.08 
" style="fill:none;stroke:#17becf;stroke-linecap:square;stroke-width:1.5;"/>
   </g>
   <g id="patch_3">
    <path d="M 252 833.04 
L 252 112.32 
" style="fill:none;stroke:#000000;stroke-linecap:square;stroke-linejoin:miter;stroke-width:0.8;"/>
   </g>
   <g id="patch_4">
    <path d="M 711.529412 833.04 
L 711.529412 112.32 
" style="fill:none;stroke:#000000;stroke-linecap:square;stroke-linejoin:miter;stroke-width:0.8;"/>
   </g>
   <g id="patch_5">
    <path d="M 252 833.04 
L 711.529412 833.04 
" style="fill:none;stroke:#000000;stroke-linecap:square;stroke-linejoin:miter;stroke-width:0.8;"/>
   </g>
   <g id="patch_6">
    <path d="M 252 112.32 
L 711.529412 112.32 
" style="fill:none;stroke:#000000;stroke-linecap:square;stroke-linejoin:miter;stroke-width:0.8;"/>
   </g>
   <g id="text_17">
    <!-- Saturation for updraft velocity= 5[m/s] -->
    <defs>
     <path d="M 53.515625 70.515625 
L 53.515625 60.890625 
Q 47.90625 63.578125 42.921875 64.890625 
Q 37.9375 66.21875 33.296875 66.21875 
Q 25.25 66.21875 20.875 63.09375 
Q 16.5 59.96875 16.5 54.203125 
Q 16.5 49.359375 19.40625 46.890625 
Q 22.3125 44.4375 30.421875 42.921875 
L 36.375 41.703125 
Q 47.40625 39.59375 52.65625 34.296875 
Q 57.90625 29 57.90625 20.125 
Q 57.90625 9.515625 50.796875 4.046875 
Q 43.703125 -1.421875 29.984375 -1.421875 
Q 24.8125 -1.421875 18.96875 -0.25 
Q 13.140625 0.921875 6.890625 3.21875 
L 6.890625 13.375 
Q 12.890625 10.015625 18.65625 8.296875 
Q 24.421875 6.59375 29.984375 6.59375 
Q 38.421875 6.59375 43.015625 9.90625 
Q 47.609375 13.234375 47.609375 19.390625 
Q 47.609375 24.75 44.3125 27.78125 
Q 41.015625 30.8125 33.5 32.328125 
L 27.484375 33.5 
Q 16.453125 35.6875 11.515625 40.375 
Q 6.59375 45.0625 6.59375 53.421875 
Q 6.59375 63.09375 13.40625 68.65625 
Q 20.21875 74.21875 32.171875 74.21875 
Q 37.3125 74.21875 42.625 73.28125 
Q 47.953125 72.359375 53.515625 70.515625 
z
" id="DejaVuSans-53"/>
     <path d="M 34.28125 27.484375 
Q 23.390625 27.484375 19.1875 25 
Q 14.984375 22.515625 14.984375 16.5 
Q 14.984375 11.71875 18.140625 8.90625 
Q 21.296875 6.109375 26.703125 6.109375 
Q 34.1875 6.109375 38.703125 11.40625 
Q 43.21875 16.703125 43.21875 25.484375 
L 43.21875 27.484375 
z
M 52.203125 31.203125 
L 52.203125 0 
L 43.21875 0 
L 43.21875 8.296875 
Q 40.140625 3.328125 35.546875 0.953125 
Q 30.953125 -1.421875 24.3125 -1.421875 
Q 15.921875 -1.421875 10.953125 3.296875 
Q 6 8.015625 6 15.921875 
Q 6 25.140625 12.171875 29.828125 
Q 18.359375 34.515625 30.609375 34.515625 
L 43.21875 34.515625 
L 43.21875 35.40625 
Q 43.21875 41.609375 39.140625 45 
Q 35.0625 48.390625 27.6875 48.390625 
Q 23 48.390625 18.546875 47.265625 
Q 14.109375 46.140625 10.015625 43.890625 
L 10.015625 52.203125 
Q 14.9375 54.109375 19.578125 55.046875 
Q 24.21875 56 28.609375 56 
Q 40.484375 56 46.34375 49.84375 
Q 52.203125 43.703125 52.203125 31.203125 
z
" id="DejaVuSans-61"/>
     <path d="M 18.3125 70.21875 
L 18.3125 54.6875 
L 36.8125 54.6875 
L 36.8125 47.703125 
L 18.3125 47.703125 
L 18.3125 18.015625 
Q 18.3125 11.328125 20.140625 9.421875 
Q 21.96875 7.515625 27.59375 7.515625 
L 36.8125 7.515625 
L 36.8125 0 
L 27.59375 0 
Q 17.1875 0 13.234375 3.875 
Q 9.28125 7.765625 9.28125 18.015625 
L 9.28125 47.703125 
L 2.6875 47.703125 
L 2.6875 54.6875 
L 9.28125 54.6875 
L 9.28125 70.21875 
z
" id="DejaVuSans-74"/>
     <path d="M 8.5 21.578125 
L 8.5 54.6875 
L 17.484375 54.6875 
L 17.484375 21.921875 
Q 17.484375 14.15625 20.5 10.265625 
Q 23.53125 6.390625 29.59375 6.390625 
Q 36.859375 6.390625 41.078125 11.03125 
Q 45.3125 15.671875 45.3125 23.6875 
L 45.3125 54.6875 
L 54.296875 54.6875 
L 54.296875 0 
L 45.3125 0 
L 45.3125 8.40625 
Q 42.046875 3.421875 37.71875 1 
Q 33.40625 -1.421875 27.6875 -1.421875 
Q 18.265625 -1.421875 13.375 4.4375 
Q 8.5 10.296875 8.5 21.578125 
z
M 31.109375 56 
z
" id="DejaVuSans-75"/>
     <path d="M 41.109375 46.296875 
Q 39.59375 47.171875 37.8125 47.578125 
Q 36.03125 48 33.890625 48 
Q 26.265625 48 22.1875 43.046875 
Q 18.109375 38.09375 18.109375 28.8125 
L 18.109375 0 
L 9.078125 0 
L 9.078125 54.6875 
L 18.109375 54.6875 
L 18.109375 46.1875 
Q 20.953125 51.171875 25.484375 53.578125 
Q 30.03125 56 36.53125 56 
Q 37.453125 56 38.578125 55.875 
Q 39.703125 55.765625 41.0625 55.515625 
z
" id="DejaVuSans-72"/>
     <path d="M 9.421875 54.6875 
L 18.40625 54.6875 
L 18.40625 0 
L 9.421875 0 
z
M 9.421875 75.984375 
L 18.40625 75.984375 
L 18.40625 64.59375 
L 9.421875 64.59375 
z
" id="DejaVuSans-69"/>
     <path d="M 30.609375 48.390625 
Q 23.390625 48.390625 19.1875 42.75 
Q 14.984375 37.109375 14.984375 27.296875 
Q 14.984375 17.484375 19.15625 11.84375 
Q 23.34375 6.203125 30.609375 6.203125 
Q 37.796875 6.203125 41.984375 11.859375 
Q 46.1875 17.53125 46.1875 27.296875 
Q 46.1875 37.015625 41.984375 42.703125 
Q 37.796875 48.390625 30.609375 48.390625 
z
M 30.609375 56 
Q 42.328125 56 49.015625 48.375 
Q 55.71875 40.765625 55.71875 27.296875 
Q 55.71875 13.875 49.015625 6.21875 
Q 42.328125 -1.421875 30.609375 -1.421875 
Q 18.84375 -1.421875 12.171875 6.21875 
Q 5.515625 13.875 5.515625 27.296875 
Q 5.515625 40.765625 12.171875 48.375 
Q 18.84375 56 30.609375 56 
z
" id="DejaVuSans-6f"/>
     <path d="M 54.890625 33.015625 
L 54.890625 0 
L 45.90625 0 
L 45.90625 32.71875 
Q 45.90625 40.484375 42.875 44.328125 
Q 39.84375 48.1875 33.796875 48.1875 
Q 26.515625 48.1875 22.3125 43.546875 
Q 18.109375 38.921875 18.109375 30.90625 
L 18.109375 0 
L 9.078125 0 
L 9.078125 54.6875 
L 18.109375 54.6875 
L 18.109375 46.1875 
Q 21.34375 51.125 25.703125 53.5625 
Q 30.078125 56 35.796875 56 
Q 45.21875 56 50.046875 50.171875 
Q 54.890625 44.34375 54.890625 33.015625 
z
" id="DejaVuSans-6e"/>
     <path d="M 37.109375 75.984375 
L 37.109375 68.5 
L 28.515625 68.5 
Q 23.6875 68.5 21.796875 66.546875 
Q 19.921875 64.59375 19.921875 59.515625 
L 19.921875 54.6875 
L 34.71875 54.6875 
L 34.71875 47.703125 
L 19.921875 47.703125 
L 19.921875 0 
L 10.890625 0 
L 10.890625 47.703125 
L 2.296875 47.703125 
L 2.296875 54.6875 
L 10.890625 54.6875 
L 10.890625 58.5 
Q 10.890625 67.625 15.140625 71.796875 
Q 19.390625 75.984375 28.609375 75.984375 
z
" id="DejaVuSans-66"/>
     <path d="M 18.109375 8.203125 
L 18.109375 -20.796875 
L 9.078125 -20.796875 
L 9.078125 54.6875 
L 18.109375 54.6875 
L 18.109375 46.390625 
Q 20.953125 51.265625 25.265625 53.625 
Q 29.59375 56 35.59375 56 
Q 45.5625 56 51.78125 48.09375 
Q 58.015625 40.1875 58.015625 27.296875 
Q 58.015625 14.40625 51.78125 6.484375 
Q 45.5625 -1.421875 35.59375 -1.421875 
Q 29.59375 -1.421875 25.265625 0.953125 
Q 20.953125 3.328125 18.109375 8.203125 
z
M 48.6875 27.296875 
Q 48.6875 37.203125 44.609375 42.84375 
Q 40.53125 48.484375 33.40625 48.484375 
Q 26.265625 48.484375 22.1875 42.84375 
Q 18.109375 37.203125 18.109375 27.296875 
Q 18.109375 17.390625 22.1875 11.75 
Q 26.265625 6.109375 33.40625 6.109375 
Q 40.53125 6.109375 44.609375 11.75 
Q 48.6875 17.390625 48.6875 27.296875 
z
" id="DejaVuSans-70"/>
     <path d="M 45.40625 46.390625 
L 45.40625 75.984375 
L 54.390625 75.984375 
L 54.390625 0 
L 45.40625 0 
L 45.40625 8.203125 
Q 42.578125 3.328125 38.25 0.953125 
Q 33.9375 -1.421875 27.875 -1.421875 
Q 17.96875 -1.421875 11.734375 6.484375 
Q 5.515625 14.40625 5.515625 27.296875 
Q 5.515625 40.1875 11.734375 48.09375 
Q 17.96875 56 27.875 56 
Q 33.9375 56 38.25 53.625 
Q 42.578125 51.265625 45.40625 46.390625 
z
M 14.796875 27.296875 
Q 14.796875 17.390625 18.875 11.75 
Q 22.953125 6.109375 30.078125 6.109375 
Q 37.203125 6.109375 41.296875 11.75 
Q 45.40625 17.390625 45.40625 27.296875 
Q 45.40625 37.203125 41.296875 42.84375 
Q 37.203125 48.484375 30.078125 48.484375 
Q 22.953125 48.484375 18.875 42.84375 
Q 14.796875 37.203125 14.796875 27.296875 
z
" id="DejaVuSans-64"/>
     <path d="M 2.984375 54.6875 
L 12.5 54.6875 
L 29.59375 8.796875 
L 46.6875 54.6875 
L 56.203125 54.6875 
L 35.6875 0 
L 23.484375 0 
z
" id="DejaVuSans-76"/>
     <path d="M 56.203125 29.59375 
L 56.203125 25.203125 
L 14.890625 25.203125 
Q 15.484375 15.921875 20.484375 11.0625 
Q 25.484375 6.203125 34.421875 6.203125 
Q 39.59375 6.203125 44.453125 7.46875 
Q 49.3125 8.734375 54.109375 11.28125 
L 54.109375 2.78125 
Q 49.265625 0.734375 44.1875 -0.34375 
Q 39.109375 -1.421875 33.890625 -1.421875 
Q 20.796875 -1.421875 13.15625 6.1875 
Q 5.515625 13.8125 5.515625 26.8125 
Q 5.515625 40.234375 12.765625 48.109375 
Q 20.015625 56 32.328125 56 
Q 43.359375 56 49.78125 48.890625 
Q 56.203125 41.796875 56.203125 29.59375 
z
M 47.21875 32.234375 
Q 47.125 39.59375 43.09375 43.984375 
Q 39.0625 48.390625 32.421875 48.390625 
Q 24.90625 48.390625 20.390625 44.140625 
Q 15.875 39.890625 15.1875 32.171875 
z
" id="DejaVuSans-65"/>
     <path d="M 9.421875 75.984375 
L 18.40625 75.984375 
L 18.40625 0 
L 9.421875 0 
z
" id="DejaVuSans-6c"/>
     <path d="M 48.78125 52.59375 
L 48.78125 44.1875 
Q 44.96875 46.296875 41.140625 47.34375 
Q 37.3125 48.390625 33.40625 48.390625 
Q 24.65625 48.390625 19.8125 42.84375 
Q 14.984375 37.3125 14.984375 27.296875 
Q 14.984375 17.28125 19.8125 11.734375 
Q 24.65625 6.203125 33.40625 6.203125 
Q 37.3125 6.203125 41.140625 7.25 
Q 44.96875 8.296875 48.78125 10.40625 
L 48.78125 2.09375 
Q 45.015625 0.34375 40.984375 -0.53125 
Q 36.96875 -1.421875 32.421875 -1.421875 
Q 20.0625 -1.421875 12.78125 6.34375 
Q 5.515625 14.109375 5.515625 27.296875 
Q 5.515625 40.671875 12.859375 48.328125 
Q 20.21875 56 33.015625 56 
Q 37.15625 56 41.109375 55.140625 
Q 45.0625 54.296875 48.78125 52.59375 
z
" id="DejaVuSans-63"/>
     <path d="M 32.171875 -5.078125 
Q 28.375 -14.84375 24.75 -17.8125 
Q 21.140625 -20.796875 15.09375 -20.796875 
L 7.90625 -20.796875 
L 7.90625 -13.28125 
L 13.1875 -13.28125 
Q 16.890625 -13.28125 18.9375 -11.515625 
Q 21 -9.765625 23.484375 -3.21875 
L 25.09375 0.875 
L 2.984375 54.6875 
L 12.5 54.6875 
L 29.59375 11.921875 
L 46.6875 54.6875 
L 56.203125 54.6875 
z
" id="DejaVuSans-79"/>
     <path d="M 10.59375 45.40625 
L 73.1875 45.40625 
L 73.1875 37.203125 
L 10.59375 37.203125 
z
M 10.59375 25.484375 
L 73.1875 25.484375 
L 73.1875 17.1875 
L 10.59375 17.1875 
z
" id="DejaVuSans-3d"/>
     <path d="M 25.390625 72.90625 
L 33.6875 72.90625 
L 8.296875 -9.28125 
L 0 -9.28125 
z
" id="DejaVuSans-2f"/>
     <path d="M 44.28125 53.078125 
L 44.28125 44.578125 
Q 40.484375 46.53125 36.375 47.5 
Q 32.28125 48.484375 27.875 48.484375 
Q 21.1875 48.484375 17.84375 46.4375 
Q 14.5 44.390625 14.5 40.28125 
Q 14.5 37.15625 16.890625 35.375 
Q 19.28125 33.59375 26.515625 31.984375 
L 29.59375 31.296875 
Q 39.15625 29.25 43.1875 25.515625 
Q 47.21875 21.78125 47.21875 15.09375 
Q 47.21875 7.46875 41.1875 3.015625 
Q 35.15625 -1.421875 24.609375 -1.421875 
Q 20.21875 -1.421875 15.453125 -0.5625 
Q 10.6875 0.296875 5.421875 2 
L 5.421875 11.28125 
Q 10.40625 8.6875 15.234375 7.390625 
Q 20.0625 6.109375 24.8125 6.109375 
Q 31.15625 6.109375 34.5625 8.28125 
Q 37.984375 10.453125 37.984375 14.40625 
Q 37.984375 18.0625 35.515625 20.015625 
Q 33.0625 21.96875 24.703125 23.78125 
L 21.578125 24.515625 
Q 13.234375 26.265625 9.515625 29.90625 
Q 5.8125 33.546875 5.8125 39.890625 
Q 5.8125 47.609375 11.28125 51.796875 
Q 16.75 56 26.8125 56 
Q 31.78125 56 36.171875 55.265625 
Q 40.578125 54.546875 44.28125 53.078125 
z
" id="DejaVuSans-73"/>
    </defs>
    <g transform="translate(270.893018 106.32)scale(0.216 -0.216)">
     <use xlink:href="#DejaVuSans-53"/>
     <use x="63.476562" xlink:href="#DejaVuSans-61"/>
     <use x="124.755859" xlink:href="#DejaVuSans-74"/>
     <use x="163.964844" xlink:href="#DejaVuSans-75"/>
     <use x="227.34375" xlink:href="#DejaVuSans-72"/>
     <use x="268.457031" xlink:href="#DejaVuSans-61"/>
     <use x="329.736328" xlink:href="#DejaVuSans-74"/>
     <use x="368.945312" xlink:href="#DejaVuSans-69"/>
     <use x="396.728516" xlink:href="#DejaVuSans-6f"/>
     <use x="457.910156" xlink:href="#DejaVuSans-6e"/>
     <use x="521.289062" xlink:href="#DejaVuSans-20"/>
     <use x="553.076172" xlink:href="#DejaVuSans-66"/>
     <use x="588.28125" xlink:href="#DejaVuSans-6f"/>
     <use x="649.462891" xlink:href="#DejaVuSans-72"/>
     <use x="690.576172" xlink:href="#DejaVuSans-20"/>
     <use x="722.363281" xlink:href="#DejaVuSans-75"/>
     <use x="785.742188" xlink:href="#DejaVuSans-70"/>
     <use x="849.21875" xlink:href="#DejaVuSans-64"/>
     <use x="912.695312" xlink:href="#DejaVuSans-72"/>
     <use x="953.808594" xlink:href="#DejaVuSans-61"/>
     <use x="1015.087891" xlink:href="#DejaVuSans-66"/>
     <use x="1050.277344" xlink:href="#DejaVuSans-74"/>
     <use x="1089.486328" xlink:href="#DejaVuSans-20"/>
     <use x="1121.273438" xlink:href="#DejaVuSans-76"/>
     <use x="1180.453125" xlink:href="#DejaVuSans-65"/>
     <use x="1241.976562" xlink:href="#DejaVuSans-6c"/>
     <use x="1269.759766" xlink:href="#DejaVuSans-6f"/>
     <use x="1330.941406" xlink:href="#DejaVuSans-63"/>
     <use x="1385.921875" xlink:href="#DejaVuSans-69"/>
     <use x="1413.705078" xlink:href="#DejaVuSans-74"/>
     <use x="1452.914062" xlink:href="#DejaVuSans-79"/>
     <use x="1512.09375" xlink:href="#DejaVuSans-3d"/>
     <use x="1595.882812" xlink:href="#DejaVuSans-20"/>
     <use x="1627.669922" xlink:href="#DejaVuSans-35"/>
     <use x="1691.292969" xlink:href="#DejaVuSans-5b"/>
     <use x="1730.306641" xlink:href="#DejaVuSans-6d"/>
     <use x="1827.71875" xlink:href="#DejaVuSans-2f"/>
     <use x="1861.410156" xlink:href="#DejaVuSans-73"/>
     <use x="1913.509766" xlink:href="#DejaVuSans-5d"/>
    </g>
   </g>
   <g id="legend_1">
    <g id="patch_7">
     <path d="M 264.6 285.24375 
L 486.63 285.24375 
Q 490.23 285.24375 490.23 281.64375 
L 490.23 124.92 
Q 490.23 121.32 486.63 121.32 
L 264.6 121.32 
Q 261 121.32 261 124.92 
L 261 281.64375 
Q 261 285.24375 264.6 285.24375 
z
" style="fill:#ffffff;opacity:0.8;stroke:#cccccc;stroke-linejoin:miter;"/>
    </g>
    <g id="text_18">
     <!-- Condensation time step -->
     <defs>
      <path d="M 64.40625 67.28125 
L 64.40625 56.890625 
Q 59.421875 61.53125 53.78125 63.8125 
Q 48.140625 66.109375 41.796875 66.109375 
Q 29.296875 66.109375 22.65625 58.46875 
Q 16.015625 50.828125 16.015625 36.375 
Q 16.015625 21.96875 22.65625 14.328125 
Q 29.296875 6.6875 41.796875 6.6875 
Q 48.140625 6.6875 53.78125 8.984375 
Q 59.421875 11.28125 64.40625 15.921875 
L 64.40625 5.609375 
Q 59.234375 2.09375 53.4375 0.328125 
Q 47.65625 -1.421875 41.21875 -1.421875 
Q 24.65625 -1.421875 15.125 8.703125 
Q 5.609375 18.84375 5.609375 36.375 
Q 5.609375 53.953125 15.125 64.078125 
Q 24.65625 74.21875 41.21875 74.21875 
Q 47.75 74.21875 53.53125 72.484375 
Q 59.328125 70.75 64.40625 67.28125 
z
" id="DejaVuSans-43"/>
     </defs>
     <g transform="translate(268.2 142.197188)scale(0.18 -0.18)">
      <use xlink:href="#DejaVuSans-43"/>
      <use x="69.824219" xlink:href="#DejaVuSans-6f"/>
      <use x="131.005859" xlink:href="#DejaVuSans-6e"/>
      <use x="194.384766" xlink:href="#DejaVuSans-64"/>
      <use x="257.861328" xlink:href="#DejaVuSans-65"/>
      <use x="319.384766" xlink:href="#DejaVuSans-6e"/>
      <use x="382.763672" xlink:href="#DejaVuSans-73"/>
      <use x="434.863281" xlink:href="#DejaVuSans-61"/>
      <use x="496.142578" xlink:href="#DejaVuSans-74"/>
      <use x="535.351562" xlink:href="#DejaVuSans-69"/>
      <use x="563.134766" xlink:href="#DejaVuSans-6f"/>
      <use x="624.316406" xlink:href="#DejaVuSans-6e"/>
      <use x="687.695312" xlink:href="#DejaVuSans-20"/>
      <use x="719.482422" xlink:href="#DejaVuSans-74"/>
      <use x="758.691406" xlink:href="#DejaVuSans-69"/>
      <use x="786.474609" xlink:href="#DejaVuSans-6d"/>
      <use x="883.886719" xlink:href="#DejaVuSans-65"/>
      <use x="945.410156" xlink:href="#DejaVuSans-20"/>
      <use x="977.197266" xlink:href="#DejaVuSans-73"/>
      <use x="1029.296875" xlink:href="#DejaVuSans-74"/>
      <use x="1068.505859" xlink:href="#DejaVuSans-65"/>
      <use x="1130.029297" xlink:href="#DejaVuSans-70"/>
     </g>
    </g>
    <g id="line2d_39">
     <path d="M 330.204375 162.317813 
L 366.204375 162.317813 
" style="fill:none;stroke:#1f77b4;stroke-linecap:square;stroke-width:1.5;"/>
    </g>
    <g id="line2d_40"/>
    <g id="text_19">
     <!-- 1/1 -->
     <g transform="translate(380.604375 168.617813)scale(0.18 -0.18)">
      <use xlink:href="#DejaVuSans-31"/>
      <use x="63.623047" xlink:href="#DejaVuSans-2f"/>
      <use x="97.314453" xlink:href="#DejaVuSans-31"/>
     </g>
    </g>
    <g id="line2d_41">
     <path d="M 330.204375 188.738438 
L 366.204375 188.738438 
" style="fill:none;stroke:#2ca02c;stroke-linecap:square;stroke-width:1.5;"/>
    </g>
    <g id="line2d_42"/>
    <g id="text_20">
     <!-- 1/2 -->
     <g transform="translate(380.604375 195.038438)scale(0.18 -0.18)">
      <use xlink:href="#DejaVuSans-31"/>
      <use x="63.623047" xlink:href="#DejaVuSans-2f"/>
      <use x="97.314453" xlink:href="#DejaVuSans-32"/>
     </g>
    </g>
    <g id="line2d_43">
     <path d="M 330.204375 215.159063 
L 366.204375 215.159063 
" style="fill:none;stroke:#9467bd;stroke-linecap:square;stroke-width:1.5;"/>
    </g>
    <g id="line2d_44"/>
    <g id="text_21">
     <!-- 1/5 -->
     <g transform="translate(380.604375 221.459063)scale(0.18 -0.18)">
      <use xlink:href="#DejaVuSans-31"/>
      <use x="63.623047" xlink:href="#DejaVuSans-2f"/>
      <use x="97.314453" xlink:href="#DejaVuSans-35"/>
     </g>
    </g>
    <g id="line2d_45">
     <path d="M 330.204375 241.579688 
L 366.204375 241.579688 
" style="fill:none;stroke:#e377c2;stroke-linecap:square;stroke-width:1.5;"/>
    </g>
    <g id="line2d_46"/>
    <g id="text_22">
     <!-- 1/10 -->
     <g transform="translate(380.604375 247.879688)scale(0.18 -0.18)">
      <use xlink:href="#DejaVuSans-31"/>
      <use x="63.623047" xlink:href="#DejaVuSans-2f"/>
      <use x="97.314453" xlink:href="#DejaVuSans-31"/>
      <use x="160.9375" xlink:href="#DejaVuSans-30"/>
     </g>
    </g>
    <g id="line2d_47">
     <path d="M 330.204375 268.000313 
L 366.204375 268.000313 
" style="fill:none;stroke:#bcbd22;stroke-linecap:square;stroke-width:1.5;"/>
    </g>
    <g id="line2d_48"/>
    <g id="text_23">
     <!-- 1/20 -->
     <g transform="translate(380.604375 274.300313)scale(0.18 -0.18)">
      <use xlink:href="#DejaVuSans-31"/>
      <use x="63.623047" xlink:href="#DejaVuSans-2f"/>
      <use x="97.314453" xlink:href="#DejaVuSans-32"/>
      <use x="160.9375" xlink:href="#DejaVuSans-30"/>
     </g>
    </g>
   </g>
  </g>
  <g id="axes_2">
   <g id="patch_8">
    <path d="M 803.435294 833.04 
L 1262.964706 833.04 
L 1262.964706 112.32 
L 803.435294 112.32 
z
" style="fill:#ffffff;"/>
   </g>
   <g id="matplotlib.axis_3">
    <g id="xtick_6">
     <g id="line2d_49">
      <path clip-path="url(#pb70254643a)" d="M 811.120104 833.04 
L 811.120104 112.32 
" style="fill:none;stroke:#b0b0b0;stroke-linecap:square;stroke-width:0.8;"/>
     </g>
     <g id="line2d_50">
      <g>
       <use style="stroke:#000000;stroke-width:0.8;" x="811.120104" xlink:href="#m8702436f6b" y="833.04"/>
      </g>
     </g>
     <g id="text_24">
      <!-- 0 -->
      <g transform="translate(805.393854 853.717188)scale(0.18 -0.18)">
       <use xlink:href="#DejaVuSans-30"/>
      </g>
     </g>
    </g>
    <g id="xtick_7">
     <g id="line2d_51">
      <path clip-path="url(#pb70254643a)" d="M 911.693632 833.04 
L 911.693632 112.32 
" style="fill:none;stroke:#b0b0b0;stroke-linecap:square;stroke-width:0.8;"/>
     </g>
     <g id="line2d_52">
      <g>
       <use style="stroke:#000000;stroke-width:0.8;" x="911.693632" xlink:href="#m8702436f6b" y="833.04"/>
      </g>
     </g>
     <g id="text_25">
      <!-- 20 -->
      <g transform="translate(900.241132 853.717188)scale(0.18 -0.18)">
       <use xlink:href="#DejaVuSans-32"/>
       <use x="63.623047" xlink:href="#DejaVuSans-30"/>
      </g>
     </g>
    </g>
    <g id="xtick_8">
     <g id="line2d_53">
      <path clip-path="url(#pb70254643a)" d="M 1012.267159 833.04 
L 1012.267159 112.32 
" style="fill:none;stroke:#b0b0b0;stroke-linecap:square;stroke-width:0.8;"/>
     </g>
     <g id="line2d_54">
      <g>
       <use style="stroke:#000000;stroke-width:0.8;" x="1012.267159" xlink:href="#m8702436f6b" y="833.04"/>
      </g>
     </g>
     <g id="text_26">
      <!-- 40 -->
      <defs>
       <path d="M 37.796875 64.3125 
L 12.890625 25.390625 
L 37.796875 25.390625 
z
M 35.203125 72.90625 
L 47.609375 72.90625 
L 47.609375 25.390625 
L 58.015625 25.390625 
L 58.015625 17.1875 
L 47.609375 17.1875 
L 47.609375 0 
L 37.796875 0 
L 37.796875 17.1875 
L 4.890625 17.1875 
L 4.890625 26.703125 
z
" id="DejaVuSans-34"/>
      </defs>
      <g transform="translate(1000.814659 853.717188)scale(0.18 -0.18)">
       <use xlink:href="#DejaVuSans-34"/>
       <use x="63.623047" xlink:href="#DejaVuSans-30"/>
      </g>
     </g>
    </g>
    <g id="xtick_9">
     <g id="line2d_55">
      <path clip-path="url(#pb70254643a)" d="M 1112.840686 833.04 
L 1112.840686 112.32 
" style="fill:none;stroke:#b0b0b0;stroke-linecap:square;stroke-width:0.8;"/>
     </g>
     <g id="line2d_56">
      <g>
       <use style="stroke:#000000;stroke-width:0.8;" x="1112.840686" xlink:href="#m8702436f6b" y="833.04"/>
      </g>
     </g>
     <g id="text_27">
      <!-- 60 -->
      <defs>
       <path d="M 33.015625 40.375 
Q 26.375 40.375 22.484375 35.828125 
Q 18.609375 31.296875 18.609375 23.390625 
Q 18.609375 15.53125 22.484375 10.953125 
Q 26.375 6.390625 33.015625 6.390625 
Q 39.65625 6.390625 43.53125 10.953125 
Q 47.40625 15.53125 47.40625 23.390625 
Q 47.40625 31.296875 43.53125 35.828125 
Q 39.65625 40.375 33.015625 40.375 
z
M 52.59375 71.296875 
L 52.59375 62.3125 
Q 48.875 64.0625 45.09375 64.984375 
Q 41.3125 65.921875 37.59375 65.921875 
Q 27.828125 65.921875 22.671875 59.328125 
Q 17.53125 52.734375 16.796875 39.40625 
Q 19.671875 43.65625 24.015625 45.921875 
Q 28.375 48.1875 33.59375 48.1875 
Q 44.578125 48.1875 50.953125 41.515625 
Q 57.328125 34.859375 57.328125 23.390625 
Q 57.328125 12.15625 50.6875 5.359375 
Q 44.046875 -1.421875 33.015625 -1.421875 
Q 20.359375 -1.421875 13.671875 8.265625 
Q 6.984375 17.96875 6.984375 36.375 
Q 6.984375 53.65625 15.1875 63.9375 
Q 23.390625 74.21875 37.203125 74.21875 
Q 40.921875 74.21875 44.703125 73.484375 
Q 48.484375 72.75 52.59375 71.296875 
z
" id="DejaVuSans-36"/>
      </defs>
      <g transform="translate(1101.388186 853.717188)scale(0.18 -0.18)">
       <use xlink:href="#DejaVuSans-36"/>
       <use x="63.623047" xlink:href="#DejaVuSans-30"/>
      </g>
     </g>
    </g>
    <g id="xtick_10">
     <g id="line2d_57">
      <path clip-path="url(#pb70254643a)" d="M 1213.414214 833.04 
L 1213.414214 112.32 
" style="fill:none;stroke:#b0b0b0;stroke-linecap:square;stroke-width:0.8;"/>
     </g>
     <g id="line2d_58">
      <g>
       <use style="stroke:#000000;stroke-width:0.8;" x="1213.414214" xlink:href="#m8702436f6b" y="833.04"/>
      </g>
     </g>
     <g id="text_28">
      <!-- 80 -->
      <g transform="translate(1201.961714 853.717188)scale(0.18 -0.18)">
       <use xlink:href="#DejaVuSans-38"/>
       <use x="63.623047" xlink:href="#DejaVuSans-30"/>
      </g>
     </g>
    </g>
    <g id="text_29">
     <!-- Concentration [cm^-3] -->
     <defs>
      <path d="M 46.6875 72.90625 
L 73.1875 45.703125 
L 63.375 45.703125 
L 41.890625 64.984375 
L 20.40625 45.703125 
L 10.59375 45.703125 
L 37.109375 72.90625 
z
" id="DejaVuSans-5e"/>
      <path d="M 4.890625 31.390625 
L 31.203125 31.390625 
L 31.203125 23.390625 
L 4.890625 23.390625 
z
" id="DejaVuSans-2d"/>
      <path d="M 40.578125 39.3125 
Q 47.65625 37.796875 51.625 33 
Q 55.609375 28.21875 55.609375 21.1875 
Q 55.609375 10.40625 48.1875 4.484375 
Q 40.765625 -1.421875 27.09375 -1.421875 
Q 22.515625 -1.421875 17.65625 -0.515625 
Q 12.796875 0.390625 7.625 2.203125 
L 7.625 11.71875 
Q 11.71875 9.328125 16.59375 8.109375 
Q 21.484375 6.890625 26.8125 6.890625 
Q 36.078125 6.890625 40.9375 10.546875 
Q 45.796875 14.203125 45.796875 21.1875 
Q 45.796875 27.640625 41.28125 31.265625 
Q 36.765625 34.90625 28.71875 34.90625 
L 20.21875 34.90625 
L 20.21875 43.015625 
L 29.109375 43.015625 
Q 36.375 43.015625 40.234375 45.921875 
Q 44.09375 48.828125 44.09375 54.296875 
Q 44.09375 59.90625 40.109375 62.90625 
Q 36.140625 65.921875 28.71875 65.921875 
Q 24.65625 65.921875 20.015625 65.03125 
Q 15.375 64.15625 9.8125 62.3125 
L 9.8125 71.09375 
Q 15.4375 72.65625 20.34375 73.4375 
Q 25.25 74.21875 29.59375 74.21875 
Q 40.828125 74.21875 47.359375 69.109375 
Q 53.90625 64.015625 53.90625 55.328125 
Q 53.90625 49.265625 50.4375 45.09375 
Q 46.96875 40.921875 40.578125 39.3125 
z
" id="DejaVuSans-33"/>
     </defs>
     <g transform="translate(929.41875 875.137812)scale(0.18 -0.18)">
      <use xlink:href="#DejaVuSans-43"/>
      <use x="69.824219" xlink:href="#DejaVuSans-6f"/>
      <use x="131.005859" xlink:href="#DejaVuSans-6e"/>
      <use x="194.384766" xlink:href="#DejaVuSans-63"/>
      <use x="249.365234" xlink:href="#DejaVuSans-65"/>
      <use x="310.888672" xlink:href="#DejaVuSans-6e"/>
      <use x="374.267578" xlink:href="#DejaVuSans-74"/>
      <use x="413.476562" xlink:href="#DejaVuSans-72"/>
      <use x="454.589844" xlink:href="#DejaVuSans-61"/>
      <use x="515.869141" xlink:href="#DejaVuSans-74"/>
      <use x="555.078125" xlink:href="#DejaVuSans-69"/>
      <use x="582.861328" xlink:href="#DejaVuSans-6f"/>
      <use x="644.042969" xlink:href="#DejaVuSans-6e"/>
      <use x="707.421875" xlink:href="#DejaVuSans-20"/>
      <use x="739.208984" xlink:href="#DejaVuSans-5b"/>
      <use x="778.222656" xlink:href="#DejaVuSans-63"/>
      <use x="833.203125" xlink:href="#DejaVuSans-6d"/>
      <use x="930.615234" xlink:href="#DejaVuSans-5e"/>
      <use x="1014.404297" xlink:href="#DejaVuSans-2d"/>
      <use x="1050.488281" xlink:href="#DejaVuSans-33"/>
      <use x="1114.111328" xlink:href="#DejaVuSans-5d"/>
     </g>
    </g>
   </g>
   <g id="matplotlib.axis_4">
    <g id="ytick_10">
     <g id="line2d_59">
      <path clip-path="url(#pb70254643a)" d="M 803.435294 800.28 
L 1262.964706 800.28 
" style="fill:none;stroke:#b0b0b0;stroke-linecap:square;stroke-width:0.8;"/>
     </g>
     <g id="line2d_60">
      <g>
       <use style="stroke:#000000;stroke-width:0.8;" x="803.435294" xlink:href="#mf72c9edbb4" y="800.28"/>
      </g>
     </g>
     <g id="text_30">
      <!-- 0 -->
      <g transform="translate(784.982794 807.118594)scale(0.18 -0.18)">
       <use xlink:href="#DejaVuSans-30"/>
      </g>
     </g>
    </g>
    <g id="ytick_11">
     <g id="line2d_61">
      <path clip-path="url(#pb70254643a)" d="M 803.435294 718.38 
L 1262.964706 718.38 
" style="fill:none;stroke:#b0b0b0;stroke-linecap:square;stroke-width:0.8;"/>
     </g>
     <g id="line2d_62">
      <g>
       <use style="stroke:#000000;stroke-width:0.8;" x="803.435294" xlink:href="#mf72c9edbb4" y="718.38"/>
      </g>
     </g>
     <g id="text_31">
      <!-- 25 -->
      <g transform="translate(773.530294 725.218594)scale(0.18 -0.18)">
       <use xlink:href="#DejaVuSans-32"/>
       <use x="63.623047" xlink:href="#DejaVuSans-35"/>
      </g>
     </g>
    </g>
    <g id="ytick_12">
     <g id="line2d_63">
      <path clip-path="url(#pb70254643a)" d="M 803.435294 636.48 
L 1262.964706 636.48 
" style="fill:none;stroke:#b0b0b0;stroke-linecap:square;stroke-width:0.8;"/>
     </g>
     <g id="line2d_64">
      <g>
       <use style="stroke:#000000;stroke-width:0.8;" x="803.435294" xlink:href="#mf72c9edbb4" y="636.48"/>
      </g>
     </g>
     <g id="text_32">
      <!-- 50 -->
      <g transform="translate(773.530294 643.318594)scale(0.18 -0.18)">
       <use xlink:href="#DejaVuSans-35"/>
       <use x="63.623047" xlink:href="#DejaVuSans-30"/>
      </g>
     </g>
    </g>
    <g id="ytick_13">
     <g id="line2d_65">
      <path clip-path="url(#pb70254643a)" d="M 803.435294 554.58 
L 1262.964706 554.58 
" style="fill:none;stroke:#b0b0b0;stroke-linecap:square;stroke-width:0.8;"/>
     </g>
     <g id="line2d_66">
      <g>
       <use style="stroke:#000000;stroke-width:0.8;" x="803.435294" xlink:href="#mf72c9edbb4" y="554.58"/>
      </g>
     </g>
     <g id="text_33">
      <!-- 75 -->
      <g transform="translate(773.530294 561.418594)scale(0.18 -0.18)">
       <use xlink:href="#DejaVuSans-37"/>
       <use x="63.623047" xlink:href="#DejaVuSans-35"/>
      </g>
     </g>
    </g>
    <g id="ytick_14">
     <g id="line2d_67">
      <path clip-path="url(#pb70254643a)" d="M 803.435294 472.68 
L 1262.964706 472.68 
" style="fill:none;stroke:#b0b0b0;stroke-linecap:square;stroke-width:0.8;"/>
     </g>
     <g id="line2d_68">
      <g>
       <use style="stroke:#000000;stroke-width:0.8;" x="803.435294" xlink:href="#mf72c9edbb4" y="472.68"/>
      </g>
     </g>
     <g id="text_34">
      <!-- 100 -->
      <g transform="translate(762.077794 479.518594)scale(0.18 -0.18)">
       <use xlink:href="#DejaVuSans-31"/>
       <use x="63.623047" xlink:href="#DejaVuSans-30"/>
       <use x="127.246094" xlink:href="#DejaVuSans-30"/>
      </g>
     </g>
    </g>
    <g id="ytick_15">
     <g id="line2d_69">
      <path clip-path="url(#pb70254643a)" d="M 803.435294 390.78 
L 1262.964706 390.78 
" style="fill:none;stroke:#b0b0b0;stroke-linecap:square;stroke-width:0.8;"/>
     </g>
     <g id="line2d_70">
      <g>
       <use style="stroke:#000000;stroke-width:0.8;" x="803.435294" xlink:href="#mf72c9edbb4" y="390.78"/>
      </g>
     </g>
     <g id="text_35">
      <!-- 125 -->
      <g transform="translate(762.077794 397.618594)scale(0.18 -0.18)">
       <use xlink:href="#DejaVuSans-31"/>
       <use x="63.623047" xlink:href="#DejaVuSans-32"/>
       <use x="127.246094" xlink:href="#DejaVuSans-35"/>
      </g>
     </g>
    </g>
    <g id="ytick_16">
     <g id="line2d_71">
      <path clip-path="url(#pb70254643a)" d="M 803.435294 308.88 
L 1262.964706 308.88 
" style="fill:none;stroke:#b0b0b0;stroke-linecap:square;stroke-width:0.8;"/>
     </g>
     <g id="line2d_72">
      <g>
       <use style="stroke:#000000;stroke-width:0.8;" x="803.435294" xlink:href="#mf72c9edbb4" y="308.88"/>
      </g>
     </g>
     <g id="text_36">
      <!-- 150 -->
      <g transform="translate(762.077794 315.718594)scale(0.18 -0.18)">
       <use xlink:href="#DejaVuSans-31"/>
       <use x="63.623047" xlink:href="#DejaVuSans-35"/>
       <use x="127.246094" xlink:href="#DejaVuSans-30"/>
      </g>
     </g>
    </g>
    <g id="ytick_17">
     <g id="line2d_73">
      <path clip-path="url(#pb70254643a)" d="M 803.435294 226.98 
L 1262.964706 226.98 
" style="fill:none;stroke:#b0b0b0;stroke-linecap:square;stroke-width:0.8;"/>
     </g>
     <g id="line2d_74">
      <g>
       <use style="stroke:#000000;stroke-width:0.8;" x="803.435294" xlink:href="#mf72c9edbb4" y="226.98"/>
      </g>
     </g>
     <g id="text_37">
      <!-- 175 -->
      <g transform="translate(762.077794 233.818594)scale(0.18 -0.18)">
       <use xlink:href="#DejaVuSans-31"/>
       <use x="63.623047" xlink:href="#DejaVuSans-37"/>
       <use x="127.246094" xlink:href="#DejaVuSans-35"/>
      </g>
     </g>
    </g>
    <g id="ytick_18">
     <g id="line2d_75">
      <path clip-path="url(#pb70254643a)" d="M 803.435294 145.08 
L 1262.964706 145.08 
" style="fill:none;stroke:#b0b0b0;stroke-linecap:square;stroke-width:0.8;"/>
     </g>
     <g id="line2d_76">
      <g>
       <use style="stroke:#000000;stroke-width:0.8;" x="803.435294" xlink:href="#mf72c9edbb4" y="145.08"/>
      </g>
     </g>
     <g id="text_38">
      <!-- 200 -->
      <g transform="translate(762.077794 151.918594)scale(0.18 -0.18)">
       <use xlink:href="#DejaVuSans-32"/>
       <use x="63.623047" xlink:href="#DejaVuSans-30"/>
       <use x="127.246094" xlink:href="#DejaVuSans-30"/>
      </g>
     </g>
    </g>
    <g id="text_39">
     <!-- Z [m] -->
     <g transform="translate(754.334357 497.494688)rotate(-90)scale(0.18 -0.18)">
      <use xlink:href="#DejaVuSans-5a"/>
      <use x="68.505859" xlink:href="#DejaVuSans-20"/>
      <use x="100.292969" xlink:href="#DejaVuSans-5b"/>
      <use x="139.306641" xlink:href="#DejaVuSans-6d"/>
      <use x="236.71875" xlink:href="#DejaVuSans-5d"/>
     </g>
    </g>
   </g>
   <g id="line2d_77">
    <path clip-path="url(#pb70254643a)" d="M 824.322995 800.28 
L 835.953182 783.9 
L 838.462355 767.52 
L 840.899227 751.14 
L 843.803931 734.76 
L 847.43018 718.38 
L 852.004872 702 
L 858.001418 685.62 
L 865.976647 669.24 
L 1233.020847 652.86 
L 1242.074788 636.48 
L 1242.077005 620.1 
L 1242.077005 603.72 
L 1242.077005 587.34 
L 1242.077005 570.96 
L 1242.077005 554.58 
L 1242.077005 538.2 
L 1242.077005 521.82 
L 1242.077005 505.44 
L 1242.077005 489.06 
L 1242.077005 472.68 
L 1242.077005 456.3 
L 1242.077005 439.92 
L 1242.077005 423.54 
L 1242.077005 407.16 
L 1242.077005 390.78 
L 1242.077005 374.4 
L 1242.077005 358.02 
L 1242.077005 341.64 
L 1242.077005 325.26 
L 1242.077005 308.88 
L 1242.077005 292.5 
L 1242.077005 276.12 
L 1242.077005 259.74 
L 1242.077005 243.36 
L 1242.077005 226.98 
L 1242.077005 210.6 
L 1242.077005 194.22 
L 1242.077005 177.84 
L 1242.077005 161.46 
L 1242.077005 145.08 
" style="fill:none;stroke:#1f77b4;stroke-linecap:square;stroke-width:1.5;"/>
   </g>
   <g id="line2d_78">
    <path clip-path="url(#pb70254643a)" d="M 824.322995 800.28 
L 836.35705 783.9 
L 838.483999 767.52 
L 840.877387 751.14 
L 843.803931 734.76 
L 847.387572 718.38 
L 851.904877 702 
L 857.745529 685.62 
L 865.196418 669.24 
L 900.038422 652.86 
L 1157.420833 636.48 
L 1242.058344 620.1 
L 1242.074853 603.72 
L 1242.076508 587.34 
L 1242.077005 570.96 
L 1242.077005 554.58 
L 1242.077005 538.2 
L 1242.077005 521.82 
L 1242.077005 505.44 
L 1242.077005 489.06 
L 1242.077005 472.68 
L 1242.077005 456.3 
L 1242.077005 439.92 
L 1242.077005 423.54 
L 1242.077005 407.16 
L 1242.077005 390.78 
L 1242.077005 374.4 
L 1242.077005 358.02 
L 1242.077005 341.64 
L 1242.077005 325.26 
L 1242.077005 308.88 
L 1242.077005 292.5 
L 1242.077005 276.12 
L 1242.077005 259.74 
L 1242.077005 243.36 
L 1242.077005 226.98 
L 1242.077005 210.6 
L 1242.077005 194.22 
L 1242.077005 177.84 
L 1242.077005 161.46 
L 1242.077005 145.08 
" style="fill:none;stroke:#ff7f0e;stroke-linecap:square;stroke-width:1.5;"/>
   </g>
   <g id="line2d_79">
    <path clip-path="url(#pb70254643a)" d="M 824.322995 800.28 
L 836.442271 783.9 
L 838.462355 767.52 
L 840.877387 751.14 
L 843.760342 734.76 
L 847.344944 718.38 
L 851.84479 702 
L 857.590862 685.62 
L 864.750596 669.24 
L 883.810838 652.86 
L 1153.300119 636.48 
L 1235.789762 620.1 
L 1241.422729 603.72 
L 1241.993062 587.34 
L 1242.056654 570.96 
L 1242.07252 554.58 
L 1242.075089 538.2 
L 1242.075894 521.82 
L 1242.076306 505.44 
L 1242.076377 489.06 
L 1242.076457 472.68 
L 1242.076467 456.3 
L 1242.076467 439.92 
L 1242.076467 423.54 
L 1242.076467 407.16 
L 1242.076467 390.78 
L 1242.076467 374.4 
L 1242.076467 358.02 
L 1242.076467 341.64 
L 1242.076467 325.26 
L 1242.076467 308.88 
L 1242.076467 292.5 
L 1242.076467 276.12 
L 1242.076467 259.74 
L 1242.076467 243.36 
L 1242.076467 226.98 
L 1242.076467 210.6 
L 1242.076467 194.22 
L 1242.076467 177.84 
L 1242.076467 161.46 
L 1242.076467 145.08 
" style="fill:none;stroke:#2ca02c;stroke-linecap:square;stroke-width:1.5;"/>
   </g>
   <g id="line2d_80">
    <path clip-path="url(#pb70254643a)" d="M 824.322995 800.28 
L 836.442271 783.9 
L 838.462355 767.52 
L 840.877387 751.14 
L 843.760342 734.76 
L 847.323622 718.38 
L 851.804691 702 
L 857.521838 685.62 
L 864.607118 669.24 
L 881.001598 652.86 
L 1144.007437 636.48 
L 1233.396288 620.1 
L 1241.148913 603.72 
L 1241.927965 587.34 
L 1242.043037 570.96 
L 1242.066425 554.58 
L 1242.072781 538.2 
L 1242.075014 521.82 
L 1242.075884 505.44 
L 1242.076276 489.06 
L 1242.076397 472.68 
L 1242.076417 456.3 
L 1242.076417 439.92 
L 1242.076417 423.54 
L 1242.076417 407.16 
L 1242.076417 390.78 
L 1242.076417 374.4 
L 1242.076417 358.02 
L 1242.076417 341.64 
L 1242.076417 325.26 
L 1242.076417 308.88 
L 1242.076417 292.5 
L 1242.076417 276.12 
L 1242.076417 259.74 
L 1242.076417 243.36 
L 1242.076417 226.98 
L 1242.076417 210.6 
L 1242.076417 194.22 
L 1242.076417 177.84 
L 1242.076417 161.46 
L 1242.076417 145.08 
" style="fill:none;stroke:#d62728;stroke-linecap:square;stroke-width:1.5;"/>
   </g>
   <g id="line2d_81">
    <path clip-path="url(#pb70254643a)" d="M 824.322995 800.28 
L 836.442271 783.9 
L 838.462355 767.52 
L 840.877387 751.14 
L 843.760342 734.76 
L 847.323622 718.38 
L 851.804691 702 
L 857.487266 685.62 
L 864.534891 669.24 
L 879.841759 652.86 
L 1130.633657 636.48 
L 1234.342534 620.1 
L 1241.160358 603.72 
L 1241.925768 587.34 
L 1242.042202 570.96 
L 1242.065942 554.58 
L 1242.07261 538.2 
L 1242.074913 521.82 
L 1242.075839 505.44 
L 1242.076231 489.06 
L 1242.076377 472.68 
L 1242.076397 456.3 
L 1242.076397 439.92 
L 1242.076397 423.54 
L 1242.076397 407.16 
L 1242.076397 390.78 
L 1242.076397 374.4 
L 1242.076397 358.02 
L 1242.076397 341.64 
L 1242.076397 325.26 
L 1242.076397 308.88 
L 1242.076397 292.5 
L 1242.076397 276.12 
L 1242.076397 259.74 
L 1242.076397 243.36 
L 1242.076397 226.98 
L 1242.076397 210.6 
L 1242.076397 194.22 
L 1242.076397 177.84 
L 1242.076397 161.46 
L 1242.076397 145.08 
" style="fill:none;stroke:#9467bd;stroke-linecap:square;stroke-width:1.5;"/>
   </g>
   <g id="patch_9">
    <path d="M 803.435294 833.04 
L 803.435294 112.32 
" style="fill:none;stroke:#000000;stroke-linecap:square;stroke-linejoin:miter;stroke-width:0.8;"/>
   </g>
   <g id="patch_10">
    <path d="M 1262.964706 833.04 
L 1262.964706 112.32 
" style="fill:none;stroke:#000000;stroke-linecap:square;stroke-linejoin:miter;stroke-width:0.8;"/>
   </g>
   <g id="patch_11">
    <path d="M 803.435294 833.04 
L 1262.964706 833.04 
" style="fill:none;stroke:#000000;stroke-linecap:square;stroke-linejoin:miter;stroke-width:0.8;"/>
   </g>
   <g id="patch_12">
    <path d="M 803.435294 112.32 
L 1262.964706 112.32 
" style="fill:none;stroke:#000000;stroke-linecap:square;stroke-linejoin:miter;stroke-width:0.8;"/>
   </g>
   <g id="text_40">
    <!-- 0 moment for updraft velocity= 5[m/s] -->
    <g transform="translate(822.951 106.32)scale(0.216 -0.216)">
     <use xlink:href="#DejaVuSans-30"/>
     <use x="63.623047" xlink:href="#DejaVuSans-20"/>
     <use x="95.410156" xlink:href="#DejaVuSans-6d"/>
     <use x="192.822266" xlink:href="#DejaVuSans-6f"/>
     <use x="254.003906" xlink:href="#DejaVuSans-6d"/>
     <use x="351.416016" xlink:href="#DejaVuSans-65"/>
     <use x="412.939453" xlink:href="#DejaVuSans-6e"/>
     <use x="476.318359" xlink:href="#DejaVuSans-74"/>
     <use x="515.527344" xlink:href="#DejaVuSans-20"/>
     <use x="547.314453" xlink:href="#DejaVuSans-66"/>
     <use x="582.519531" xlink:href="#DejaVuSans-6f"/>
     <use x="643.701172" xlink:href="#DejaVuSans-72"/>
     <use x="684.814453" xlink:href="#DejaVuSans-20"/>
     <use x="716.601562" xlink:href="#DejaVuSans-75"/>
     <use x="779.980469" xlink:href="#DejaVuSans-70"/>
     <use x="843.457031" xlink:href="#DejaVuSans-64"/>
     <use x="906.933594" xlink:href="#DejaVuSans-72"/>
     <use x="948.046875" xlink:href="#DejaVuSans-61"/>
     <use x="1009.326172" xlink:href="#DejaVuSans-66"/>
     <use x="1044.515625" xlink:href="#DejaVuSans-74"/>
     <use x="1083.724609" xlink:href="#DejaVuSans-20"/>
     <use x="1115.511719" xlink:href="#DejaVuSans-76"/>
     <use x="1174.691406" xlink:href="#DejaVuSans-65"/>
     <use x="1236.214844" xlink:href="#DejaVuSans-6c"/>
     <use x="1263.998047" xlink:href="#DejaVuSans-6f"/>
     <use x="1325.179688" xlink:href="#DejaVuSans-63"/>
     <use x="1380.160156" xlink:href="#DejaVuSans-69"/>
     <use x="1407.943359" xlink:href="#DejaVuSans-74"/>
     <use x="1447.152344" xlink:href="#DejaVuSans-79"/>
     <use x="1506.332031" xlink:href="#DejaVuSans-3d"/>
     <use x="1590.121094" xlink:href="#DejaVuSans-20"/>
     <use x="1621.908203" xlink:href="#DejaVuSans-35"/>
     <use x="1685.53125" xlink:href="#DejaVuSans-5b"/>
     <use x="1724.544922" xlink:href="#DejaVuSans-6d"/>
     <use x="1821.957031" xlink:href="#DejaVuSans-2f"/>
     <use x="1855.648438" xlink:href="#DejaVuSans-73"/>
     <use x="1907.748047" xlink:href="#DejaVuSans-5d"/>
    </g>
   </g>
   <g id="legend_2">
    <g id="patch_13">
     <path d="M 816.035294 285.24375 
L 1038.065294 285.24375 
Q 1041.665294 285.24375 1041.665294 281.64375 
L 1041.665294 124.92 
Q 1041.665294 121.32 1038.065294 121.32 
L 816.035294 121.32 
Q 812.435294 121.32 812.435294 124.92 
L 812.435294 281.64375 
Q 812.435294 285.24375 816.035294 285.24375 
z
" style="fill:#ffffff;opacity:0.8;stroke:#cccccc;stroke-linejoin:miter;"/>
    </g>
    <g id="text_41">
     <!-- Condensation time step -->
     <g transform="translate(819.635294 142.197188)scale(0.18 -0.18)">
      <use xlink:href="#DejaVuSans-43"/>
      <use x="69.824219" xlink:href="#DejaVuSans-6f"/>
      <use x="131.005859" xlink:href="#DejaVuSans-6e"/>
      <use x="194.384766" xlink:href="#DejaVuSans-64"/>
      <use x="257.861328" xlink:href="#DejaVuSans-65"/>
      <use x="319.384766" xlink:href="#DejaVuSans-6e"/>
      <use x="382.763672" xlink:href="#DejaVuSans-73"/>
      <use x="434.863281" xlink:href="#DejaVuSans-61"/>
      <use x="496.142578" xlink:href="#DejaVuSans-74"/>
      <use x="535.351562" xlink:href="#DejaVuSans-69"/>
      <use x="563.134766" xlink:href="#DejaVuSans-6f"/>
      <use x="624.316406" xlink:href="#DejaVuSans-6e"/>
      <use x="687.695312" xlink:href="#DejaVuSans-20"/>
      <use x="719.482422" xlink:href="#DejaVuSans-74"/>
      <use x="758.691406" xlink:href="#DejaVuSans-69"/>
      <use x="786.474609" xlink:href="#DejaVuSans-6d"/>
      <use x="883.886719" xlink:href="#DejaVuSans-65"/>
      <use x="945.410156" xlink:href="#DejaVuSans-20"/>
      <use x="977.197266" xlink:href="#DejaVuSans-73"/>
      <use x="1029.296875" xlink:href="#DejaVuSans-74"/>
      <use x="1068.505859" xlink:href="#DejaVuSans-65"/>
      <use x="1130.029297" xlink:href="#DejaVuSans-70"/>
     </g>
    </g>
    <g id="line2d_82">
     <path d="M 881.639669 162.317813 
L 917.639669 162.317813 
" style="fill:none;stroke:#1f77b4;stroke-linecap:square;stroke-width:1.5;"/>
    </g>
    <g id="line2d_83"/>
    <g id="text_42">
     <!-- 1/1 -->
     <g transform="translate(932.039669 168.617813)scale(0.18 -0.18)">
      <use xlink:href="#DejaVuSans-31"/>
      <use x="63.623047" xlink:href="#DejaVuSans-2f"/>
      <use x="97.314453" xlink:href="#DejaVuSans-31"/>
     </g>
    </g>
    <g id="line2d_84">
     <path d="M 881.639669 188.738438 
L 917.639669 188.738438 
" style="fill:none;stroke:#ff7f0e;stroke-linecap:square;stroke-width:1.5;"/>
    </g>
    <g id="line2d_85"/>
    <g id="text_43">
     <!-- 1/2 -->
     <g transform="translate(932.039669 195.038438)scale(0.18 -0.18)">
      <use xlink:href="#DejaVuSans-31"/>
      <use x="63.623047" xlink:href="#DejaVuSans-2f"/>
      <use x="97.314453" xlink:href="#DejaVuSans-32"/>
     </g>
    </g>
    <g id="line2d_86">
     <path d="M 881.639669 215.159063 
L 917.639669 215.159063 
" style="fill:none;stroke:#2ca02c;stroke-linecap:square;stroke-width:1.5;"/>
    </g>
    <g id="line2d_87"/>
    <g id="text_44">
     <!-- 1/5 -->
     <g transform="translate(932.039669 221.459063)scale(0.18 -0.18)">
      <use xlink:href="#DejaVuSans-31"/>
      <use x="63.623047" xlink:href="#DejaVuSans-2f"/>
      <use x="97.314453" xlink:href="#DejaVuSans-35"/>
     </g>
    </g>
    <g id="line2d_88">
     <path d="M 881.639669 241.579688 
L 917.639669 241.579688 
" style="fill:none;stroke:#d62728;stroke-linecap:square;stroke-width:1.5;"/>
    </g>
    <g id="line2d_89"/>
    <g id="text_45">
     <!-- 1/10 -->
     <g transform="translate(932.039669 247.879688)scale(0.18 -0.18)">
      <use xlink:href="#DejaVuSans-31"/>
      <use x="63.623047" xlink:href="#DejaVuSans-2f"/>
      <use x="97.314453" xlink:href="#DejaVuSans-31"/>
      <use x="160.9375" xlink:href="#DejaVuSans-30"/>
     </g>
    </g>
    <g id="line2d_90">
     <path d="M 881.639669 268.000313 
L 917.639669 268.000313 
" style="fill:none;stroke:#9467bd;stroke-linecap:square;stroke-width:1.5;"/>
    </g>
    <g id="line2d_91"/>
    <g id="text_46">
     <!-- 1/20 -->
     <g transform="translate(932.039669 274.300313)scale(0.18 -0.18)">
      <use xlink:href="#DejaVuSans-31"/>
      <use x="63.623047" xlink:href="#DejaVuSans-2f"/>
      <use x="97.314453" xlink:href="#DejaVuSans-32"/>
      <use x="160.9375" xlink:href="#DejaVuSans-30"/>
     </g>
    </g>
   </g>
  </g>
  <g id="axes_3">
   <g id="patch_14">
    <path d="M 1354.870588 833.04 
L 1814.4 833.04 
L 1814.4 112.32 
L 1354.870588 112.32 
z
" style="fill:#ffffff;"/>
   </g>
   <g id="matplotlib.axis_5">
    <g id="xtick_11">
     <g id="line2d_92">
      <g>
       <use style="stroke:#000000;stroke-width:0.8;" x="1375.747974" xlink:href="#m8702436f6b" y="833.04"/>
      </g>
     </g>
     <g id="text_47">
      <!-- 0.00 -->
      <defs>
       <path d="M 10.6875 12.40625 
L 21 12.40625 
L 21 0 
L 10.6875 0 
z
" id="DejaVuSans-2e"/>
      </defs>
      <g transform="translate(1355.708912 853.717188)scale(0.18 -0.18)">
       <use xlink:href="#DejaVuSans-30"/>
       <use x="63.623047" xlink:href="#DejaVuSans-2e"/>
       <use x="95.410156" xlink:href="#DejaVuSans-30"/>
       <use x="159.033203" xlink:href="#DejaVuSans-30"/>
      </g>
     </g>
    </g>
    <g id="xtick_12">
     <g id="line2d_93">
      <g>
       <use style="stroke:#000000;stroke-width:0.8;" x="1466.378648" xlink:href="#m8702436f6b" y="833.04"/>
      </g>
     </g>
     <g id="text_48">
      <!-- 0.05 -->
      <g transform="translate(1446.339586 853.717188)scale(0.18 -0.18)">
       <use xlink:href="#DejaVuSans-30"/>
       <use x="63.623047" xlink:href="#DejaVuSans-2e"/>
       <use x="95.410156" xlink:href="#DejaVuSans-30"/>
       <use x="159.033203" xlink:href="#DejaVuSans-35"/>
      </g>
     </g>
    </g>
    <g id="xtick_13">
     <g id="line2d_94">
      <g>
       <use style="stroke:#000000;stroke-width:0.8;" x="1557.009323" xlink:href="#m8702436f6b" y="833.04"/>
      </g>
     </g>
     <g id="text_49">
      <!-- 0.10 -->
      <g transform="translate(1536.97026 853.717188)scale(0.18 -0.18)">
       <use xlink:href="#DejaVuSans-30"/>
       <use x="63.623047" xlink:href="#DejaVuSans-2e"/>
       <use x="95.410156" xlink:href="#DejaVuSans-31"/>
       <use x="159.033203" xlink:href="#DejaVuSans-30"/>
      </g>
     </g>
    </g>
    <g id="xtick_14">
     <g id="line2d_95">
      <g>
       <use style="stroke:#000000;stroke-width:0.8;" x="1647.639997" xlink:href="#m8702436f6b" y="833.04"/>
      </g>
     </g>
     <g id="text_50">
      <!-- 0.15 -->
      <g transform="translate(1627.600934 853.717188)scale(0.18 -0.18)">
       <use xlink:href="#DejaVuSans-30"/>
       <use x="63.623047" xlink:href="#DejaVuSans-2e"/>
       <use x="95.410156" xlink:href="#DejaVuSans-31"/>
       <use x="159.033203" xlink:href="#DejaVuSans-35"/>
      </g>
     </g>
    </g>
    <g id="xtick_15">
     <g id="line2d_96">
      <g>
       <use style="stroke:#000000;stroke-width:0.8;" x="1738.270671" xlink:href="#m8702436f6b" y="833.04"/>
      </g>
     </g>
     <g id="text_51">
      <!-- 0.20 -->
      <g transform="translate(1718.231609 853.717188)scale(0.18 -0.18)">
       <use xlink:href="#DejaVuSans-30"/>
       <use x="63.623047" xlink:href="#DejaVuSans-2e"/>
       <use x="95.410156" xlink:href="#DejaVuSans-32"/>
       <use x="159.033203" xlink:href="#DejaVuSans-30"/>
      </g>
     </g>
    </g>
    <g id="text_52">
     <!-- LWC [g/kg] dry air -->
     <defs>
      <path d="M 9.8125 72.90625 
L 19.671875 72.90625 
L 19.671875 8.296875 
L 55.171875 8.296875 
L 55.171875 0 
L 9.8125 0 
z
" id="DejaVuSans-4c"/>
      <path d="M 3.328125 72.90625 
L 13.28125 72.90625 
L 28.609375 11.28125 
L 43.890625 72.90625 
L 54.984375 72.90625 
L 70.3125 11.28125 
L 85.59375 72.90625 
L 95.609375 72.90625 
L 77.296875 0 
L 64.890625 0 
L 49.515625 63.28125 
L 33.984375 0 
L 21.578125 0 
z
" id="DejaVuSans-57"/>
      <path d="M 45.40625 27.984375 
Q 45.40625 37.75 41.375 43.109375 
Q 37.359375 48.484375 30.078125 48.484375 
Q 22.859375 48.484375 18.828125 43.109375 
Q 14.796875 37.75 14.796875 27.984375 
Q 14.796875 18.265625 18.828125 12.890625 
Q 22.859375 7.515625 30.078125 7.515625 
Q 37.359375 7.515625 41.375 12.890625 
Q 45.40625 18.265625 45.40625 27.984375 
z
M 54.390625 6.78125 
Q 54.390625 -7.171875 48.1875 -13.984375 
Q 42 -20.796875 29.203125 -20.796875 
Q 24.46875 -20.796875 20.265625 -20.09375 
Q 16.0625 -19.390625 12.109375 -17.921875 
L 12.109375 -9.1875 
Q 16.0625 -11.328125 19.921875 -12.34375 
Q 23.78125 -13.375 27.78125 -13.375 
Q 36.625 -13.375 41.015625 -8.765625 
Q 45.40625 -4.15625 45.40625 5.171875 
L 45.40625 9.625 
Q 42.625 4.78125 38.28125 2.390625 
Q 33.9375 0 27.875 0 
Q 17.828125 0 11.671875 7.65625 
Q 5.515625 15.328125 5.515625 27.984375 
Q 5.515625 40.671875 11.671875 48.328125 
Q 17.828125 56 27.875 56 
Q 33.9375 56 38.28125 53.609375 
Q 42.625 51.21875 45.40625 46.390625 
L 45.40625 54.6875 
L 54.390625 54.6875 
z
" id="DejaVuSans-67"/>
      <path d="M 9.078125 75.984375 
L 18.109375 75.984375 
L 18.109375 31.109375 
L 44.921875 54.6875 
L 56.390625 54.6875 
L 27.390625 29.109375 
L 57.625 0 
L 45.90625 0 
L 18.109375 26.703125 
L 18.109375 0 
L 9.078125 0 
z
" id="DejaVuSans-6b"/>
     </defs>
     <g transform="translate(1502.719825 875.137812)scale(0.18 -0.18)">
      <use xlink:href="#DejaVuSans-4c"/>
      <use x="55.572266" xlink:href="#DejaVuSans-57"/>
      <use x="154.449219" xlink:href="#DejaVuSans-43"/>
      <use x="224.273438" xlink:href="#DejaVuSans-20"/>
      <use x="256.060547" xlink:href="#DejaVuSans-5b"/>
      <use x="295.074219" xlink:href="#DejaVuSans-67"/>
      <use x="358.550781" xlink:href="#DejaVuSans-2f"/>
      <use x="392.242188" xlink:href="#DejaVuSans-6b"/>
      <use x="450.152344" xlink:href="#DejaVuSans-67"/>
      <use x="513.628906" xlink:href="#DejaVuSans-5d"/>
      <use x="552.642578" xlink:href="#DejaVuSans-20"/>
      <use x="584.429688" xlink:href="#DejaVuSans-64"/>
      <use x="647.90625" xlink:href="#DejaVuSans-72"/>
      <use x="689.019531" xlink:href="#DejaVuSans-79"/>
      <use x="748.199219" xlink:href="#DejaVuSans-20"/>
      <use x="779.986328" xlink:href="#DejaVuSans-61"/>
      <use x="841.265625" xlink:href="#DejaVuSans-69"/>
      <use x="869.048828" xlink:href="#DejaVuSans-72"/>
     </g>
    </g>
   </g>
   <g id="matplotlib.axis_6">
    <g id="ytick_19">
     <g id="line2d_97">
      <g>
       <use style="stroke:#000000;stroke-width:0.8;" x="1354.870588" xlink:href="#mf72c9edbb4" y="800.28"/>
      </g>
     </g>
     <g id="text_53">
      <!-- 0 -->
      <g transform="translate(1336.418088 807.118594)scale(0.18 -0.18)">
       <use xlink:href="#DejaVuSans-30"/>
      </g>
     </g>
    </g>
    <g id="ytick_20">
     <g id="line2d_98">
      <g>
       <use style="stroke:#000000;stroke-width:0.8;" x="1354.870588" xlink:href="#mf72c9edbb4" y="718.38"/>
      </g>
     </g>
     <g id="text_54">
      <!-- 25 -->
      <g transform="translate(1324.965588 725.218594)scale(0.18 -0.18)">
       <use xlink:href="#DejaVuSans-32"/>
       <use x="63.623047" xlink:href="#DejaVuSans-35"/>
      </g>
     </g>
    </g>
    <g id="ytick_21">
     <g id="line2d_99">
      <g>
       <use style="stroke:#000000;stroke-width:0.8;" x="1354.870588" xlink:href="#mf72c9edbb4" y="636.48"/>
      </g>
     </g>
     <g id="text_55">
      <!-- 50 -->
      <g transform="translate(1324.965588 643.318594)scale(0.18 -0.18)">
       <use xlink:href="#DejaVuSans-35"/>
       <use x="63.623047" xlink:href="#DejaVuSans-30"/>
      </g>
     </g>
    </g>
    <g id="ytick_22">
     <g id="line2d_100">
      <g>
       <use style="stroke:#000000;stroke-width:0.8;" x="1354.870588" xlink:href="#mf72c9edbb4" y="554.58"/>
      </g>
     </g>
     <g id="text_56">
      <!-- 75 -->
      <g transform="translate(1324.965588 561.418594)scale(0.18 -0.18)">
       <use xlink:href="#DejaVuSans-37"/>
       <use x="63.623047" xlink:href="#DejaVuSans-35"/>
      </g>
     </g>
    </g>
    <g id="ytick_23">
     <g id="line2d_101">
      <g>
       <use style="stroke:#000000;stroke-width:0.8;" x="1354.870588" xlink:href="#mf72c9edbb4" y="472.68"/>
      </g>
     </g>
     <g id="text_57">
      <!-- 100 -->
      <g transform="translate(1313.513088 479.518594)scale(0.18 -0.18)">
       <use xlink:href="#DejaVuSans-31"/>
       <use x="63.623047" xlink:href="#DejaVuSans-30"/>
       <use x="127.246094" xlink:href="#DejaVuSans-30"/>
      </g>
     </g>
    </g>
    <g id="ytick_24">
     <g id="line2d_102">
      <g>
       <use style="stroke:#000000;stroke-width:0.8;" x="1354.870588" xlink:href="#mf72c9edbb4" y="390.78"/>
      </g>
     </g>
     <g id="text_58">
      <!-- 125 -->
      <g transform="translate(1313.513088 397.618594)scale(0.18 -0.18)">
       <use xlink:href="#DejaVuSans-31"/>
       <use x="63.623047" xlink:href="#DejaVuSans-32"/>
       <use x="127.246094" xlink:href="#DejaVuSans-35"/>
      </g>
     </g>
    </g>
    <g id="ytick_25">
     <g id="line2d_103">
      <g>
       <use style="stroke:#000000;stroke-width:0.8;" x="1354.870588" xlink:href="#mf72c9edbb4" y="308.88"/>
      </g>
     </g>
     <g id="text_59">
      <!-- 150 -->
      <g transform="translate(1313.513088 315.718594)scale(0.18 -0.18)">
       <use xlink:href="#DejaVuSans-31"/>
       <use x="63.623047" xlink:href="#DejaVuSans-35"/>
       <use x="127.246094" xlink:href="#DejaVuSans-30"/>
      </g>
     </g>
    </g>
    <g id="ytick_26">
     <g id="line2d_104">
      <g>
       <use style="stroke:#000000;stroke-width:0.8;" x="1354.870588" xlink:href="#mf72c9edbb4" y="226.98"/>
      </g>
     </g>
     <g id="text_60">
      <!-- 175 -->
      <g transform="translate(1313.513088 233.818594)scale(0.18 -0.18)">
       <use xlink:href="#DejaVuSans-31"/>
       <use x="63.623047" xlink:href="#DejaVuSans-37"/>
       <use x="127.246094" xlink:href="#DejaVuSans-35"/>
      </g>
     </g>
    </g>
    <g id="ytick_27">
     <g id="line2d_105">
      <g>
       <use style="stroke:#000000;stroke-width:0.8;" x="1354.870588" xlink:href="#mf72c9edbb4" y="145.08"/>
      </g>
     </g>
     <g id="text_61">
      <!-- 200 -->
      <g transform="translate(1313.513088 151.918594)scale(0.18 -0.18)">
       <use xlink:href="#DejaVuSans-32"/>
       <use x="63.623047" xlink:href="#DejaVuSans-30"/>
       <use x="127.246094" xlink:href="#DejaVuSans-30"/>
      </g>
     </g>
    </g>
    <g id="text_62">
     <!-- Z [m] -->
     <g transform="translate(1305.769651 497.494688)rotate(-90)scale(0.18 -0.18)">
      <use xlink:href="#DejaVuSans-5a"/>
      <use x="68.505859" xlink:href="#DejaVuSans-20"/>
      <use x="100.292969" xlink:href="#DejaVuSans-5b"/>
      <use x="139.306641" xlink:href="#DejaVuSans-6d"/>
      <use x="236.71875" xlink:href="#DejaVuSans-5d"/>
     </g>
    </g>
   </g>
   <g id="line2d_106">
    <path clip-path="url(#p5e50ac82bc)" d="M 1375.758289 800.28 
L 1375.773951 783.9 
L 1375.781459 767.52 
L 1375.788764 751.14 
L 1375.798023 734.76 
L 1375.811064 718.38 
L 1375.830864 702 
L 1375.863512 685.62 
L 1375.922889 669.24 
L 1376.149609 652.86 
L 1376.985409 636.48 
L 1378.830908 620.1 
L 1381.996057 603.72 
L 1386.706599 587.34 
L 1393.099116 570.96 
L 1401.220746 554.58 
L 1411.035916 538.2 
L 1422.439066 521.82 
L 1435.271294 505.44 
L 1449.337498 489.06 
L 1464.428097 472.68 
L 1480.329997 456.3 
L 1496.840618 439.92 
L 1513.776622 423.54 
L 1530.979165 407.16 
L 1548.316151 390.78 
L 1565.682125 374.4 
L 1582.996493 358.02 
L 1600.200719 341.64 
L 1617.255003 325.26 
L 1634.134856 308.88 
L 1650.827842 292.5 
L 1667.33065 276.12 
L 1683.64658 259.74 
L 1699.78347 243.36 
L 1715.752046 226.98 
L 1731.564642 210.6 
L 1747.234254 194.22 
L 1762.773863 177.84 
L 1778.195969 161.46 
L 1793.512299 145.08 
" style="fill:none;stroke:#1f77b4;stroke-linecap:square;stroke-width:1.5;"/>
   </g>
   <g id="line2d_107">
    <path clip-path="url(#p5e50ac82bc)" d="M 1375.758289 800.28 
L 1375.775486 783.9 
L 1375.782112 767.52 
L 1375.789018 751.14 
L 1375.798008 734.76 
L 1375.810696 718.38 
L 1375.829812 702 
L 1375.860771 685.62 
L 1375.91525 669.24 
L 1376.025844 652.86 
L 1376.473323 636.48 
L 1377.827409 620.1 
L 1380.422051 603.72 
L 1384.49984 587.34 
L 1390.206969 570.96 
L 1397.603018 554.58 
L 1406.666928 538.2 
L 1417.311302 521.82 
L 1429.395829 505.44 
L 1442.744944 489.06 
L 1457.164256 472.68 
L 1472.454865 456.3 
L 1488.424816 439.92 
L 1504.8974 423.54 
L 1521.716407 407.16 
L 1538.748742 390.78 
L 1555.884926 374.4 
L 1573.03806 358.02 
L 1590.141783 341.64 
L 1607.147667 325.26 
L 1624.022398 308.88 
L 1640.74499 292.5 
L 1657.304206 276.12 
L 1673.696259 259.74 
L 1689.922857 243.36 
L 1705.989582 226.98 
L 1721.904578 210.6 
L 1737.677539 194.22 
L 1753.318931 177.84 
L 1768.839418 161.46 
L 1784.249465 145.08 
" style="fill:none;stroke:#ff7f0e;stroke-linecap:square;stroke-width:1.5;"/>
   </g>
   <g id="line2d_108">
    <path clip-path="url(#p5e50ac82bc)" d="M 1375.758289 800.28 
L 1375.776426 783.9 
L 1375.782419 767.52 
L 1375.789111 751.14 
L 1375.797943 734.76 
L 1375.810431 718.38 
L 1375.82915 702 
L 1375.859147 685.62 
L 1375.911014 669.24 
L 1376.010233 652.86 
L 1376.3731 636.48 
L 1377.494678 620.1 
L 1379.803566 603.72 
L 1383.550242 587.34 
L 1388.886077 570.96 
L 1395.877343 554.58 
L 1404.512504 538.2 
L 1414.713916 521.82 
L 1426.352774 505.44 
L 1439.265209 489.06 
L 1453.267756 472.68 
L 1468.170939 456.3 
L 1483.790192 439.92 
L 1499.953892 423.54 
L 1516.508582 407.16 
L 1533.321761 390.78 
L 1550.282698 374.4 
L 1567.301793 358.02 
L 1584.308945 341.64 
L 1601.251345 325.26 
L 1618.090998 308.88 
L 1634.80223 292.5 
L 1651.369309 276.12 
L 1667.78431 259.74 
L 1684.045241 243.36 
L 1700.15447 226.98 
L 1716.117429 210.6 
L 1731.941571 194.22 
L 1747.635564 177.84 
L 1763.208674 161.46 
L 1778.670305 145.08 
" style="fill:none;stroke:#2ca02c;stroke-linecap:square;stroke-width:1.5;"/>
   </g>
   <g id="line2d_109">
    <path clip-path="url(#p5e50ac82bc)" d="M 1375.758289 800.28 
L 1375.77672 783.9 
L 1375.782506 767.52 
L 1375.789132 751.14 
L 1375.797916 734.76 
L 1375.810335 718.38 
L 1375.828921 702 
L 1375.858607 685.62 
L 1375.909655 669.24 
L 1376.005998 652.86 
L 1376.337539 636.48 
L 1377.403144 620.1 
L 1379.629153 603.72 
L 1383.275376 587.34 
L 1388.495558 570.96 
L 1395.358363 554.58 
L 1403.855312 538.2 
L 1413.912368 521.82 
L 1425.404642 505.44 
L 1438.172219 489.06 
L 1452.035349 472.68 
L 1466.807785 456.3 
L 1482.307543 439.92 
L 1498.36483 423.54 
L 1514.827268 407.16 
L 1531.562725 390.78 
L 1548.46023 374.4 
L 1565.429455 358.02 
L 1582.39921 341.64 
L 1599.315364 325.26 
L 1616.13848 308.88 
L 1632.841406 292.5 
L 1649.406978 276.12 
L 1665.825927 259.74 
L 1682.095048 243.36 
L 1698.215636 226.98 
L 1714.192201 210.6 
L 1730.031424 194.22 
L 1745.741343 177.84 
L 1761.330715 161.46 
L 1776.808554 145.08 
" style="fill:none;stroke:#d62728;stroke-linecap:square;stroke-width:1.5;"/>
   </g>
   <g id="line2d_110">
    <path clip-path="url(#p5e50ac82bc)" d="M 1375.758289 800.28 
L 1375.776861 783.9 
L 1375.782546 767.52 
L 1375.78914 751.14 
L 1375.797902 734.76 
L 1375.810288 718.38 
L 1375.82881 702 
L 1375.858338 685.62 
L 1375.908985 669.24 
L 1376.003991 652.86 
L 1376.319541 636.48 
L 1377.352036 620.1 
L 1379.535308 603.72 
L 1383.13053 587.34 
L 1388.292397 570.96 
L 1395.090872 554.58 
L 1403.518996 538.2 
L 1413.504474 521.82 
L 1424.924296 505.44 
L 1437.620435 489.06 
L 1451.414911 472.68 
L 1466.123013 456.3 
L 1481.563982 439.92 
L 1497.568901 423.54 
L 1513.985902 407.16 
L 1530.683028 390.78 
L 1547.549193 374.4 
L 1564.493715 358.02 
L 1581.444882 341.64 
L 1598.347922 325.26 
L 1615.162701 308.88 
L 1631.861353 292.5 
L 1648.426016 276.12 
L 1664.846769 259.74 
L 1681.11981 243.36 
L 1697.245911 226.98 
L 1713.229128 210.6 
L 1729.075762 194.22 
L 1744.793535 177.84 
L 1760.390954 161.46 
L 1775.876835 145.08 
" style="fill:none;stroke:#9467bd;stroke-linecap:square;stroke-width:1.5;"/>
   </g>
   <g id="patch_15">
    <path d="M 1354.870588 833.04 
L 1354.870588 112.32 
" style="fill:none;stroke:#000000;stroke-linecap:square;stroke-linejoin:miter;stroke-width:0.8;"/>
   </g>
   <g id="patch_16">
    <path d="M 1814.4 833.04 
L 1814.4 112.32 
" style="fill:none;stroke:#000000;stroke-linecap:square;stroke-linejoin:miter;stroke-width:0.8;"/>
   </g>
   <g id="patch_17">
    <path d="M 1354.870588 833.04 
L 1814.4 833.04 
" style="fill:none;stroke:#000000;stroke-linecap:square;stroke-linejoin:miter;stroke-width:0.8;"/>
   </g>
   <g id="patch_18">
    <path d="M 1354.870588 112.32 
L 1814.4 112.32 
" style="fill:none;stroke:#000000;stroke-linecap:square;stroke-linejoin:miter;stroke-width:0.8;"/>
   </g>
   <g id="text_63">
    <!-- LWC for updraft velocity= 5[g/kg] dry air -->
    <g transform="translate(1363.407419 106.32)scale(0.216 -0.216)">
     <use xlink:href="#DejaVuSans-4c"/>
     <use x="55.572266" xlink:href="#DejaVuSans-57"/>
     <use x="154.449219" xlink:href="#DejaVuSans-43"/>
     <use x="224.273438" xlink:href="#DejaVuSans-20"/>
     <use x="256.060547" xlink:href="#DejaVuSans-66"/>
     <use x="291.265625" xlink:href="#DejaVuSans-6f"/>
     <use x="352.447266" xlink:href="#DejaVuSans-72"/>
     <use x="393.560547" xlink:href="#DejaVuSans-20"/>
     <use x="425.347656" xlink:href="#DejaVuSans-75"/>
     <use x="488.726562" xlink:href="#DejaVuSans-70"/>
     <use x="552.203125" xlink:href="#DejaVuSans-64"/>
     <use x="615.679688" xlink:href="#DejaVuSans-72"/>
     <use x="656.792969" xlink:href="#DejaVuSans-61"/>
     <use x="718.072266" xlink:href="#DejaVuSans-66"/>
     <use x="753.261719" xlink:href="#DejaVuSans-74"/>
     <use x="792.470703" xlink:href="#DejaVuSans-20"/>
     <use x="824.257812" xlink:href="#DejaVuSans-76"/>
     <use x="883.4375" xlink:href="#DejaVuSans-65"/>
     <use x="944.960938" xlink:href="#DejaVuSans-6c"/>
     <use x="972.744141" xlink:href="#DejaVuSans-6f"/>
     <use x="1033.925781" xlink:href="#DejaVuSans-63"/>
     <use x="1088.90625" xlink:href="#DejaVuSans-69"/>
     <use x="1116.689453" xlink:href="#DejaVuSans-74"/>
     <use x="1155.898438" xlink:href="#DejaVuSans-79"/>
     <use x="1215.078125" xlink:href="#DejaVuSans-3d"/>
     <use x="1298.867188" xlink:href="#DejaVuSans-20"/>
     <use x="1330.654297" xlink:href="#DejaVuSans-35"/>
     <use x="1394.277344" xlink:href="#DejaVuSans-5b"/>
     <use x="1433.291016" xlink:href="#DejaVuSans-67"/>
     <use x="1496.767578" xlink:href="#DejaVuSans-2f"/>
     <use x="1530.458984" xlink:href="#DejaVuSans-6b"/>
     <use x="1588.369141" xlink:href="#DejaVuSans-67"/>
     <use x="1651.845703" xlink:href="#DejaVuSans-5d"/>
     <use x="1690.859375" xlink:href="#DejaVuSans-20"/>
     <use x="1722.646484" xlink:href="#DejaVuSans-64"/>
     <use x="1786.123047" xlink:href="#DejaVuSans-72"/>
     <use x="1827.236328" xlink:href="#DejaVuSans-79"/>
     <use x="1886.416016" xlink:href="#DejaVuSans-20"/>
     <use x="1918.203125" xlink:href="#DejaVuSans-61"/>
     <use x="1979.482422" xlink:href="#DejaVuSans-69"/>
     <use x="2007.265625" xlink:href="#DejaVuSans-72"/>
    </g>
   </g>
  </g>
 </g>
 <defs>
  <clipPath id="p241b1ab7e2">
   <rect height="720.72" width="459.529412" x="252" y="112.32"/>
  </clipPath>
  <clipPath id="pb70254643a">
   <rect height="720.72" width="459.529412" x="803.435294" y="112.32"/>
  </clipPath>
  <clipPath id="p5e50ac82bc">
   <rect height="720.72" width="459.529412" x="1354.870588" y="112.32"/>
  </clipPath>
 </defs>
</svg>
