<?xml version="1.0" encoding="utf-8" standalone="no"?>
<!DOCTYPE svg PUBLIC "-//W3C//DTD SVG 1.1//EN"
  "http://www.w3.org/Graphics/SVG/1.1/DTD/svg11.dtd">
<!-- Created with matplotlib (http://matplotlib.org/) -->
<svg height="936pt" version="1.1" viewBox="0 0 2016 936" width="2016pt" xmlns="http://www.w3.org/2000/svg" xmlns:xlink="http://www.w3.org/1999/xlink">
 <defs>
  <style type="text/css">
*{stroke-linecap:butt;stroke-linejoin:round;}
  </style>
 </defs>
 <g id="figure_1">
  <g id="patch_1">
   <path d="M 0 936 
L 2016 936 
L 2016 0 
L 0 0 
z
" style="fill:#ffffff;"/>
  </g>
  <g id="axes_1">
   <g id="patch_2">
    <path d="M 252 833.04 
L 962.181818 833.04 
L 962.181818 112.32 
L 252 112.32 
z
" style="fill:#ffffff;"/>
   </g>
   <g id="matplotlib.axis_1">
    <g id="xtick_1">
     <g id="line2d_1">
      <path clip-path="url(#pe4ca0a50be)" d="M 284.280992 833.04 
L 284.280992 112.32 
" style="fill:none;stroke:#b0b0b0;stroke-linecap:square;stroke-width:0.8;"/>
     </g>
     <g id="line2d_2">
      <defs>
       <path d="M 0 0 
L 0 3.5 
" id="m9e6de1c5da" style="stroke:#000000;stroke-width:0.8;"/>
      </defs>
      <g>
       <use style="stroke:#000000;stroke-width:0.8;" x="284.280992" xlink:href="#m9e6de1c5da" y="833.04"/>
      </g>
     </g>
     <g id="text_1">
      <!-- 98.0 -->
      <defs>
       <path d="M 10.984375 1.515625 
L 10.984375 10.5 
Q 14.703125 8.734375 18.5 7.8125 
Q 22.3125 6.890625 25.984375 6.890625 
Q 35.75 6.890625 40.890625 13.453125 
Q 46.046875 20.015625 46.78125 33.40625 
Q 43.953125 29.203125 39.59375 26.953125 
Q 35.25 24.703125 29.984375 24.703125 
Q 19.046875 24.703125 12.671875 31.3125 
Q 6.296875 37.9375 6.296875 49.421875 
Q 6.296875 60.640625 12.9375 67.421875 
Q 19.578125 74.21875 30.609375 74.21875 
Q 43.265625 74.21875 49.921875 64.515625 
Q 56.59375 54.828125 56.59375 36.375 
Q 56.59375 19.140625 48.40625 8.859375 
Q 40.234375 -1.421875 26.421875 -1.421875 
Q 22.703125 -1.421875 18.890625 -0.6875 
Q 15.09375 0.046875 10.984375 1.515625 
z
M 30.609375 32.421875 
Q 37.25 32.421875 41.125 36.953125 
Q 45.015625 41.5 45.015625 49.421875 
Q 45.015625 57.28125 41.125 61.84375 
Q 37.25 66.40625 30.609375 66.40625 
Q 23.96875 66.40625 20.09375 61.84375 
Q 16.21875 57.28125 16.21875 49.421875 
Q 16.21875 41.5 20.09375 36.953125 
Q 23.96875 32.421875 30.609375 32.421875 
z
" id="DejaVuSans-39"/>
       <path d="M 31.78125 34.625 
Q 24.75 34.625 20.71875 30.859375 
Q 16.703125 27.09375 16.703125 20.515625 
Q 16.703125 13.921875 20.71875 10.15625 
Q 24.75 6.390625 31.78125 6.390625 
Q 38.8125 6.390625 42.859375 10.171875 
Q 46.921875 13.96875 46.921875 20.515625 
Q 46.921875 27.09375 42.890625 30.859375 
Q 38.875 34.625 31.78125 34.625 
z
M 21.921875 38.8125 
Q 15.578125 40.375 12.03125 44.71875 
Q 8.5 49.078125 8.5 55.328125 
Q 8.5 64.0625 14.71875 69.140625 
Q 20.953125 74.21875 31.78125 74.21875 
Q 42.671875 74.21875 48.875 69.140625 
Q 55.078125 64.0625 55.078125 55.328125 
Q 55.078125 49.078125 51.53125 44.71875 
Q 48 40.375 41.703125 38.8125 
Q 48.828125 37.15625 52.796875 32.3125 
Q 56.78125 27.484375 56.78125 20.515625 
Q 56.78125 9.90625 50.3125 4.234375 
Q 43.84375 -1.421875 31.78125 -1.421875 
Q 19.734375 -1.421875 13.25 4.234375 
Q 6.78125 9.90625 6.78125 20.515625 
Q 6.78125 27.484375 10.78125 32.3125 
Q 14.796875 37.15625 21.921875 38.8125 
z
M 18.3125 54.390625 
Q 18.3125 48.734375 21.84375 45.5625 
Q 25.390625 42.390625 31.78125 42.390625 
Q 38.140625 42.390625 41.71875 45.5625 
Q 45.3125 48.734375 45.3125 54.390625 
Q 45.3125 60.0625 41.71875 63.234375 
Q 38.140625 66.40625 31.78125 66.40625 
Q 25.390625 66.40625 21.84375 63.234375 
Q 18.3125 60.0625 18.3125 54.390625 
z
" id="DejaVuSans-38"/>
       <path d="M 10.6875 12.40625 
L 21 12.40625 
L 21 0 
L 10.6875 0 
z
" id="DejaVuSans-2e"/>
       <path d="M 31.78125 66.40625 
Q 24.171875 66.40625 20.328125 58.90625 
Q 16.5 51.421875 16.5 36.375 
Q 16.5 21.390625 20.328125 13.890625 
Q 24.171875 6.390625 31.78125 6.390625 
Q 39.453125 6.390625 43.28125 13.890625 
Q 47.125 21.390625 47.125 36.375 
Q 47.125 51.421875 43.28125 58.90625 
Q 39.453125 66.40625 31.78125 66.40625 
z
M 31.78125 74.21875 
Q 44.046875 74.21875 50.515625 64.515625 
Q 56.984375 54.828125 56.984375 36.375 
Q 56.984375 17.96875 50.515625 8.265625 
Q 44.046875 -1.421875 31.78125 -1.421875 
Q 19.53125 -1.421875 13.0625 8.265625 
Q 6.59375 17.96875 6.59375 36.375 
Q 6.59375 54.828125 13.0625 64.515625 
Q 19.53125 74.21875 31.78125 74.21875 
z
" id="DejaVuSans-30"/>
      </defs>
      <g transform="translate(264.241929 853.717188)scale(0.18 -0.18)">
       <use xlink:href="#DejaVuSans-39"/>
       <use x="63.623047" xlink:href="#DejaVuSans-38"/>
       <use x="127.246094" xlink:href="#DejaVuSans-2e"/>
       <use x="159.033203" xlink:href="#DejaVuSans-30"/>
      </g>
     </g>
    </g>
    <g id="xtick_2">
     <g id="line2d_3">
      <path clip-path="url(#pe4ca0a50be)" d="M 427.18892 833.04 
L 427.18892 112.32 
" style="fill:none;stroke:#b0b0b0;stroke-linecap:square;stroke-width:0.8;"/>
     </g>
     <g id="line2d_4">
      <g>
       <use style="stroke:#000000;stroke-width:0.8;" x="427.18892" xlink:href="#m9e6de1c5da" y="833.04"/>
      </g>
     </g>
     <g id="text_2">
      <!-- 98.5 -->
      <defs>
       <path d="M 10.796875 72.90625 
L 49.515625 72.90625 
L 49.515625 64.59375 
L 19.828125 64.59375 
L 19.828125 46.734375 
Q 21.96875 47.46875 24.109375 47.828125 
Q 26.265625 48.1875 28.421875 48.1875 
Q 40.625 48.1875 47.75 41.5 
Q 54.890625 34.8125 54.890625 23.390625 
Q 54.890625 11.625 47.5625 5.09375 
Q 40.234375 -1.421875 26.90625 -1.421875 
Q 22.3125 -1.421875 17.546875 -0.640625 
Q 12.796875 0.140625 7.71875 1.703125 
L 7.71875 11.625 
Q 12.109375 9.234375 16.796875 8.0625 
Q 21.484375 6.890625 26.703125 6.890625 
Q 35.15625 6.890625 40.078125 11.328125 
Q 45.015625 15.765625 45.015625 23.390625 
Q 45.015625 31 40.078125 35.4375 
Q 35.15625 39.890625 26.703125 39.890625 
Q 22.75 39.890625 18.8125 39.015625 
Q 14.890625 38.140625 10.796875 36.28125 
z
" id="DejaVuSans-35"/>
      </defs>
      <g transform="translate(407.149858 853.717188)scale(0.18 -0.18)">
       <use xlink:href="#DejaVuSans-39"/>
       <use x="63.623047" xlink:href="#DejaVuSans-38"/>
       <use x="127.246094" xlink:href="#DejaVuSans-2e"/>
       <use x="159.033203" xlink:href="#DejaVuSans-35"/>
      </g>
     </g>
    </g>
    <g id="xtick_3">
     <g id="line2d_5">
      <path clip-path="url(#pe4ca0a50be)" d="M 570.096849 833.04 
L 570.096849 112.32 
" style="fill:none;stroke:#b0b0b0;stroke-linecap:square;stroke-width:0.8;"/>
     </g>
     <g id="line2d_6">
      <g>
       <use style="stroke:#000000;stroke-width:0.8;" x="570.096849" xlink:href="#m9e6de1c5da" y="833.04"/>
      </g>
     </g>
     <g id="text_3">
      <!-- 99.0 -->
      <g transform="translate(550.057787 853.717188)scale(0.18 -0.18)">
       <use xlink:href="#DejaVuSans-39"/>
       <use x="63.623047" xlink:href="#DejaVuSans-39"/>
       <use x="127.246094" xlink:href="#DejaVuSans-2e"/>
       <use x="159.033203" xlink:href="#DejaVuSans-30"/>
      </g>
     </g>
    </g>
    <g id="xtick_4">
     <g id="line2d_7">
      <path clip-path="url(#pe4ca0a50be)" d="M 713.004778 833.04 
L 713.004778 112.32 
" style="fill:none;stroke:#b0b0b0;stroke-linecap:square;stroke-width:0.8;"/>
     </g>
     <g id="line2d_8">
      <g>
       <use style="stroke:#000000;stroke-width:0.8;" x="713.004778" xlink:href="#m9e6de1c5da" y="833.04"/>
      </g>
     </g>
     <g id="text_4">
      <!-- 99.5 -->
      <g transform="translate(692.965715 853.717188)scale(0.18 -0.18)">
       <use xlink:href="#DejaVuSans-39"/>
       <use x="63.623047" xlink:href="#DejaVuSans-39"/>
       <use x="127.246094" xlink:href="#DejaVuSans-2e"/>
       <use x="159.033203" xlink:href="#DejaVuSans-35"/>
      </g>
     </g>
    </g>
    <g id="xtick_5">
     <g id="line2d_9">
      <path clip-path="url(#pe4ca0a50be)" d="M 855.912706 833.04 
L 855.912706 112.32 
" style="fill:none;stroke:#b0b0b0;stroke-linecap:square;stroke-width:0.8;"/>
     </g>
     <g id="line2d_10">
      <g>
       <use style="stroke:#000000;stroke-width:0.8;" x="855.912706" xlink:href="#m9e6de1c5da" y="833.04"/>
      </g>
     </g>
     <g id="text_5">
      <!-- 100.0 -->
      <defs>
       <path d="M 12.40625 8.296875 
L 28.515625 8.296875 
L 28.515625 63.921875 
L 10.984375 60.40625 
L 10.984375 69.390625 
L 28.421875 72.90625 
L 38.28125 72.90625 
L 38.28125 8.296875 
L 54.390625 8.296875 
L 54.390625 0 
L 12.40625 0 
z
" id="DejaVuSans-31"/>
      </defs>
      <g transform="translate(830.147394 853.717188)scale(0.18 -0.18)">
       <use xlink:href="#DejaVuSans-31"/>
       <use x="63.623047" xlink:href="#DejaVuSans-30"/>
       <use x="127.246094" xlink:href="#DejaVuSans-30"/>
       <use x="190.869141" xlink:href="#DejaVuSans-2e"/>
       <use x="222.65625" xlink:href="#DejaVuSans-30"/>
      </g>
     </g>
    </g>
    <g id="text_6">
     <!-- RH [%] -->
     <defs>
      <path d="M 44.390625 34.1875 
Q 47.5625 33.109375 50.5625 29.59375 
Q 53.5625 26.078125 56.59375 19.921875 
L 66.609375 0 
L 56 0 
L 46.6875 18.703125 
Q 43.0625 26.03125 39.671875 28.421875 
Q 36.28125 30.8125 30.421875 30.8125 
L 19.671875 30.8125 
L 19.671875 0 
L 9.8125 0 
L 9.8125 72.90625 
L 32.078125 72.90625 
Q 44.578125 72.90625 50.734375 67.671875 
Q 56.890625 62.453125 56.890625 51.90625 
Q 56.890625 45.015625 53.6875 40.46875 
Q 50.484375 35.9375 44.390625 34.1875 
z
M 19.671875 64.796875 
L 19.671875 38.921875 
L 32.078125 38.921875 
Q 39.203125 38.921875 42.84375 42.21875 
Q 46.484375 45.515625 46.484375 51.90625 
Q 46.484375 58.296875 42.84375 61.546875 
Q 39.203125 64.796875 32.078125 64.796875 
z
" id="DejaVuSans-52"/>
      <path d="M 9.8125 72.90625 
L 19.671875 72.90625 
L 19.671875 43.015625 
L 55.515625 43.015625 
L 55.515625 72.90625 
L 65.375 72.90625 
L 65.375 0 
L 55.515625 0 
L 55.515625 34.71875 
L 19.671875 34.71875 
L 19.671875 0 
L 9.8125 0 
z
" id="DejaVuSans-48"/>
      <path id="DejaVuSans-20"/>
      <path d="M 8.59375 75.984375 
L 29.296875 75.984375 
L 29.296875 69 
L 17.578125 69 
L 17.578125 -6.203125 
L 29.296875 -6.203125 
L 29.296875 -13.1875 
L 8.59375 -13.1875 
z
" id="DejaVuSans-5b"/>
      <path d="M 72.703125 32.078125 
Q 68.453125 32.078125 66.03125 28.46875 
Q 63.625 24.859375 63.625 18.40625 
Q 63.625 12.0625 66.03125 8.421875 
Q 68.453125 4.78125 72.703125 4.78125 
Q 76.859375 4.78125 79.265625 8.421875 
Q 81.6875 12.0625 81.6875 18.40625 
Q 81.6875 24.8125 79.265625 28.4375 
Q 76.859375 32.078125 72.703125 32.078125 
z
M 72.703125 38.28125 
Q 80.421875 38.28125 84.953125 32.90625 
Q 89.5 27.546875 89.5 18.40625 
Q 89.5 9.28125 84.9375 3.921875 
Q 80.375 -1.421875 72.703125 -1.421875 
Q 64.890625 -1.421875 60.34375 3.921875 
Q 55.8125 9.28125 55.8125 18.40625 
Q 55.8125 27.59375 60.375 32.9375 
Q 64.9375 38.28125 72.703125 38.28125 
z
M 22.3125 68.015625 
Q 18.109375 68.015625 15.6875 64.375 
Q 13.28125 60.75 13.28125 54.390625 
Q 13.28125 47.953125 15.671875 44.328125 
Q 18.0625 40.71875 22.3125 40.71875 
Q 26.5625 40.71875 28.96875 44.328125 
Q 31.390625 47.953125 31.390625 54.390625 
Q 31.390625 60.6875 28.953125 64.34375 
Q 26.515625 68.015625 22.3125 68.015625 
z
M 66.40625 74.21875 
L 74.21875 74.21875 
L 28.609375 -1.421875 
L 20.796875 -1.421875 
z
M 22.3125 74.21875 
Q 30.03125 74.21875 34.609375 68.875 
Q 39.203125 63.53125 39.203125 54.390625 
Q 39.203125 45.171875 34.640625 39.84375 
Q 30.078125 34.515625 22.3125 34.515625 
Q 14.546875 34.515625 10.03125 39.859375 
Q 5.515625 45.21875 5.515625 54.390625 
Q 5.515625 63.484375 10.046875 68.84375 
Q 14.59375 74.21875 22.3125 74.21875 
z
" id="DejaVuSans-25"/>
      <path d="M 30.421875 75.984375 
L 30.421875 -13.1875 
L 9.71875 -13.1875 
L 9.71875 -6.203125 
L 21.390625 -6.203125 
L 21.390625 69 
L 9.71875 69 
L 9.71875 75.984375 
z
" id="DejaVuSans-5d"/>
     </defs>
     <g transform="translate(575.634503 875.137812)scale(0.18 -0.18)">
      <use xlink:href="#DejaVuSans-52"/>
      <use x="69.482422" xlink:href="#DejaVuSans-48"/>
      <use x="144.677734" xlink:href="#DejaVuSans-20"/>
      <use x="176.464844" xlink:href="#DejaVuSans-5b"/>
      <use x="215.478516" xlink:href="#DejaVuSans-25"/>
      <use x="310.498047" xlink:href="#DejaVuSans-5d"/>
     </g>
    </g>
   </g>
   <g id="matplotlib.axis_2">
    <g id="ytick_1">
     <g id="line2d_11">
      <path clip-path="url(#pe4ca0a50be)" d="M 252 800.28 
L 962.181818 800.28 
" style="fill:none;stroke:#b0b0b0;stroke-linecap:square;stroke-width:0.8;"/>
     </g>
     <g id="line2d_12">
      <defs>
       <path d="M 0 0 
L -3.5 0 
" id="md533c6172a" style="stroke:#000000;stroke-width:0.8;"/>
      </defs>
      <g>
       <use style="stroke:#000000;stroke-width:0.8;" x="252" xlink:href="#md533c6172a" y="800.28"/>
      </g>
     </g>
     <g id="text_7">
      <!-- 0 -->
      <g transform="translate(233.5475 807.118594)scale(0.18 -0.18)">
       <use xlink:href="#DejaVuSans-30"/>
      </g>
     </g>
    </g>
    <g id="ytick_2">
     <g id="line2d_13">
      <path clip-path="url(#pe4ca0a50be)" d="M 252 718.38 
L 962.181818 718.38 
" style="fill:none;stroke:#b0b0b0;stroke-linecap:square;stroke-width:0.8;"/>
     </g>
     <g id="line2d_14">
      <g>
       <use style="stroke:#000000;stroke-width:0.8;" x="252" xlink:href="#md533c6172a" y="718.38"/>
      </g>
     </g>
     <g id="text_8">
      <!-- 25 -->
      <defs>
       <path d="M 19.1875 8.296875 
L 53.609375 8.296875 
L 53.609375 0 
L 7.328125 0 
L 7.328125 8.296875 
Q 12.9375 14.109375 22.625 23.890625 
Q 32.328125 33.6875 34.8125 36.53125 
Q 39.546875 41.84375 41.421875 45.53125 
Q 43.3125 49.21875 43.3125 52.78125 
Q 43.3125 58.59375 39.234375 62.25 
Q 35.15625 65.921875 28.609375 65.921875 
Q 23.96875 65.921875 18.8125 64.3125 
Q 13.671875 62.703125 7.8125 59.421875 
L 7.8125 69.390625 
Q 13.765625 71.78125 18.9375 73 
Q 24.125 74.21875 28.421875 74.21875 
Q 39.75 74.21875 46.484375 68.546875 
Q 53.21875 62.890625 53.21875 53.421875 
Q 53.21875 48.921875 51.53125 44.890625 
Q 49.859375 40.875 45.40625 35.40625 
Q 44.1875 33.984375 37.640625 27.21875 
Q 31.109375 20.453125 19.1875 8.296875 
z
" id="DejaVuSans-32"/>
      </defs>
      <g transform="translate(222.095 725.218594)scale(0.18 -0.18)">
       <use xlink:href="#DejaVuSans-32"/>
       <use x="63.623047" xlink:href="#DejaVuSans-35"/>
      </g>
     </g>
    </g>
    <g id="ytick_3">
     <g id="line2d_15">
      <path clip-path="url(#pe4ca0a50be)" d="M 252 636.48 
L 962.181818 636.48 
" style="fill:none;stroke:#b0b0b0;stroke-linecap:square;stroke-width:0.8;"/>
     </g>
     <g id="line2d_16">
      <g>
       <use style="stroke:#000000;stroke-width:0.8;" x="252" xlink:href="#md533c6172a" y="636.48"/>
      </g>
     </g>
     <g id="text_9">
      <!-- 50 -->
      <g transform="translate(222.095 643.318594)scale(0.18 -0.18)">
       <use xlink:href="#DejaVuSans-35"/>
       <use x="63.623047" xlink:href="#DejaVuSans-30"/>
      </g>
     </g>
    </g>
    <g id="ytick_4">
     <g id="line2d_17">
      <path clip-path="url(#pe4ca0a50be)" d="M 252 554.58 
L 962.181818 554.58 
" style="fill:none;stroke:#b0b0b0;stroke-linecap:square;stroke-width:0.8;"/>
     </g>
     <g id="line2d_18">
      <g>
       <use style="stroke:#000000;stroke-width:0.8;" x="252" xlink:href="#md533c6172a" y="554.58"/>
      </g>
     </g>
     <g id="text_10">
      <!-- 75 -->
      <defs>
       <path d="M 8.203125 72.90625 
L 55.078125 72.90625 
L 55.078125 68.703125 
L 28.609375 0 
L 18.3125 0 
L 43.21875 64.59375 
L 8.203125 64.59375 
z
" id="DejaVuSans-37"/>
      </defs>
      <g transform="translate(222.095 561.418594)scale(0.18 -0.18)">
       <use xlink:href="#DejaVuSans-37"/>
       <use x="63.623047" xlink:href="#DejaVuSans-35"/>
      </g>
     </g>
    </g>
    <g id="ytick_5">
     <g id="line2d_19">
      <path clip-path="url(#pe4ca0a50be)" d="M 252 472.68 
L 962.181818 472.68 
" style="fill:none;stroke:#b0b0b0;stroke-linecap:square;stroke-width:0.8;"/>
     </g>
     <g id="line2d_20">
      <g>
       <use style="stroke:#000000;stroke-width:0.8;" x="252" xlink:href="#md533c6172a" y="472.68"/>
      </g>
     </g>
     <g id="text_11">
      <!-- 100 -->
      <g transform="translate(210.6425 479.518594)scale(0.18 -0.18)">
       <use xlink:href="#DejaVuSans-31"/>
       <use x="63.623047" xlink:href="#DejaVuSans-30"/>
       <use x="127.246094" xlink:href="#DejaVuSans-30"/>
      </g>
     </g>
    </g>
    <g id="ytick_6">
     <g id="line2d_21">
      <path clip-path="url(#pe4ca0a50be)" d="M 252 390.78 
L 962.181818 390.78 
" style="fill:none;stroke:#b0b0b0;stroke-linecap:square;stroke-width:0.8;"/>
     </g>
     <g id="line2d_22">
      <g>
       <use style="stroke:#000000;stroke-width:0.8;" x="252" xlink:href="#md533c6172a" y="390.78"/>
      </g>
     </g>
     <g id="text_12">
      <!-- 125 -->
      <g transform="translate(210.6425 397.618594)scale(0.18 -0.18)">
       <use xlink:href="#DejaVuSans-31"/>
       <use x="63.623047" xlink:href="#DejaVuSans-32"/>
       <use x="127.246094" xlink:href="#DejaVuSans-35"/>
      </g>
     </g>
    </g>
    <g id="ytick_7">
     <g id="line2d_23">
      <path clip-path="url(#pe4ca0a50be)" d="M 252 308.88 
L 962.181818 308.88 
" style="fill:none;stroke:#b0b0b0;stroke-linecap:square;stroke-width:0.8;"/>
     </g>
     <g id="line2d_24">
      <g>
       <use style="stroke:#000000;stroke-width:0.8;" x="252" xlink:href="#md533c6172a" y="308.88"/>
      </g>
     </g>
     <g id="text_13">
      <!-- 150 -->
      <g transform="translate(210.6425 315.718594)scale(0.18 -0.18)">
       <use xlink:href="#DejaVuSans-31"/>
       <use x="63.623047" xlink:href="#DejaVuSans-35"/>
       <use x="127.246094" xlink:href="#DejaVuSans-30"/>
      </g>
     </g>
    </g>
    <g id="ytick_8">
     <g id="line2d_25">
      <path clip-path="url(#pe4ca0a50be)" d="M 252 226.98 
L 962.181818 226.98 
" style="fill:none;stroke:#b0b0b0;stroke-linecap:square;stroke-width:0.8;"/>
     </g>
     <g id="line2d_26">
      <g>
       <use style="stroke:#000000;stroke-width:0.8;" x="252" xlink:href="#md533c6172a" y="226.98"/>
      </g>
     </g>
     <g id="text_14">
      <!-- 175 -->
      <g transform="translate(210.6425 233.818594)scale(0.18 -0.18)">
       <use xlink:href="#DejaVuSans-31"/>
       <use x="63.623047" xlink:href="#DejaVuSans-37"/>
       <use x="127.246094" xlink:href="#DejaVuSans-35"/>
      </g>
     </g>
    </g>
    <g id="ytick_9">
     <g id="line2d_27">
      <path clip-path="url(#pe4ca0a50be)" d="M 252 145.08 
L 962.181818 145.08 
" style="fill:none;stroke:#b0b0b0;stroke-linecap:square;stroke-width:0.8;"/>
     </g>
     <g id="line2d_28">
      <g>
       <use style="stroke:#000000;stroke-width:0.8;" x="252" xlink:href="#md533c6172a" y="145.08"/>
      </g>
     </g>
     <g id="text_15">
      <!-- 200 -->
      <g transform="translate(210.6425 151.918594)scale(0.18 -0.18)">
       <use xlink:href="#DejaVuSans-32"/>
       <use x="63.623047" xlink:href="#DejaVuSans-30"/>
       <use x="127.246094" xlink:href="#DejaVuSans-30"/>
      </g>
     </g>
    </g>
    <g id="text_16">
     <!-- Z [m]] -->
     <defs>
      <path d="M 5.609375 72.90625 
L 62.890625 72.90625 
L 62.890625 65.375 
L 16.796875 8.296875 
L 64.015625 8.296875 
L 64.015625 0 
L 4.5 0 
L 4.5 7.515625 
L 50.59375 64.59375 
L 5.609375 64.59375 
z
" id="DejaVuSans-5a"/>
      <path d="M 52 44.1875 
Q 55.375 50.25 60.0625 53.125 
Q 64.75 56 71.09375 56 
Q 79.640625 56 84.28125 50.015625 
Q 88.921875 44.046875 88.921875 33.015625 
L 88.921875 0 
L 79.890625 0 
L 79.890625 32.71875 
Q 79.890625 40.578125 77.09375 44.375 
Q 74.3125 48.1875 68.609375 48.1875 
Q 61.625 48.1875 57.5625 43.546875 
Q 53.515625 38.921875 53.515625 30.90625 
L 53.515625 0 
L 44.484375 0 
L 44.484375 32.71875 
Q 44.484375 40.625 41.703125 44.40625 
Q 38.921875 48.1875 33.109375 48.1875 
Q 26.21875 48.1875 22.15625 43.53125 
Q 18.109375 38.875 18.109375 30.90625 
L 18.109375 0 
L 9.078125 0 
L 9.078125 54.6875 
L 18.109375 54.6875 
L 18.109375 46.1875 
Q 21.1875 51.21875 25.484375 53.609375 
Q 29.78125 56 35.6875 56 
Q 41.65625 56 45.828125 52.96875 
Q 50 49.953125 52 44.1875 
z
" id="DejaVuSans-6d"/>
     </defs>
     <g transform="translate(202.899062 501.006094)rotate(-90)scale(0.18 -0.18)">
      <use xlink:href="#DejaVuSans-5a"/>
      <use x="68.505859" xlink:href="#DejaVuSans-20"/>
      <use x="100.292969" xlink:href="#DejaVuSans-5b"/>
      <use x="139.306641" xlink:href="#DejaVuSans-6d"/>
      <use x="236.71875" xlink:href="#DejaVuSans-5d"/>
      <use x="275.732422" xlink:href="#DejaVuSans-5d"/>
     </g>
    </g>
   </g>
   <g id="line2d_29">
    <path clip-path="url(#pe4ca0a50be)" d="M 284.280992 800.28 
L 360.204688 783.9 
L 528.251721 747.864 
L 712.708504 708.552 
L 835.455389 682.344 
L 865.292536 675.792 
L 879.645795 672.516 
L 893.232857 669.24 
L 905.557398 665.964 
L 915.990549 662.688 
L 923.732655 659.412 
L 927.881059 656.136 
L 928.177133 652.86 
L 925.476409 649.584 
L 921.101802 646.308 
L 911.316336 639.756 
L 906.962207 636.48 
L 903.224169 633.204 
L 900.104242 629.928 
L 897.537428 626.652 
L 895.434243 623.376 
L 893.704397 620.1 
L 892.267964 616.824 
L 891.059149 613.548 
L 890.026175 610.272 
L 888.339227 603.72 
L 886.995338 597.168 
L 885.876776 590.616 
L 884.482922 580.788 
L 883.325979 570.96 
L 882.039651 557.856 
L 880.964541 544.752 
L 879.83491 528.372 
L 878.707537 508.716 
L 877.61826 485.784 
L 876.586999 459.576 
L 875.526153 426.816 
L 874.489197 387.504 
L 873.506392 341.64 
L 872.541015 285.948 
L 871.58541 217.152 
L 870.77784 145.08 
L 870.77784 145.08 
" style="fill:none;stroke:#1f77b4;stroke-linecap:square;stroke-width:1.5;"/>
   </g>
   <g id="line2d_30">
    <path clip-path="url(#pe4ca0a50be)" d="M 855.912706 800.28 
L 855.912706 145.08 
L 855.912706 145.08 
" style="fill:none;stroke:#ff7f0e;stroke-linecap:square;stroke-width:1.5;"/>
   </g>
   <g id="line2d_31">
    <path clip-path="url(#pe4ca0a50be)" d="M 284.280992 800.28 
L 360.204689 783.9 
L 528.251724 747.864 
L 712.708564 708.552 
L 835.457894 682.344 
L 865.302358 675.792 
L 879.666646 672.516 
L 893.277542 669.24 
L 905.648789 665.964 
L 916.166117 662.688 
L 924.06735 659.412 
L 928.484444 656.136 
L 929.101939 652.86 
L 926.661324 649.584 
L 922.448121 646.308 
L 912.749664 639.756 
L 908.36803 636.48 
L 904.580977 633.204 
L 901.403712 629.928 
L 898.779731 626.652 
L 896.624308 623.376 
L 894.849279 620.1 
L 893.375164 616.824 
L 892.135678 613.548 
L 891.078106 610.272 
L 889.356019 603.72 
L 887.989654 597.168 
L 886.856119 590.616 
L 885.447535 580.788 
L 884.280858 570.96 
L 882.9857 557.856 
L 881.904322 544.752 
L 880.769014 528.372 
L 879.636973 508.716 
L 878.543791 485.784 
L 877.509232 459.576 
L 876.445414 426.816 
L 875.40591 387.504 
L 874.42115 341.64 
L 873.454086 285.948 
L 872.497159 217.152 
L 871.688915 145.08 
L 871.688915 145.08 
" style="fill:none;stroke:#2ca02c;stroke-linecap:square;stroke-width:1.5;"/>
   </g>
   <g id="line2d_32">
    <path clip-path="url(#pe4ca0a50be)" d="M 855.912706 800.28 
L 855.912706 145.08 
L 855.912706 145.08 
" style="fill:none;stroke:#d62728;stroke-linecap:square;stroke-width:1.5;"/>
   </g>
   <g id="line2d_33">
    <path clip-path="url(#pe4ca0a50be)" d="M 284.280992 800.28 
L 360.204689 783.9 
L 528.251726 747.864 
L 712.708601 708.552 
L 835.459396 682.344 
L 865.30822 675.792 
L 879.679042 672.516 
L 893.304005 669.24 
L 905.70276 665.964 
L 916.269211 662.688 
L 924.261545 659.412 
L 928.832052 656.136 
L 929.638152 652.86 
L 927.360706 649.584 
L 923.254449 646.308 
L 913.623181 639.756 
L 909.228943 636.48 
L 905.414509 633.204 
L 902.203523 629.928 
L 899.545035 626.652 
L 897.357528 623.376 
L 895.554372 620.1 
L 894.056552 616.824 
L 892.797589 613.548 
L 891.724282 610.272 
L 889.979513 603.72 
L 888.598607 597.168 
L 887.455449 590.616 
L 886.037475 580.788 
L 884.864549 570.96 
L 883.563436 557.856 
L 882.47778 544.752 
L 881.338542 528.372 
L 880.20288 508.716 
L 879.106641 485.784 
L 878.069683 459.576 
L 877.003866 426.816 
L 875.966815 387.504 
L 874.676179 335.088 
L 873.899531 312.156 
L 873.3597 295.776 
L 873.025 276.12 
L 872.287886 220.428 
L 871.498387 148.356 
L 871.46528 145.08 
L 871.46528 145.08 
" style="fill:none;stroke:#9467bd;stroke-linecap:square;stroke-width:1.5;"/>
   </g>
   <g id="line2d_34">
    <path clip-path="url(#pe4ca0a50be)" d="M 855.912706 800.28 
L 855.912706 145.08 
L 855.912706 145.08 
" style="fill:none;stroke:#8c564b;stroke-linecap:square;stroke-width:1.5;"/>
   </g>
   <g id="line2d_35">
    <path clip-path="url(#pe4ca0a50be)" d="M 284.280992 800.28 
L 360.20469 783.9 
L 528.251727 747.864 
L 712.708613 708.552 
L 835.4599 682.344 
L 865.310173 675.792 
L 879.683161 672.516 
L 893.312777 669.24 
L 905.720615 665.964 
L 916.303221 662.688 
L 924.325208 659.412 
L 928.945613 656.136 
L 929.813665 652.86 
L 927.590689 649.584 
L 923.520735 646.308 
L 913.92075 639.756 
L 909.526975 636.48 
L 905.706962 633.204 
L 902.487102 629.928 
L 899.818474 626.652 
L 897.620914 623.376 
L 895.808549 620.1 
L 894.302687 616.824 
L 893.03693 613.548 
L 891.957998 610.272 
L 890.204878 603.72 
L 888.818402 597.168 
L 887.671414 590.616 
L 886.249548 580.788 
L 885.073947 570.96 
L 883.770594 557.856 
L 882.685345 544.752 
L 881.56029 528.372 
L 880.088524 505.44 
L 878.903788 489.06 
L 877.662666 469.404 
L 877.026101 453.024 
L 875.942766 416.988 
L 875.062017 380.952 
L 874.44167 358.02 
L 873.031004 315.432 
L 872.578094 289.224 
L 871.371286 190.944 
L 870.919249 145.08 
L 870.919249 145.08 
" style="fill:none;stroke:#e377c2;stroke-linecap:square;stroke-width:1.5;"/>
   </g>
   <g id="line2d_36">
    <path clip-path="url(#pe4ca0a50be)" d="M 855.912706 800.28 
L 855.912706 145.08 
L 855.912706 145.08 
" style="fill:none;stroke:#7f7f7f;stroke-linecap:square;stroke-width:1.5;"/>
   </g>
   <g id="line2d_37">
    <path clip-path="url(#pe4ca0a50be)" d="M 284.280992 800.28 
L 360.204695 783.9 
L 528.251727 747.864 
L 712.70862 708.552 
L 835.460157 682.344 
L 865.311159 675.792 
L 879.685233 672.516 
L 893.317168 669.24 
L 905.729534 665.964 
L 916.320186 662.688 
L 924.356875 659.412 
L 929.001984 656.136 
L 929.900826 652.86 
L 927.705077 649.584 
L 923.652846 646.308 
L 914.062532 639.756 
L 909.666044 636.48 
L 905.84109 633.204 
L 902.61542 629.928 
L 899.940988 626.652 
L 897.738146 623.376 
L 895.921323 620.1 
L 894.412037 616.824 
L 893.144143 613.548 
L 892.064881 610.272 
L 891.133719 606.996 
L 889.604777 600.444 
L 886.519434 584.064 
L 885.384844 577.512 
L 883.441001 564.408 
L 882.668715 557.856 
L 881.788169 548.028 
L 880.856558 534.924 
L 879.539702 515.268 
L 878.550127 502.164 
L 876.949236 475.956 
L 876.239223 456.3 
L 875.191677 420.264 
L 874.23915 387.504 
L 873.929331 384.228 
L 873.246407 380.952 
L 872.1967 377.676 
L 870.930757 374.4 
L 870.428139 371.124 
L 870.171537 364.572 
L 869.681246 331.812 
L 868.859585 263.016 
L 868.686307 236.808 
L 868.794197 200.772 
L 869.205805 145.08 
L 869.205805 145.08 
" style="fill:none;stroke:#bcbd22;stroke-linecap:square;stroke-width:1.5;"/>
   </g>
   <g id="line2d_38">
    <path clip-path="url(#pe4ca0a50be)" d="M 855.912706 800.28 
L 855.912706 145.08 
L 855.912706 145.08 
" style="fill:none;stroke:#17becf;stroke-linecap:square;stroke-width:1.5;"/>
   </g>
   <g id="patch_3">
    <path d="M 252 833.04 
L 252 112.32 
" style="fill:none;stroke:#000000;stroke-linecap:square;stroke-linejoin:miter;stroke-width:0.8;"/>
   </g>
   <g id="patch_4">
    <path d="M 962.181818 833.04 
L 962.181818 112.32 
" style="fill:none;stroke:#000000;stroke-linecap:square;stroke-linejoin:miter;stroke-width:0.8;"/>
   </g>
   <g id="patch_5">
    <path d="M 252 833.04 
L 962.181818 833.04 
" style="fill:none;stroke:#000000;stroke-linecap:square;stroke-linejoin:miter;stroke-width:0.8;"/>
   </g>
   <g id="patch_6">
    <path d="M 252 112.32 
L 962.181818 112.32 
" style="fill:none;stroke:#000000;stroke-linecap:square;stroke-linejoin:miter;stroke-width:0.8;"/>
   </g>
   <g id="text_17">
    <!-- Saturation for updraft velocity= 0.1[m/s] -->
    <defs>
     <path d="M 53.515625 70.515625 
L 53.515625 60.890625 
Q 47.90625 63.578125 42.921875 64.890625 
Q 37.9375 66.21875 33.296875 66.21875 
Q 25.25 66.21875 20.875 63.09375 
Q 16.5 59.96875 16.5 54.203125 
Q 16.5 49.359375 19.40625 46.890625 
Q 22.3125 44.4375 30.421875 42.921875 
L 36.375 41.703125 
Q 47.40625 39.59375 52.65625 34.296875 
Q 57.90625 29 57.90625 20.125 
Q 57.90625 9.515625 50.796875 4.046875 
Q 43.703125 -1.421875 29.984375 -1.421875 
Q 24.8125 -1.421875 18.96875 -0.25 
Q 13.140625 0.921875 6.890625 3.21875 
L 6.890625 13.375 
Q 12.890625 10.015625 18.65625 8.296875 
Q 24.421875 6.59375 29.984375 6.59375 
Q 38.421875 6.59375 43.015625 9.90625 
Q 47.609375 13.234375 47.609375 19.390625 
Q 47.609375 24.75 44.3125 27.78125 
Q 41.015625 30.8125 33.5 32.328125 
L 27.484375 33.5 
Q 16.453125 35.6875 11.515625 40.375 
Q 6.59375 45.0625 6.59375 53.421875 
Q 6.59375 63.09375 13.40625 68.65625 
Q 20.21875 74.21875 32.171875 74.21875 
Q 37.3125 74.21875 42.625 73.28125 
Q 47.953125 72.359375 53.515625 70.515625 
z
" id="DejaVuSans-53"/>
     <path d="M 34.28125 27.484375 
Q 23.390625 27.484375 19.1875 25 
Q 14.984375 22.515625 14.984375 16.5 
Q 14.984375 11.71875 18.140625 8.90625 
Q 21.296875 6.109375 26.703125 6.109375 
Q 34.1875 6.109375 38.703125 11.40625 
Q 43.21875 16.703125 43.21875 25.484375 
L 43.21875 27.484375 
z
M 52.203125 31.203125 
L 52.203125 0 
L 43.21875 0 
L 43.21875 8.296875 
Q 40.140625 3.328125 35.546875 0.953125 
Q 30.953125 -1.421875 24.3125 -1.421875 
Q 15.921875 -1.421875 10.953125 3.296875 
Q 6 8.015625 6 15.921875 
Q 6 25.140625 12.171875 29.828125 
Q 18.359375 34.515625 30.609375 34.515625 
L 43.21875 34.515625 
L 43.21875 35.40625 
Q 43.21875 41.609375 39.140625 45 
Q 35.0625 48.390625 27.6875 48.390625 
Q 23 48.390625 18.546875 47.265625 
Q 14.109375 46.140625 10.015625 43.890625 
L 10.015625 52.203125 
Q 14.9375 54.109375 19.578125 55.046875 
Q 24.21875 56 28.609375 56 
Q 40.484375 56 46.34375 49.84375 
Q 52.203125 43.703125 52.203125 31.203125 
z
" id="DejaVuSans-61"/>
     <path d="M 18.3125 70.21875 
L 18.3125 54.6875 
L 36.8125 54.6875 
L 36.8125 47.703125 
L 18.3125 47.703125 
L 18.3125 18.015625 
Q 18.3125 11.328125 20.140625 9.421875 
Q 21.96875 7.515625 27.59375 7.515625 
L 36.8125 7.515625 
L 36.8125 0 
L 27.59375 0 
Q 17.1875 0 13.234375 3.875 
Q 9.28125 7.765625 9.28125 18.015625 
L 9.28125 47.703125 
L 2.6875 47.703125 
L 2.6875 54.6875 
L 9.28125 54.6875 
L 9.28125 70.21875 
z
" id="DejaVuSans-74"/>
     <path d="M 8.5 21.578125 
L 8.5 54.6875 
L 17.484375 54.6875 
L 17.484375 21.921875 
Q 17.484375 14.15625 20.5 10.265625 
Q 23.53125 6.390625 29.59375 6.390625 
Q 36.859375 6.390625 41.078125 11.03125 
Q 45.3125 15.671875 45.3125 23.6875 
L 45.3125 54.6875 
L 54.296875 54.6875 
L 54.296875 0 
L 45.3125 0 
L 45.3125 8.40625 
Q 42.046875 3.421875 37.71875 1 
Q 33.40625 -1.421875 27.6875 -1.421875 
Q 18.265625 -1.421875 13.375 4.4375 
Q 8.5 10.296875 8.5 21.578125 
z
M 31.109375 56 
z
" id="DejaVuSans-75"/>
     <path d="M 41.109375 46.296875 
Q 39.59375 47.171875 37.8125 47.578125 
Q 36.03125 48 33.890625 48 
Q 26.265625 48 22.1875 43.046875 
Q 18.109375 38.09375 18.109375 28.8125 
L 18.109375 0 
L 9.078125 0 
L 9.078125 54.6875 
L 18.109375 54.6875 
L 18.109375 46.1875 
Q 20.953125 51.171875 25.484375 53.578125 
Q 30.03125 56 36.53125 56 
Q 37.453125 56 38.578125 55.875 
Q 39.703125 55.765625 41.0625 55.515625 
z
" id="DejaVuSans-72"/>
     <path d="M 9.421875 54.6875 
L 18.40625 54.6875 
L 18.40625 0 
L 9.421875 0 
z
M 9.421875 75.984375 
L 18.40625 75.984375 
L 18.40625 64.59375 
L 9.421875 64.59375 
z
" id="DejaVuSans-69"/>
     <path d="M 30.609375 48.390625 
Q 23.390625 48.390625 19.1875 42.75 
Q 14.984375 37.109375 14.984375 27.296875 
Q 14.984375 17.484375 19.15625 11.84375 
Q 23.34375 6.203125 30.609375 6.203125 
Q 37.796875 6.203125 41.984375 11.859375 
Q 46.1875 17.53125 46.1875 27.296875 
Q 46.1875 37.015625 41.984375 42.703125 
Q 37.796875 48.390625 30.609375 48.390625 
z
M 30.609375 56 
Q 42.328125 56 49.015625 48.375 
Q 55.71875 40.765625 55.71875 27.296875 
Q 55.71875 13.875 49.015625 6.21875 
Q 42.328125 -1.421875 30.609375 -1.421875 
Q 18.84375 -1.421875 12.171875 6.21875 
Q 5.515625 13.875 5.515625 27.296875 
Q 5.515625 40.765625 12.171875 48.375 
Q 18.84375 56 30.609375 56 
z
" id="DejaVuSans-6f"/>
     <path d="M 54.890625 33.015625 
L 54.890625 0 
L 45.90625 0 
L 45.90625 32.71875 
Q 45.90625 40.484375 42.875 44.328125 
Q 39.84375 48.1875 33.796875 48.1875 
Q 26.515625 48.1875 22.3125 43.546875 
Q 18.109375 38.921875 18.109375 30.90625 
L 18.109375 0 
L 9.078125 0 
L 9.078125 54.6875 
L 18.109375 54.6875 
L 18.109375 46.1875 
Q 21.34375 51.125 25.703125 53.5625 
Q 30.078125 56 35.796875 56 
Q 45.21875 56 50.046875 50.171875 
Q 54.890625 44.34375 54.890625 33.015625 
z
" id="DejaVuSans-6e"/>
     <path d="M 37.109375 75.984375 
L 37.109375 68.5 
L 28.515625 68.5 
Q 23.6875 68.5 21.796875 66.546875 
Q 19.921875 64.59375 19.921875 59.515625 
L 19.921875 54.6875 
L 34.71875 54.6875 
L 34.71875 47.703125 
L 19.921875 47.703125 
L 19.921875 0 
L 10.890625 0 
L 10.890625 47.703125 
L 2.296875 47.703125 
L 2.296875 54.6875 
L 10.890625 54.6875 
L 10.890625 58.5 
Q 10.890625 67.625 15.140625 71.796875 
Q 19.390625 75.984375 28.609375 75.984375 
z
" id="DejaVuSans-66"/>
     <path d="M 18.109375 8.203125 
L 18.109375 -20.796875 
L 9.078125 -20.796875 
L 9.078125 54.6875 
L 18.109375 54.6875 
L 18.109375 46.390625 
Q 20.953125 51.265625 25.265625 53.625 
Q 29.59375 56 35.59375 56 
Q 45.5625 56 51.78125 48.09375 
Q 58.015625 40.1875 58.015625 27.296875 
Q 58.015625 14.40625 51.78125 6.484375 
Q 45.5625 -1.421875 35.59375 -1.421875 
Q 29.59375 -1.421875 25.265625 0.953125 
Q 20.953125 3.328125 18.109375 8.203125 
z
M 48.6875 27.296875 
Q 48.6875 37.203125 44.609375 42.84375 
Q 40.53125 48.484375 33.40625 48.484375 
Q 26.265625 48.484375 22.1875 42.84375 
Q 18.109375 37.203125 18.109375 27.296875 
Q 18.109375 17.390625 22.1875 11.75 
Q 26.265625 6.109375 33.40625 6.109375 
Q 40.53125 6.109375 44.609375 11.75 
Q 48.6875 17.390625 48.6875 27.296875 
z
" id="DejaVuSans-70"/>
     <path d="M 45.40625 46.390625 
L 45.40625 75.984375 
L 54.390625 75.984375 
L 54.390625 0 
L 45.40625 0 
L 45.40625 8.203125 
Q 42.578125 3.328125 38.25 0.953125 
Q 33.9375 -1.421875 27.875 -1.421875 
Q 17.96875 -1.421875 11.734375 6.484375 
Q 5.515625 14.40625 5.515625 27.296875 
Q 5.515625 40.1875 11.734375 48.09375 
Q 17.96875 56 27.875 56 
Q 33.9375 56 38.25 53.625 
Q 42.578125 51.265625 45.40625 46.390625 
z
M 14.796875 27.296875 
Q 14.796875 17.390625 18.875 11.75 
Q 22.953125 6.109375 30.078125 6.109375 
Q 37.203125 6.109375 41.296875 11.75 
Q 45.40625 17.390625 45.40625 27.296875 
Q 45.40625 37.203125 41.296875 42.84375 
Q 37.203125 48.484375 30.078125 48.484375 
Q 22.953125 48.484375 18.875 42.84375 
Q 14.796875 37.203125 14.796875 27.296875 
z
" id="DejaVuSans-64"/>
     <path d="M 2.984375 54.6875 
L 12.5 54.6875 
L 29.59375 8.796875 
L 46.6875 54.6875 
L 56.203125 54.6875 
L 35.6875 0 
L 23.484375 0 
z
" id="DejaVuSans-76"/>
     <path d="M 56.203125 29.59375 
L 56.203125 25.203125 
L 14.890625 25.203125 
Q 15.484375 15.921875 20.484375 11.0625 
Q 25.484375 6.203125 34.421875 6.203125 
Q 39.59375 6.203125 44.453125 7.46875 
Q 49.3125 8.734375 54.109375 11.28125 
L 54.109375 2.78125 
Q 49.265625 0.734375 44.1875 -0.34375 
Q 39.109375 -1.421875 33.890625 -1.421875 
Q 20.796875 -1.421875 13.15625 6.1875 
Q 5.515625 13.8125 5.515625 26.8125 
Q 5.515625 40.234375 12.765625 48.109375 
Q 20.015625 56 32.328125 56 
Q 43.359375 56 49.78125 48.890625 
Q 56.203125 41.796875 56.203125 29.59375 
z
M 47.21875 32.234375 
Q 47.125 39.59375 43.09375 43.984375 
Q 39.0625 48.390625 32.421875 48.390625 
Q 24.90625 48.390625 20.390625 44.140625 
Q 15.875 39.890625 15.1875 32.171875 
z
" id="DejaVuSans-65"/>
     <path d="M 9.421875 75.984375 
L 18.40625 75.984375 
L 18.40625 0 
L 9.421875 0 
z
" id="DejaVuSans-6c"/>
     <path d="M 48.78125 52.59375 
L 48.78125 44.1875 
Q 44.96875 46.296875 41.140625 47.34375 
Q 37.3125 48.390625 33.40625 48.390625 
Q 24.65625 48.390625 19.8125 42.84375 
Q 14.984375 37.3125 14.984375 27.296875 
Q 14.984375 17.28125 19.8125 11.734375 
Q 24.65625 6.203125 33.40625 6.203125 
Q 37.3125 6.203125 41.140625 7.25 
Q 44.96875 8.296875 48.78125 10.40625 
L 48.78125 2.09375 
Q 45.015625 0.34375 40.984375 -0.53125 
Q 36.96875 -1.421875 32.421875 -1.421875 
Q 20.0625 -1.421875 12.78125 6.34375 
Q 5.515625 14.109375 5.515625 27.296875 
Q 5.515625 40.671875 12.859375 48.328125 
Q 20.21875 56 33.015625 56 
Q 37.15625 56 41.109375 55.140625 
Q 45.0625 54.296875 48.78125 52.59375 
z
" id="DejaVuSans-63"/>
     <path d="M 32.171875 -5.078125 
Q 28.375 -14.84375 24.75 -17.8125 
Q 21.140625 -20.796875 15.09375 -20.796875 
L 7.90625 -20.796875 
L 7.90625 -13.28125 
L 13.1875 -13.28125 
Q 16.890625 -13.28125 18.9375 -11.515625 
Q 21 -9.765625 23.484375 -3.21875 
L 25.09375 0.875 
L 2.984375 54.6875 
L 12.5 54.6875 
L 29.59375 11.921875 
L 46.6875 54.6875 
L 56.203125 54.6875 
z
" id="DejaVuSans-79"/>
     <path d="M 10.59375 45.40625 
L 73.1875 45.40625 
L 73.1875 37.203125 
L 10.59375 37.203125 
z
M 10.59375 25.484375 
L 73.1875 25.484375 
L 73.1875 17.1875 
L 10.59375 17.1875 
z
" id="DejaVuSans-3d"/>
     <path d="M 25.390625 72.90625 
L 33.6875 72.90625 
L 8.296875 -9.28125 
L 0 -9.28125 
z
" id="DejaVuSans-2f"/>
     <path d="M 44.28125 53.078125 
L 44.28125 44.578125 
Q 40.484375 46.53125 36.375 47.5 
Q 32.28125 48.484375 27.875 48.484375 
Q 21.1875 48.484375 17.84375 46.4375 
Q 14.5 44.390625 14.5 40.28125 
Q 14.5 37.15625 16.890625 35.375 
Q 19.28125 33.59375 26.515625 31.984375 
L 29.59375 31.296875 
Q 39.15625 29.25 43.1875 25.515625 
Q 47.21875 21.78125 47.21875 15.09375 
Q 47.21875 7.46875 41.1875 3.015625 
Q 35.15625 -1.421875 24.609375 -1.421875 
Q 20.21875 -1.421875 15.453125 -0.5625 
Q 10.6875 0.296875 5.421875 2 
L 5.421875 11.28125 
Q 10.40625 8.6875 15.234375 7.390625 
Q 20.0625 6.109375 24.8125 6.109375 
Q 31.15625 6.109375 34.5625 8.28125 
Q 37.984375 10.453125 37.984375 14.40625 
Q 37.984375 18.0625 35.515625 20.015625 
Q 33.0625 21.96875 24.703125 23.78125 
L 21.578125 24.515625 
Q 13.234375 26.265625 9.515625 29.90625 
Q 5.8125 33.546875 5.8125 39.890625 
Q 5.8125 47.609375 11.28125 51.796875 
Q 16.75 56 26.8125 56 
Q 31.78125 56 36.171875 55.265625 
Q 40.578125 54.546875 44.28125 53.078125 
z
" id="DejaVuSans-73"/>
    </defs>
    <g transform="translate(385.915347 106.32)scale(0.216 -0.216)">
     <use xlink:href="#DejaVuSans-53"/>
     <use x="63.476562" xlink:href="#DejaVuSans-61"/>
     <use x="124.755859" xlink:href="#DejaVuSans-74"/>
     <use x="163.964844" xlink:href="#DejaVuSans-75"/>
     <use x="227.34375" xlink:href="#DejaVuSans-72"/>
     <use x="268.457031" xlink:href="#DejaVuSans-61"/>
     <use x="329.736328" xlink:href="#DejaVuSans-74"/>
     <use x="368.945312" xlink:href="#DejaVuSans-69"/>
     <use x="396.728516" xlink:href="#DejaVuSans-6f"/>
     <use x="457.910156" xlink:href="#DejaVuSans-6e"/>
     <use x="521.289062" xlink:href="#DejaVuSans-20"/>
     <use x="553.076172" xlink:href="#DejaVuSans-66"/>
     <use x="588.28125" xlink:href="#DejaVuSans-6f"/>
     <use x="649.462891" xlink:href="#DejaVuSans-72"/>
     <use x="690.576172" xlink:href="#DejaVuSans-20"/>
     <use x="722.363281" xlink:href="#DejaVuSans-75"/>
     <use x="785.742188" xlink:href="#DejaVuSans-70"/>
     <use x="849.21875" xlink:href="#DejaVuSans-64"/>
     <use x="912.695312" xlink:href="#DejaVuSans-72"/>
     <use x="953.808594" xlink:href="#DejaVuSans-61"/>
     <use x="1015.087891" xlink:href="#DejaVuSans-66"/>
     <use x="1050.277344" xlink:href="#DejaVuSans-74"/>
     <use x="1089.486328" xlink:href="#DejaVuSans-20"/>
     <use x="1121.273438" xlink:href="#DejaVuSans-76"/>
     <use x="1180.453125" xlink:href="#DejaVuSans-65"/>
     <use x="1241.976562" xlink:href="#DejaVuSans-6c"/>
     <use x="1269.759766" xlink:href="#DejaVuSans-6f"/>
     <use x="1330.941406" xlink:href="#DejaVuSans-63"/>
     <use x="1385.921875" xlink:href="#DejaVuSans-69"/>
     <use x="1413.705078" xlink:href="#DejaVuSans-74"/>
     <use x="1452.914062" xlink:href="#DejaVuSans-79"/>
     <use x="1512.09375" xlink:href="#DejaVuSans-3d"/>
     <use x="1595.882812" xlink:href="#DejaVuSans-20"/>
     <use x="1627.669922" xlink:href="#DejaVuSans-30"/>
     <use x="1691.292969" xlink:href="#DejaVuSans-2e"/>
     <use x="1723.080078" xlink:href="#DejaVuSans-31"/>
     <use x="1786.703125" xlink:href="#DejaVuSans-5b"/>
     <use x="1825.716797" xlink:href="#DejaVuSans-6d"/>
     <use x="1923.128906" xlink:href="#DejaVuSans-2f"/>
     <use x="1956.820312" xlink:href="#DejaVuSans-73"/>
     <use x="2008.919922" xlink:href="#DejaVuSans-5d"/>
    </g>
   </g>
   <g id="legend_1">
    <g id="patch_7">
     <path d="M 264.6 285.24375 
L 486.63 285.24375 
Q 490.23 285.24375 490.23 281.64375 
L 490.23 124.92 
Q 490.23 121.32 486.63 121.32 
L 264.6 121.32 
Q 261 121.32 261 124.92 
L 261 281.64375 
Q 261 285.24375 264.6 285.24375 
z
" style="fill:#ffffff;opacity:0.8;stroke:#cccccc;stroke-linejoin:miter;"/>
    </g>
    <g id="text_18">
     <!-- Condensation time step -->
     <defs>
      <path d="M 64.40625 67.28125 
L 64.40625 56.890625 
Q 59.421875 61.53125 53.78125 63.8125 
Q 48.140625 66.109375 41.796875 66.109375 
Q 29.296875 66.109375 22.65625 58.46875 
Q 16.015625 50.828125 16.015625 36.375 
Q 16.015625 21.96875 22.65625 14.328125 
Q 29.296875 6.6875 41.796875 6.6875 
Q 48.140625 6.6875 53.78125 8.984375 
Q 59.421875 11.28125 64.40625 15.921875 
L 64.40625 5.609375 
Q 59.234375 2.09375 53.4375 0.328125 
Q 47.65625 -1.421875 41.21875 -1.421875 
Q 24.65625 -1.421875 15.125 8.703125 
Q 5.609375 18.84375 5.609375 36.375 
Q 5.609375 53.953125 15.125 64.078125 
Q 24.65625 74.21875 41.21875 74.21875 
Q 47.75 74.21875 53.53125 72.484375 
Q 59.328125 70.75 64.40625 67.28125 
z
" id="DejaVuSans-43"/>
     </defs>
     <g transform="translate(268.2 142.197188)scale(0.18 -0.18)">
      <use xlink:href="#DejaVuSans-43"/>
      <use x="69.824219" xlink:href="#DejaVuSans-6f"/>
      <use x="131.005859" xlink:href="#DejaVuSans-6e"/>
      <use x="194.384766" xlink:href="#DejaVuSans-64"/>
      <use x="257.861328" xlink:href="#DejaVuSans-65"/>
      <use x="319.384766" xlink:href="#DejaVuSans-6e"/>
      <use x="382.763672" xlink:href="#DejaVuSans-73"/>
      <use x="434.863281" xlink:href="#DejaVuSans-61"/>
      <use x="496.142578" xlink:href="#DejaVuSans-74"/>
      <use x="535.351562" xlink:href="#DejaVuSans-69"/>
      <use x="563.134766" xlink:href="#DejaVuSans-6f"/>
      <use x="624.316406" xlink:href="#DejaVuSans-6e"/>
      <use x="687.695312" xlink:href="#DejaVuSans-20"/>
      <use x="719.482422" xlink:href="#DejaVuSans-74"/>
      <use x="758.691406" xlink:href="#DejaVuSans-69"/>
      <use x="786.474609" xlink:href="#DejaVuSans-6d"/>
      <use x="883.886719" xlink:href="#DejaVuSans-65"/>
      <use x="945.410156" xlink:href="#DejaVuSans-20"/>
      <use x="977.197266" xlink:href="#DejaVuSans-73"/>
      <use x="1029.296875" xlink:href="#DejaVuSans-74"/>
      <use x="1068.505859" xlink:href="#DejaVuSans-65"/>
      <use x="1130.029297" xlink:href="#DejaVuSans-70"/>
     </g>
    </g>
    <g id="line2d_39">
     <path d="M 330.204375 162.317813 
L 366.204375 162.317813 
" style="fill:none;stroke:#1f77b4;stroke-linecap:square;stroke-width:1.5;"/>
    </g>
    <g id="line2d_40"/>
    <g id="text_19">
     <!-- 1/1 -->
     <g transform="translate(380.604375 168.617813)scale(0.18 -0.18)">
      <use xlink:href="#DejaVuSans-31"/>
      <use x="63.623047" xlink:href="#DejaVuSans-2f"/>
      <use x="97.314453" xlink:href="#DejaVuSans-31"/>
     </g>
    </g>
    <g id="line2d_41">
     <path d="M 330.204375 188.738438 
L 366.204375 188.738438 
" style="fill:none;stroke:#2ca02c;stroke-linecap:square;stroke-width:1.5;"/>
    </g>
    <g id="line2d_42"/>
    <g id="text_20">
     <!-- 1/2 -->
     <g transform="translate(380.604375 195.038438)scale(0.18 -0.18)">
      <use xlink:href="#DejaVuSans-31"/>
      <use x="63.623047" xlink:href="#DejaVuSans-2f"/>
      <use x="97.314453" xlink:href="#DejaVuSans-32"/>
     </g>
    </g>
    <g id="line2d_43">
     <path d="M 330.204375 215.159063 
L 366.204375 215.159063 
" style="fill:none;stroke:#9467bd;stroke-linecap:square;stroke-width:1.5;"/>
    </g>
    <g id="line2d_44"/>
    <g id="text_21">
     <!-- 1/5 -->
     <g transform="translate(380.604375 221.459063)scale(0.18 -0.18)">
      <use xlink:href="#DejaVuSans-31"/>
      <use x="63.623047" xlink:href="#DejaVuSans-2f"/>
      <use x="97.314453" xlink:href="#DejaVuSans-35"/>
     </g>
    </g>
    <g id="line2d_45">
     <path d="M 330.204375 241.579688 
L 366.204375 241.579688 
" style="fill:none;stroke:#e377c2;stroke-linecap:square;stroke-width:1.5;"/>
    </g>
    <g id="line2d_46"/>
    <g id="text_22">
     <!-- 1/10 -->
     <g transform="translate(380.604375 247.879688)scale(0.18 -0.18)">
      <use xlink:href="#DejaVuSans-31"/>
      <use x="63.623047" xlink:href="#DejaVuSans-2f"/>
      <use x="97.314453" xlink:href="#DejaVuSans-31"/>
      <use x="160.9375" xlink:href="#DejaVuSans-30"/>
     </g>
    </g>
    <g id="line2d_47">
     <path d="M 330.204375 268.000313 
L 366.204375 268.000313 
" style="fill:none;stroke:#bcbd22;stroke-linecap:square;stroke-width:1.5;"/>
    </g>
    <g id="line2d_48"/>
    <g id="text_23">
     <!-- 1/20 -->
     <g transform="translate(380.604375 274.300313)scale(0.18 -0.18)">
      <use xlink:href="#DejaVuSans-31"/>
      <use x="63.623047" xlink:href="#DejaVuSans-2f"/>
      <use x="97.314453" xlink:href="#DejaVuSans-32"/>
      <use x="160.9375" xlink:href="#DejaVuSans-30"/>
     </g>
    </g>
   </g>
  </g>
  <g id="axes_2">
   <g id="patch_8">
    <path d="M 1104.218182 833.04 
L 1814.4 833.04 
L 1814.4 112.32 
L 1104.218182 112.32 
z
" style="fill:#ffffff;"/>
   </g>
   <g id="matplotlib.axis_3">
    <g id="xtick_6">
     <g id="line2d_49">
      <path clip-path="url(#p71ddb446d9)" d="M 1207.700218 833.04 
L 1207.700218 112.32 
" style="fill:none;stroke:#b0b0b0;stroke-linecap:square;stroke-width:0.8;"/>
     </g>
     <g id="line2d_50">
      <g>
       <use style="stroke:#000000;stroke-width:0.8;" x="1207.700218" xlink:href="#m9e6de1c5da" y="833.04"/>
      </g>
     </g>
     <g id="text_24">
      <!-- 0.5 -->
      <g transform="translate(1193.387405 853.717188)scale(0.18 -0.18)">
       <use xlink:href="#DejaVuSans-30"/>
       <use x="63.623047" xlink:href="#DejaVuSans-2e"/>
       <use x="95.410156" xlink:href="#DejaVuSans-35"/>
      </g>
     </g>
    </g>
    <g id="xtick_7">
     <g id="line2d_51">
      <path clip-path="url(#p71ddb446d9)" d="M 1357.62998 833.04 
L 1357.62998 112.32 
" style="fill:none;stroke:#b0b0b0;stroke-linecap:square;stroke-width:0.8;"/>
     </g>
     <g id="line2d_52">
      <g>
       <use style="stroke:#000000;stroke-width:0.8;" x="1357.62998" xlink:href="#m9e6de1c5da" y="833.04"/>
      </g>
     </g>
     <g id="text_25">
      <!-- 1.0 -->
      <g transform="translate(1343.317167 853.717188)scale(0.18 -0.18)">
       <use xlink:href="#DejaVuSans-31"/>
       <use x="63.623047" xlink:href="#DejaVuSans-2e"/>
       <use x="95.410156" xlink:href="#DejaVuSans-30"/>
      </g>
     </g>
    </g>
    <g id="xtick_8">
     <g id="line2d_53">
      <path clip-path="url(#p71ddb446d9)" d="M 1507.559742 833.04 
L 1507.559742 112.32 
" style="fill:none;stroke:#b0b0b0;stroke-linecap:square;stroke-width:0.8;"/>
     </g>
     <g id="line2d_54">
      <g>
       <use style="stroke:#000000;stroke-width:0.8;" x="1507.559742" xlink:href="#m9e6de1c5da" y="833.04"/>
      </g>
     </g>
     <g id="text_26">
      <!-- 1.5 -->
      <g transform="translate(1493.246929 853.717188)scale(0.18 -0.18)">
       <use xlink:href="#DejaVuSans-31"/>
       <use x="63.623047" xlink:href="#DejaVuSans-2e"/>
       <use x="95.410156" xlink:href="#DejaVuSans-35"/>
      </g>
     </g>
    </g>
    <g id="xtick_9">
     <g id="line2d_55">
      <path clip-path="url(#p71ddb446d9)" d="M 1657.489504 833.04 
L 1657.489504 112.32 
" style="fill:none;stroke:#b0b0b0;stroke-linecap:square;stroke-width:0.8;"/>
     </g>
     <g id="line2d_56">
      <g>
       <use style="stroke:#000000;stroke-width:0.8;" x="1657.489504" xlink:href="#m9e6de1c5da" y="833.04"/>
      </g>
     </g>
     <g id="text_27">
      <!-- 2.0 -->
      <g transform="translate(1643.176691 853.717188)scale(0.18 -0.18)">
       <use xlink:href="#DejaVuSans-32"/>
       <use x="63.623047" xlink:href="#DejaVuSans-2e"/>
       <use x="95.410156" xlink:href="#DejaVuSans-30"/>
      </g>
     </g>
    </g>
    <g id="xtick_10">
     <g id="line2d_57">
      <path clip-path="url(#p71ddb446d9)" d="M 1807.419266 833.04 
L 1807.419266 112.32 
" style="fill:none;stroke:#b0b0b0;stroke-linecap:square;stroke-width:0.8;"/>
     </g>
     <g id="line2d_58">
      <g>
       <use style="stroke:#000000;stroke-width:0.8;" x="1807.419266" xlink:href="#m9e6de1c5da" y="833.04"/>
      </g>
     </g>
     <g id="text_28">
      <!-- 2.5 -->
      <g transform="translate(1793.106453 853.717188)scale(0.18 -0.18)">
       <use xlink:href="#DejaVuSans-32"/>
       <use x="63.623047" xlink:href="#DejaVuSans-2e"/>
       <use x="95.410156" xlink:href="#DejaVuSans-35"/>
      </g>
     </g>
    </g>
    <g id="text_29">
     <!-- Moment 0 -->
     <defs>
      <path d="M 9.8125 72.90625 
L 24.515625 72.90625 
L 43.109375 23.296875 
L 61.8125 72.90625 
L 76.515625 72.90625 
L 76.515625 0 
L 66.890625 0 
L 66.890625 64.015625 
L 48.09375 14.015625 
L 38.1875 14.015625 
L 19.390625 64.015625 
L 19.390625 0 
L 9.8125 0 
z
" id="DejaVuSans-4d"/>
     </defs>
     <g transform="translate(1413.913935 875.137812)scale(0.18 -0.18)">
      <use xlink:href="#DejaVuSans-4d"/>
      <use x="86.279297" xlink:href="#DejaVuSans-6f"/>
      <use x="147.460938" xlink:href="#DejaVuSans-6d"/>
      <use x="244.873047" xlink:href="#DejaVuSans-65"/>
      <use x="306.396484" xlink:href="#DejaVuSans-6e"/>
      <use x="369.775391" xlink:href="#DejaVuSans-74"/>
      <use x="408.984375" xlink:href="#DejaVuSans-20"/>
      <use x="440.771484" xlink:href="#DejaVuSans-30"/>
     </g>
    </g>
    <g id="text_30">
     <!-- 1e7 -->
     <g transform="translate(1780.419375 874.137812)scale(0.18 -0.18)">
      <use xlink:href="#DejaVuSans-31"/>
      <use x="63.623047" xlink:href="#DejaVuSans-65"/>
      <use x="125.146484" xlink:href="#DejaVuSans-37"/>
     </g>
    </g>
   </g>
   <g id="matplotlib.axis_4">
    <g id="ytick_10">
     <g id="line2d_59">
      <path clip-path="url(#p71ddb446d9)" d="M 1104.218182 800.28 
L 1814.4 800.28 
" style="fill:none;stroke:#b0b0b0;stroke-linecap:square;stroke-width:0.8;"/>
     </g>
     <g id="line2d_60">
      <g>
       <use style="stroke:#000000;stroke-width:0.8;" x="1104.218182" xlink:href="#md533c6172a" y="800.28"/>
      </g>
     </g>
     <g id="text_31">
      <!-- 0 -->
      <g transform="translate(1085.765682 807.118594)scale(0.18 -0.18)">
       <use xlink:href="#DejaVuSans-30"/>
      </g>
     </g>
    </g>
    <g id="ytick_11">
     <g id="line2d_61">
      <path clip-path="url(#p71ddb446d9)" d="M 1104.218182 718.38 
L 1814.4 718.38 
" style="fill:none;stroke:#b0b0b0;stroke-linecap:square;stroke-width:0.8;"/>
     </g>
     <g id="line2d_62">
      <g>
       <use style="stroke:#000000;stroke-width:0.8;" x="1104.218182" xlink:href="#md533c6172a" y="718.38"/>
      </g>
     </g>
     <g id="text_32">
      <!-- 25 -->
      <g transform="translate(1074.313182 725.218594)scale(0.18 -0.18)">
       <use xlink:href="#DejaVuSans-32"/>
       <use x="63.623047" xlink:href="#DejaVuSans-35"/>
      </g>
     </g>
    </g>
    <g id="ytick_12">
     <g id="line2d_63">
      <path clip-path="url(#p71ddb446d9)" d="M 1104.218182 636.48 
L 1814.4 636.48 
" style="fill:none;stroke:#b0b0b0;stroke-linecap:square;stroke-width:0.8;"/>
     </g>
     <g id="line2d_64">
      <g>
       <use style="stroke:#000000;stroke-width:0.8;" x="1104.218182" xlink:href="#md533c6172a" y="636.48"/>
      </g>
     </g>
     <g id="text_33">
      <!-- 50 -->
      <g transform="translate(1074.313182 643.318594)scale(0.18 -0.18)">
       <use xlink:href="#DejaVuSans-35"/>
       <use x="63.623047" xlink:href="#DejaVuSans-30"/>
      </g>
     </g>
    </g>
    <g id="ytick_13">
     <g id="line2d_65">
      <path clip-path="url(#p71ddb446d9)" d="M 1104.218182 554.58 
L 1814.4 554.58 
" style="fill:none;stroke:#b0b0b0;stroke-linecap:square;stroke-width:0.8;"/>
     </g>
     <g id="line2d_66">
      <g>
       <use style="stroke:#000000;stroke-width:0.8;" x="1104.218182" xlink:href="#md533c6172a" y="554.58"/>
      </g>
     </g>
     <g id="text_34">
      <!-- 75 -->
      <g transform="translate(1074.313182 561.418594)scale(0.18 -0.18)">
       <use xlink:href="#DejaVuSans-37"/>
       <use x="63.623047" xlink:href="#DejaVuSans-35"/>
      </g>
     </g>
    </g>
    <g id="ytick_14">
     <g id="line2d_67">
      <path clip-path="url(#p71ddb446d9)" d="M 1104.218182 472.68 
L 1814.4 472.68 
" style="fill:none;stroke:#b0b0b0;stroke-linecap:square;stroke-width:0.8;"/>
     </g>
     <g id="line2d_68">
      <g>
       <use style="stroke:#000000;stroke-width:0.8;" x="1104.218182" xlink:href="#md533c6172a" y="472.68"/>
      </g>
     </g>
     <g id="text_35">
      <!-- 100 -->
      <g transform="translate(1062.860682 479.518594)scale(0.18 -0.18)">
       <use xlink:href="#DejaVuSans-31"/>
       <use x="63.623047" xlink:href="#DejaVuSans-30"/>
       <use x="127.246094" xlink:href="#DejaVuSans-30"/>
      </g>
     </g>
    </g>
    <g id="ytick_15">
     <g id="line2d_69">
      <path clip-path="url(#p71ddb446d9)" d="M 1104.218182 390.78 
L 1814.4 390.78 
" style="fill:none;stroke:#b0b0b0;stroke-linecap:square;stroke-width:0.8;"/>
     </g>
     <g id="line2d_70">
      <g>
       <use style="stroke:#000000;stroke-width:0.8;" x="1104.218182" xlink:href="#md533c6172a" y="390.78"/>
      </g>
     </g>
     <g id="text_36">
      <!-- 125 -->
      <g transform="translate(1062.860682 397.618594)scale(0.18 -0.18)">
       <use xlink:href="#DejaVuSans-31"/>
       <use x="63.623047" xlink:href="#DejaVuSans-32"/>
       <use x="127.246094" xlink:href="#DejaVuSans-35"/>
      </g>
     </g>
    </g>
    <g id="ytick_16">
     <g id="line2d_71">
      <path clip-path="url(#p71ddb446d9)" d="M 1104.218182 308.88 
L 1814.4 308.88 
" style="fill:none;stroke:#b0b0b0;stroke-linecap:square;stroke-width:0.8;"/>
     </g>
     <g id="line2d_72">
      <g>
       <use style="stroke:#000000;stroke-width:0.8;" x="1104.218182" xlink:href="#md533c6172a" y="308.88"/>
      </g>
     </g>
     <g id="text_37">
      <!-- 150 -->
      <g transform="translate(1062.860682 315.718594)scale(0.18 -0.18)">
       <use xlink:href="#DejaVuSans-31"/>
       <use x="63.623047" xlink:href="#DejaVuSans-35"/>
       <use x="127.246094" xlink:href="#DejaVuSans-30"/>
      </g>
     </g>
    </g>
    <g id="ytick_17">
     <g id="line2d_73">
      <path clip-path="url(#p71ddb446d9)" d="M 1104.218182 226.98 
L 1814.4 226.98 
" style="fill:none;stroke:#b0b0b0;stroke-linecap:square;stroke-width:0.8;"/>
     </g>
     <g id="line2d_74">
      <g>
       <use style="stroke:#000000;stroke-width:0.8;" x="1104.218182" xlink:href="#md533c6172a" y="226.98"/>
      </g>
     </g>
     <g id="text_38">
      <!-- 175 -->
      <g transform="translate(1062.860682 233.818594)scale(0.18 -0.18)">
       <use xlink:href="#DejaVuSans-31"/>
       <use x="63.623047" xlink:href="#DejaVuSans-37"/>
       <use x="127.246094" xlink:href="#DejaVuSans-35"/>
      </g>
     </g>
    </g>
    <g id="ytick_18">
     <g id="line2d_75">
      <path clip-path="url(#p71ddb446d9)" d="M 1104.218182 145.08 
L 1814.4 145.08 
" style="fill:none;stroke:#b0b0b0;stroke-linecap:square;stroke-width:0.8;"/>
     </g>
     <g id="line2d_76">
      <g>
       <use style="stroke:#000000;stroke-width:0.8;" x="1104.218182" xlink:href="#md533c6172a" y="145.08"/>
      </g>
     </g>
     <g id="text_39">
      <!-- 200 -->
      <g transform="translate(1062.860682 151.918594)scale(0.18 -0.18)">
       <use xlink:href="#DejaVuSans-32"/>
       <use x="63.623047" xlink:href="#DejaVuSans-30"/>
       <use x="127.246094" xlink:href="#DejaVuSans-30"/>
      </g>
     </g>
    </g>
    <g id="text_40">
     <!-- Z [m]] -->
     <g transform="translate(1055.117244 501.006094)rotate(-90)scale(0.18 -0.18)">
      <use xlink:href="#DejaVuSans-5a"/>
      <use x="68.505859" xlink:href="#DejaVuSans-20"/>
      <use x="100.292969" xlink:href="#DejaVuSans-5b"/>
      <use x="139.306641" xlink:href="#DejaVuSans-6d"/>
      <use x="236.71875" xlink:href="#DejaVuSans-5d"/>
      <use x="275.732422" xlink:href="#DejaVuSans-5d"/>
     </g>
    </g>
   </g>
   <g id="line2d_77">
    <path clip-path="url(#p71ddb446d9)" d="M 1136.499174 800.28 
L 1200.938715 797.004 
L 1204.965139 790.452 
L 1207.116151 787.176 
L 1209.529361 783.9 
L 1211.696026 780.624 
L 1216.691236 774.072 
L 1219.135781 770.796 
L 1224.43136 764.244 
L 1233.260214 754.416 
L 1239.772713 747.864 
L 1246.939265 741.312 
L 1250.583728 738.036 
L 1258.500439 731.484 
L 1262.763692 728.208 
L 1267.265213 724.932 
L 1276.822186 718.38 
L 1287.588043 711.828 
L 1299.534116 705.276 
L 1313.014481 698.724 
L 1320.447789 695.448 
L 1328.384501 692.172 
L 1336.81628 688.896 
L 1345.887541 685.62 
L 1355.821467 682.344 
L 1366.261136 679.068 
L 1377.568599 675.792 
L 1389.808115 672.516 
L 1404.701778 669.24 
L 1431.590002 665.964 
L 1496.355851 662.688 
L 1715.668459 656.136 
L 1771.156684 652.86 
L 1782.119008 649.584 
L 1782.119008 145.08 
L 1782.119008 145.08 
" style="fill:none;stroke:#1f77b4;stroke-linecap:square;stroke-width:1.5;"/>
   </g>
   <g id="line2d_78">
    <path clip-path="url(#p71ddb446d9)" d="M 1136.499174 800.28 
L 1200.938715 797.004 
L 1204.965139 790.452 
L 1207.116151 787.176 
L 1211.696026 780.624 
L 1216.691236 774.072 
L 1219.135781 770.796 
L 1224.43136 764.244 
L 1233.260214 754.416 
L 1239.772713 747.864 
L 1246.939265 741.312 
L 1250.583728 738.036 
L 1258.500439 731.484 
L 1262.763692 728.208 
L 1267.265213 724.932 
L 1276.822186 718.38 
L 1287.588043 711.828 
L 1299.534116 705.276 
L 1313.014481 698.724 
L 1320.447789 695.448 
L 1328.384501 692.172 
L 1336.81628 688.896 
L 1345.887541 685.62 
L 1355.733068 682.344 
L 1366.181044 679.068 
L 1377.497592 675.792 
L 1389.680195 672.516 
L 1404.411694 669.24 
L 1430.564182 665.964 
L 1492.303429 662.688 
L 1706.076612 656.136 
L 1766.83097 652.86 
L 1779.909613 649.584 
L 1781.013006 646.308 
L 1781.013006 145.08 
L 1781.013006 145.08 
" style="fill:none;stroke:#ff7f0e;stroke-linecap:square;stroke-width:1.5;"/>
   </g>
   <g id="line2d_79">
    <path clip-path="url(#p71ddb446d9)" d="M 1136.499174 800.28 
L 1200.938715 797.004 
L 1204.965139 790.452 
L 1207.116151 787.176 
L 1211.696026 780.624 
L 1216.691236 774.072 
L 1219.135781 770.796 
L 1224.43136 764.244 
L 1233.260214 754.416 
L 1239.772713 747.864 
L 1246.939265 741.312 
L 1250.583728 738.036 
L 1258.500439 731.484 
L 1262.763692 728.208 
L 1267.265213 724.932 
L 1276.822186 718.38 
L 1287.588043 711.828 
L 1299.534116 705.276 
L 1306.060379 702 
L 1313.014481 698.724 
L 1320.447789 695.448 
L 1328.384501 692.172 
L 1336.81628 688.896 
L 1345.887541 685.62 
L 1355.733068 682.344 
L 1366.181044 679.068 
L 1377.497592 675.792 
L 1389.680195 672.516 
L 1404.267341 669.24 
L 1429.846378 665.964 
L 1489.802361 662.688 
L 1593.285292 659.412 
L 1700.42366 656.136 
L 1762.54064 652.86 
L 1778.808049 649.584 
L 1779.909613 646.308 
L 1779.909613 145.08 
L 1779.909613 145.08 
" style="fill:none;stroke:#2ca02c;stroke-linecap:square;stroke-width:1.5;"/>
   </g>
   <g id="line2d_80">
    <path clip-path="url(#p71ddb446d9)" d="M 1136.499174 800.28 
L 1200.938715 797.004 
L 1204.965139 790.452 
L 1207.116151 787.176 
L 1211.696026 780.624 
L 1216.691236 774.072 
L 1219.135781 770.796 
L 1224.43136 764.244 
L 1233.260214 754.416 
L 1239.772713 747.864 
L 1246.939265 741.312 
L 1250.583728 738.036 
L 1258.500439 731.484 
L 1262.763692 728.208 
L 1267.265213 724.932 
L 1276.822186 718.38 
L 1287.588043 711.828 
L 1299.534116 705.276 
L 1306.060379 702 
L 1313.014481 698.724 
L 1320.447789 695.448 
L 1328.384501 692.172 
L 1336.81628 688.896 
L 1345.887541 685.62 
L 1355.733068 682.344 
L 1366.181044 679.068 
L 1377.497592 675.792 
L 1389.680195 672.516 
L 1404.267341 669.24 
L 1429.704185 665.964 
L 1489.097751 662.688 
L 1591.949208 659.412 
L 1698.554786 656.136 
L 1761.47317 652.86 
L 1778.808049 649.584 
L 1778.808049 145.08 
L 1778.808049 145.08 
" style="fill:none;stroke:#d62728;stroke-linecap:square;stroke-width:1.5;"/>
   </g>
   <g id="line2d_81">
    <path clip-path="url(#p71ddb446d9)" d="M 1136.499174 800.28 
L 1200.938715 797.004 
L 1204.965139 790.452 
L 1207.116151 787.176 
L 1211.696026 780.624 
L 1216.691236 774.072 
L 1219.135781 770.796 
L 1224.43136 764.244 
L 1233.260214 754.416 
L 1239.772713 747.864 
L 1246.939265 741.312 
L 1250.583728 738.036 
L 1258.500439 731.484 
L 1262.763692 728.208 
L 1267.265213 724.932 
L 1276.822186 718.38 
L 1287.588043 711.828 
L 1299.534116 705.276 
L 1306.060379 702 
L 1313.014481 698.724 
L 1320.447789 695.448 
L 1328.384501 692.172 
L 1336.81628 688.896 
L 1345.887541 685.62 
L 1355.733068 682.344 
L 1366.181044 679.068 
L 1377.497592 675.792 
L 1389.616205 672.516 
L 1404.195345 669.24 
L 1429.562411 665.964 
L 1488.747395 662.688 
L 1591.284899 659.412 
L 1698.554786 656.136 
L 1760.4072 652.86 
L 1777.708734 649.584 
L 1778.808049 646.308 
L 1778.808049 145.08 
L 1778.808049 145.08 
" style="fill:none;stroke:#9467bd;stroke-linecap:square;stroke-width:1.5;"/>
   </g>
   <g id="patch_9">
    <path d="M 1104.218182 833.04 
L 1104.218182 112.32 
" style="fill:none;stroke:#000000;stroke-linecap:square;stroke-linejoin:miter;stroke-width:0.8;"/>
   </g>
   <g id="patch_10">
    <path d="M 1814.4 833.04 
L 1814.4 112.32 
" style="fill:none;stroke:#000000;stroke-linecap:square;stroke-linejoin:miter;stroke-width:0.8;"/>
   </g>
   <g id="patch_11">
    <path d="M 1104.218182 833.04 
L 1814.4 833.04 
" style="fill:none;stroke:#000000;stroke-linecap:square;stroke-linejoin:miter;stroke-width:0.8;"/>
   </g>
   <g id="patch_12">
    <path d="M 1104.218182 112.32 
L 1814.4 112.32 
" style="fill:none;stroke:#000000;stroke-linecap:square;stroke-linejoin:miter;stroke-width:0.8;"/>
   </g>
   <g id="text_41">
    <!-- 0 moment for updraft velocity= 0.1[m/s] -->
    <g transform="translate(1238.756216 106.32)scale(0.216 -0.216)">
     <use xlink:href="#DejaVuSans-30"/>
     <use x="63.623047" xlink:href="#DejaVuSans-20"/>
     <use x="95.410156" xlink:href="#DejaVuSans-6d"/>
     <use x="192.822266" xlink:href="#DejaVuSans-6f"/>
     <use x="254.003906" xlink:href="#DejaVuSans-6d"/>
     <use x="351.416016" xlink:href="#DejaVuSans-65"/>
     <use x="412.939453" xlink:href="#DejaVuSans-6e"/>
     <use x="476.318359" xlink:href="#DejaVuSans-74"/>
     <use x="515.527344" xlink:href="#DejaVuSans-20"/>
     <use x="547.314453" xlink:href="#DejaVuSans-66"/>
     <use x="582.519531" xlink:href="#DejaVuSans-6f"/>
     <use x="643.701172" xlink:href="#DejaVuSans-72"/>
     <use x="684.814453" xlink:href="#DejaVuSans-20"/>
     <use x="716.601562" xlink:href="#DejaVuSans-75"/>
     <use x="779.980469" xlink:href="#DejaVuSans-70"/>
     <use x="843.457031" xlink:href="#DejaVuSans-64"/>
     <use x="906.933594" xlink:href="#DejaVuSans-72"/>
     <use x="948.046875" xlink:href="#DejaVuSans-61"/>
     <use x="1009.326172" xlink:href="#DejaVuSans-66"/>
     <use x="1044.515625" xlink:href="#DejaVuSans-74"/>
     <use x="1083.724609" xlink:href="#DejaVuSans-20"/>
     <use x="1115.511719" xlink:href="#DejaVuSans-76"/>
     <use x="1174.691406" xlink:href="#DejaVuSans-65"/>
     <use x="1236.214844" xlink:href="#DejaVuSans-6c"/>
     <use x="1263.998047" xlink:href="#DejaVuSans-6f"/>
     <use x="1325.179688" xlink:href="#DejaVuSans-63"/>
     <use x="1380.160156" xlink:href="#DejaVuSans-69"/>
     <use x="1407.943359" xlink:href="#DejaVuSans-74"/>
     <use x="1447.152344" xlink:href="#DejaVuSans-79"/>
     <use x="1506.332031" xlink:href="#DejaVuSans-3d"/>
     <use x="1590.121094" xlink:href="#DejaVuSans-20"/>
     <use x="1621.908203" xlink:href="#DejaVuSans-30"/>
     <use x="1685.53125" xlink:href="#DejaVuSans-2e"/>
     <use x="1717.318359" xlink:href="#DejaVuSans-31"/>
     <use x="1780.941406" xlink:href="#DejaVuSans-5b"/>
     <use x="1819.955078" xlink:href="#DejaVuSans-6d"/>
     <use x="1917.367188" xlink:href="#DejaVuSans-2f"/>
     <use x="1951.058594" xlink:href="#DejaVuSans-73"/>
     <use x="2003.158203" xlink:href="#DejaVuSans-5d"/>
    </g>
   </g>
   <g id="legend_2">
    <g id="patch_13">
     <path d="M 1116.818182 285.24375 
L 1338.848182 285.24375 
Q 1342.448182 285.24375 1342.448182 281.64375 
L 1342.448182 124.92 
Q 1342.448182 121.32 1338.848182 121.32 
L 1116.818182 121.32 
Q 1113.218182 121.32 1113.218182 124.92 
L 1113.218182 281.64375 
Q 1113.218182 285.24375 1116.818182 285.24375 
z
" style="fill:#ffffff;opacity:0.8;stroke:#cccccc;stroke-linejoin:miter;"/>
    </g>
    <g id="text_42">
     <!-- Condensation time step -->
     <g transform="translate(1120.418182 142.197188)scale(0.18 -0.18)">
      <use xlink:href="#DejaVuSans-43"/>
      <use x="69.824219" xlink:href="#DejaVuSans-6f"/>
      <use x="131.005859" xlink:href="#DejaVuSans-6e"/>
      <use x="194.384766" xlink:href="#DejaVuSans-64"/>
      <use x="257.861328" xlink:href="#DejaVuSans-65"/>
      <use x="319.384766" xlink:href="#DejaVuSans-6e"/>
      <use x="382.763672" xlink:href="#DejaVuSans-73"/>
      <use x="434.863281" xlink:href="#DejaVuSans-61"/>
      <use x="496.142578" xlink:href="#DejaVuSans-74"/>
      <use x="535.351562" xlink:href="#DejaVuSans-69"/>
      <use x="563.134766" xlink:href="#DejaVuSans-6f"/>
      <use x="624.316406" xlink:href="#DejaVuSans-6e"/>
      <use x="687.695312" xlink:href="#DejaVuSans-20"/>
      <use x="719.482422" xlink:href="#DejaVuSans-74"/>
      <use x="758.691406" xlink:href="#DejaVuSans-69"/>
      <use x="786.474609" xlink:href="#DejaVuSans-6d"/>
      <use x="883.886719" xlink:href="#DejaVuSans-65"/>
      <use x="945.410156" xlink:href="#DejaVuSans-20"/>
      <use x="977.197266" xlink:href="#DejaVuSans-73"/>
      <use x="1029.296875" xlink:href="#DejaVuSans-74"/>
      <use x="1068.505859" xlink:href="#DejaVuSans-65"/>
      <use x="1130.029297" xlink:href="#DejaVuSans-70"/>
     </g>
    </g>
    <g id="line2d_82">
     <path d="M 1182.422557 162.317813 
L 1218.422557 162.317813 
" style="fill:none;stroke:#1f77b4;stroke-linecap:square;stroke-width:1.5;"/>
    </g>
    <g id="line2d_83"/>
    <g id="text_43">
     <!-- 1/1 -->
     <g transform="translate(1232.822557 168.617813)scale(0.18 -0.18)">
      <use xlink:href="#DejaVuSans-31"/>
      <use x="63.623047" xlink:href="#DejaVuSans-2f"/>
      <use x="97.314453" xlink:href="#DejaVuSans-31"/>
     </g>
    </g>
    <g id="line2d_84">
     <path d="M 1182.422557 188.738438 
L 1218.422557 188.738438 
" style="fill:none;stroke:#ff7f0e;stroke-linecap:square;stroke-width:1.5;"/>
    </g>
    <g id="line2d_85"/>
    <g id="text_44">
     <!-- 1/2 -->
     <g transform="translate(1232.822557 195.038438)scale(0.18 -0.18)">
      <use xlink:href="#DejaVuSans-31"/>
      <use x="63.623047" xlink:href="#DejaVuSans-2f"/>
      <use x="97.314453" xlink:href="#DejaVuSans-32"/>
     </g>
    </g>
    <g id="line2d_86">
     <path d="M 1182.422557 215.159063 
L 1218.422557 215.159063 
" style="fill:none;stroke:#2ca02c;stroke-linecap:square;stroke-width:1.5;"/>
    </g>
    <g id="line2d_87"/>
    <g id="text_45">
     <!-- 1/5 -->
     <g transform="translate(1232.822557 221.459063)scale(0.18 -0.18)">
      <use xlink:href="#DejaVuSans-31"/>
      <use x="63.623047" xlink:href="#DejaVuSans-2f"/>
      <use x="97.314453" xlink:href="#DejaVuSans-35"/>
     </g>
    </g>
    <g id="line2d_88">
     <path d="M 1182.422557 241.579688 
L 1218.422557 241.579688 
" style="fill:none;stroke:#d62728;stroke-linecap:square;stroke-width:1.5;"/>
    </g>
    <g id="line2d_89"/>
    <g id="text_46">
     <!-- 1/10 -->
     <g transform="translate(1232.822557 247.879688)scale(0.18 -0.18)">
      <use xlink:href="#DejaVuSans-31"/>
      <use x="63.623047" xlink:href="#DejaVuSans-2f"/>
      <use x="97.314453" xlink:href="#DejaVuSans-31"/>
      <use x="160.9375" xlink:href="#DejaVuSans-30"/>
     </g>
    </g>
    <g id="line2d_90">
     <path d="M 1182.422557 268.000313 
L 1218.422557 268.000313 
" style="fill:none;stroke:#9467bd;stroke-linecap:square;stroke-width:1.5;"/>
    </g>
    <g id="line2d_91"/>
    <g id="text_47">
     <!-- 1/20 -->
     <g transform="translate(1232.822557 274.300313)scale(0.18 -0.18)">
      <use xlink:href="#DejaVuSans-31"/>
      <use x="63.623047" xlink:href="#DejaVuSans-2f"/>
      <use x="97.314453" xlink:href="#DejaVuSans-32"/>
      <use x="160.9375" xlink:href="#DejaVuSans-30"/>
     </g>
    </g>
   </g>
  </g>
 </g>
 <defs>
  <clipPath id="pe4ca0a50be">
   <rect height="720.72" width="710.181818" x="252" y="112.32"/>
  </clipPath>
  <clipPath id="p71ddb446d9">
   <rect height="720.72" width="710.181818" x="1104.218182" y="112.32"/>
  </clipPath>
 </defs>
</svg>
