<?xml version="1.0" encoding="utf-8" standalone="no"?>
<!DOCTYPE svg PUBLIC "-//W3C//DTD SVG 1.1//EN"
  "http://www.w3.org/Graphics/SVG/1.1/DTD/svg11.dtd">
<!-- Created with matplotlib (http://matplotlib.org/) -->
<svg height="936pt" version="1.1" viewBox="0 0 2016 936" width="2016pt" xmlns="http://www.w3.org/2000/svg" xmlns:xlink="http://www.w3.org/1999/xlink">
 <defs>
  <style type="text/css">
*{stroke-linecap:butt;stroke-linejoin:round;}
  </style>
 </defs>
 <g id="figure_1">
  <g id="patch_1">
   <path d="M 0 936 
L 2016 936 
L 2016 0 
L 0 0 
z
" style="fill:#ffffff;"/>
  </g>
  <g id="axes_1">
   <g id="patch_2">
    <path d="M 252 833.04 
L 962.181818 833.04 
L 962.181818 112.32 
L 252 112.32 
z
" style="fill:#ffffff;"/>
   </g>
   <g id="matplotlib.axis_1">
    <g id="xtick_1">
     <g id="line2d_1">
      <defs>
       <path d="M 0 0 
L 0 3.5 
" id="m43e51792ae" style="stroke:#000000;stroke-width:0.8;"/>
      </defs>
      <g>
       <use style="stroke:#000000;stroke-width:0.8;" x="284.280992" xlink:href="#m43e51792ae" y="833.04"/>
      </g>
     </g>
     <g id="text_1">
      <!-- 98.0 -->
      <defs>
       <path d="M 10.984375 1.515625 
L 10.984375 10.5 
Q 14.703125 8.734375 18.5 7.8125 
Q 22.3125 6.890625 25.984375 6.890625 
Q 35.75 6.890625 40.890625 13.453125 
Q 46.046875 20.015625 46.78125 33.40625 
Q 43.953125 29.203125 39.59375 26.953125 
Q 35.25 24.703125 29.984375 24.703125 
Q 19.046875 24.703125 12.671875 31.3125 
Q 6.296875 37.9375 6.296875 49.421875 
Q 6.296875 60.640625 12.9375 67.421875 
Q 19.578125 74.21875 30.609375 74.21875 
Q 43.265625 74.21875 49.921875 64.515625 
Q 56.59375 54.828125 56.59375 36.375 
Q 56.59375 19.140625 48.40625 8.859375 
Q 40.234375 -1.421875 26.421875 -1.421875 
Q 22.703125 -1.421875 18.890625 -0.6875 
Q 15.09375 0.046875 10.984375 1.515625 
z
M 30.609375 32.421875 
Q 37.25 32.421875 41.125 36.953125 
Q 45.015625 41.5 45.015625 49.421875 
Q 45.015625 57.28125 41.125 61.84375 
Q 37.25 66.40625 30.609375 66.40625 
Q 23.96875 66.40625 20.09375 61.84375 
Q 16.21875 57.28125 16.21875 49.421875 
Q 16.21875 41.5 20.09375 36.953125 
Q 23.96875 32.421875 30.609375 32.421875 
z
" id="DejaVuSans-39"/>
       <path d="M 31.78125 34.625 
Q 24.75 34.625 20.71875 30.859375 
Q 16.703125 27.09375 16.703125 20.515625 
Q 16.703125 13.921875 20.71875 10.15625 
Q 24.75 6.390625 31.78125 6.390625 
Q 38.8125 6.390625 42.859375 10.171875 
Q 46.921875 13.96875 46.921875 20.515625 
Q 46.921875 27.09375 42.890625 30.859375 
Q 38.875 34.625 31.78125 34.625 
z
M 21.921875 38.8125 
Q 15.578125 40.375 12.03125 44.71875 
Q 8.5 49.078125 8.5 55.328125 
Q 8.5 64.0625 14.71875 69.140625 
Q 20.953125 74.21875 31.78125 74.21875 
Q 42.671875 74.21875 48.875 69.140625 
Q 55.078125 64.0625 55.078125 55.328125 
Q 55.078125 49.078125 51.53125 44.71875 
Q 48 40.375 41.703125 38.8125 
Q 48.828125 37.15625 52.796875 32.3125 
Q 56.78125 27.484375 56.78125 20.515625 
Q 56.78125 9.90625 50.3125 4.234375 
Q 43.84375 -1.421875 31.78125 -1.421875 
Q 19.734375 -1.421875 13.25 4.234375 
Q 6.78125 9.90625 6.78125 20.515625 
Q 6.78125 27.484375 10.78125 32.3125 
Q 14.796875 37.15625 21.921875 38.8125 
z
M 18.3125 54.390625 
Q 18.3125 48.734375 21.84375 45.5625 
Q 25.390625 42.390625 31.78125 42.390625 
Q 38.140625 42.390625 41.71875 45.5625 
Q 45.3125 48.734375 45.3125 54.390625 
Q 45.3125 60.0625 41.71875 63.234375 
Q 38.140625 66.40625 31.78125 66.40625 
Q 25.390625 66.40625 21.84375 63.234375 
Q 18.3125 60.0625 18.3125 54.390625 
z
" id="DejaVuSans-38"/>
       <path d="M 10.6875 12.40625 
L 21 12.40625 
L 21 0 
L 10.6875 0 
z
" id="DejaVuSans-2e"/>
       <path d="M 31.78125 66.40625 
Q 24.171875 66.40625 20.328125 58.90625 
Q 16.5 51.421875 16.5 36.375 
Q 16.5 21.390625 20.328125 13.890625 
Q 24.171875 6.390625 31.78125 6.390625 
Q 39.453125 6.390625 43.28125 13.890625 
Q 47.125 21.390625 47.125 36.375 
Q 47.125 51.421875 43.28125 58.90625 
Q 39.453125 66.40625 31.78125 66.40625 
z
M 31.78125 74.21875 
Q 44.046875 74.21875 50.515625 64.515625 
Q 56.984375 54.828125 56.984375 36.375 
Q 56.984375 17.96875 50.515625 8.265625 
Q 44.046875 -1.421875 31.78125 -1.421875 
Q 19.53125 -1.421875 13.0625 8.265625 
Q 6.59375 17.96875 6.59375 36.375 
Q 6.59375 54.828125 13.0625 64.515625 
Q 19.53125 74.21875 31.78125 74.21875 
z
" id="DejaVuSans-30"/>
      </defs>
      <g transform="translate(264.241929 853.717188)scale(0.18 -0.18)">
       <use xlink:href="#DejaVuSans-39"/>
       <use x="63.623047" xlink:href="#DejaVuSans-38"/>
       <use x="127.246094" xlink:href="#DejaVuSans-2e"/>
       <use x="159.033203" xlink:href="#DejaVuSans-30"/>
      </g>
     </g>
    </g>
    <g id="xtick_2">
     <g id="line2d_2">
      <g>
       <use style="stroke:#000000;stroke-width:0.8;" x="374.47123" xlink:href="#m43e51792ae" y="833.04"/>
      </g>
     </g>
     <g id="text_2">
      <!-- 98.5 -->
      <defs>
       <path d="M 10.796875 72.90625 
L 49.515625 72.90625 
L 49.515625 64.59375 
L 19.828125 64.59375 
L 19.828125 46.734375 
Q 21.96875 47.46875 24.109375 47.828125 
Q 26.265625 48.1875 28.421875 48.1875 
Q 40.625 48.1875 47.75 41.5 
Q 54.890625 34.8125 54.890625 23.390625 
Q 54.890625 11.625 47.5625 5.09375 
Q 40.234375 -1.421875 26.90625 -1.421875 
Q 22.3125 -1.421875 17.546875 -0.640625 
Q 12.796875 0.140625 7.71875 1.703125 
L 7.71875 11.625 
Q 12.109375 9.234375 16.796875 8.0625 
Q 21.484375 6.890625 26.703125 6.890625 
Q 35.15625 6.890625 40.078125 11.328125 
Q 45.015625 15.765625 45.015625 23.390625 
Q 45.015625 31 40.078125 35.4375 
Q 35.15625 39.890625 26.703125 39.890625 
Q 22.75 39.890625 18.8125 39.015625 
Q 14.890625 38.140625 10.796875 36.28125 
z
" id="DejaVuSans-35"/>
      </defs>
      <g transform="translate(354.432167 853.717188)scale(0.18 -0.18)">
       <use xlink:href="#DejaVuSans-39"/>
       <use x="63.623047" xlink:href="#DejaVuSans-38"/>
       <use x="127.246094" xlink:href="#DejaVuSans-2e"/>
       <use x="159.033203" xlink:href="#DejaVuSans-35"/>
      </g>
     </g>
    </g>
    <g id="xtick_3">
     <g id="line2d_3">
      <g>
       <use style="stroke:#000000;stroke-width:0.8;" x="464.661468" xlink:href="#m43e51792ae" y="833.04"/>
      </g>
     </g>
     <g id="text_3">
      <!-- 99.0 -->
      <g transform="translate(444.622406 853.717188)scale(0.18 -0.18)">
       <use xlink:href="#DejaVuSans-39"/>
       <use x="63.623047" xlink:href="#DejaVuSans-39"/>
       <use x="127.246094" xlink:href="#DejaVuSans-2e"/>
       <use x="159.033203" xlink:href="#DejaVuSans-30"/>
      </g>
     </g>
    </g>
    <g id="xtick_4">
     <g id="line2d_4">
      <g>
       <use style="stroke:#000000;stroke-width:0.8;" x="554.851706" xlink:href="#m43e51792ae" y="833.04"/>
      </g>
     </g>
     <g id="text_4">
      <!-- 99.5 -->
      <g transform="translate(534.812644 853.717188)scale(0.18 -0.18)">
       <use xlink:href="#DejaVuSans-39"/>
       <use x="63.623047" xlink:href="#DejaVuSans-39"/>
       <use x="127.246094" xlink:href="#DejaVuSans-2e"/>
       <use x="159.033203" xlink:href="#DejaVuSans-35"/>
      </g>
     </g>
    </g>
    <g id="xtick_5">
     <g id="line2d_5">
      <g>
       <use style="stroke:#000000;stroke-width:0.8;" x="645.041944" xlink:href="#m43e51792ae" y="833.04"/>
      </g>
     </g>
     <g id="text_5">
      <!-- 100.0 -->
      <defs>
       <path d="M 12.40625 8.296875 
L 28.515625 8.296875 
L 28.515625 63.921875 
L 10.984375 60.40625 
L 10.984375 69.390625 
L 28.421875 72.90625 
L 38.28125 72.90625 
L 38.28125 8.296875 
L 54.390625 8.296875 
L 54.390625 0 
L 12.40625 0 
z
" id="DejaVuSans-31"/>
      </defs>
      <g transform="translate(619.276632 853.717188)scale(0.18 -0.18)">
       <use xlink:href="#DejaVuSans-31"/>
       <use x="63.623047" xlink:href="#DejaVuSans-30"/>
       <use x="127.246094" xlink:href="#DejaVuSans-30"/>
       <use x="190.869141" xlink:href="#DejaVuSans-2e"/>
       <use x="222.65625" xlink:href="#DejaVuSans-30"/>
      </g>
     </g>
    </g>
    <g id="xtick_6">
     <g id="line2d_6">
      <g>
       <use style="stroke:#000000;stroke-width:0.8;" x="735.232183" xlink:href="#m43e51792ae" y="833.04"/>
      </g>
     </g>
     <g id="text_6">
      <!-- 100.5 -->
      <g transform="translate(709.46687 853.717188)scale(0.18 -0.18)">
       <use xlink:href="#DejaVuSans-31"/>
       <use x="63.623047" xlink:href="#DejaVuSans-30"/>
       <use x="127.246094" xlink:href="#DejaVuSans-30"/>
       <use x="190.869141" xlink:href="#DejaVuSans-2e"/>
       <use x="222.65625" xlink:href="#DejaVuSans-35"/>
      </g>
     </g>
    </g>
    <g id="xtick_7">
     <g id="line2d_7">
      <g>
       <use style="stroke:#000000;stroke-width:0.8;" x="825.422421" xlink:href="#m43e51792ae" y="833.04"/>
      </g>
     </g>
     <g id="text_7">
      <!-- 101.0 -->
      <g transform="translate(799.657108 853.717188)scale(0.18 -0.18)">
       <use xlink:href="#DejaVuSans-31"/>
       <use x="63.623047" xlink:href="#DejaVuSans-30"/>
       <use x="127.246094" xlink:href="#DejaVuSans-31"/>
       <use x="190.869141" xlink:href="#DejaVuSans-2e"/>
       <use x="222.65625" xlink:href="#DejaVuSans-30"/>
      </g>
     </g>
    </g>
    <g id="xtick_8">
     <g id="line2d_8">
      <g>
       <use style="stroke:#000000;stroke-width:0.8;" x="915.612659" xlink:href="#m43e51792ae" y="833.04"/>
      </g>
     </g>
     <g id="text_8">
      <!-- 101.5 -->
      <g transform="translate(889.847346 853.717188)scale(0.18 -0.18)">
       <use xlink:href="#DejaVuSans-31"/>
       <use x="63.623047" xlink:href="#DejaVuSans-30"/>
       <use x="127.246094" xlink:href="#DejaVuSans-31"/>
       <use x="190.869141" xlink:href="#DejaVuSans-2e"/>
       <use x="222.65625" xlink:href="#DejaVuSans-35"/>
      </g>
     </g>
    </g>
    <g id="text_9">
     <!-- RH [%] -->
     <defs>
      <path d="M 44.390625 34.1875 
Q 47.5625 33.109375 50.5625 29.59375 
Q 53.5625 26.078125 56.59375 19.921875 
L 66.609375 0 
L 56 0 
L 46.6875 18.703125 
Q 43.0625 26.03125 39.671875 28.421875 
Q 36.28125 30.8125 30.421875 30.8125 
L 19.671875 30.8125 
L 19.671875 0 
L 9.8125 0 
L 9.8125 72.90625 
L 32.078125 72.90625 
Q 44.578125 72.90625 50.734375 67.671875 
Q 56.890625 62.453125 56.890625 51.90625 
Q 56.890625 45.015625 53.6875 40.46875 
Q 50.484375 35.9375 44.390625 34.1875 
z
M 19.671875 64.796875 
L 19.671875 38.921875 
L 32.078125 38.921875 
Q 39.203125 38.921875 42.84375 42.21875 
Q 46.484375 45.515625 46.484375 51.90625 
Q 46.484375 58.296875 42.84375 61.546875 
Q 39.203125 64.796875 32.078125 64.796875 
z
" id="DejaVuSans-52"/>
      <path d="M 9.8125 72.90625 
L 19.671875 72.90625 
L 19.671875 43.015625 
L 55.515625 43.015625 
L 55.515625 72.90625 
L 65.375 72.90625 
L 65.375 0 
L 55.515625 0 
L 55.515625 34.71875 
L 19.671875 34.71875 
L 19.671875 0 
L 9.8125 0 
z
" id="DejaVuSans-48"/>
      <path id="DejaVuSans-20"/>
      <path d="M 8.59375 75.984375 
L 29.296875 75.984375 
L 29.296875 69 
L 17.578125 69 
L 17.578125 -6.203125 
L 29.296875 -6.203125 
L 29.296875 -13.1875 
L 8.59375 -13.1875 
z
" id="DejaVuSans-5b"/>
      <path d="M 72.703125 32.078125 
Q 68.453125 32.078125 66.03125 28.46875 
Q 63.625 24.859375 63.625 18.40625 
Q 63.625 12.0625 66.03125 8.421875 
Q 68.453125 4.78125 72.703125 4.78125 
Q 76.859375 4.78125 79.265625 8.421875 
Q 81.6875 12.0625 81.6875 18.40625 
Q 81.6875 24.8125 79.265625 28.4375 
Q 76.859375 32.078125 72.703125 32.078125 
z
M 72.703125 38.28125 
Q 80.421875 38.28125 84.953125 32.90625 
Q 89.5 27.546875 89.5 18.40625 
Q 89.5 9.28125 84.9375 3.921875 
Q 80.375 -1.421875 72.703125 -1.421875 
Q 64.890625 -1.421875 60.34375 3.921875 
Q 55.8125 9.28125 55.8125 18.40625 
Q 55.8125 27.59375 60.375 32.9375 
Q 64.9375 38.28125 72.703125 38.28125 
z
M 22.3125 68.015625 
Q 18.109375 68.015625 15.6875 64.375 
Q 13.28125 60.75 13.28125 54.390625 
Q 13.28125 47.953125 15.671875 44.328125 
Q 18.0625 40.71875 22.3125 40.71875 
Q 26.5625 40.71875 28.96875 44.328125 
Q 31.390625 47.953125 31.390625 54.390625 
Q 31.390625 60.6875 28.953125 64.34375 
Q 26.515625 68.015625 22.3125 68.015625 
z
M 66.40625 74.21875 
L 74.21875 74.21875 
L 28.609375 -1.421875 
L 20.796875 -1.421875 
z
M 22.3125 74.21875 
Q 30.03125 74.21875 34.609375 68.875 
Q 39.203125 63.53125 39.203125 54.390625 
Q 39.203125 45.171875 34.640625 39.84375 
Q 30.078125 34.515625 22.3125 34.515625 
Q 14.546875 34.515625 10.03125 39.859375 
Q 5.515625 45.21875 5.515625 54.390625 
Q 5.515625 63.484375 10.046875 68.84375 
Q 14.59375 74.21875 22.3125 74.21875 
z
" id="DejaVuSans-25"/>
      <path d="M 30.421875 75.984375 
L 30.421875 -13.1875 
L 9.71875 -13.1875 
L 9.71875 -6.203125 
L 21.390625 -6.203125 
L 21.390625 69 
L 9.71875 69 
L 9.71875 75.984375 
z
" id="DejaVuSans-5d"/>
     </defs>
     <g transform="translate(575.634503 875.137812)scale(0.18 -0.18)">
      <use xlink:href="#DejaVuSans-52"/>
      <use x="69.482422" xlink:href="#DejaVuSans-48"/>
      <use x="144.677734" xlink:href="#DejaVuSans-20"/>
      <use x="176.464844" xlink:href="#DejaVuSans-5b"/>
      <use x="215.478516" xlink:href="#DejaVuSans-25"/>
      <use x="310.498047" xlink:href="#DejaVuSans-5d"/>
     </g>
    </g>
   </g>
   <g id="matplotlib.axis_2">
    <g id="ytick_1">
     <g id="line2d_9">
      <defs>
       <path d="M 0 0 
L -3.5 0 
" id="md6756bf69b" style="stroke:#000000;stroke-width:0.8;"/>
      </defs>
      <g>
       <use style="stroke:#000000;stroke-width:0.8;" x="252" xlink:href="#md6756bf69b" y="800.28"/>
      </g>
     </g>
     <g id="text_10">
      <!-- 0 -->
      <g transform="translate(233.5475 807.118594)scale(0.18 -0.18)">
       <use xlink:href="#DejaVuSans-30"/>
      </g>
     </g>
    </g>
    <g id="ytick_2">
     <g id="line2d_10">
      <g>
       <use style="stroke:#000000;stroke-width:0.8;" x="252" xlink:href="#md6756bf69b" y="718.38"/>
      </g>
     </g>
     <g id="text_11">
      <!-- 25 -->
      <defs>
       <path d="M 19.1875 8.296875 
L 53.609375 8.296875 
L 53.609375 0 
L 7.328125 0 
L 7.328125 8.296875 
Q 12.9375 14.109375 22.625 23.890625 
Q 32.328125 33.6875 34.8125 36.53125 
Q 39.546875 41.84375 41.421875 45.53125 
Q 43.3125 49.21875 43.3125 52.78125 
Q 43.3125 58.59375 39.234375 62.25 
Q 35.15625 65.921875 28.609375 65.921875 
Q 23.96875 65.921875 18.8125 64.3125 
Q 13.671875 62.703125 7.8125 59.421875 
L 7.8125 69.390625 
Q 13.765625 71.78125 18.9375 73 
Q 24.125 74.21875 28.421875 74.21875 
Q 39.75 74.21875 46.484375 68.546875 
Q 53.21875 62.890625 53.21875 53.421875 
Q 53.21875 48.921875 51.53125 44.890625 
Q 49.859375 40.875 45.40625 35.40625 
Q 44.1875 33.984375 37.640625 27.21875 
Q 31.109375 20.453125 19.1875 8.296875 
z
" id="DejaVuSans-32"/>
      </defs>
      <g transform="translate(222.095 725.218594)scale(0.18 -0.18)">
       <use xlink:href="#DejaVuSans-32"/>
       <use x="63.623047" xlink:href="#DejaVuSans-35"/>
      </g>
     </g>
    </g>
    <g id="ytick_3">
     <g id="line2d_11">
      <g>
       <use style="stroke:#000000;stroke-width:0.8;" x="252" xlink:href="#md6756bf69b" y="636.48"/>
      </g>
     </g>
     <g id="text_12">
      <!-- 50 -->
      <g transform="translate(222.095 643.318594)scale(0.18 -0.18)">
       <use xlink:href="#DejaVuSans-35"/>
       <use x="63.623047" xlink:href="#DejaVuSans-30"/>
      </g>
     </g>
    </g>
    <g id="ytick_4">
     <g id="line2d_12">
      <g>
       <use style="stroke:#000000;stroke-width:0.8;" x="252" xlink:href="#md6756bf69b" y="554.58"/>
      </g>
     </g>
     <g id="text_13">
      <!-- 75 -->
      <defs>
       <path d="M 8.203125 72.90625 
L 55.078125 72.90625 
L 55.078125 68.703125 
L 28.609375 0 
L 18.3125 0 
L 43.21875 64.59375 
L 8.203125 64.59375 
z
" id="DejaVuSans-37"/>
      </defs>
      <g transform="translate(222.095 561.418594)scale(0.18 -0.18)">
       <use xlink:href="#DejaVuSans-37"/>
       <use x="63.623047" xlink:href="#DejaVuSans-35"/>
      </g>
     </g>
    </g>
    <g id="ytick_5">
     <g id="line2d_13">
      <g>
       <use style="stroke:#000000;stroke-width:0.8;" x="252" xlink:href="#md6756bf69b" y="472.68"/>
      </g>
     </g>
     <g id="text_14">
      <!-- 100 -->
      <g transform="translate(210.6425 479.518594)scale(0.18 -0.18)">
       <use xlink:href="#DejaVuSans-31"/>
       <use x="63.623047" xlink:href="#DejaVuSans-30"/>
       <use x="127.246094" xlink:href="#DejaVuSans-30"/>
      </g>
     </g>
    </g>
    <g id="ytick_6">
     <g id="line2d_14">
      <g>
       <use style="stroke:#000000;stroke-width:0.8;" x="252" xlink:href="#md6756bf69b" y="390.78"/>
      </g>
     </g>
     <g id="text_15">
      <!-- 125 -->
      <g transform="translate(210.6425 397.618594)scale(0.18 -0.18)">
       <use xlink:href="#DejaVuSans-31"/>
       <use x="63.623047" xlink:href="#DejaVuSans-32"/>
       <use x="127.246094" xlink:href="#DejaVuSans-35"/>
      </g>
     </g>
    </g>
    <g id="ytick_7">
     <g id="line2d_15">
      <g>
       <use style="stroke:#000000;stroke-width:0.8;" x="252" xlink:href="#md6756bf69b" y="308.88"/>
      </g>
     </g>
     <g id="text_16">
      <!-- 150 -->
      <g transform="translate(210.6425 315.718594)scale(0.18 -0.18)">
       <use xlink:href="#DejaVuSans-31"/>
       <use x="63.623047" xlink:href="#DejaVuSans-35"/>
       <use x="127.246094" xlink:href="#DejaVuSans-30"/>
      </g>
     </g>
    </g>
    <g id="ytick_8">
     <g id="line2d_16">
      <g>
       <use style="stroke:#000000;stroke-width:0.8;" x="252" xlink:href="#md6756bf69b" y="226.98"/>
      </g>
     </g>
     <g id="text_17">
      <!-- 175 -->
      <g transform="translate(210.6425 233.818594)scale(0.18 -0.18)">
       <use xlink:href="#DejaVuSans-31"/>
       <use x="63.623047" xlink:href="#DejaVuSans-37"/>
       <use x="127.246094" xlink:href="#DejaVuSans-35"/>
      </g>
     </g>
    </g>
    <g id="ytick_9">
     <g id="line2d_17">
      <g>
       <use style="stroke:#000000;stroke-width:0.8;" x="252" xlink:href="#md6756bf69b" y="145.08"/>
      </g>
     </g>
     <g id="text_18">
      <!-- 200 -->
      <g transform="translate(210.6425 151.918594)scale(0.18 -0.18)">
       <use xlink:href="#DejaVuSans-32"/>
       <use x="63.623047" xlink:href="#DejaVuSans-30"/>
       <use x="127.246094" xlink:href="#DejaVuSans-30"/>
      </g>
     </g>
    </g>
    <g id="text_19">
     <!-- Z [m]] -->
     <defs>
      <path d="M 5.609375 72.90625 
L 62.890625 72.90625 
L 62.890625 65.375 
L 16.796875 8.296875 
L 64.015625 8.296875 
L 64.015625 0 
L 4.5 0 
L 4.5 7.515625 
L 50.59375 64.59375 
L 5.609375 64.59375 
z
" id="DejaVuSans-5a"/>
      <path d="M 52 44.1875 
Q 55.375 50.25 60.0625 53.125 
Q 64.75 56 71.09375 56 
Q 79.640625 56 84.28125 50.015625 
Q 88.921875 44.046875 88.921875 33.015625 
L 88.921875 0 
L 79.890625 0 
L 79.890625 32.71875 
Q 79.890625 40.578125 77.09375 44.375 
Q 74.3125 48.1875 68.609375 48.1875 
Q 61.625 48.1875 57.5625 43.546875 
Q 53.515625 38.921875 53.515625 30.90625 
L 53.515625 0 
L 44.484375 0 
L 44.484375 32.71875 
Q 44.484375 40.625 41.703125 44.40625 
Q 38.921875 48.1875 33.109375 48.1875 
Q 26.21875 48.1875 22.15625 43.53125 
Q 18.109375 38.875 18.109375 30.90625 
L 18.109375 0 
L 9.078125 0 
L 9.078125 54.6875 
L 18.109375 54.6875 
L 18.109375 46.1875 
Q 21.1875 51.21875 25.484375 53.609375 
Q 29.78125 56 35.6875 56 
Q 41.65625 56 45.828125 52.96875 
Q 50 49.953125 52 44.1875 
z
" id="DejaVuSans-6d"/>
     </defs>
     <g transform="translate(202.899062 501.006094)rotate(-90)scale(0.18 -0.18)">
      <use xlink:href="#DejaVuSans-5a"/>
      <use x="68.505859" xlink:href="#DejaVuSans-20"/>
      <use x="100.292969" xlink:href="#DejaVuSans-5b"/>
      <use x="139.306641" xlink:href="#DejaVuSans-6d"/>
      <use x="236.71875" xlink:href="#DejaVuSans-5d"/>
      <use x="275.732422" xlink:href="#DejaVuSans-5d"/>
     </g>
    </g>
   </g>
   <g id="line2d_18">
    <path clip-path="url(#p7219dca210)" d="M 284.280992 800.28 
L 303.456048 793.728 
L 322.659516 787.176 
L 341.886859 780.624 
L 361.138404 774.072 
L 380.414186 767.52 
L 399.714225 760.968 
L 419.038541 754.416 
L 438.387147 747.864 
L 457.76005 741.312 
L 477.157246 734.76 
L 496.578714 728.208 
L 516.024412 721.656 
L 535.494258 715.104 
L 554.988106 708.552 
L 574.505696 702 
L 594.046565 695.448 
L 613.609843 688.896 
L 633.193801 682.344 
L 652.794748 675.792 
L 672.404148 669.24 
L 692.001337 662.688 
L 711.541043 656.136 
L 730.961154 649.584 
L 750.186854 643.032 
L 768.898016 636.48 
L 785.683721 629.928 
L 799.543814 623.376 
L 810.428652 616.824 
L 817.7642 610.272 
L 821.774042 603.72 
L 822.858743 597.168 
L 821.513474 590.616 
L 818.245053 584.064 
L 813.514905 577.512 
L 807.744149 570.96 
L 801.297955 564.408 
L 794.487173 557.856 
L 787.562963 551.304 
L 780.720746 544.752 
L 774.105272 538.2 
L 767.817307 531.648 
L 761.920991 525.096 
L 756.451078 518.544 
L 751.419628 511.992 
L 746.821869 505.44 
L 742.641151 498.888 
L 738.85297 492.336 
L 735.428147 485.784 
L 732.335243 479.232 
L 729.542336 472.68 
L 727.01828 466.128 
L 724.73354 459.576 
L 722.660701 453.024 
L 720.774747 446.472 
L 719.053147 439.92 
L 717.475831 433.368 
L 716.025077 426.816 
L 714.685347 420.264 
L 713.443094 413.712 
L 712.286566 407.16 
L 711.205599 400.608 
L 710.191424 394.056 
L 709.236493 387.504 
L 708.33431 380.952 
L 707.479282 374.4 
L 706.666598 367.848 
L 705.892104 361.296 
L 705.152214 354.744 
L 704.44382 348.192 
L 703.764218 341.64 
L 703.111053 335.088 
L 702.482258 328.536 
L 701.876019 321.984 
L 701.290729 315.432 
L 700.724963 308.88 
L 700.17745 302.328 
L 699.647052 295.776 
L 699.132742 289.224 
L 698.633594 282.672 
L 698.148765 276.12 
L 697.677487 269.568 
L 697.219058 263.016 
L 696.772832 256.464 
L 696.338214 249.912 
L 695.914655 243.36 
L 695.501645 236.808 
L 695.098709 230.256 
L 694.705408 223.704 
L 694.321327 217.152 
L 693.946083 210.6 
L 693.579312 204.048 
L 693.220677 197.496 
L 692.869857 190.944 
L 692.526552 184.392 
L 692.190479 177.84 
L 691.861369 171.288 
L 691.538968 164.736 
L 691.223036 158.184 
L 690.913348 151.632 
L 690.609685 145.08 
" style="fill:none;stroke:#1f77b4;stroke-linecap:square;stroke-width:1.5;"/>
   </g>
   <g id="line2d_19">
    <path clip-path="url(#p7219dca210)" d="M 284.280992 800.28 
L 303.455848 793.728 
L 322.659517 787.176 
L 341.886858 780.624 
L 361.138405 774.072 
L 380.414187 767.52 
L 399.714227 760.968 
L 419.038544 754.416 
L 438.387151 747.864 
L 457.760056 741.312 
L 477.157254 734.76 
L 496.578726 728.208 
L 516.024431 721.656 
L 535.494288 715.104 
L 554.988156 708.552 
L 574.505786 702 
L 594.046735 695.448 
L 613.610185 688.896 
L 633.194553 682.344 
L 652.796575 675.792 
L 672.409088 669.24 
L 692.015864 662.688 
L 711.582638 656.136 
L 731.054693 649.584 
L 750.371114 643.032 
L 769.472777 636.48 
L 788.301229 629.928 
L 806.781143 623.376 
L 824.73979 616.824 
L 841.536301 610.272 
L 855.917965 603.72 
L 867.737443 597.168 
L 876.750192 590.616 
L 882.763025 584.064 
L 886.356251 577.512 
L 887.846628 570.96 
L 887.522948 564.408 
L 885.662715 557.856 
L 882.529053 551.304 
L 878.368577 544.752 
L 873.407681 538.2 
L 867.850263 531.648 
L 861.876427 525.096 
L 855.642175 518.544 
L 849.279951 511.992 
L 842.899849 505.44 
L 836.591301 498.888 
L 830.425056 492.336 
L 824.455321 485.784 
L 818.721925 479.232 
L 813.252434 472.68 
L 808.064138 466.128 
L 803.165878 459.576 
L 798.559686 453.024 
L 794.242231 446.472 
L 790.206067 439.92 
L 786.440701 433.368 
L 782.933481 426.816 
L 779.670333 420.264 
L 776.63636 413.712 
L 773.816316 407.16 
L 771.194976 400.608 
L 768.757423 394.056 
L 766.489253 387.504 
L 764.376726 380.952 
L 762.406864 374.4 
L 760.567509 367.848 
L 758.847352 361.296 
L 757.235937 354.744 
L 755.723644 348.192 
L 754.301664 341.64 
L 752.961957 335.088 
L 751.697215 328.536 
L 750.500808 321.984 
L 749.366732 315.432 
L 748.289574 308.88 
L 747.264447 302.328 
L 746.286948 295.776 
L 745.353121 289.224 
L 744.459404 282.672 
L 743.602581 276.12 
L 742.779804 269.568 
L 741.98847 263.016 
L 741.22624 256.464 
L 740.491037 249.912 
L 739.780959 243.36 
L 739.094305 236.808 
L 738.429533 230.256 
L 737.78525 223.704 
L 737.160193 217.152 
L 736.553214 210.6 
L 735.963269 204.048 
L 735.38941 197.496 
L 734.830763 190.944 
L 734.286535 184.392 
L 733.755979 177.84 
L 733.238458 171.288 
L 732.733331 164.736 
L 732.240027 158.184 
L 731.758013 151.632 
L 731.286803 145.08 
" style="fill:none;stroke:#ff7f0e;stroke-linecap:square;stroke-width:1.5;"/>
   </g>
   <g id="line2d_20">
    <path clip-path="url(#p7219dca210)" d="M 284.280992 800.28 
L 303.455781 793.728 
L 322.659521 787.176 
L 341.886859 780.624 
L 361.138405 774.072 
L 380.414188 767.52 
L 399.714228 760.968 
L 419.038546 754.416 
L 438.387154 747.864 
L 457.760059 741.312 
L 477.157259 734.76 
L 496.578734 728.208 
L 516.024443 721.656 
L 535.494307 715.104 
L 554.988188 708.552 
L 574.505842 702 
L 594.04684 695.448 
L 613.610394 688.896 
L 633.195003 682.344 
L 652.797631 675.792 
L 672.411797 669.24 
L 692.023263 662.688 
L 711.60233 656.136 
L 731.098261 649.584 
L 750.448597 643.032 
L 769.595032 636.48 
L 788.484367 629.928 
L 807.061298 623.376 
L 825.24795 616.824 
L 842.902775 610.272 
L 859.789293 603.72 
L 875.595851 597.168 
L 889.899407 590.616 
L 902.219611 584.064 
L 912.205978 577.512 
L 919.682345 570.96 
L 924.666926 564.408 
L 927.302754 557.856 
L 927.839866 551.304 
L 926.583057 544.752 
L 923.864181 538.2 
L 919.959532 531.648 
L 915.107955 525.096 
L 909.52251 518.544 
L 903.391697 511.992 
L 896.880445 505.44 
L 890.131134 498.888 
L 883.264856 492.336 
L 876.382906 485.784 
L 869.568461 479.232 
L 862.888372 472.68 
L 856.394988 466.128 
L 850.127977 459.576 
L 844.116058 453.024 
L 838.378641 446.472 
L 832.927336 439.92 
L 827.767311 433.368 
L 822.898517 426.816 
L 818.31675 420.264 
L 814.014581 413.712 
L 809.982151 407.16 
L 806.207843 400.608 
L 802.678841 394.056 
L 799.381594 387.504 
L 796.302192 380.952 
L 793.426665 374.4 
L 790.741221 367.848 
L 788.232422 361.296 
L 785.887325 354.744 
L 783.693571 348.192 
L 781.639454 341.64 
L 779.713957 335.088 
L 777.906772 328.536 
L 776.2083 321.984 
L 774.609643 315.432 
L 773.10258 308.88 
L 771.679543 302.328 
L 770.333584 295.776 
L 769.05834 289.224 
L 767.847997 282.672 
L 766.69725 276.12 
L 765.601271 269.568 
L 764.555666 263.016 
L 763.556443 256.464 
L 762.599979 249.912 
L 761.682988 243.36 
L 760.802486 236.808 
L 759.955773 230.256 
L 759.140395 223.704 
L 758.354132 217.152 
L 757.594965 210.6 
L 756.861064 204.048 
L 756.150767 197.496 
L 755.462561 190.944 
L 754.795072 184.392 
L 754.147045 177.84 
L 753.517336 171.288 
L 752.904903 164.736 
L 752.308787 158.184 
L 751.728115 151.632 
L 751.162081 145.08 
" style="fill:none;stroke:#2ca02c;stroke-linecap:square;stroke-width:1.5;"/>
   </g>
   <g id="line2d_21">
    <path clip-path="url(#p7219dca210)" d="M 284.280992 800.28 
L 303.455769 793.728 
L 322.659522 787.176 
L 341.886859 780.624 
L 361.138406 774.072 
L 380.414188 767.52 
L 399.714229 760.968 
L 419.038546 754.416 
L 438.387154 747.864 
L 457.76006 741.312 
L 477.15726 734.76 
L 496.578736 728.208 
L 516.024447 721.656 
L 535.494314 715.104 
L 554.988199 708.552 
L 574.505861 702 
L 594.046875 695.448 
L 613.610464 688.896 
L 633.195153 682.344 
L 652.797977 675.792 
L 672.412662 669.24 
L 692.025554 662.688 
L 711.608286 656.136 
L 731.111857 649.584 
L 750.474101 643.032 
L 769.635016 636.48 
L 788.541119 629.928 
L 807.137138 623.376 
L 825.346797 616.824 
L 843.039026 610.272 
L 859.990853 603.72 
L 875.872628 597.168 
L 890.275844 590.616 
L 902.781293 584.064 
L 913.042049 577.512 
L 920.851394 570.96 
L 926.16572 564.408 
L 929.101885 557.856 
L 929.900826 551.304 
L 928.880169 544.752 
L 926.373895 538.2 
L 922.659702 531.648 
L 917.977008 525.096 
L 912.539333 518.544 
L 906.53574 511.992 
L 900.131893 505.44 
L 893.471099 498.888 
L 886.675556 492.336 
L 879.847813 485.784 
L 873.072409 479.232 
L 866.417625 472.68 
L 859.937279 466.128 
L 853.672495 459.576 
L 847.653422 453.024 
L 841.90084 446.472 
L 836.42765 439.92 
L 831.240227 433.368 
L 826.339621 426.816 
L 821.722627 420.264 
L 817.38271 413.712 
L 813.310797 407.16 
L 809.495957 400.608 
L 805.925964 394.056 
L 802.587765 387.504 
L 799.467868 380.952 
L 796.552644 374.4 
L 793.828575 367.848 
L 791.282436 361.296 
L 788.901445 354.744 
L 786.673358 348.192 
L 784.586544 341.64 
L 782.630029 335.088 
L 780.793518 328.536 
L 779.067405 321.984 
L 777.442763 315.432 
L 775.911328 308.88 
L 774.465478 302.328 
L 773.098204 295.776 
L 771.803073 289.224 
L 770.574198 282.672 
L 769.406199 276.12 
L 768.294172 269.568 
L 767.233648 263.016 
L 766.220561 256.464 
L 765.251215 249.912 
L 764.322253 243.36 
L 763.430628 236.808 
L 762.573573 230.256 
L 761.748577 223.704 
L 760.953361 217.152 
L 760.185855 210.6 
L 759.444181 204.048 
L 758.726629 197.496 
L 758.031646 190.944 
L 757.357817 184.392 
L 756.703852 177.84 
L 756.068576 171.288 
L 755.450912 164.736 
L 754.849878 158.184 
L 754.264573 151.632 
L 753.694169 145.08 
" style="fill:none;stroke:#d62728;stroke-linecap:square;stroke-width:1.5;"/>
   </g>
   <g id="patch_3">
    <path d="M 252 833.04 
L 252 112.32 
" style="fill:none;stroke:#000000;stroke-linecap:square;stroke-linejoin:miter;stroke-width:0.8;"/>
   </g>
   <g id="patch_4">
    <path d="M 962.181818 833.04 
L 962.181818 112.32 
" style="fill:none;stroke:#000000;stroke-linecap:square;stroke-linejoin:miter;stroke-width:0.8;"/>
   </g>
   <g id="patch_5">
    <path d="M 252 833.04 
L 962.181818 833.04 
" style="fill:none;stroke:#000000;stroke-linecap:square;stroke-linejoin:miter;stroke-width:0.8;"/>
   </g>
   <g id="patch_6">
    <path d="M 252 112.32 
L 962.181818 112.32 
" style="fill:none;stroke:#000000;stroke-linecap:square;stroke-linejoin:miter;stroke-width:0.8;"/>
   </g>
   <g id="text_20">
    <!-- Saturation for updraft velocity=2m/s -->
    <defs>
     <path d="M 53.515625 70.515625 
L 53.515625 60.890625 
Q 47.90625 63.578125 42.921875 64.890625 
Q 37.9375 66.21875 33.296875 66.21875 
Q 25.25 66.21875 20.875 63.09375 
Q 16.5 59.96875 16.5 54.203125 
Q 16.5 49.359375 19.40625 46.890625 
Q 22.3125 44.4375 30.421875 42.921875 
L 36.375 41.703125 
Q 47.40625 39.59375 52.65625 34.296875 
Q 57.90625 29 57.90625 20.125 
Q 57.90625 9.515625 50.796875 4.046875 
Q 43.703125 -1.421875 29.984375 -1.421875 
Q 24.8125 -1.421875 18.96875 -0.25 
Q 13.140625 0.921875 6.890625 3.21875 
L 6.890625 13.375 
Q 12.890625 10.015625 18.65625 8.296875 
Q 24.421875 6.59375 29.984375 6.59375 
Q 38.421875 6.59375 43.015625 9.90625 
Q 47.609375 13.234375 47.609375 19.390625 
Q 47.609375 24.75 44.3125 27.78125 
Q 41.015625 30.8125 33.5 32.328125 
L 27.484375 33.5 
Q 16.453125 35.6875 11.515625 40.375 
Q 6.59375 45.0625 6.59375 53.421875 
Q 6.59375 63.09375 13.40625 68.65625 
Q 20.21875 74.21875 32.171875 74.21875 
Q 37.3125 74.21875 42.625 73.28125 
Q 47.953125 72.359375 53.515625 70.515625 
z
" id="DejaVuSans-53"/>
     <path d="M 34.28125 27.484375 
Q 23.390625 27.484375 19.1875 25 
Q 14.984375 22.515625 14.984375 16.5 
Q 14.984375 11.71875 18.140625 8.90625 
Q 21.296875 6.109375 26.703125 6.109375 
Q 34.1875 6.109375 38.703125 11.40625 
Q 43.21875 16.703125 43.21875 25.484375 
L 43.21875 27.484375 
z
M 52.203125 31.203125 
L 52.203125 0 
L 43.21875 0 
L 43.21875 8.296875 
Q 40.140625 3.328125 35.546875 0.953125 
Q 30.953125 -1.421875 24.3125 -1.421875 
Q 15.921875 -1.421875 10.953125 3.296875 
Q 6 8.015625 6 15.921875 
Q 6 25.140625 12.171875 29.828125 
Q 18.359375 34.515625 30.609375 34.515625 
L 43.21875 34.515625 
L 43.21875 35.40625 
Q 43.21875 41.609375 39.140625 45 
Q 35.0625 48.390625 27.6875 48.390625 
Q 23 48.390625 18.546875 47.265625 
Q 14.109375 46.140625 10.015625 43.890625 
L 10.015625 52.203125 
Q 14.9375 54.109375 19.578125 55.046875 
Q 24.21875 56 28.609375 56 
Q 40.484375 56 46.34375 49.84375 
Q 52.203125 43.703125 52.203125 31.203125 
z
" id="DejaVuSans-61"/>
     <path d="M 18.3125 70.21875 
L 18.3125 54.6875 
L 36.8125 54.6875 
L 36.8125 47.703125 
L 18.3125 47.703125 
L 18.3125 18.015625 
Q 18.3125 11.328125 20.140625 9.421875 
Q 21.96875 7.515625 27.59375 7.515625 
L 36.8125 7.515625 
L 36.8125 0 
L 27.59375 0 
Q 17.1875 0 13.234375 3.875 
Q 9.28125 7.765625 9.28125 18.015625 
L 9.28125 47.703125 
L 2.6875 47.703125 
L 2.6875 54.6875 
L 9.28125 54.6875 
L 9.28125 70.21875 
z
" id="DejaVuSans-74"/>
     <path d="M 8.5 21.578125 
L 8.5 54.6875 
L 17.484375 54.6875 
L 17.484375 21.921875 
Q 17.484375 14.15625 20.5 10.265625 
Q 23.53125 6.390625 29.59375 6.390625 
Q 36.859375 6.390625 41.078125 11.03125 
Q 45.3125 15.671875 45.3125 23.6875 
L 45.3125 54.6875 
L 54.296875 54.6875 
L 54.296875 0 
L 45.3125 0 
L 45.3125 8.40625 
Q 42.046875 3.421875 37.71875 1 
Q 33.40625 -1.421875 27.6875 -1.421875 
Q 18.265625 -1.421875 13.375 4.4375 
Q 8.5 10.296875 8.5 21.578125 
z
M 31.109375 56 
z
" id="DejaVuSans-75"/>
     <path d="M 41.109375 46.296875 
Q 39.59375 47.171875 37.8125 47.578125 
Q 36.03125 48 33.890625 48 
Q 26.265625 48 22.1875 43.046875 
Q 18.109375 38.09375 18.109375 28.8125 
L 18.109375 0 
L 9.078125 0 
L 9.078125 54.6875 
L 18.109375 54.6875 
L 18.109375 46.1875 
Q 20.953125 51.171875 25.484375 53.578125 
Q 30.03125 56 36.53125 56 
Q 37.453125 56 38.578125 55.875 
Q 39.703125 55.765625 41.0625 55.515625 
z
" id="DejaVuSans-72"/>
     <path d="M 9.421875 54.6875 
L 18.40625 54.6875 
L 18.40625 0 
L 9.421875 0 
z
M 9.421875 75.984375 
L 18.40625 75.984375 
L 18.40625 64.59375 
L 9.421875 64.59375 
z
" id="DejaVuSans-69"/>
     <path d="M 30.609375 48.390625 
Q 23.390625 48.390625 19.1875 42.75 
Q 14.984375 37.109375 14.984375 27.296875 
Q 14.984375 17.484375 19.15625 11.84375 
Q 23.34375 6.203125 30.609375 6.203125 
Q 37.796875 6.203125 41.984375 11.859375 
Q 46.1875 17.53125 46.1875 27.296875 
Q 46.1875 37.015625 41.984375 42.703125 
Q 37.796875 48.390625 30.609375 48.390625 
z
M 30.609375 56 
Q 42.328125 56 49.015625 48.375 
Q 55.71875 40.765625 55.71875 27.296875 
Q 55.71875 13.875 49.015625 6.21875 
Q 42.328125 -1.421875 30.609375 -1.421875 
Q 18.84375 -1.421875 12.171875 6.21875 
Q 5.515625 13.875 5.515625 27.296875 
Q 5.515625 40.765625 12.171875 48.375 
Q 18.84375 56 30.609375 56 
z
" id="DejaVuSans-6f"/>
     <path d="M 54.890625 33.015625 
L 54.890625 0 
L 45.90625 0 
L 45.90625 32.71875 
Q 45.90625 40.484375 42.875 44.328125 
Q 39.84375 48.1875 33.796875 48.1875 
Q 26.515625 48.1875 22.3125 43.546875 
Q 18.109375 38.921875 18.109375 30.90625 
L 18.109375 0 
L 9.078125 0 
L 9.078125 54.6875 
L 18.109375 54.6875 
L 18.109375 46.1875 
Q 21.34375 51.125 25.703125 53.5625 
Q 30.078125 56 35.796875 56 
Q 45.21875 56 50.046875 50.171875 
Q 54.890625 44.34375 54.890625 33.015625 
z
" id="DejaVuSans-6e"/>
     <path d="M 37.109375 75.984375 
L 37.109375 68.5 
L 28.515625 68.5 
Q 23.6875 68.5 21.796875 66.546875 
Q 19.921875 64.59375 19.921875 59.515625 
L 19.921875 54.6875 
L 34.71875 54.6875 
L 34.71875 47.703125 
L 19.921875 47.703125 
L 19.921875 0 
L 10.890625 0 
L 10.890625 47.703125 
L 2.296875 47.703125 
L 2.296875 54.6875 
L 10.890625 54.6875 
L 10.890625 58.5 
Q 10.890625 67.625 15.140625 71.796875 
Q 19.390625 75.984375 28.609375 75.984375 
z
" id="DejaVuSans-66"/>
     <path d="M 18.109375 8.203125 
L 18.109375 -20.796875 
L 9.078125 -20.796875 
L 9.078125 54.6875 
L 18.109375 54.6875 
L 18.109375 46.390625 
Q 20.953125 51.265625 25.265625 53.625 
Q 29.59375 56 35.59375 56 
Q 45.5625 56 51.78125 48.09375 
Q 58.015625 40.1875 58.015625 27.296875 
Q 58.015625 14.40625 51.78125 6.484375 
Q 45.5625 -1.421875 35.59375 -1.421875 
Q 29.59375 -1.421875 25.265625 0.953125 
Q 20.953125 3.328125 18.109375 8.203125 
z
M 48.6875 27.296875 
Q 48.6875 37.203125 44.609375 42.84375 
Q 40.53125 48.484375 33.40625 48.484375 
Q 26.265625 48.484375 22.1875 42.84375 
Q 18.109375 37.203125 18.109375 27.296875 
Q 18.109375 17.390625 22.1875 11.75 
Q 26.265625 6.109375 33.40625 6.109375 
Q 40.53125 6.109375 44.609375 11.75 
Q 48.6875 17.390625 48.6875 27.296875 
z
" id="DejaVuSans-70"/>
     <path d="M 45.40625 46.390625 
L 45.40625 75.984375 
L 54.390625 75.984375 
L 54.390625 0 
L 45.40625 0 
L 45.40625 8.203125 
Q 42.578125 3.328125 38.25 0.953125 
Q 33.9375 -1.421875 27.875 -1.421875 
Q 17.96875 -1.421875 11.734375 6.484375 
Q 5.515625 14.40625 5.515625 27.296875 
Q 5.515625 40.1875 11.734375 48.09375 
Q 17.96875 56 27.875 56 
Q 33.9375 56 38.25 53.625 
Q 42.578125 51.265625 45.40625 46.390625 
z
M 14.796875 27.296875 
Q 14.796875 17.390625 18.875 11.75 
Q 22.953125 6.109375 30.078125 6.109375 
Q 37.203125 6.109375 41.296875 11.75 
Q 45.40625 17.390625 45.40625 27.296875 
Q 45.40625 37.203125 41.296875 42.84375 
Q 37.203125 48.484375 30.078125 48.484375 
Q 22.953125 48.484375 18.875 42.84375 
Q 14.796875 37.203125 14.796875 27.296875 
z
" id="DejaVuSans-64"/>
     <path d="M 2.984375 54.6875 
L 12.5 54.6875 
L 29.59375 8.796875 
L 46.6875 54.6875 
L 56.203125 54.6875 
L 35.6875 0 
L 23.484375 0 
z
" id="DejaVuSans-76"/>
     <path d="M 56.203125 29.59375 
L 56.203125 25.203125 
L 14.890625 25.203125 
Q 15.484375 15.921875 20.484375 11.0625 
Q 25.484375 6.203125 34.421875 6.203125 
Q 39.59375 6.203125 44.453125 7.46875 
Q 49.3125 8.734375 54.109375 11.28125 
L 54.109375 2.78125 
Q 49.265625 0.734375 44.1875 -0.34375 
Q 39.109375 -1.421875 33.890625 -1.421875 
Q 20.796875 -1.421875 13.15625 6.1875 
Q 5.515625 13.8125 5.515625 26.8125 
Q 5.515625 40.234375 12.765625 48.109375 
Q 20.015625 56 32.328125 56 
Q 43.359375 56 49.78125 48.890625 
Q 56.203125 41.796875 56.203125 29.59375 
z
M 47.21875 32.234375 
Q 47.125 39.59375 43.09375 43.984375 
Q 39.0625 48.390625 32.421875 48.390625 
Q 24.90625 48.390625 20.390625 44.140625 
Q 15.875 39.890625 15.1875 32.171875 
z
" id="DejaVuSans-65"/>
     <path d="M 9.421875 75.984375 
L 18.40625 75.984375 
L 18.40625 0 
L 9.421875 0 
z
" id="DejaVuSans-6c"/>
     <path d="M 48.78125 52.59375 
L 48.78125 44.1875 
Q 44.96875 46.296875 41.140625 47.34375 
Q 37.3125 48.390625 33.40625 48.390625 
Q 24.65625 48.390625 19.8125 42.84375 
Q 14.984375 37.3125 14.984375 27.296875 
Q 14.984375 17.28125 19.8125 11.734375 
Q 24.65625 6.203125 33.40625 6.203125 
Q 37.3125 6.203125 41.140625 7.25 
Q 44.96875 8.296875 48.78125 10.40625 
L 48.78125 2.09375 
Q 45.015625 0.34375 40.984375 -0.53125 
Q 36.96875 -1.421875 32.421875 -1.421875 
Q 20.0625 -1.421875 12.78125 6.34375 
Q 5.515625 14.109375 5.515625 27.296875 
Q 5.515625 40.671875 12.859375 48.328125 
Q 20.21875 56 33.015625 56 
Q 37.15625 56 41.109375 55.140625 
Q 45.0625 54.296875 48.78125 52.59375 
z
" id="DejaVuSans-63"/>
     <path d="M 32.171875 -5.078125 
Q 28.375 -14.84375 24.75 -17.8125 
Q 21.140625 -20.796875 15.09375 -20.796875 
L 7.90625 -20.796875 
L 7.90625 -13.28125 
L 13.1875 -13.28125 
Q 16.890625 -13.28125 18.9375 -11.515625 
Q 21 -9.765625 23.484375 -3.21875 
L 25.09375 0.875 
L 2.984375 54.6875 
L 12.5 54.6875 
L 29.59375 11.921875 
L 46.6875 54.6875 
L 56.203125 54.6875 
z
" id="DejaVuSans-79"/>
     <path d="M 10.59375 45.40625 
L 73.1875 45.40625 
L 73.1875 37.203125 
L 10.59375 37.203125 
z
M 10.59375 25.484375 
L 73.1875 25.484375 
L 73.1875 17.1875 
L 10.59375 17.1875 
z
" id="DejaVuSans-3d"/>
     <path d="M 25.390625 72.90625 
L 33.6875 72.90625 
L 8.296875 -9.28125 
L 0 -9.28125 
z
" id="DejaVuSans-2f"/>
     <path d="M 44.28125 53.078125 
L 44.28125 44.578125 
Q 40.484375 46.53125 36.375 47.5 
Q 32.28125 48.484375 27.875 48.484375 
Q 21.1875 48.484375 17.84375 46.4375 
Q 14.5 44.390625 14.5 40.28125 
Q 14.5 37.15625 16.890625 35.375 
Q 19.28125 33.59375 26.515625 31.984375 
L 29.59375 31.296875 
Q 39.15625 29.25 43.1875 25.515625 
Q 47.21875 21.78125 47.21875 15.09375 
Q 47.21875 7.46875 41.1875 3.015625 
Q 35.15625 -1.421875 24.609375 -1.421875 
Q 20.21875 -1.421875 15.453125 -0.5625 
Q 10.6875 0.296875 5.421875 2 
L 5.421875 11.28125 
Q 10.40625 8.6875 15.234375 7.390625 
Q 20.0625 6.109375 24.8125 6.109375 
Q 31.15625 6.109375 34.5625 8.28125 
Q 37.984375 10.453125 37.984375 14.40625 
Q 37.984375 18.0625 35.515625 20.015625 
Q 33.0625 21.96875 24.703125 23.78125 
L 21.578125 24.515625 
Q 13.234375 26.265625 9.515625 29.90625 
Q 5.8125 33.546875 5.8125 39.890625 
Q 5.8125 47.609375 11.28125 51.796875 
Q 16.75 56 26.8125 56 
Q 31.78125 56 36.171875 55.265625 
Q 40.578125 54.546875 44.28125 53.078125 
z
" id="DejaVuSans-73"/>
    </defs>
    <g transform="translate(408.078972 106.32)scale(0.216 -0.216)">
     <use xlink:href="#DejaVuSans-53"/>
     <use x="63.476562" xlink:href="#DejaVuSans-61"/>
     <use x="124.755859" xlink:href="#DejaVuSans-74"/>
     <use x="163.964844" xlink:href="#DejaVuSans-75"/>
     <use x="227.34375" xlink:href="#DejaVuSans-72"/>
     <use x="268.457031" xlink:href="#DejaVuSans-61"/>
     <use x="329.736328" xlink:href="#DejaVuSans-74"/>
     <use x="368.945312" xlink:href="#DejaVuSans-69"/>
     <use x="396.728516" xlink:href="#DejaVuSans-6f"/>
     <use x="457.910156" xlink:href="#DejaVuSans-6e"/>
     <use x="521.289062" xlink:href="#DejaVuSans-20"/>
     <use x="553.076172" xlink:href="#DejaVuSans-66"/>
     <use x="588.28125" xlink:href="#DejaVuSans-6f"/>
     <use x="649.462891" xlink:href="#DejaVuSans-72"/>
     <use x="690.576172" xlink:href="#DejaVuSans-20"/>
     <use x="722.363281" xlink:href="#DejaVuSans-75"/>
     <use x="785.742188" xlink:href="#DejaVuSans-70"/>
     <use x="849.21875" xlink:href="#DejaVuSans-64"/>
     <use x="912.695312" xlink:href="#DejaVuSans-72"/>
     <use x="953.808594" xlink:href="#DejaVuSans-61"/>
     <use x="1015.087891" xlink:href="#DejaVuSans-66"/>
     <use x="1050.277344" xlink:href="#DejaVuSans-74"/>
     <use x="1089.486328" xlink:href="#DejaVuSans-20"/>
     <use x="1121.273438" xlink:href="#DejaVuSans-76"/>
     <use x="1180.453125" xlink:href="#DejaVuSans-65"/>
     <use x="1241.976562" xlink:href="#DejaVuSans-6c"/>
     <use x="1269.759766" xlink:href="#DejaVuSans-6f"/>
     <use x="1330.941406" xlink:href="#DejaVuSans-63"/>
     <use x="1385.921875" xlink:href="#DejaVuSans-69"/>
     <use x="1413.705078" xlink:href="#DejaVuSans-74"/>
     <use x="1452.914062" xlink:href="#DejaVuSans-79"/>
     <use x="1512.09375" xlink:href="#DejaVuSans-3d"/>
     <use x="1595.882812" xlink:href="#DejaVuSans-32"/>
     <use x="1659.505859" xlink:href="#DejaVuSans-6d"/>
     <use x="1756.917969" xlink:href="#DejaVuSans-2f"/>
     <use x="1790.609375" xlink:href="#DejaVuSans-73"/>
    </g>
   </g>
   <g id="legend_1">
    <g id="patch_7">
     <path d="M 869.076818 232.4025 
L 949.581818 232.4025 
Q 953.181818 232.4025 953.181818 228.8025 
L 953.181818 124.92 
Q 953.181818 121.32 949.581818 121.32 
L 869.076818 121.32 
Q 865.476818 121.32 865.476818 124.92 
L 865.476818 228.8025 
Q 865.476818 232.4025 869.076818 232.4025 
z
" style="fill:#ffffff;opacity:0.8;stroke:#cccccc;stroke-linejoin:miter;"/>
    </g>
    <g id="line2d_22">
     <path d="M 872.676818 135.897188 
L 908.676818 135.897188 
" style="fill:none;stroke:#1f77b4;stroke-linecap:square;stroke-width:1.5;"/>
    </g>
    <g id="line2d_23"/>
    <g id="text_21">
     <!-- 1 -->
     <g transform="translate(923.076818 142.197188)scale(0.18 -0.18)">
      <use xlink:href="#DejaVuSans-31"/>
     </g>
    </g>
    <g id="line2d_24">
     <path d="M 872.676818 162.317813 
L 908.676818 162.317813 
" style="fill:none;stroke:#ff7f0e;stroke-linecap:square;stroke-width:1.5;"/>
    </g>
    <g id="line2d_25"/>
    <g id="text_22">
     <!-- 2 -->
     <g transform="translate(923.076818 168.617813)scale(0.18 -0.18)">
      <use xlink:href="#DejaVuSans-32"/>
     </g>
    </g>
    <g id="line2d_26">
     <path d="M 872.676818 188.738437 
L 908.676818 188.738437 
" style="fill:none;stroke:#2ca02c;stroke-linecap:square;stroke-width:1.5;"/>
    </g>
    <g id="line2d_27"/>
    <g id="text_23">
     <!-- 5 -->
     <g transform="translate(923.076818 195.038437)scale(0.18 -0.18)">
      <use xlink:href="#DejaVuSans-35"/>
     </g>
    </g>
    <g id="line2d_28">
     <path d="M 872.676818 215.159063 
L 908.676818 215.159063 
" style="fill:none;stroke:#d62728;stroke-linecap:square;stroke-width:1.5;"/>
    </g>
    <g id="line2d_29"/>
    <g id="text_24">
     <!-- 10 -->
     <g transform="translate(923.076818 221.459063)scale(0.18 -0.18)">
      <use xlink:href="#DejaVuSans-31"/>
      <use x="63.623047" xlink:href="#DejaVuSans-30"/>
     </g>
    </g>
   </g>
  </g>
  <g id="axes_2">
   <g id="patch_8">
    <path d="M 1104.218182 833.04 
L 1814.4 833.04 
L 1814.4 112.32 
L 1104.218182 112.32 
z
" style="fill:#ffffff;"/>
   </g>
   <g id="matplotlib.axis_3">
    <g id="xtick_9">
     <g id="line2d_30">
      <g>
       <use style="stroke:#000000;stroke-width:0.8;" x="1135.971395" xlink:href="#m43e51792ae" y="833.04"/>
      </g>
     </g>
     <g id="text_25">
      <!-- 0.0 -->
      <g transform="translate(1121.658583 853.717188)scale(0.18 -0.18)">
       <use xlink:href="#DejaVuSans-30"/>
       <use x="63.623047" xlink:href="#DejaVuSans-2e"/>
       <use x="95.410156" xlink:href="#DejaVuSans-30"/>
      </g>
     </g>
    </g>
    <g id="xtick_10">
     <g id="line2d_31">
      <g>
       <use style="stroke:#000000;stroke-width:0.8;" x="1250.765717" xlink:href="#m43e51792ae" y="833.04"/>
      </g>
     </g>
     <g id="text_26">
      <!-- 0.2 -->
      <g transform="translate(1236.452904 853.717188)scale(0.18 -0.18)">
       <use xlink:href="#DejaVuSans-30"/>
       <use x="63.623047" xlink:href="#DejaVuSans-2e"/>
       <use x="95.410156" xlink:href="#DejaVuSans-32"/>
      </g>
     </g>
    </g>
    <g id="xtick_11">
     <g id="line2d_32">
      <g>
       <use style="stroke:#000000;stroke-width:0.8;" x="1365.560038" xlink:href="#m43e51792ae" y="833.04"/>
      </g>
     </g>
     <g id="text_27">
      <!-- 0.4 -->
      <defs>
       <path d="M 37.796875 64.3125 
L 12.890625 25.390625 
L 37.796875 25.390625 
z
M 35.203125 72.90625 
L 47.609375 72.90625 
L 47.609375 25.390625 
L 58.015625 25.390625 
L 58.015625 17.1875 
L 47.609375 17.1875 
L 47.609375 0 
L 37.796875 0 
L 37.796875 17.1875 
L 4.890625 17.1875 
L 4.890625 26.703125 
z
" id="DejaVuSans-34"/>
      </defs>
      <g transform="translate(1351.247226 853.717188)scale(0.18 -0.18)">
       <use xlink:href="#DejaVuSans-30"/>
       <use x="63.623047" xlink:href="#DejaVuSans-2e"/>
       <use x="95.410156" xlink:href="#DejaVuSans-34"/>
      </g>
     </g>
    </g>
    <g id="xtick_12">
     <g id="line2d_33">
      <g>
       <use style="stroke:#000000;stroke-width:0.8;" x="1480.35436" xlink:href="#m43e51792ae" y="833.04"/>
      </g>
     </g>
     <g id="text_28">
      <!-- 0.6 -->
      <defs>
       <path d="M 33.015625 40.375 
Q 26.375 40.375 22.484375 35.828125 
Q 18.609375 31.296875 18.609375 23.390625 
Q 18.609375 15.53125 22.484375 10.953125 
Q 26.375 6.390625 33.015625 6.390625 
Q 39.65625 6.390625 43.53125 10.953125 
Q 47.40625 15.53125 47.40625 23.390625 
Q 47.40625 31.296875 43.53125 35.828125 
Q 39.65625 40.375 33.015625 40.375 
z
M 52.59375 71.296875 
L 52.59375 62.3125 
Q 48.875 64.0625 45.09375 64.984375 
Q 41.3125 65.921875 37.59375 65.921875 
Q 27.828125 65.921875 22.671875 59.328125 
Q 17.53125 52.734375 16.796875 39.40625 
Q 19.671875 43.65625 24.015625 45.921875 
Q 28.375 48.1875 33.59375 48.1875 
Q 44.578125 48.1875 50.953125 41.515625 
Q 57.328125 34.859375 57.328125 23.390625 
Q 57.328125 12.15625 50.6875 5.359375 
Q 44.046875 -1.421875 33.015625 -1.421875 
Q 20.359375 -1.421875 13.671875 8.265625 
Q 6.984375 17.96875 6.984375 36.375 
Q 6.984375 53.65625 15.1875 63.9375 
Q 23.390625 74.21875 37.203125 74.21875 
Q 40.921875 74.21875 44.703125 73.484375 
Q 48.484375 72.75 52.59375 71.296875 
z
" id="DejaVuSans-36"/>
      </defs>
      <g transform="translate(1466.041547 853.717188)scale(0.18 -0.18)">
       <use xlink:href="#DejaVuSans-30"/>
       <use x="63.623047" xlink:href="#DejaVuSans-2e"/>
       <use x="95.410156" xlink:href="#DejaVuSans-36"/>
      </g>
     </g>
    </g>
    <g id="xtick_13">
     <g id="line2d_34">
      <g>
       <use style="stroke:#000000;stroke-width:0.8;" x="1595.148681" xlink:href="#m43e51792ae" y="833.04"/>
      </g>
     </g>
     <g id="text_29">
      <!-- 0.8 -->
      <g transform="translate(1580.835869 853.717188)scale(0.18 -0.18)">
       <use xlink:href="#DejaVuSans-30"/>
       <use x="63.623047" xlink:href="#DejaVuSans-2e"/>
       <use x="95.410156" xlink:href="#DejaVuSans-38"/>
      </g>
     </g>
    </g>
    <g id="xtick_14">
     <g id="line2d_35">
      <g>
       <use style="stroke:#000000;stroke-width:0.8;" x="1709.943003" xlink:href="#m43e51792ae" y="833.04"/>
      </g>
     </g>
     <g id="text_30">
      <!-- 1.0 -->
      <g transform="translate(1695.63019 853.717188)scale(0.18 -0.18)">
       <use xlink:href="#DejaVuSans-31"/>
       <use x="63.623047" xlink:href="#DejaVuSans-2e"/>
       <use x="95.410156" xlink:href="#DejaVuSans-30"/>
      </g>
     </g>
    </g>
    <g id="text_31">
     <!-- Moment 0 -->
     <defs>
      <path d="M 9.8125 72.90625 
L 24.515625 72.90625 
L 43.109375 23.296875 
L 61.8125 72.90625 
L 76.515625 72.90625 
L 76.515625 0 
L 66.890625 0 
L 66.890625 64.015625 
L 48.09375 14.015625 
L 38.1875 14.015625 
L 19.390625 64.015625 
L 19.390625 0 
L 9.8125 0 
z
" id="DejaVuSans-4d"/>
     </defs>
     <g transform="translate(1413.913935 875.137812)scale(0.18 -0.18)">
      <use xlink:href="#DejaVuSans-4d"/>
      <use x="86.279297" xlink:href="#DejaVuSans-6f"/>
      <use x="147.460938" xlink:href="#DejaVuSans-6d"/>
      <use x="244.873047" xlink:href="#DejaVuSans-65"/>
      <use x="306.396484" xlink:href="#DejaVuSans-6e"/>
      <use x="369.775391" xlink:href="#DejaVuSans-74"/>
      <use x="408.984375" xlink:href="#DejaVuSans-20"/>
      <use x="440.771484" xlink:href="#DejaVuSans-30"/>
     </g>
    </g>
    <g id="text_32">
     <!-- 1e8 -->
     <g transform="translate(1780.419375 874.137812)scale(0.18 -0.18)">
      <use xlink:href="#DejaVuSans-31"/>
      <use x="63.623047" xlink:href="#DejaVuSans-65"/>
      <use x="125.146484" xlink:href="#DejaVuSans-38"/>
     </g>
    </g>
   </g>
   <g id="matplotlib.axis_4">
    <g id="ytick_10">
     <g id="line2d_36">
      <g>
       <use style="stroke:#000000;stroke-width:0.8;" x="1104.218182" xlink:href="#md6756bf69b" y="800.28"/>
      </g>
     </g>
     <g id="text_33">
      <!-- 0 -->
      <g transform="translate(1085.765682 807.118594)scale(0.18 -0.18)">
       <use xlink:href="#DejaVuSans-30"/>
      </g>
     </g>
    </g>
    <g id="ytick_11">
     <g id="line2d_37">
      <g>
       <use style="stroke:#000000;stroke-width:0.8;" x="1104.218182" xlink:href="#md6756bf69b" y="718.38"/>
      </g>
     </g>
     <g id="text_34">
      <!-- 25 -->
      <g transform="translate(1074.313182 725.218594)scale(0.18 -0.18)">
       <use xlink:href="#DejaVuSans-32"/>
       <use x="63.623047" xlink:href="#DejaVuSans-35"/>
      </g>
     </g>
    </g>
    <g id="ytick_12">
     <g id="line2d_38">
      <g>
       <use style="stroke:#000000;stroke-width:0.8;" x="1104.218182" xlink:href="#md6756bf69b" y="636.48"/>
      </g>
     </g>
     <g id="text_35">
      <!-- 50 -->
      <g transform="translate(1074.313182 643.318594)scale(0.18 -0.18)">
       <use xlink:href="#DejaVuSans-35"/>
       <use x="63.623047" xlink:href="#DejaVuSans-30"/>
      </g>
     </g>
    </g>
    <g id="ytick_13">
     <g id="line2d_39">
      <g>
       <use style="stroke:#000000;stroke-width:0.8;" x="1104.218182" xlink:href="#md6756bf69b" y="554.58"/>
      </g>
     </g>
     <g id="text_36">
      <!-- 75 -->
      <g transform="translate(1074.313182 561.418594)scale(0.18 -0.18)">
       <use xlink:href="#DejaVuSans-37"/>
       <use x="63.623047" xlink:href="#DejaVuSans-35"/>
      </g>
     </g>
    </g>
    <g id="ytick_14">
     <g id="line2d_40">
      <g>
       <use style="stroke:#000000;stroke-width:0.8;" x="1104.218182" xlink:href="#md6756bf69b" y="472.68"/>
      </g>
     </g>
     <g id="text_37">
      <!-- 100 -->
      <g transform="translate(1062.860682 479.518594)scale(0.18 -0.18)">
       <use xlink:href="#DejaVuSans-31"/>
       <use x="63.623047" xlink:href="#DejaVuSans-30"/>
       <use x="127.246094" xlink:href="#DejaVuSans-30"/>
      </g>
     </g>
    </g>
    <g id="ytick_15">
     <g id="line2d_41">
      <g>
       <use style="stroke:#000000;stroke-width:0.8;" x="1104.218182" xlink:href="#md6756bf69b" y="390.78"/>
      </g>
     </g>
     <g id="text_38">
      <!-- 125 -->
      <g transform="translate(1062.860682 397.618594)scale(0.18 -0.18)">
       <use xlink:href="#DejaVuSans-31"/>
       <use x="63.623047" xlink:href="#DejaVuSans-32"/>
       <use x="127.246094" xlink:href="#DejaVuSans-35"/>
      </g>
     </g>
    </g>
    <g id="ytick_16">
     <g id="line2d_42">
      <g>
       <use style="stroke:#000000;stroke-width:0.8;" x="1104.218182" xlink:href="#md6756bf69b" y="308.88"/>
      </g>
     </g>
     <g id="text_39">
      <!-- 150 -->
      <g transform="translate(1062.860682 315.718594)scale(0.18 -0.18)">
       <use xlink:href="#DejaVuSans-31"/>
       <use x="63.623047" xlink:href="#DejaVuSans-35"/>
       <use x="127.246094" xlink:href="#DejaVuSans-30"/>
      </g>
     </g>
    </g>
    <g id="ytick_17">
     <g id="line2d_43">
      <g>
       <use style="stroke:#000000;stroke-width:0.8;" x="1104.218182" xlink:href="#md6756bf69b" y="226.98"/>
      </g>
     </g>
     <g id="text_40">
      <!-- 175 -->
      <g transform="translate(1062.860682 233.818594)scale(0.18 -0.18)">
       <use xlink:href="#DejaVuSans-31"/>
       <use x="63.623047" xlink:href="#DejaVuSans-37"/>
       <use x="127.246094" xlink:href="#DejaVuSans-35"/>
      </g>
     </g>
    </g>
    <g id="ytick_18">
     <g id="line2d_44">
      <g>
       <use style="stroke:#000000;stroke-width:0.8;" x="1104.218182" xlink:href="#md6756bf69b" y="145.08"/>
      </g>
     </g>
     <g id="text_41">
      <!-- 200 -->
      <g transform="translate(1062.860682 151.918594)scale(0.18 -0.18)">
       <use xlink:href="#DejaVuSans-32"/>
       <use x="63.623047" xlink:href="#DejaVuSans-30"/>
       <use x="127.246094" xlink:href="#DejaVuSans-30"/>
      </g>
     </g>
    </g>
    <g id="text_42">
     <!-- Z [m]] -->
     <g transform="translate(1055.117244 501.006094)rotate(-90)scale(0.18 -0.18)">
      <use xlink:href="#DejaVuSans-5a"/>
      <use x="68.505859" xlink:href="#DejaVuSans-20"/>
      <use x="100.292969" xlink:href="#DejaVuSans-5b"/>
      <use x="139.306641" xlink:href="#DejaVuSans-6d"/>
      <use x="236.71875" xlink:href="#DejaVuSans-5d"/>
      <use x="275.732422" xlink:href="#DejaVuSans-5d"/>
     </g>
    </g>
   </g>
   <g id="line2d_45">
    <path clip-path="url(#p7e97c304d5)" d="M 1136.499174 800.28 
L 1137.987585 793.728 
L 1138.243106 787.176 
L 1138.421393 780.624 
L 1138.621336 774.072 
L 1138.845351 767.52 
L 1139.102169 760.968 
L 1139.396135 754.416 
L 1139.73227 747.864 
L 1140.130864 741.312 
L 1140.60194 734.76 
L 1141.157125 728.208 
L 1141.838487 721.656 
L 1142.669753 715.104 
L 1143.713865 708.552 
L 1145.040554 702 
L 1146.797889 695.448 
L 1149.185766 688.896 
L 1152.601023 682.344 
L 1157.697053 675.792 
L 1165.69091 669.24 
L 1178.445656 662.688 
L 1195.648566 656.136 
L 1198.718109 649.584 
L 1205.842847 643.032 
L 1308.102272 636.48 
L 1582.440525 629.928 
L 1645.550976 623.376 
L 1657.407123 616.824 
L 1741.404837 610.272 
L 1775.867711 603.72 
L 1781.078455 597.168 
L 1782.119008 590.616 
L 1782.119008 584.064 
L 1782.119008 577.512 
L 1782.119008 570.96 
L 1782.119008 564.408 
L 1782.119008 557.856 
L 1782.119008 551.304 
L 1782.119008 544.752 
L 1782.119008 538.2 
L 1782.119008 531.648 
L 1782.119008 525.096 
L 1782.119008 518.544 
L 1782.119008 511.992 
L 1782.119008 505.44 
L 1782.119008 498.888 
L 1782.119008 492.336 
L 1782.119008 485.784 
L 1782.119008 479.232 
L 1782.119008 472.68 
L 1782.119008 466.128 
L 1782.119008 459.576 
L 1782.119008 453.024 
L 1782.119008 446.472 
L 1782.119008 439.92 
L 1782.119008 433.368 
L 1782.119008 426.816 
L 1782.119008 420.264 
L 1782.119008 413.712 
L 1782.119008 407.16 
L 1782.119008 400.608 
L 1782.119008 394.056 
L 1782.119008 387.504 
L 1782.119008 380.952 
L 1782.119008 374.4 
L 1782.119008 367.848 
L 1782.119008 361.296 
L 1782.119008 354.744 
L 1782.119008 348.192 
L 1782.119008 341.64 
L 1782.119008 335.088 
L 1782.119008 328.536 
L 1782.119008 321.984 
L 1782.119008 315.432 
L 1782.119008 308.88 
L 1782.119008 302.328 
L 1782.119008 295.776 
L 1782.119008 289.224 
L 1782.119008 282.672 
L 1782.119008 276.12 
L 1782.119008 269.568 
L 1782.119008 263.016 
L 1782.119008 256.464 
L 1782.119008 249.912 
L 1782.119008 243.36 
L 1782.119008 236.808 
L 1782.119008 230.256 
L 1782.119008 223.704 
L 1782.119008 217.152 
L 1782.119008 210.6 
L 1782.119008 204.048 
L 1782.119008 197.496 
L 1782.119008 190.944 
L 1782.119008 184.392 
L 1782.119008 177.84 
L 1782.119008 171.288 
L 1782.119008 164.736 
L 1782.119008 158.184 
L 1782.119008 151.632 
L 1782.119008 145.08 
" style="fill:none;stroke:#1f77b4;stroke-linecap:square;stroke-width:1.5;"/>
   </g>
   <g id="line2d_46">
    <path clip-path="url(#p7e97c304d5)" d="M 1136.499174 800.28 
L 1138.071374 793.728 
L 1138.247652 787.176 
L 1138.421393 780.624 
L 1138.616182 774.072 
L 1138.845351 767.52 
L 1139.102169 760.968 
L 1139.396135 754.416 
L 1139.73227 747.864 
L 1140.130864 741.312 
L 1140.60194 734.76 
L 1141.157125 728.208 
L 1141.838487 721.656 
L 1142.659117 715.104 
L 1143.702052 708.552 
L 1145.027347 702 
L 1146.7681 695.448 
L 1149.135032 688.896 
L 1152.465749 682.344 
L 1157.344324 675.792 
L 1164.808934 669.24 
L 1175.976952 662.688 
L 1189.666686 656.136 
L 1198.971357 649.584 
L 1202.471682 643.032 
L 1204.369864 636.48 
L 1207.325646 629.928 
L 1212.384184 623.376 
L 1249.413112 616.824 
L 1334.657522 610.272 
L 1430.944037 603.72 
L 1460.136043 597.168 
L 1507.146855 590.616 
L 1516.227189 584.064 
L 1516.227189 577.512 
L 1516.227189 570.96 
L 1516.227189 564.408 
L 1516.227189 557.856 
L 1516.227189 551.304 
L 1516.227189 544.752 
L 1516.227189 538.2 
L 1516.227189 531.648 
L 1516.227189 525.096 
L 1516.227189 518.544 
L 1516.227189 511.992 
L 1516.227189 505.44 
L 1516.227189 498.888 
L 1516.227189 492.336 
L 1516.227189 485.784 
L 1516.227189 479.232 
L 1516.227189 472.68 
L 1516.227189 466.128 
L 1516.227189 459.576 
L 1516.227189 453.024 
L 1516.227189 446.472 
L 1516.227189 439.92 
L 1516.227189 433.368 
L 1516.227189 426.816 
L 1516.227189 420.264 
L 1516.227189 413.712 
L 1516.227189 407.16 
L 1516.227189 400.608 
L 1516.227189 394.056 
L 1516.227189 387.504 
L 1516.227189 380.952 
L 1516.227189 374.4 
L 1516.227189 367.848 
L 1516.227189 361.296 
L 1516.227189 354.744 
L 1516.227189 348.192 
L 1516.227189 341.64 
L 1516.227189 335.088 
L 1516.227189 328.536 
L 1516.227189 321.984 
L 1516.227189 315.432 
L 1516.227189 308.88 
L 1516.227189 302.328 
L 1516.227189 295.776 
L 1516.227189 289.224 
L 1516.227189 282.672 
L 1516.227189 276.12 
L 1516.227189 269.568 
L 1516.227189 263.016 
L 1516.227189 256.464 
L 1516.227189 249.912 
L 1516.227189 243.36 
L 1516.227189 236.808 
L 1516.227189 230.256 
L 1516.227189 223.704 
L 1516.227189 217.152 
L 1516.227189 210.6 
L 1516.227189 204.048 
L 1516.227189 197.496 
L 1516.227189 190.944 
L 1516.227189 184.392 
L 1516.227189 177.84 
L 1516.227189 171.288 
L 1516.227189 164.736 
L 1516.227189 158.184 
L 1516.227189 151.632 
L 1516.227189 145.08 
" style="fill:none;stroke:#ff7f0e;stroke-linecap:square;stroke-width:1.5;"/>
   </g>
   <g id="line2d_47">
    <path clip-path="url(#p7e97c304d5)" d="M 1136.499174 800.28 
L 1138.088489 793.728 
L 1138.247652 787.176 
L 1138.421393 780.624 
L 1138.616182 774.072 
L 1138.845351 767.52 
L 1139.096269 760.968 
L 1139.396135 754.416 
L 1139.73227 747.864 
L 1140.130864 741.312 
L 1140.60194 734.76 
L 1141.157125 728.208 
L 1141.828856 721.656 
L 1142.659117 715.104 
L 1143.702052 708.552 
L 1145.027347 702 
L 1146.753234 695.448 
L 1149.101277 688.896 
L 1152.369489 682.344 
L 1157.168901 675.792 
L 1164.321661 669.24 
L 1174.763938 662.688 
L 1187.590332 656.136 
L 1197.699872 649.584 
L 1202.189105 643.032 
L 1204.082298 636.48 
L 1205.334595 629.928 
L 1207.946689 623.376 
L 1215.186032 616.824 
L 1230.083884 610.272 
L 1252.612562 603.72 
L 1281.40241 597.168 
L 1320.284555 590.616 
L 1356.814278 584.064 
L 1391.510098 577.512 
L 1415.414225 570.96 
L 1433.859135 564.408 
L 1446.210229 557.856 
L 1452.743932 551.304 
L 1454.532709 544.752 
L 1454.532709 538.2 
L 1454.532709 531.648 
L 1454.532709 525.096 
L 1454.532709 518.544 
L 1454.532709 511.992 
L 1454.532709 505.44 
L 1454.532709 498.888 
L 1454.532709 492.336 
L 1454.532709 485.784 
L 1454.532709 479.232 
L 1454.532709 472.68 
L 1454.532709 466.128 
L 1454.532709 459.576 
L 1454.532709 453.024 
L 1454.532709 446.472 
L 1454.532709 439.92 
L 1454.532709 433.368 
L 1454.532709 426.816 
L 1454.532709 420.264 
L 1454.532709 413.712 
L 1454.532709 407.16 
L 1454.532709 400.608 
L 1454.532709 394.056 
L 1454.532709 387.504 
L 1454.532709 380.952 
L 1454.532709 374.4 
L 1454.532709 367.848 
L 1454.532709 361.296 
L 1454.532709 354.744 
L 1454.532709 348.192 
L 1454.532709 341.64 
L 1454.532709 335.088 
L 1454.532709 328.536 
L 1454.532709 321.984 
L 1454.532709 315.432 
L 1454.532709 308.88 
L 1454.532709 302.328 
L 1454.532709 295.776 
L 1454.532709 289.224 
L 1454.532709 282.672 
L 1454.532709 276.12 
L 1454.532709 269.568 
L 1454.532709 263.016 
L 1454.532709 256.464 
L 1454.532709 249.912 
L 1454.532709 243.36 
L 1454.532709 236.808 
L 1454.532709 230.256 
L 1454.532709 223.704 
L 1454.532709 217.152 
L 1454.532709 210.6 
L 1454.532709 204.048 
L 1454.532709 197.496 
L 1454.532709 190.944 
L 1454.532709 184.392 
L 1454.532709 177.84 
L 1454.532709 171.288 
L 1454.532709 164.736 
L 1454.532709 158.184 
L 1454.532709 151.632 
L 1454.532709 145.08 
" style="fill:none;stroke:#2ca02c;stroke-linecap:square;stroke-width:1.5;"/>
   </g>
   <g id="line2d_48">
    <path clip-path="url(#p7e97c304d5)" d="M 1136.499174 800.28 
L 1138.088489 793.728 
L 1138.247652 787.176 
L 1138.421393 780.624 
L 1138.616182 774.072 
L 1138.845351 767.52 
L 1139.096269 760.968 
L 1139.396135 754.416 
L 1139.73227 747.864 
L 1140.130864 741.312 
L 1140.60194 734.76 
L 1141.157125 728.208 
L 1141.828856 721.656 
L 1142.659117 715.104 
L 1143.702052 708.552 
L 1145.014157 702 
L 1146.738374 695.448 
L 1149.084425 688.896 
L 1152.350272 682.344 
L 1157.081451 675.792 
L 1164.151605 669.24 
L 1174.391115 662.688 
L 1186.967757 656.136 
L 1197.102873 649.584 
L 1202.123615 643.032 
L 1204.180901 636.48 
L 1205.385254 629.928 
L 1207.989243 623.376 
L 1214.401665 616.824 
L 1228.245946 610.272 
L 1250.561251 603.72 
L 1280.445536 597.168 
L 1315.30953 590.616 
L 1351.455771 584.064 
L 1384.517029 577.512 
L 1412.010372 570.96 
L 1432.108574 564.408 
L 1445.026442 557.856 
L 1452.148367 551.304 
L 1453.936123 544.752 
L 1453.936123 538.2 
L 1453.936123 531.648 
L 1453.936123 525.096 
L 1453.936123 518.544 
L 1453.936123 511.992 
L 1453.936123 505.44 
L 1453.936123 498.888 
L 1453.936123 492.336 
L 1453.936123 485.784 
L 1453.936123 479.232 
L 1453.936123 472.68 
L 1453.936123 466.128 
L 1453.936123 459.576 
L 1453.936123 453.024 
L 1453.936123 446.472 
L 1453.936123 439.92 
L 1453.936123 433.368 
L 1453.936123 426.816 
L 1453.936123 420.264 
L 1453.936123 413.712 
L 1453.936123 407.16 
L 1453.936123 400.608 
L 1453.936123 394.056 
L 1453.936123 387.504 
L 1453.936123 380.952 
L 1453.936123 374.4 
L 1453.936123 367.848 
L 1453.936123 361.296 
L 1453.936123 354.744 
L 1453.936123 348.192 
L 1453.936123 341.64 
L 1453.936123 335.088 
L 1453.936123 328.536 
L 1453.936123 321.984 
L 1453.936123 315.432 
L 1453.936123 308.88 
L 1453.936123 302.328 
L 1453.936123 295.776 
L 1453.936123 289.224 
L 1453.936123 282.672 
L 1453.936123 276.12 
L 1453.936123 269.568 
L 1453.936123 263.016 
L 1453.936123 256.464 
L 1453.936123 249.912 
L 1453.936123 243.36 
L 1453.936123 236.808 
L 1453.936123 230.256 
L 1453.936123 223.704 
L 1453.936123 217.152 
L 1453.936123 210.6 
L 1453.936123 204.048 
L 1453.936123 197.496 
L 1453.936123 190.944 
L 1453.936123 184.392 
L 1453.936123 177.84 
L 1453.936123 171.288 
L 1453.936123 164.736 
L 1453.936123 158.184 
L 1453.936123 151.632 
L 1453.936123 145.08 
" style="fill:none;stroke:#d62728;stroke-linecap:square;stroke-width:1.5;"/>
   </g>
   <g id="patch_9">
    <path d="M 1104.218182 833.04 
L 1104.218182 112.32 
" style="fill:none;stroke:#000000;stroke-linecap:square;stroke-linejoin:miter;stroke-width:0.8;"/>
   </g>
   <g id="patch_10">
    <path d="M 1814.4 833.04 
L 1814.4 112.32 
" style="fill:none;stroke:#000000;stroke-linecap:square;stroke-linejoin:miter;stroke-width:0.8;"/>
   </g>
   <g id="patch_11">
    <path d="M 1104.218182 833.04 
L 1814.4 833.04 
" style="fill:none;stroke:#000000;stroke-linecap:square;stroke-linejoin:miter;stroke-width:0.8;"/>
   </g>
   <g id="patch_12">
    <path d="M 1104.218182 112.32 
L 1814.4 112.32 
" style="fill:none;stroke:#000000;stroke-linecap:square;stroke-linejoin:miter;stroke-width:0.8;"/>
   </g>
   <g id="text_43">
    <!-- 0 moment for updraft velocity=2m/s -->
    <g transform="translate(1260.919841 106.32)scale(0.216 -0.216)">
     <use xlink:href="#DejaVuSans-30"/>
     <use x="63.623047" xlink:href="#DejaVuSans-20"/>
     <use x="95.410156" xlink:href="#DejaVuSans-6d"/>
     <use x="192.822266" xlink:href="#DejaVuSans-6f"/>
     <use x="254.003906" xlink:href="#DejaVuSans-6d"/>
     <use x="351.416016" xlink:href="#DejaVuSans-65"/>
     <use x="412.939453" xlink:href="#DejaVuSans-6e"/>
     <use x="476.318359" xlink:href="#DejaVuSans-74"/>
     <use x="515.527344" xlink:href="#DejaVuSans-20"/>
     <use x="547.314453" xlink:href="#DejaVuSans-66"/>
     <use x="582.519531" xlink:href="#DejaVuSans-6f"/>
     <use x="643.701172" xlink:href="#DejaVuSans-72"/>
     <use x="684.814453" xlink:href="#DejaVuSans-20"/>
     <use x="716.601562" xlink:href="#DejaVuSans-75"/>
     <use x="779.980469" xlink:href="#DejaVuSans-70"/>
     <use x="843.457031" xlink:href="#DejaVuSans-64"/>
     <use x="906.933594" xlink:href="#DejaVuSans-72"/>
     <use x="948.046875" xlink:href="#DejaVuSans-61"/>
     <use x="1009.326172" xlink:href="#DejaVuSans-66"/>
     <use x="1044.515625" xlink:href="#DejaVuSans-74"/>
     <use x="1083.724609" xlink:href="#DejaVuSans-20"/>
     <use x="1115.511719" xlink:href="#DejaVuSans-76"/>
     <use x="1174.691406" xlink:href="#DejaVuSans-65"/>
     <use x="1236.214844" xlink:href="#DejaVuSans-6c"/>
     <use x="1263.998047" xlink:href="#DejaVuSans-6f"/>
     <use x="1325.179688" xlink:href="#DejaVuSans-63"/>
     <use x="1380.160156" xlink:href="#DejaVuSans-69"/>
     <use x="1407.943359" xlink:href="#DejaVuSans-74"/>
     <use x="1447.152344" xlink:href="#DejaVuSans-79"/>
     <use x="1506.332031" xlink:href="#DejaVuSans-3d"/>
     <use x="1590.121094" xlink:href="#DejaVuSans-32"/>
     <use x="1653.744141" xlink:href="#DejaVuSans-6d"/>
     <use x="1751.15625" xlink:href="#DejaVuSans-2f"/>
     <use x="1784.847656" xlink:href="#DejaVuSans-73"/>
    </g>
   </g>
   <g id="legend_2">
    <g id="patch_13">
     <path d="M 1116.818182 232.4025 
L 1197.323182 232.4025 
Q 1200.923182 232.4025 1200.923182 228.8025 
L 1200.923182 124.92 
Q 1200.923182 121.32 1197.323182 121.32 
L 1116.818182 121.32 
Q 1113.218182 121.32 1113.218182 124.92 
L 1113.218182 228.8025 
Q 1113.218182 232.4025 1116.818182 232.4025 
z
" style="fill:#ffffff;opacity:0.8;stroke:#cccccc;stroke-linejoin:miter;"/>
    </g>
    <g id="line2d_49">
     <path d="M 1120.418182 135.897188 
L 1156.418182 135.897188 
" style="fill:none;stroke:#1f77b4;stroke-linecap:square;stroke-width:1.5;"/>
    </g>
    <g id="line2d_50"/>
    <g id="text_44">
     <!-- 1 -->
     <g transform="translate(1170.818182 142.197188)scale(0.18 -0.18)">
      <use xlink:href="#DejaVuSans-31"/>
     </g>
    </g>
    <g id="line2d_51">
     <path d="M 1120.418182 162.317813 
L 1156.418182 162.317813 
" style="fill:none;stroke:#ff7f0e;stroke-linecap:square;stroke-width:1.5;"/>
    </g>
    <g id="line2d_52"/>
    <g id="text_45">
     <!-- 2 -->
     <g transform="translate(1170.818182 168.617813)scale(0.18 -0.18)">
      <use xlink:href="#DejaVuSans-32"/>
     </g>
    </g>
    <g id="line2d_53">
     <path d="M 1120.418182 188.738437 
L 1156.418182 188.738437 
" style="fill:none;stroke:#2ca02c;stroke-linecap:square;stroke-width:1.5;"/>
    </g>
    <g id="line2d_54"/>
    <g id="text_46">
     <!-- 5 -->
     <g transform="translate(1170.818182 195.038437)scale(0.18 -0.18)">
      <use xlink:href="#DejaVuSans-35"/>
     </g>
    </g>
    <g id="line2d_55">
     <path d="M 1120.418182 215.159063 
L 1156.418182 215.159063 
" style="fill:none;stroke:#d62728;stroke-linecap:square;stroke-width:1.5;"/>
    </g>
    <g id="line2d_56"/>
    <g id="text_47">
     <!-- 10 -->
     <g transform="translate(1170.818182 221.459063)scale(0.18 -0.18)">
      <use xlink:href="#DejaVuSans-31"/>
      <use x="63.623047" xlink:href="#DejaVuSans-30"/>
     </g>
    </g>
   </g>
  </g>
 </g>
 <defs>
  <clipPath id="p7219dca210">
   <rect height="720.72" width="710.181818" x="252" y="112.32"/>
  </clipPath>
  <clipPath id="p7e97c304d5">
   <rect height="720.72" width="710.181818" x="1104.218182" y="112.32"/>
  </clipPath>
 </defs>
</svg>
